<svg width="106" height="106" viewBox="0 0 106 106" fill="none" xmlns="http://www.w3.org/2000/svg">
<path fill-rule="evenodd" clip-rule="evenodd" d="M53 91.6457C51.1706 91.6457 49.6875 90.1627 49.6875 88.3332L49.6875 25.6637L28.8423 46.5089C27.5487 47.8025 25.4513 47.8025 24.1577 46.5089C22.8641 45.2153 22.8641 43.1179 24.1577 41.8243L50.6577 15.3243C51.2789 14.7031 52.1215 14.3541 53 14.3541C53.8785 14.3541 54.7211 14.7031 55.3423 15.3243L81.8423 41.8243C83.1359 43.1179 83.1359 45.2153 81.8423 46.5089C80.5487 47.8025 78.4513 47.8025 77.1577 46.5089L56.3125 25.6637L56.3125 88.3333C56.3125 90.1627 54.8294 91.6457 53 91.6457Z" fill="#FD521B"/>
</svg>
