<svg width="76" height="76" viewBox="0 0 76 76" fill="none" xmlns="http://www.w3.org/2000/svg">
<path fill-rule="evenodd" clip-rule="evenodd" d="M38 10.2917C39.3117 10.2917 40.375 11.3551 40.375 12.6667L40.375 57.5997L55.3206 42.654C56.2481 41.7265 57.7519 41.7265 58.6794 42.654C59.6069 43.5815 59.6069 45.0853 58.6794 46.0128L39.6794 65.0128C39.234 65.4582 38.6299 65.7084 38 65.7084C37.3701 65.7084 36.766 65.4582 36.3206 65.0128L17.3206 46.0128C16.3931 45.0853 16.3931 43.5815 17.3206 42.654C18.2481 41.7265 19.7519 41.7265 20.6794 42.654L35.625 57.5997L35.625 12.6667C35.625 11.3551 36.6883 10.2917 38 10.2917Z" fill="#5775CD"/>
</svg>
