<svg width="34" height="34" viewBox="0 0 34 34" fill="none" xmlns="http://www.w3.org/2000/svg">
<path d="M29.7148 17.2623L29.2221 17.1771L29.7148 17.2623ZM28.7153 23.0419L28.2226 22.9567L28.7153 23.0419ZM9.82851 29.0091L9.33037 29.0522L9.82851 29.0091ZM8.67794 15.7028L9.17609 15.6597L8.67794 15.7028ZM19.8262 7.39693L20.3196 7.47777L19.8262 7.39693ZM18.8874 13.1267L19.3808 13.2076L18.8874 13.1267ZM9.48903 13.7097L9.16264 13.3309L9.48903 13.7097ZM11.5272 11.9533L11.8536 12.3321L11.5272 11.9533ZM14.9006 6.77689L14.4166 6.65134V6.65134L14.9006 6.77689ZM15.5745 4.17893L16.0585 4.30447V4.30447L15.5745 4.17893ZM17.9458 2.92442L17.7928 3.40046L17.7928 3.40046L17.9458 2.92442ZM18.1511 2.9904L18.3041 2.51436V2.51436L18.1511 2.9904ZM13.9711 9.15529L14.4121 9.39087L13.9711 9.15529ZM19.6983 4.60058L19.2143 4.72612V4.72613L19.6983 4.60058ZM16.5385 3.02081L16.3214 2.57038L16.3214 2.57038L16.5385 3.02081ZM6.53241 30.3796L7.03055 30.3365C7.02983 30.3282 7.02891 30.32 7.02779 30.3117L6.53241 30.3796ZM4.25 13.7097L4.74538 13.6419C4.71044 13.3867 4.48732 13.1998 4.22994 13.2101C3.97256 13.2204 3.76515 13.4246 3.75078 13.6818L4.25 13.7097ZM3.30556 30.6157L2.80634 30.5878L2.80556 30.6017V30.6157H3.30556ZM3.77778 22.1627L4.277 22.1906L3.77778 22.1627ZM29.2221 17.1771L28.2226 22.9567L29.208 23.1271L30.2075 17.3475L29.2221 17.1771ZM18.7637 30.6666H12.1782V31.6666H18.7637V30.6666ZM10.3267 28.966L9.17609 15.6597L8.1798 15.7459L9.33037 29.0522L10.3267 28.966ZM28.2226 22.9567C27.4555 27.3925 23.4655 30.6666 18.7637 30.6666V31.6666C23.9255 31.6666 28.3535 28.0681 29.208 23.1271L28.2226 22.9567ZM19.3328 7.31609L18.394 13.0459L19.3808 13.2076L20.3196 7.47777L19.3328 7.31609ZM9.81543 14.0885L11.8536 12.3321L11.2009 11.5745L9.16264 13.3309L9.81543 14.0885ZM15.3846 6.90243L16.0585 4.30447L15.0905 4.05338L14.4166 6.65134L15.3846 6.90243ZM17.7928 3.40046L17.9982 3.46644L18.3041 2.51436L18.0987 2.44838L17.7928 3.40046ZM14.4121 9.39087C14.8333 8.60241 15.1601 7.76761 15.3846 6.90243L14.4166 6.65134C14.2122 7.43939 13.9143 8.20037 13.5301 8.91971L14.4121 9.39087ZM17.9982 3.46643C18.6088 3.66258 19.0628 4.14187 19.2143 4.72612L20.1823 4.47503C19.9414 3.54661 19.2283 2.81128 18.3041 2.51436L17.9982 3.46643ZM16.0585 4.30447C16.1509 3.9481 16.4023 3.64142 16.7555 3.47124L16.3214 2.57038C15.7119 2.86406 15.2591 3.40348 15.0905 4.05338L16.0585 4.30447ZM16.7555 3.47124C17.0768 3.3164 17.4506 3.29051 17.7928 3.40046L18.0987 2.44838C17.5133 2.26033 16.8746 2.30379 16.3214 2.57038L16.7555 3.47124ZM20.0511 14.9984H27.3909V13.9984H20.0511V14.9984ZM7.02779 30.3117L4.74538 13.6419L3.75462 13.7775L6.03703 30.4474L7.02779 30.3117ZM6.03427 30.4226C6.0483 30.5849 6.04288 30.8705 5.92121 31.1138C5.81855 31.3191 5.60692 31.5534 5.06053 31.6141L5.17096 32.608C6.04123 32.5113 6.55537 32.0814 6.81559 31.5611C7.05681 31.0788 7.05139 30.5775 7.03055 30.3365L6.03427 30.4226ZM20.3196 7.47777C20.4834 6.47822 20.4366 5.45543 20.1823 4.47503L19.2143 4.72613C19.4337 5.57174 19.474 6.45393 19.3328 7.31609L20.3196 7.47777ZM12.1782 30.6666C11.2144 30.6666 10.4099 29.9285 10.3267 28.966L9.33037 29.0522C9.45822 30.5307 10.6946 31.6666 12.1782 31.6666V30.6666ZM11.8536 12.3321C12.8075 11.5101 13.7777 10.5785 14.4121 9.39087L13.5301 8.91971C12.9876 9.93516 12.1383 10.7667 11.2009 11.5745L11.8536 12.3321ZM30.2075 17.3475C30.5099 15.5989 29.1652 13.9984 27.3909 13.9984V14.9984C28.5434 14.9984 29.419 16.0385 29.2221 17.1771L30.2075 17.3475ZM5.06053 31.6141C4.5361 31.6724 4.24745 31.476 4.07051 31.2538C3.86675 30.998 3.80556 30.6951 3.80556 30.6157H2.80556C2.80556 30.9175 2.94112 31.4409 3.28829 31.8768C3.66227 32.3464 4.27871 32.7071 5.17096 32.608L5.06053 31.6141ZM18.394 13.0459C18.2265 14.0683 19.0145 14.9984 20.0511 14.9984V13.9984C19.6327 13.9984 19.3128 13.6226 19.3808 13.2076L18.394 13.0459ZM9.17609 15.6597C9.12452 15.0634 9.36253 14.4787 9.81543 14.0885L9.16264 13.3309C8.46618 13.9311 8.10058 14.8297 8.1798 15.7459L9.17609 15.6597ZM3.80478 30.6436L4.277 22.1906L3.27856 22.1348L2.80634 30.5878L3.80478 30.6436ZM4.277 22.1906L4.74922 13.7376L3.75078 13.6818L3.27856 22.1348L4.277 22.1906Z" fill="black"/>
</svg>
