<svg width="34" height="34" viewBox="0 0 34 34" fill="none" xmlns="http://www.w3.org/2000/svg">
<path d="M28.7153 23.042L29.7149 17.2623C29.9645 15.8188 28.8544 14.4984 27.391 14.4984H20.0511C19.3236 14.4984 18.7697 13.8455 18.8874 13.1268L19.8262 7.39699C19.9787 6.46614 19.9352 5.51365 19.6983 4.60064C19.5021 3.8443 18.9186 3.23699 18.1512 2.99046L17.9458 2.92448C17.482 2.77548 16.9758 2.81016 16.5385 3.02087C16.0572 3.2528 15.7051 3.67585 15.5745 4.17899L14.9006 6.77695C14.6862 7.60356 14.3739 8.40145 13.9711 9.15535C13.3827 10.2569 12.473 11.1385 11.5273 11.9534L9.48908 13.7098C8.9144 14.205 8.6126 14.9466 8.67799 15.7029L9.82856 29.0092C9.93409 30.2297 10.9545 31.1666 12.1782 31.1666H18.7638C23.6956 31.1666 27.9046 27.7304 28.7153 23.042Z" fill="#FD521B"/>
<path fill-rule="evenodd" clip-rule="evenodd" d="M4.1713 13.3796C4.40741 13.6157 4.48611 14.088 4.72222 14.9537L6.68498 30.3256C6.7734 31.3481 5.96797 32.2294 4.9395 32.2294C3.97076 32.2294 3.1875 31.4435 3.1875 30.4766L3.93519 14.9537C4.09259 14.3241 4.01389 13.6945 4.1713 13.3796Z" fill="#FD521B"/>
<path d="M29.7148 17.2623L29.2221 17.1771L29.2221 17.1771L29.7148 17.2623ZM28.7153 23.042L28.2226 22.9568L28.2226 22.9568L28.7153 23.042ZM9.8285 29.0092L9.33035 29.0522L9.8285 29.0092ZM8.67793 15.7029L9.17607 15.6598L9.17607 15.6598L8.67793 15.7029ZM19.8262 7.39699L20.3196 7.47784L20.3196 7.47784L19.8262 7.39699ZM18.8874 13.1268L19.3808 13.2076L19.3808 13.2076L18.8874 13.1268ZM9.48902 13.7098L9.16262 13.331L9.16262 13.331L9.48902 13.7098ZM11.5272 11.9534L11.8536 12.3321L11.8536 12.3321L11.5272 11.9534ZM14.9006 6.77695L14.4166 6.6514L14.4166 6.6514L14.9006 6.77695ZM15.5745 4.17899L16.0585 4.30453L16.0585 4.30453L15.5745 4.17899ZM17.9457 2.92448L17.7928 3.40052L17.7928 3.40052L17.9457 2.92448ZM18.1511 2.99046L18.304 2.51442L18.304 2.51442L18.1511 2.99046ZM13.9711 9.15535L14.4121 9.39093L14.4121 9.39093L13.9711 9.15535ZM19.6983 4.60064L19.2143 4.72619L19.2143 4.72619L19.6983 4.60064ZM16.5384 3.02087L16.3214 2.57044L16.3214 2.57044L16.5384 3.02087ZM6.53239 30.3796L7.03053 30.3365C7.02982 30.3283 7.0289 30.32 7.02777 30.3118L6.53239 30.3796ZM4.24999 13.7098L4.74536 13.6419C4.71042 13.3867 4.48731 13.1998 4.22993 13.2102C3.97254 13.2205 3.76513 13.4247 3.75076 13.6819L4.24999 13.7098ZM3.30554 30.6157L2.80632 30.5878L2.80554 30.6018V30.6157H3.30554ZM3.77776 22.1627L4.27699 22.1906L3.77776 22.1627ZM29.2221 17.1771L28.2226 22.9568L29.208 23.1272L30.2075 17.3475L29.2221 17.1771ZM18.7637 30.6666H12.1781V31.6666H18.7637V30.6666ZM10.3266 28.9661L9.17607 15.6598L8.17979 15.746L9.33035 29.0522L10.3266 28.9661ZM28.2226 22.9568C27.4555 27.3926 23.4655 30.6666 18.7637 30.6666V31.6666C23.9255 31.6666 28.3535 28.0681 29.208 23.1272L28.2226 22.9568ZM19.3327 7.31615L18.394 13.0459L19.3808 13.2076L20.3196 7.47784L19.3327 7.31615ZM9.81541 14.0885L11.8536 12.3321L11.2008 11.5746L9.16262 13.331L9.81541 14.0885ZM15.3845 6.9025L16.0585 4.30453L15.0905 4.05344L14.4166 6.6514L15.3845 6.9025ZM17.7928 3.40052L17.9982 3.4665L18.304 2.51442L18.0987 2.44844L17.7928 3.40052ZM14.4121 9.39093C14.8333 8.60247 15.1601 7.76767 15.3845 6.9025L14.4166 6.6514C14.2122 7.43945 13.9143 8.20043 13.5301 8.91977L14.4121 9.39093ZM17.9982 3.4665C18.6088 3.66264 19.0627 4.14194 19.2143 4.72619L20.1823 4.47509C19.9414 3.54667 19.2283 2.81135 18.304 2.51442L17.9982 3.4665ZM16.0585 4.30453C16.1509 3.94817 16.4023 3.64148 16.7555 3.4713L16.3214 2.57044C15.7119 2.86413 15.2591 3.40354 15.0905 4.05344L16.0585 4.30453ZM16.7555 3.4713C17.0768 3.31646 17.4506 3.29057 17.7928 3.40052L18.0987 2.44844C17.5133 2.26039 16.8746 2.30385 16.3214 2.57044L16.7555 3.4713ZM20.051 14.9984H27.3909V13.9984H20.051V14.9984ZM7.02777 30.3118L4.74536 13.6419L3.75461 13.7776L6.03702 30.4474L7.02777 30.3118ZM6.03425 30.4227C6.04828 30.5849 6.04286 30.8706 5.92119 31.1139C5.81854 31.3191 5.6069 31.5534 5.06051 31.6142L5.17094 32.608C6.04122 32.5113 6.55535 32.0815 6.81558 31.5612C7.05679 31.0789 7.05137 30.5775 7.03053 30.3365L6.03425 30.4227ZM20.3196 7.47784C20.4834 6.47828 20.4366 5.45549 20.1823 4.47509L19.2143 4.72619C19.4337 5.5718 19.474 6.454 19.3327 7.31615L20.3196 7.47784ZM12.1781 30.6666C11.2144 30.6666 10.4099 29.9286 10.3266 28.9661L9.33035 29.0522C9.4582 30.5308 10.6945 31.6666 12.1781 31.6666V30.6666ZM11.8536 12.3321C12.8075 11.5102 13.7777 10.5786 14.4121 9.39093L13.5301 8.91977C12.9876 9.93522 12.1383 10.7668 11.2008 11.5746L11.8536 12.3321ZM30.2075 17.3475C30.5099 15.599 29.1652 13.9984 27.3909 13.9984V14.9984C28.5434 14.9984 29.419 16.0386 29.2221 17.1771L30.2075 17.3475ZM5.06051 31.6142C4.53609 31.6724 4.24744 31.4761 4.0705 31.2539C3.86673 30.9981 3.80554 30.6951 3.80554 30.6157H2.80554C2.80554 30.9176 2.94111 31.441 3.28827 31.8769C3.66226 32.3465 4.2787 32.7072 5.17094 32.608L5.06051 31.6142ZM18.394 13.0459C18.2264 14.0683 19.0145 14.9984 20.051 14.9984V13.9984C19.6327 13.9984 19.3128 13.6226 19.3808 13.2076L18.394 13.0459ZM9.17607 15.6598C9.1245 15.0634 9.36251 14.4788 9.81541 14.0885L9.16262 13.331C8.46616 13.9311 8.10057 14.8298 8.17979 15.746L9.17607 15.6598ZM3.80476 30.6436L4.27699 22.1906L3.27854 22.1348L2.80632 30.5878L3.80476 30.6436ZM4.27699 22.1906L4.74921 13.7376L3.75076 13.6819L3.27854 22.1348L4.27699 22.1906Z" fill="white"/>
</svg>
