<svg width="255" height="100" viewBox="0 0 255 100" fill="none" xmlns="http://www.w3.org/2000/svg">
<path d="M28.4367 27.1089C28.4276 23.0076 31.8815 19.684 36.1512 19.6854L56.3968 19.6472C61.4674 19.6489 62.9071 30.4842 62.9182 35.3546L62.6423 44.3503L66.6496 60.4808L68.9492 67.0544L70 73.5001L70 80.0225L36.2841 80.0225C32.0144 80.0211 28.5459 76.6955 28.5368 72.5938L28.4367 27.1089Z" fill="#5775CD"/>
<path d="M50.1767 44.524C56.4329 48.5448 64.7596 46.7248 68.775 40.4588C72.7904 34.1928 70.9738 25.8537 64.7177 21.8329C58.4615 17.812 50.1348 19.6321 46.1194 25.898C42.1041 32.164 43.9206 40.5031 50.1767 44.524Z" fill="#5775CD"/>
<path d="M51.941 71.0953C58.5104 75.3175 67.254 73.4063 71.4704 66.8266C75.6868 60.247 73.7793 51.4903 67.2099 47.2682C60.6405 43.046 51.8969 44.9572 47.6805 51.5369C43.4641 58.1166 45.3716 66.8732 51.941 71.0953Z" fill="#5775CD"/>
<path d="M38.0513 68.3114C36.0805 68.2765 34.4562 69.8058 34.4233 71.7281C34.3903 73.6503 35.9612 75.2369 37.932 75.2722L38.0513 68.3114ZM37.932 75.2722L72.5554 75.8885L72.6682 72.4322L72.6747 68.9277L38.0513 68.3114L37.932 75.2722Z" fill="white"/>
<path d="M44.4514 72.0186L40.9999 72L41.0516 74.3572L41.0516 76.5567L41.0516 78.2061L41.0516 80.0389L41.0516 81.6889L41.0516 82.7883L41.0516 86.4544L42.8818 84.8045L44.6305 86.4544L44.6305 84.9878L44.5166 82.7883L44.5166 81.8722L44.5166 80.0389L44.5166 79.1228L44.4514 78.2061L44.4514 76.3734L44.4514 74.1739L44.4514 72.0186Z" fill="#FD521B" stroke="#FD521B" stroke-width="3"/>
<path d="M91 60.36C90.2267 59.24 89.0533 58.68 87.48 58.68C85.9067 58.68 84.72 59.24 83.92 60.36C83.1467 61.4533 82.76 63.2 82.76 65.6C82.76 68 83.1467 69.76 83.92 70.88C84.72 71.9733 85.9067 72.52 87.48 72.52C89.0533 72.52 90.2267 71.9733 91 70.88C91.8 69.76 92.2 68 92.2 65.6C92.2 63.2 91.8 61.4533 91 60.36ZM94.92 73.6C93.16 75.4667 90.68 76.4 87.48 76.4C84.28 76.4 81.7867 75.4667 80 73.6C78.24 71.7067 77.36 69.04 77.36 65.6C77.36 62.16 78.24 59.5067 80 57.64C81.7867 55.7467 84.28 54.8 87.48 54.8C90.68 54.8 93.16 55.7467 94.92 57.64C96.7067 59.5067 97.6 62.16 97.6 65.6C97.6 69.04 96.7067 71.7067 94.92 73.6ZM114.359 60.36C113.586 59.24 112.413 58.68 110.839 58.68C109.266 58.68 108.079 59.24 107.279 60.36C106.506 61.4533 106.119 63.2 106.119 65.6C106.119 68 106.506 69.76 107.279 70.88C108.079 71.9733 109.266 72.52 110.839 72.52C112.413 72.52 113.586 71.9733 114.359 70.88C115.159 69.76 115.559 68 115.559 65.6C115.559 63.2 115.159 61.4533 114.359 60.36ZM118.279 73.6C116.519 75.4667 114.039 76.4 110.839 76.4C107.639 76.4 105.146 75.4667 103.359 73.6C101.599 71.7067 100.719 69.04 100.719 65.6C100.719 62.16 101.599 59.5067 103.359 57.64C105.146 55.7467 107.639 54.8 110.839 54.8C114.039 54.8 116.519 55.7467 118.279 57.64C120.066 59.5067 120.959 62.16 120.959 65.6C120.959 69.04 120.066 71.7067 118.279 73.6ZM127.568 76C126.955 76 126.421 75.7733 125.968 75.32C125.515 74.8667 125.288 74.3333 125.288 73.72V48.28C125.288 47.6667 125.515 47.1333 125.968 46.68C126.421 46.2267 126.955 46 127.568 46H128.368C128.981 46 129.515 46.2267 129.968 46.68C130.421 47.1333 130.648 47.6667 130.648 48.28V63.68C130.648 63.7067 130.661 63.72 130.688 63.72H130.728L136.808 56.88C137.795 55.76 139.048 55.2 140.568 55.2H142.248C142.675 55.2 142.968 55.4 143.128 55.8C143.315 56.2 143.261 56.56 142.968 56.88L135.648 64.96C135.515 65.12 135.515 65.2933 135.648 65.48L143.048 74.28C143.341 74.6267 143.381 75 143.168 75.4C142.981 75.8 142.675 76 142.248 76H140.568C139.048 76 137.808 75.4133 136.848 74.24L130.728 66.84C130.728 66.8133 130.715 66.8 130.688 66.8C130.661 66.8 130.648 66.8133 130.648 66.84V73.72C130.648 74.3333 130.421 74.8667 129.968 75.32C129.515 75.7733 128.981 76 128.368 76H127.568Z" fill="#FD521B"/>
<path d="M144.44 51.44C143.827 51.44 143.293 51.2267 142.84 50.8C142.387 50.3467 142.16 49.8133 142.16 49.2V49.08C142.16 48.4667 142.387 47.9333 142.84 47.48C143.293 47.0267 143.827 46.8 144.44 46.8H161.48C162.093 46.8 162.627 47.0267 163.08 47.48C163.533 47.9333 163.76 48.4667 163.76 49.08V49.2C163.76 49.8133 163.533 50.3467 163.08 50.8C162.627 51.2267 162.093 51.44 161.48 51.44H156.12C155.907 51.44 155.8 51.56 155.8 51.8V73.72C155.8 74.3333 155.573 74.8667 155.12 75.32C154.667 75.7733 154.133 76 153.52 76H152.4C151.787 76 151.253 75.7733 150.8 75.32C150.347 74.8667 150.12 74.3333 150.12 73.72V51.8C150.12 51.56 150.013 51.44 149.8 51.44H144.44ZM168.985 76C168.372 76 167.839 75.7733 167.385 75.32C166.932 74.8667 166.705 74.3333 166.705 73.72V57.48C166.705 56.8667 166.932 56.3333 167.385 55.88C167.839 55.4267 168.372 55.2 168.985 55.2H169.785C170.399 55.2 170.932 55.4267 171.385 55.88C171.839 56.3333 172.065 56.8667 172.065 57.48V59.16C172.065 59.1867 172.079 59.2 172.105 59.2C172.159 59.2 172.185 59.1867 172.185 59.16C172.959 58.0933 173.972 57.2267 175.225 56.56C176.479 55.8667 177.852 55.44 179.345 55.28C179.905 55.2267 180.385 55.4133 180.785 55.84C181.185 56.24 181.385 56.72 181.385 57.28C181.385 57.84 181.185 58.32 180.785 58.72C180.385 59.12 179.905 59.3467 179.345 59.4C174.625 59.7733 172.265 62.1733 172.265 66.6V73.72C172.265 74.3333 172.039 74.8667 171.585 75.32C171.132 75.7733 170.599 76 169.985 76H168.985ZM194.708 66C190.895 66 188.988 67.1733 188.988 69.52C188.988 70.3733 189.228 71.0667 189.708 71.6C190.215 72.1333 190.855 72.4 191.628 72.4C193.148 72.4 194.375 71.9333 195.308 71C196.242 70.04 196.708 68.7333 196.708 67.08V66.36C196.708 66.12 196.588 66 196.348 66H194.708ZM190.188 76.4C188.375 76.4 186.868 75.8133 185.668 74.64C184.495 73.44 183.908 71.8933 183.908 70C183.908 67.68 184.788 65.88 186.548 64.6C188.335 63.32 191.055 62.68 194.708 62.68H196.348C196.588 62.68 196.708 62.56 196.708 62.32V62C196.708 60.7733 196.415 59.92 195.828 59.44C195.242 58.9333 194.202 58.68 192.708 58.68C191.162 58.68 189.268 58.96 187.028 59.52C186.548 59.6533 186.108 59.5733 185.708 59.28C185.308 58.96 185.108 58.5467 185.108 58.04C185.108 57.4267 185.295 56.88 185.668 56.4C186.042 55.8933 186.522 55.5867 187.108 55.48C189.135 55.0267 191.042 54.8 192.828 54.8C196.242 54.8 198.628 55.4133 199.988 56.64C201.348 57.8667 202.028 60.0133 202.028 63.08V73.72C202.028 74.3333 201.802 74.8667 201.348 75.32C200.922 75.7733 200.402 76 199.788 76H199.348C198.708 76 198.162 75.7867 197.708 75.36C197.255 74.9067 197.015 74.36 196.988 73.72V73.16C196.988 73.1333 196.975 73.12 196.948 73.12C196.895 73.12 196.868 73.1333 196.868 73.16C195.242 75.32 193.015 76.4 190.188 76.4ZM216.25 76.4C212.944 76.4 210.397 75.4933 208.61 73.68C206.824 71.84 205.93 69.1467 205.93 65.6C205.93 62.1067 206.784 59.44 208.49 57.6C210.224 55.7333 212.677 54.8 215.85 54.8C217.264 54.8 218.624 54.8933 219.93 55.08C220.544 55.16 221.05 55.44 221.45 55.92C221.85 56.4 222.05 56.96 222.05 57.6C222.05 58.1333 221.837 58.56 221.41 58.88C221.01 59.2 220.544 59.3067 220.01 59.2C218.97 58.9867 217.81 58.88 216.53 58.88C214.85 58.88 213.597 59.4133 212.77 60.48C211.944 61.5467 211.53 63.2533 211.53 65.6C211.53 68 211.97 69.72 212.85 70.76C213.73 71.8 215.09 72.32 216.93 72.32C218.237 72.32 219.37 72.2 220.33 71.96C220.837 71.8267 221.29 71.92 221.69 72.24C222.117 72.56 222.33 72.9733 222.33 73.48C222.33 74.12 222.13 74.68 221.73 75.16C221.357 75.64 220.864 75.9333 220.25 76.04C218.89 76.28 217.557 76.4 216.25 76.4ZM230.123 76C229.509 76 228.976 75.7733 228.523 75.32C228.069 74.8667 227.843 74.3333 227.843 73.72V48.28C227.843 47.6667 228.069 47.1333 228.523 46.68C228.976 46.2267 229.509 46 230.123 46H230.923C231.536 46 232.069 46.2267 232.523 46.68C232.976 47.1333 233.203 47.6667 233.203 48.28V63.68C233.203 63.7067 233.216 63.72 233.243 63.72H233.283L239.363 56.88C240.349 55.76 241.603 55.2 243.123 55.2H244.803C245.229 55.2 245.523 55.4 245.683 55.8C245.869 56.2 245.816 56.56 245.523 56.88L238.203 64.96C238.069 65.12 238.069 65.2933 238.203 65.48L245.603 74.28C245.896 74.6267 245.936 75 245.723 75.4C245.536 75.8 245.229 76 244.803 76H243.123C241.603 76 240.363 75.4133 239.403 74.24L233.283 66.84C233.283 66.8133 233.269 66.8 233.243 66.8C233.216 66.8 233.203 66.8133 233.203 66.84V73.72C233.203 74.3333 232.976 74.8667 232.523 75.32C232.069 75.7733 231.536 76 230.923 76H230.123Z" fill="#5775CD"/>
</svg>
