<svg width="838" height="523" viewBox="0 0 838 523" fill="none" xmlns="http://www.w3.org/2000/svg">
<g filter="url(#filter0_f_1_136)">
<path fill-rule="evenodd" clip-rule="evenodd" d="M413.532 72.3919C481.892 66.5893 545.477 46.6113 614.405 47.6136C675.309 48.4992 707.271 42.0666 735.238 77.0697C763.568 112.525 731.724 156.048 741.889 195.413C750.441 228.535 783.133 256.757 790.225 290.023C798.312 327.952 816.325 370.613 786.277 403.603C756.184 436.642 688.802 445.764 634.437 461.065C587.101 474.387 538.503 489.718 486.961 487.844C437.715 486.053 400.283 458.128 352.277 450.804C305.538 443.672 255.957 454.627 210.013 445.589C156.875 435.136 98.0506 423.478 65.4716 394.386C33.0604 365.442 38.8797 325.772 35.8787 290.088C32.9701 255.503 37.3443 221.55 48.0824 187.617C59.6231 151.148 63.4834 110.652 101.505 82.706C139.54 54.75 198.144 36.9588 255.645 35.0581C312.226 33.1878 357.359 77.1602 413.532 72.3919Z" fill="#FFD3C5"/>
</g>
<defs>
<filter id="filter0_f_1_136" x="0" y="0" width="838" height="523" filterUnits="userSpaceOnUse" color-interpolation-filters="sRGB">
<feFlood flood-opacity="0" result="BackgroundImageFix"/>
<feBlend mode="normal" in="SourceGraphic" in2="BackgroundImageFix" result="shape"/>
<feGaussianBlur stdDeviation="17.5" result="effect1_foregroundBlur_1_136"/>
</filter>
</defs>
</svg>
