<svg width="95" height="95" viewBox="0 0 95 95" fill="none" xmlns="http://www.w3.org/2000/svg">
<path fill-rule="evenodd" clip-rule="evenodd" d="M2.5886 12.9677C0 18.0481 0 24.6988 0 38V57C0 70.3012 0 76.9519 2.5886 82.0323C4.86559 86.5011 8.49888 90.1344 12.9677 92.4114C18.0481 95 24.6988 95 38 95H57C70.3012 95 76.9519 95 82.0323 92.4114C86.5011 90.1344 90.1344 86.5011 92.4114 82.0323C95 76.9519 95 70.3012 95 57V38C95 24.6988 95 18.0481 92.4114 12.9677C90.1344 8.49888 86.5011 4.86559 82.0323 2.5886C76.9519 0 70.3012 0 57 0H38C24.6988 0 18.0481 0 12.9677 2.5886C8.49888 4.86559 4.86559 8.49888 2.5886 12.9677ZM52.2178 29.7163C46.5455 32.0756 35.2089 36.9588 18.208 44.3658C15.4473 45.4636 14.0012 46.5376 13.8695 47.5877C13.647 49.3625 15.8696 50.0614 18.8961 51.013C19.3077 51.1425 19.7343 51.2766 20.1716 51.4188C23.1492 52.3867 27.1546 53.519 29.2369 53.564C31.1257 53.6048 33.2338 52.8261 35.5612 51.2279C51.4457 40.5055 59.6453 35.0859 60.1601 34.969C60.5233 34.8866 61.0266 34.7829 61.3675 35.086C61.7085 35.3891 61.675 35.9631 61.6389 36.1171C61.4187 37.0557 52.6944 45.1666 48.1797 49.3639C46.7722 50.6724 45.7738 51.6006 45.5698 51.8125C45.1126 52.2874 44.6466 52.7366 44.1988 53.1683C41.4325 55.835 39.3581 57.8348 44.3137 61.1004C46.6951 62.6698 48.6008 63.9675 50.5019 65.2622C52.5781 66.6761 54.649 68.0863 57.3283 69.8427C58.0109 70.2901 58.6629 70.7549 59.2979 71.2076C61.7141 72.9302 63.8849 74.4777 66.5667 74.2309C68.125 74.0875 69.7347 72.6222 70.5522 68.252C72.4842 57.9238 76.2817 35.5458 77.1593 26.3244C77.2362 25.5165 77.1395 24.4825 77.0618 24.0286C76.9841 23.5747 76.8218 22.928 76.2318 22.4493C75.5331 21.8823 74.4544 21.7627 73.972 21.7712C71.7786 21.8099 68.4133 22.98 52.2178 29.7163Z" fill="black"/>
</svg>
