<svg width="95" height="95" viewBox="0 0 95 95" fill="none" xmlns="http://www.w3.org/2000/svg">
<rect width="95" height="95" rx="20" fill="black"/>
<path fill-rule="evenodd" clip-rule="evenodd" d="M75.2193 33.8215C75.6208 32.5656 75.2193 31.6428 73.3086 31.6428H66.9904C65.3839 31.6428 64.6432 32.44 64.2415 33.319C64.2415 33.319 61.0285 40.6657 56.4768 45.4378C55.0042 46.8192 54.3348 47.2587 53.5315 47.2587C53.1299 47.2587 52.5486 46.8192 52.5486 45.5635V33.8215C52.5486 32.3145 52.0823 31.6428 50.7435 31.6428H40.8148C39.8109 31.6428 39.2071 32.3423 39.2071 33.0052C39.2071 34.4338 41.4828 34.7632 41.7174 38.782V47.51C41.7174 49.4236 41.349 49.7705 40.5457 49.7705C38.4038 49.7705 33.1936 42.3911 30.1035 33.947C29.4979 32.3058 28.8905 31.6428 27.2757 31.6428H20.9575C19.1523 31.6428 18.7912 32.44 18.7912 33.319C18.7912 34.8889 20.9332 42.6751 28.7648 52.9728C33.9858 60.0054 41.3419 63.8176 48.0356 63.8176C52.0518 63.8176 52.5487 62.9708 52.5487 61.5124V56.1972C52.5487 54.5038 52.9291 54.1659 54.201 54.1659C55.138 54.1659 56.7445 54.6054 60.4931 57.9961C64.777 62.0147 65.4833 63.8176 67.893 63.8176H74.2112C76.0164 63.8176 76.919 62.9709 76.3983 61.2999C75.8285 59.6346 73.7832 57.2184 71.0692 54.3542C69.5965 52.7217 67.3876 50.9636 66.7182 50.0843C65.7811 48.9542 66.0488 48.4518 66.7182 47.4472C66.7182 47.4472 74.416 37.2749 75.2193 33.8215Z" fill="#B8BEF6"/>
</svg>
