<svg width="95" height="95" viewBox="0 0 95 95" fill="none" xmlns="http://www.w3.org/2000/svg">
<g clip-path="url(#clip0_1_196)">
<path fill-rule="evenodd" clip-rule="evenodd" d="M48.5176 74.8257H48.5289C64.0425 74.8257 76.6686 62.2033 76.6751 46.6884C76.6778 39.1702 73.7529 32.1007 68.4388 26.7824C63.1248 21.4641 56.058 18.5334 48.5402 18.5304C33.015 18.5304 20.3885 31.152 20.3824 46.6658C20.3803 51.9823 21.8682 57.1601 24.6856 61.6402L25.355 62.7044L22.5115 73.0875L33.1643 70.2939L34.1921 70.9038C38.5134 73.4675 43.467 74.8236 48.5176 74.8257ZM58.1859 51.0005C58.9616 51.2827 63.1216 53.3291 63.9677 53.7526C64.1326 53.8351 64.2868 53.9095 64.4298 53.9786C65.0204 54.2638 65.4192 54.4565 65.5894 54.7406C65.8009 55.0933 65.8009 56.787 65.096 58.7629C64.3907 60.7386 61.0103 62.5421 59.3847 62.785C57.9268 63.0028 56.0821 63.0935 54.0552 62.4499C52.8263 62.0599 51.2503 61.5396 49.2316 60.6681C41.3013 57.2448 35.9414 49.5619 34.9262 48.1067C34.8548 48.0044 34.8049 47.9329 34.7771 47.8958L34.7698 47.886C34.3204 47.2864 31.3222 43.2857 31.3222 39.1456C31.3222 35.249 33.2369 33.2066 34.1181 32.2666C34.1784 32.2023 34.2339 32.1431 34.2835 32.0889C35.0593 31.2422 35.9757 31.0305 36.54 31.0305C37.104 31.0305 37.6687 31.0357 38.1617 31.0602C38.2224 31.0632 38.2856 31.0628 38.351 31.0625C38.8441 31.0596 39.459 31.0559 40.0654 32.5123C40.2983 33.0719 40.639 33.901 40.9985 34.7759C41.727 36.5488 42.5325 38.5091 42.6741 38.7927C42.8857 39.2161 43.0267 39.7102 42.7447 40.2746C42.7025 40.359 42.6635 40.4386 42.6262 40.5147C42.4142 40.9477 42.2584 41.2658 41.8986 41.6859C41.7575 41.8505 41.6118 42.028 41.466 42.2055C41.1746 42.5603 40.8831 42.9152 40.6294 43.1677C40.2058 43.5894 39.7648 44.0472 40.2583 44.894C40.7519 45.7408 42.4502 48.511 44.9655 50.7537C47.6699 53.1653 50.0203 54.1844 51.2113 54.7008C51.4436 54.8015 51.6317 54.883 51.7698 54.9521C52.6159 55.3757 53.1095 55.305 53.6031 54.7406C54.0966 54.176 55.7181 52.2708 56.2823 51.4239C56.8464 50.5771 57.4103 50.7183 58.1859 51.0005Z" fill="black"/>
<path fill-rule="evenodd" clip-rule="evenodd" d="M2.5886 12.9677C0 18.0481 0 24.6988 0 38V57C0 70.3012 0 76.9519 2.5886 82.0323C4.86559 86.5011 8.49888 90.1344 12.9677 92.4114C18.0481 95 24.6988 95 38 95H57C70.3012 95 76.9519 95 82.0323 92.4114C86.5011 90.1344 90.1344 86.5011 92.4114 82.0323C95 76.9519 95 70.3012 95 57V38C95 24.6988 95 18.0481 92.4114 12.9677C90.1344 8.49888 86.5011 4.86559 82.0323 2.5886C76.9519 0 70.3012 0 57 0H38C24.6988 0 18.0481 0 12.9677 2.5886C8.49888 4.86559 4.86559 8.49888 2.5886 12.9677ZM48.5287 12.8129C57.5875 12.8167 66.09 16.3422 72.4834 22.741C78.8771 29.1398 82.396 37.6451 82.3925 46.6906C82.3849 65.3559 67.1925 80.5433 48.5291 80.5433H48.5152C42.8475 80.5409 37.2786 79.1198 32.3325 76.4229L14.3808 81.1302L19.185 63.5877C16.2217 58.4543 14.6625 52.63 14.6649 46.6636C14.6723 27.9983 29.8636 12.8129 48.5287 12.8129Z" fill="black"/>
</g>
<defs>
<clipPath id="clip0_1_196">
<rect width="95" height="95" fill="white"/>
</clipPath>
</defs>
</svg>
