<svg width="750" height="330" viewBox="0 0 750 330" fill="none" xmlns="http://www.w3.org/2000/svg">
<rect width="750" height="330" rx="19" fill="#B8BEF6"/>
<path d="M38.4 89C37.7867 89 37.2533 88.7733 36.8 88.32C36.3733 87.8667 36.16 87.3333 36.16 86.72V62.08C36.16 61.4667 36.3733 60.9333 36.8 60.48C37.2533 60.0267 37.7867 59.8 38.4 59.8H55.76C56.3733 59.8 56.8933 60.0267 57.32 60.48C57.7733 60.9333 58 61.4667 58 62.08V86.72C58 87.3333 57.7733 87.8667 57.32 88.32C56.8933 88.7733 56.3733 89 55.76 89H54.68C54.0667 89 53.5333 88.7733 53.08 88.32C52.6267 87.8667 52.4 87.3333 52.4 86.72V64.68C52.4 64.44 52.2933 64.32 52.08 64.32H42.08C41.8667 64.32 41.76 64.44 41.76 64.68V86.72C41.76 87.3333 41.5333 87.8667 41.08 88.32C40.6267 88.7733 40.0933 89 39.48 89H38.4ZM76.1641 73.36C75.3907 72.24 74.2174 71.68 72.6441 71.68C71.0707 71.68 69.8841 72.24 69.0841 73.36C68.3107 74.4533 67.9241 76.2 67.9241 78.6C67.9241 81 68.3107 82.76 69.0841 83.88C69.8841 84.9733 71.0707 85.52 72.6441 85.52C74.2174 85.52 75.3907 84.9733 76.1641 83.88C76.9641 82.76 77.3641 81 77.3641 78.6C77.3641 76.2 76.9641 74.4533 76.1641 73.36ZM80.0841 86.6C78.3241 88.4667 75.8441 89.4 72.6441 89.4C69.4441 89.4 66.9507 88.4667 65.1641 86.6C63.4041 84.7067 62.5241 82.04 62.5241 78.6C62.5241 75.16 63.4041 72.5067 65.1641 70.64C66.9507 68.7467 69.4441 67.8 72.6441 67.8C75.8441 67.8 78.3241 68.7467 80.0841 70.64C81.8707 72.5067 82.7641 75.16 82.7641 78.6C82.7641 82.04 81.8707 84.7067 80.0841 86.6ZM86.8528 89.24C86.3195 89.2933 85.8528 89.1333 85.4528 88.76C85.0795 88.3867 84.8928 87.9333 84.8928 87.4C84.8928 86.8667 85.0795 86.3867 85.4528 85.96C85.8528 85.5333 86.3328 85.2533 86.8928 85.12C88.0395 84.8267 88.8128 84.1867 89.2128 83.2C89.6128 82.2133 89.8128 80.52 89.8128 78.12V70.48C89.8128 69.8667 90.0395 69.3333 90.4928 68.88C90.9461 68.4267 91.4795 68.2 92.0928 68.2H104.493C105.106 68.2 105.639 68.4267 106.093 68.88C106.546 69.3333 106.773 69.8667 106.773 70.48V86.72C106.773 87.3333 106.546 87.8667 106.093 88.32C105.639 88.7733 105.106 89 104.493 89H103.773C103.159 89 102.626 88.7733 102.173 88.32C101.719 87.8667 101.493 87.3333 101.493 86.72V72.56C101.493 72.32 101.373 72.2 101.133 72.2H95.2928C95.0795 72.2 94.9728 72.32 94.9728 72.56V78.88C94.9728 82.4 94.3861 84.92 93.2128 86.44C92.0661 87.9333 89.9461 88.8667 86.8528 89.24ZM118.483 88.68L111.283 70.32C111.07 69.8133 111.11 69.3333 111.403 68.88C111.723 68.4267 112.163 68.2 112.723 68.2H114.003C114.67 68.2 115.27 68.4 115.803 68.8C116.337 69.2 116.71 69.72 116.923 70.36L121.083 83.48C121.083 83.5067 121.097 83.52 121.123 83.52C121.15 83.52 121.163 83.5067 121.163 83.48L125.323 70.36C125.51 69.72 125.87 69.2 126.403 68.8C126.937 68.4 127.55 68.2 128.243 68.2H129.283C129.817 68.2 130.243 68.4267 130.563 68.88C130.883 69.3333 130.95 69.8133 130.763 70.32L123.723 89.12C122.55 92.24 121.203 94.4667 119.683 95.8C118.19 97.1333 116.123 97.9067 113.483 98.12C112.923 98.1467 112.43 97.96 112.003 97.56C111.603 97.1867 111.403 96.72 111.403 96.16C111.403 95.6 111.603 95.1067 112.003 94.68C112.403 94.28 112.897 94.0533 113.483 94C114.79 93.84 115.803 93.4133 116.523 92.72C117.243 92.0533 117.897 90.92 118.483 89.32C118.51 89.2133 118.523 89.1067 118.523 89C118.523 88.8933 118.51 88.7867 118.483 88.68ZM141.991 83.48C139.058 83.48 137.004 82.96 135.831 81.92C134.658 80.8533 134.071 79.0133 134.071 76.4V70.48C134.071 69.8667 134.284 69.3333 134.711 68.88C135.164 68.4267 135.698 68.2 136.311 68.2H136.911C137.524 68.2 138.058 68.4267 138.511 68.88C138.964 69.3333 139.191 69.8667 139.191 70.48V75.36C139.191 77.04 139.431 78.1333 139.911 78.64C140.418 79.1467 141.418 79.4 142.911 79.4C144.378 79.4 145.684 79.1467 146.831 78.64C147.018 78.56 147.111 78.3867 147.111 78.12V70.48C147.111 69.8667 147.338 69.3333 147.791 68.88C148.244 68.4267 148.778 68.2 149.391 68.2H150.071C150.684 68.2 151.204 68.4267 151.631 68.88C152.084 69.3333 152.311 69.8667 152.311 70.48V86.72C152.311 87.3333 152.084 87.8667 151.631 88.32C151.204 88.7733 150.684 89 150.071 89H149.391C148.778 89 148.244 88.7733 147.791 88.32C147.338 87.8667 147.111 87.3333 147.111 86.72V82.8C147.111 82.72 147.071 82.6533 146.991 82.6C146.938 82.5467 146.871 82.5333 146.791 82.56C145.244 83.1733 143.644 83.48 141.991 83.48ZM167.63 79C163.817 79 161.91 80.1733 161.91 82.52C161.91 83.3733 162.15 84.0667 162.63 84.6C163.137 85.1333 163.777 85.4 164.55 85.4C166.07 85.4 167.297 84.9333 168.23 84C169.164 83.04 169.63 81.7333 169.63 80.08V79.36C169.63 79.12 169.51 79 169.27 79H167.63ZM163.11 89.4C161.297 89.4 159.79 88.8133 158.59 87.64C157.417 86.44 156.83 84.8933 156.83 83C156.83 80.68 157.71 78.88 159.47 77.6C161.257 76.32 163.977 75.68 167.63 75.68H169.27C169.51 75.68 169.63 75.56 169.63 75.32V75C169.63 73.7733 169.337 72.92 168.75 72.44C168.164 71.9333 167.124 71.68 165.63 71.68C164.084 71.68 162.19 71.96 159.95 72.52C159.47 72.6533 159.03 72.5733 158.63 72.28C158.23 71.96 158.03 71.5467 158.03 71.04C158.03 70.4267 158.217 69.88 158.59 69.4C158.964 68.8933 159.444 68.5867 160.03 68.48C162.057 68.0267 163.964 67.8 165.75 67.8C169.164 67.8 171.55 68.4133 172.91 69.64C174.27 70.8667 174.95 73.0133 174.95 76.08V86.72C174.95 87.3333 174.724 87.8667 174.27 88.32C173.844 88.7733 173.324 89 172.71 89H172.27C171.63 89 171.084 88.7867 170.63 88.36C170.177 87.9067 169.937 87.36 169.91 86.72V86.16C169.91 86.1333 169.897 86.12 169.87 86.12C169.817 86.12 169.79 86.1333 169.79 86.16C168.164 88.32 165.937 89.4 163.11 89.4ZM181.092 72.28C180.532 72.28 180.052 72.08 179.652 71.68C179.252 71.28 179.052 70.8 179.052 70.24C179.052 69.68 179.252 69.2 179.652 68.8C180.052 68.4 180.532 68.2 181.092 68.2H195.572C196.132 68.2 196.612 68.4 197.012 68.8C197.412 69.2 197.612 69.68 197.612 70.24C197.612 70.8 197.412 71.28 197.012 71.68C196.612 72.08 196.132 72.28 195.572 72.28H191.452C191.212 72.28 191.092 72.3867 191.092 72.6V86.72C191.092 87.3333 190.866 87.8667 190.412 88.32C189.959 88.7733 189.426 89 188.812 89H187.852C187.239 89 186.706 88.7733 186.252 88.32C185.799 87.8667 185.572 87.3333 185.572 86.72V72.6C185.572 72.3867 185.452 72.28 185.212 72.28H181.092ZM207.132 78.2V84.92C207.132 85.1333 207.252 85.2667 207.492 85.32C208.212 85.4533 208.852 85.52 209.412 85.52C211.119 85.52 212.359 85.1867 213.132 84.52C213.932 83.8267 214.332 82.76 214.332 81.32C214.332 80.1467 213.905 79.24 213.052 78.6C212.225 77.9333 210.985 77.6 209.332 77.6C208.745 77.6 208.119 77.6667 207.452 77.8C207.239 77.8533 207.132 77.9867 207.132 78.2ZM204.172 89.12C203.532 89.04 202.999 88.7467 202.572 88.24C202.145 87.7333 201.932 87.16 201.932 86.52V70.48C201.932 69.8667 202.159 69.3333 202.612 68.88C203.065 68.4267 203.599 68.2 204.212 68.2H204.892C205.505 68.2 206.025 68.4267 206.452 68.88C206.905 69.3333 207.132 69.8667 207.132 70.48V73.64C207.132 73.72 207.172 73.8 207.252 73.88C207.332 73.96 207.412 73.9867 207.492 73.96C208.559 73.8 209.439 73.72 210.132 73.72C213.092 73.72 215.359 74.4 216.932 75.76C218.532 77.12 219.332 78.9733 219.332 81.32C219.332 84.04 218.492 86.0667 216.812 87.4C215.132 88.7333 212.505 89.4 208.932 89.4C207.172 89.4 205.585 89.3067 204.172 89.12ZM237.103 89C236.489 89 235.956 88.7733 235.503 88.32C235.049 87.8667 234.823 87.3333 234.823 86.72V70.48C234.823 69.8667 235.049 69.3333 235.503 68.88C235.956 68.4267 236.489 68.2 237.103 68.2H250.623C251.236 68.2 251.769 68.4267 252.223 68.88C252.676 69.3333 252.903 69.8667 252.903 70.48V86.72C252.903 87.3333 252.676 87.8667 252.223 88.32C251.769 88.7733 251.236 89 250.623 89H249.903C249.289 89 248.756 88.7733 248.303 88.32C247.849 87.8667 247.623 87.3333 247.623 86.72V72.56C247.623 72.32 247.516 72.2 247.303 72.2H240.423C240.209 72.2 240.103 72.32 240.103 72.56V86.72C240.103 87.3333 239.876 87.8667 239.423 88.32C238.969 88.7733 238.436 89 237.823 89H237.103ZM266.896 71.52C265.536 71.52 264.483 71.9067 263.736 72.68C263.016 73.4267 262.563 74.64 262.376 76.32C262.376 76.5333 262.483 76.64 262.696 76.64H270.536C270.75 76.64 270.856 76.5333 270.856 76.32C270.75 73.12 269.43 71.52 266.896 71.52ZM267.896 89.4C264.403 89.4 261.71 88.4933 259.816 86.68C257.95 84.84 257.016 82.1467 257.016 78.6C257.016 75.08 257.856 72.4 259.536 70.56C261.216 68.72 263.643 67.8 266.816 67.8C272.736 67.8 275.776 71.16 275.936 77.88C275.963 78.52 275.736 79.0533 275.256 79.48C274.776 79.9067 274.216 80.12 273.576 80.12H262.656C262.416 80.12 262.323 80.24 262.376 80.48C262.563 82.2667 263.15 83.5733 264.136 84.4C265.15 85.2 266.616 85.6 268.536 85.6C269.736 85.6 271.07 85.4 272.536 85C273.016 84.8667 273.456 84.9467 273.856 85.24C274.283 85.5333 274.496 85.9333 274.496 86.44C274.496 87.0533 274.31 87.6 273.936 88.08C273.59 88.5333 273.123 88.8133 272.536 88.92C271.043 89.24 269.496 89.4 267.896 89.4ZM285.532 75.88V81.32C285.532 82.3867 285.986 83.3333 286.892 84.16C287.826 84.9867 288.906 85.4 290.132 85.4C291.546 85.4 292.666 84.8267 293.492 83.68C294.319 82.5333 294.732 80.84 294.732 78.6C294.732 74.0667 293.199 71.8 290.132 71.8C288.906 71.8 287.826 72.2133 286.892 73.04C285.986 73.8667 285.532 74.8133 285.532 75.88ZM282.532 97.8C281.919 97.8 281.386 97.5733 280.932 97.12C280.479 96.6667 280.252 96.1333 280.252 95.52V70.48C280.252 69.8667 280.479 69.3333 280.932 68.88C281.386 68.4267 281.919 68.2 282.532 68.2H283.012C283.652 68.2 284.199 68.4267 284.652 68.88C285.106 69.3067 285.346 69.84 285.372 70.48V70.76C285.372 70.7867 285.386 70.8 285.412 70.8C285.439 70.8 285.466 70.7867 285.492 70.76C286.452 69.6933 287.412 68.9333 288.372 68.48C289.332 68.0267 290.452 67.8 291.732 67.8C294.239 67.8 296.239 68.7467 297.732 70.64C299.226 72.5067 299.972 75.16 299.972 78.6C299.972 81.9333 299.186 84.5733 297.612 86.52C296.066 88.44 294.106 89.4 291.732 89.4C289.412 89.4 287.399 88.56 285.692 86.88C285.666 86.8533 285.639 86.84 285.612 86.84C285.586 86.84 285.572 86.8533 285.572 86.88V95.52C285.572 96.1333 285.346 96.6667 284.892 97.12C284.466 97.5733 283.946 97.8 283.332 97.8H282.532ZM313.196 89.4C309.889 89.4 307.342 88.4933 305.556 86.68C303.769 84.84 302.876 82.1467 302.876 78.6C302.876 75.1067 303.729 72.44 305.436 70.6C307.169 68.7333 309.622 67.8 312.796 67.8C314.209 67.8 315.569 67.8933 316.876 68.08C317.489 68.16 317.996 68.44 318.396 68.92C318.796 69.4 318.996 69.96 318.996 70.6C318.996 71.1333 318.782 71.56 318.356 71.88C317.956 72.2 317.489 72.3067 316.956 72.2C315.916 71.9867 314.756 71.88 313.476 71.88C311.796 71.88 310.542 72.4133 309.716 73.48C308.889 74.5467 308.476 76.2533 308.476 78.6C308.476 81 308.916 82.72 309.796 83.76C310.676 84.8 312.036 85.32 313.876 85.32C315.182 85.32 316.316 85.2 317.276 84.96C317.782 84.8267 318.236 84.92 318.636 85.24C319.062 85.56 319.276 85.9733 319.276 86.48C319.276 87.12 319.076 87.68 318.676 88.16C318.302 88.64 317.809 88.9333 317.196 89.04C315.836 89.28 314.502 89.4 313.196 89.4ZM336.828 73.36C336.055 72.24 334.881 71.68 333.308 71.68C331.735 71.68 330.548 72.24 329.748 73.36C328.975 74.4533 328.588 76.2 328.588 78.6C328.588 81 328.975 82.76 329.748 83.88C330.548 84.9733 331.735 85.52 333.308 85.52C334.881 85.52 336.055 84.9733 336.828 83.88C337.628 82.76 338.028 81 338.028 78.6C338.028 76.2 337.628 74.4533 336.828 73.36ZM340.748 86.6C338.988 88.4667 336.508 89.4 333.308 89.4C330.108 89.4 327.615 88.4667 325.828 86.6C324.068 84.7067 323.188 82.04 323.188 78.6C323.188 75.16 324.068 72.5067 325.828 70.64C327.615 68.7467 330.108 67.8 333.308 67.8C336.508 67.8 338.988 68.7467 340.748 70.64C342.535 72.5067 343.428 75.16 343.428 78.6C343.428 82.04 342.535 84.7067 340.748 86.6ZM349.797 89C349.184 89 348.65 88.7733 348.197 88.32C347.77 87.8667 347.557 87.3333 347.557 86.72V70.48C347.557 69.8667 347.77 69.3333 348.197 68.88C348.65 68.4267 349.184 68.2 349.797 68.2H350.677C351.29 68.2 351.824 68.4267 352.277 68.88C352.73 69.3333 352.957 69.8667 352.957 70.48V75.84C352.957 76.08 353.077 76.2 353.317 76.2H360.037C360.277 76.2 360.397 76.08 360.397 75.84V70.48C360.397 69.8667 360.624 69.3333 361.077 68.88C361.53 68.4267 362.064 68.2 362.677 68.2H363.557C364.17 68.2 364.69 68.4267 365.117 68.88C365.57 69.3333 365.797 69.8667 365.797 70.48V86.72C365.797 87.3333 365.57 87.8667 365.117 88.32C364.69 88.7733 364.17 89 363.557 89H362.677C362.064 89 361.53 88.7733 361.077 88.32C360.624 87.8667 360.397 87.3333 360.397 86.72V80.32C360.397 80.08 360.277 79.96 360.037 79.96H353.317C353.077 79.96 352.957 80.08 352.957 80.32V86.72C352.957 87.3333 352.73 87.8667 352.277 88.32C351.824 88.7733 351.29 89 350.677 89H349.797ZM381.107 79C377.294 79 375.387 80.1733 375.387 82.52C375.387 83.3733 375.627 84.0667 376.107 84.6C376.614 85.1333 377.254 85.4 378.027 85.4C379.547 85.4 380.774 84.9333 381.707 84C382.64 83.04 383.107 81.7333 383.107 80.08V79.36C383.107 79.12 382.987 79 382.747 79H381.107ZM376.587 89.4C374.774 89.4 373.267 88.8133 372.067 87.64C370.894 86.44 370.307 84.8933 370.307 83C370.307 80.68 371.187 78.88 372.947 77.6C374.734 76.32 377.454 75.68 381.107 75.68H382.747C382.987 75.68 383.107 75.56 383.107 75.32V75C383.107 73.7733 382.814 72.92 382.227 72.44C381.64 71.9333 380.6 71.68 379.107 71.68C377.56 71.68 375.667 71.96 373.427 72.52C372.947 72.6533 372.507 72.5733 372.107 72.28C371.707 71.96 371.507 71.5467 371.507 71.04C371.507 70.4267 371.694 69.88 372.067 69.4C372.44 68.8933 372.92 68.5867 373.507 68.48C375.534 68.0267 377.44 67.8 379.227 67.8C382.64 67.8 385.027 68.4133 386.387 69.64C387.747 70.8667 388.427 73.0133 388.427 76.08V86.72C388.427 87.3333 388.2 87.8667 387.747 88.32C387.32 88.7733 386.8 89 386.187 89H385.747C385.107 89 384.56 88.7867 384.107 88.36C383.654 87.9067 383.414 87.36 383.387 86.72V86.16C383.387 86.1333 383.374 86.12 383.347 86.12C383.294 86.12 383.267 86.1333 383.267 86.16C381.64 88.32 379.414 89.4 376.587 89.4ZM393.689 89.24C393.155 89.2933 392.689 89.1333 392.289 88.76C391.915 88.3867 391.729 87.9333 391.729 87.4C391.729 86.8667 391.915 86.3867 392.289 85.96C392.689 85.5333 393.169 85.2533 393.729 85.12C394.875 84.8267 395.649 84.1867 396.049 83.2C396.449 82.2133 396.649 80.52 396.649 78.12V70.48C396.649 69.8667 396.875 69.3333 397.329 68.88C397.782 68.4267 398.315 68.2 398.929 68.2H411.329C411.942 68.2 412.475 68.4267 412.929 68.88C413.382 69.3333 413.609 69.8667 413.609 70.48V86.72C413.609 87.3333 413.382 87.8667 412.929 88.32C412.475 88.7733 411.942 89 411.329 89H410.609C409.995 89 409.462 88.7733 409.009 88.32C408.555 87.8667 408.329 87.3333 408.329 86.72V72.56C408.329 72.32 408.209 72.2 407.969 72.2H402.129C401.915 72.2 401.809 72.32 401.809 72.56V78.88C401.809 82.4 401.222 84.92 400.049 86.44C398.902 87.9333 396.782 88.8667 393.689 89.24ZM424.319 78.2V84.92C424.319 85.1333 424.439 85.2667 424.679 85.32C425.399 85.4533 426.039 85.52 426.599 85.52C428.306 85.52 429.546 85.1867 430.319 84.52C431.119 83.8267 431.519 82.76 431.519 81.32C431.519 80.1467 431.093 79.24 430.239 78.6C429.413 77.9333 428.173 77.6 426.519 77.6C425.933 77.6 425.306 77.6667 424.639 77.8C424.426 77.8533 424.319 77.9867 424.319 78.2ZM421.359 89.12C420.719 89.04 420.186 88.7467 419.759 88.24C419.333 87.7333 419.119 87.16 419.119 86.52V70.48C419.119 69.8667 419.346 69.3333 419.799 68.88C420.253 68.4267 420.786 68.2 421.399 68.2H422.079C422.693 68.2 423.213 68.4267 423.639 68.88C424.093 69.3333 424.319 69.8667 424.319 70.48V73.64C424.319 73.72 424.359 73.8 424.439 73.88C424.519 73.96 424.599 73.9867 424.679 73.96C425.746 73.8 426.626 73.72 427.319 73.72C430.279 73.72 432.546 74.4 434.119 75.76C435.719 77.12 436.519 78.9733 436.519 81.32C436.519 84.04 435.679 86.0667 433.999 87.4C432.319 88.7333 429.693 89.4 426.119 89.4C424.359 89.4 422.773 89.3067 421.359 89.12ZM442.883 89C442.269 89 441.736 88.7733 441.283 88.32C440.856 87.8667 440.643 87.3333 440.643 86.72V70.48C440.643 69.8667 440.856 69.3333 441.283 68.88C441.736 68.4267 442.269 68.2 442.883 68.2H443.763C444.376 68.2 444.909 68.4267 445.363 68.88C445.816 69.3333 446.043 69.8667 446.043 70.48V75.84C446.043 76.08 446.163 76.2 446.403 76.2H453.123C453.363 76.2 453.483 76.08 453.483 75.84V70.48C453.483 69.8667 453.709 69.3333 454.163 68.88C454.616 68.4267 455.149 68.2 455.763 68.2H456.643C457.256 68.2 457.776 68.4267 458.203 68.88C458.656 69.3333 458.883 69.8667 458.883 70.48V86.72C458.883 87.3333 458.656 87.8667 458.203 88.32C457.776 88.7733 457.256 89 456.643 89H455.763C455.149 89 454.616 88.7733 454.163 88.32C453.709 87.8667 453.483 87.3333 453.483 86.72V80.32C453.483 80.08 453.363 79.96 453.123 79.96H446.403C446.163 79.96 446.043 80.08 446.043 80.32V86.72C446.043 87.3333 445.816 87.8667 445.363 88.32C444.909 88.7733 444.376 89 443.763 89H442.883ZM486.433 89C485.819 89 485.286 88.7733 484.833 88.32C484.406 87.8667 484.193 87.3333 484.193 86.72V70.48C484.193 69.8667 484.406 69.3333 484.833 68.88C485.286 68.4267 485.819 68.2 486.433 68.2H487.113C487.726 68.2 488.259 68.4267 488.713 68.88C489.166 69.3333 489.393 69.8667 489.393 70.48V86.72C489.393 87.3333 489.166 87.8667 488.713 88.32C488.259 88.7733 487.726 89 487.113 89H486.433ZM471.833 85.52C473.539 85.52 474.779 85.1867 475.553 84.52C476.353 83.8267 476.753 82.76 476.753 81.32C476.753 78.84 475.099 77.6 471.793 77.6C471.206 77.6 470.579 77.6667 469.913 77.8C469.699 77.8533 469.593 77.9867 469.593 78.2V84.92C469.593 85.1333 469.699 85.2667 469.913 85.32C470.633 85.4533 471.273 85.52 471.833 85.52ZM472.593 73.72C475.553 73.72 477.819 74.4 479.393 75.76C480.993 77.12 481.793 78.9733 481.793 81.32C481.793 84.04 480.953 86.0667 479.273 87.4C477.593 88.7333 474.966 89.4 471.393 89.4C469.606 89.4 468.006 89.3067 466.593 89.12C465.953 89.04 465.419 88.7467 464.993 88.24C464.593 87.7333 464.393 87.16 464.393 86.52V70.48C464.393 69.8667 464.606 69.3333 465.033 68.88C465.486 68.4267 466.019 68.2 466.633 68.2H467.313C467.926 68.2 468.459 68.4267 468.913 68.88C469.366 69.3333 469.593 69.8667 469.593 70.48V73.64C469.593 73.72 469.619 73.8 469.673 73.88C469.753 73.96 469.833 73.9867 469.913 73.96C470.979 73.8 471.873 73.72 472.593 73.72ZM503.381 71.52C502.021 71.52 500.967 71.9067 500.221 72.68C499.501 73.4267 499.047 74.64 498.861 76.32C498.861 76.5333 498.967 76.64 499.181 76.64H507.021C507.234 76.64 507.341 76.5333 507.341 76.32C507.234 73.12 505.914 71.52 503.381 71.52ZM504.381 89.4C500.887 89.4 498.194 88.4933 496.301 86.68C494.434 84.84 493.501 82.1467 493.501 78.6C493.501 75.08 494.341 72.4 496.021 70.56C497.701 68.72 500.127 67.8 503.301 67.8C509.221 67.8 512.261 71.16 512.421 77.88C512.447 78.52 512.221 79.0533 511.741 79.48C511.261 79.9067 510.701 80.12 510.061 80.12H499.141C498.901 80.12 498.807 80.24 498.861 80.48C499.047 82.2667 499.634 83.5733 500.621 84.4C501.634 85.2 503.101 85.6 505.021 85.6C506.221 85.6 507.554 85.4 509.021 85C509.501 84.8667 509.941 84.9467 510.341 85.24C510.767 85.5333 510.981 85.9333 510.981 86.44C510.981 87.0533 510.794 87.6 510.421 88.08C510.074 88.5333 509.607 88.8133 509.021 88.92C507.527 89.24 505.981 89.4 504.381 89.4ZM41.04 134.88V140.32C41.04 141.387 41.4933 142.333 42.4 143.16C43.3333 143.987 44.4133 144.4 45.64 144.4C47.0533 144.4 48.1733 143.827 49 142.68C49.8267 141.533 50.24 139.84 50.24 137.6C50.24 133.067 48.7067 130.8 45.64 130.8C44.4133 130.8 43.3333 131.213 42.4 132.04C41.4933 132.867 41.04 133.813 41.04 134.88ZM38.04 156.8C37.4267 156.8 36.8933 156.573 36.44 156.12C35.9867 155.667 35.76 155.133 35.76 154.52V129.48C35.76 128.867 35.9867 128.333 36.44 127.88C36.8933 127.427 37.4267 127.2 38.04 127.2H38.52C39.16 127.2 39.7067 127.427 40.16 127.88C40.6133 128.307 40.8533 128.84 40.88 129.48V129.76C40.88 129.787 40.8933 129.8 40.92 129.8C40.9467 129.8 40.9733 129.787 41 129.76C41.96 128.693 42.92 127.933 43.88 127.48C44.84 127.027 45.96 126.8 47.24 126.8C49.7467 126.8 51.7467 127.747 53.24 129.64C54.7333 131.507 55.48 134.16 55.48 137.6C55.48 140.933 54.6933 143.573 53.12 145.52C51.5733 147.44 49.6133 148.4 47.24 148.4C44.92 148.4 42.9067 147.56 41.2 145.88C41.1733 145.853 41.1467 145.84 41.12 145.84C41.0933 145.84 41.08 145.853 41.08 145.88V154.52C41.08 155.133 40.8533 155.667 40.4 156.12C39.9733 156.573 39.4533 156.8 38.84 156.8H38.04ZM68.2634 130.52C66.9034 130.52 65.8501 130.907 65.1034 131.68C64.3834 132.427 63.9301 133.64 63.7434 135.32C63.7434 135.533 63.8501 135.64 64.0634 135.64H71.9034C72.1168 135.64 72.2234 135.533 72.2234 135.32C72.1168 132.12 70.7968 130.52 68.2634 130.52ZM69.2634 148.4C65.7701 148.4 63.0768 147.493 61.1834 145.68C59.3168 143.84 58.3834 141.147 58.3834 137.6C58.3834 134.08 59.2234 131.4 60.9034 129.56C62.5834 127.72 65.0101 126.8 68.1834 126.8C74.1034 126.8 77.1434 130.16 77.3034 136.88C77.3301 137.52 77.1034 138.053 76.6234 138.48C76.1434 138.907 75.5834 139.12 74.9434 139.12H64.0234C63.7834 139.12 63.6901 139.24 63.7434 139.48C63.9301 141.267 64.5168 142.573 65.5034 143.4C66.5168 144.2 67.9834 144.6 69.9034 144.6C71.1034 144.6 72.4368 144.4 73.9034 144C74.3834 143.867 74.8234 143.947 75.2234 144.24C75.6501 144.533 75.8634 144.933 75.8634 145.44C75.8634 146.053 75.6768 146.6 75.3034 147.08C74.9568 147.533 74.4901 147.813 73.9034 147.92C72.4101 148.24 70.8634 148.4 69.2634 148.4ZM83.8994 148C83.286 148 82.7527 147.773 82.2994 147.32C81.846 146.867 81.6194 146.333 81.6194 145.72V129.48C81.6194 128.867 81.846 128.333 82.2994 127.88C82.7527 127.427 83.286 127.2 83.8994 127.2H84.6994C85.3127 127.2 85.846 127.427 86.2994 127.88C86.7527 128.333 86.9794 128.867 86.9794 129.48V135.68C86.9794 135.707 86.9927 135.72 87.0194 135.72H87.0594L93.1394 128.88C94.126 127.76 95.3794 127.2 96.8994 127.2H98.5794C99.006 127.2 99.2994 127.4 99.4594 127.8C99.646 128.2 99.5927 128.56 99.2994 128.88L91.9794 136.96C91.846 137.12 91.846 137.293 91.9794 137.48L99.3794 146.28C99.6727 146.627 99.7127 147 99.4994 147.4C99.3127 147.8 99.006 148 98.5794 148H96.8994C95.3794 148 94.1394 147.413 93.1794 146.24L87.0594 138.84C87.0594 138.813 87.046 138.8 87.0194 138.8C86.9927 138.8 86.9794 138.813 86.9794 138.84V145.72C86.9794 146.333 86.7527 146.867 86.2994 147.32C85.846 147.773 85.3127 148 84.6994 148H83.8994ZM116.164 132.36C115.391 131.24 114.217 130.68 112.644 130.68C111.071 130.68 109.884 131.24 109.084 132.36C108.311 133.453 107.924 135.2 107.924 137.6C107.924 140 108.311 141.76 109.084 142.88C109.884 143.973 111.071 144.52 112.644 144.52C114.217 144.52 115.391 143.973 116.164 142.88C116.964 141.76 117.364 140 117.364 137.6C117.364 135.2 116.964 133.453 116.164 132.36ZM120.084 145.6C118.324 147.467 115.844 148.4 112.644 148.4C109.444 148.4 106.951 147.467 105.164 145.6C103.404 143.707 102.524 141.04 102.524 137.6C102.524 134.16 103.404 131.507 105.164 129.64C106.951 127.747 109.444 126.8 112.644 126.8C115.844 126.8 118.324 127.747 120.084 129.64C121.871 131.507 122.764 134.16 122.764 137.6C122.764 141.04 121.871 143.707 120.084 145.6ZM129.133 148C128.519 148 127.986 147.773 127.533 147.32C127.106 146.867 126.893 146.333 126.893 145.72V129.48C126.893 128.867 127.106 128.333 127.533 127.88C127.986 127.427 128.519 127.2 129.133 127.2H130.253C131.773 127.2 132.866 127.88 133.533 129.24L138.333 139C138.333 139.027 138.346 139.04 138.373 139.04L138.413 139L143.213 129.24C143.879 127.88 144.973 127.2 146.493 127.2H147.693C148.306 127.2 148.826 127.427 149.253 127.88C149.706 128.333 149.933 128.867 149.933 129.48V145.72C149.933 146.333 149.706 146.867 149.253 147.32C148.826 147.773 148.306 148 147.693 148H146.973C146.359 148 145.826 147.773 145.373 147.32C144.919 146.867 144.693 146.333 144.693 145.72V134.28H144.613L141.373 140.92C140.759 142.147 139.759 142.76 138.373 142.76C136.986 142.76 135.986 142.147 135.373 140.92L132.093 134.28H132.053H132.013V145.72C132.013 146.333 131.786 146.867 131.333 147.32C130.906 147.773 130.386 148 129.773 148H129.133ZM163.928 130.52C162.568 130.52 161.514 130.907 160.768 131.68C160.048 132.427 159.594 133.64 159.408 135.32C159.408 135.533 159.514 135.64 159.728 135.64H167.568C167.781 135.64 167.888 135.533 167.888 135.32C167.781 132.12 166.461 130.52 163.928 130.52ZM164.928 148.4C161.434 148.4 158.741 147.493 156.848 145.68C154.981 143.84 154.048 141.147 154.048 137.6C154.048 134.08 154.888 131.4 156.568 129.56C158.248 127.72 160.674 126.8 163.848 126.8C169.768 126.8 172.808 130.16 172.968 136.88C172.994 137.52 172.768 138.053 172.288 138.48C171.808 138.907 171.248 139.12 170.608 139.12H159.688C159.448 139.12 159.354 139.24 159.408 139.48C159.594 141.267 160.181 142.573 161.168 143.4C162.181 144.2 163.648 144.6 165.568 144.6C166.768 144.6 168.101 144.4 169.568 144C170.048 143.867 170.488 143.947 170.888 144.24C171.314 144.533 171.528 144.933 171.528 145.44C171.528 146.053 171.341 146.6 170.968 147.08C170.621 147.533 170.154 147.813 169.568 147.92C168.074 148.24 166.528 148.4 164.928 148.4ZM179.523 148C178.91 148 178.377 147.773 177.923 147.32C177.497 146.867 177.283 146.333 177.283 145.72V129.48C177.283 128.867 177.497 128.333 177.923 127.88C178.377 127.427 178.91 127.2 179.523 127.2H180.403C181.017 127.2 181.55 127.427 182.003 127.88C182.457 128.333 182.683 128.867 182.683 129.48V134.84C182.683 135.08 182.803 135.2 183.043 135.2H189.763C190.003 135.2 190.123 135.08 190.123 134.84V129.48C190.123 128.867 190.35 128.333 190.803 127.88C191.257 127.427 191.79 127.2 192.403 127.2H193.283C193.897 127.2 194.417 127.427 194.843 127.88C195.297 128.333 195.523 128.867 195.523 129.48V145.72C195.523 146.333 195.297 146.867 194.843 147.32C194.417 147.773 193.897 148 193.283 148H192.403C191.79 148 191.257 147.773 190.803 147.32C190.35 146.867 190.123 146.333 190.123 145.72V139.32C190.123 139.08 190.003 138.96 189.763 138.96H183.043C182.803 138.96 182.683 139.08 182.683 139.32V145.72C182.683 146.333 182.457 146.867 182.003 147.32C181.55 147.773 181.017 148 180.403 148H179.523ZM207.353 143.84C207.3 143.893 207.287 143.96 207.313 144.04C207.367 144.093 207.433 144.12 207.513 144.12H214.873C215.113 144.12 215.233 144.013 215.233 143.8V131.4C215.233 131.187 215.113 131.08 214.873 131.08H209.753C209.54 131.08 209.433 131.187 209.433 131.4C209.433 134.653 209.393 136.907 209.313 138.16C209.233 139.387 209.06 140.387 208.793 141.16C208.553 141.907 208.073 142.8 207.353 143.84ZM201.873 152.8C201.26 152.8 200.727 152.573 200.273 152.12C199.847 151.667 199.633 151.133 199.633 150.52V145.64C199.633 145.213 199.767 144.853 200.033 144.56C200.327 144.267 200.687 144.12 201.113 144.12C201.273 144.12 201.393 144.067 201.473 143.96C202.46 142.733 203.127 141.733 203.473 140.96C203.82 140.187 204.047 139.16 204.153 137.88C204.287 136.573 204.353 134.307 204.353 131.08V129.48C204.353 128.867 204.58 128.333 205.033 127.88C205.487 127.427 206.02 127.2 206.633 127.2H218.073C218.687 127.2 219.22 127.427 219.673 127.88C220.127 128.333 220.353 128.867 220.353 129.48V143.8C220.353 144.013 220.473 144.12 220.713 144.12H220.833C221.447 144.12 221.967 144.347 222.393 144.8C222.847 145.253 223.073 145.787 223.073 146.4V150.52C223.073 151.133 222.847 151.667 222.393 152.12C221.967 152.573 221.447 152.8 220.833 152.8H220.233C219.62 152.8 219.087 152.573 218.633 152.12C218.18 151.667 217.953 151.133 217.953 150.52V148.36C217.953 148.12 217.833 148 217.593 148H205.113C204.873 148 204.753 148.12 204.753 148.36V150.52C204.753 151.133 204.527 151.667 204.073 152.12C203.62 152.573 203.087 152.8 202.473 152.8H201.873ZM237.005 138C233.192 138 231.285 139.173 231.285 141.52C231.285 142.373 231.525 143.067 232.005 143.6C232.512 144.133 233.152 144.4 233.925 144.4C235.445 144.4 236.672 143.933 237.605 143C238.539 142.04 239.005 140.733 239.005 139.08V138.36C239.005 138.12 238.885 138 238.645 138H237.005ZM232.485 148.4C230.672 148.4 229.165 147.813 227.965 146.64C226.792 145.44 226.205 143.893 226.205 142C226.205 139.68 227.085 137.88 228.845 136.6C230.632 135.32 233.352 134.68 237.005 134.68H238.645C238.885 134.68 239.005 134.56 239.005 134.32V134C239.005 132.773 238.712 131.92 238.125 131.44C237.539 130.933 236.499 130.68 235.005 130.68C233.459 130.68 231.565 130.96 229.325 131.52C228.845 131.653 228.405 131.573 228.005 131.28C227.605 130.96 227.405 130.547 227.405 130.04C227.405 129.427 227.592 128.88 227.965 128.4C228.339 127.893 228.819 127.587 229.405 127.48C231.432 127.027 233.339 126.8 235.125 126.8C238.539 126.8 240.925 127.413 242.285 128.64C243.645 129.867 244.325 132.013 244.325 135.08V145.72C244.325 146.333 244.099 146.867 243.645 147.32C243.219 147.773 242.699 148 242.085 148H241.645C241.005 148 240.459 147.787 240.005 147.36C239.552 146.907 239.312 146.36 239.285 145.72V145.16C239.285 145.133 239.272 145.12 239.245 145.12C239.192 145.12 239.165 145.133 239.165 145.16C237.539 147.32 235.312 148.4 232.485 148.4ZM251.907 148C251.294 148 250.761 147.773 250.307 147.32C249.854 146.867 249.627 146.333 249.627 145.72V129.48C249.627 128.867 249.854 128.333 250.307 127.88C250.761 127.427 251.294 127.2 251.907 127.2H252.627C253.241 127.2 253.774 127.427 254.227 127.88C254.681 128.333 254.907 128.867 254.907 129.48V143.8C254.907 144.013 255.027 144.12 255.267 144.12H262.107C262.347 144.12 262.467 144.013 262.467 143.8V129.48C262.467 128.867 262.681 128.333 263.107 127.88C263.561 127.427 264.094 127.2 264.707 127.2H265.467C266.081 127.2 266.601 127.427 267.027 127.88C267.481 128.333 267.707 128.867 267.707 129.48V143.8C267.707 144.013 267.827 144.12 268.067 144.12H269.307C269.921 144.12 270.454 144.347 270.907 144.8C271.361 145.253 271.587 145.787 271.587 146.4V150.52C271.587 151.133 271.361 151.667 270.907 152.12C270.454 152.573 269.921 152.8 269.307 152.8H269.187C268.574 152.8 268.041 152.573 267.587 152.12C267.134 151.667 266.907 151.133 266.907 150.52V148.36C266.907 148.12 266.801 148 266.587 148H251.907ZM277.806 148C277.192 148 276.659 147.773 276.206 147.32C275.752 146.867 275.526 146.333 275.526 145.72V129.48C275.526 128.867 275.752 128.333 276.206 127.88C276.659 127.427 277.192 127.2 277.806 127.2H278.566C279.179 127.2 279.712 127.427 280.166 127.88C280.619 128.333 280.846 128.867 280.846 129.48V140.72L280.886 140.76L280.926 140.72L287.366 129.16C288.112 127.853 289.246 127.2 290.766 127.2H291.646C292.259 127.2 292.792 127.427 293.246 127.88C293.699 128.333 293.926 128.867 293.926 129.48V145.72C293.926 146.333 293.699 146.867 293.246 147.32C292.792 147.773 292.259 148 291.646 148H290.886C290.272 148 289.739 147.773 289.286 147.32C288.832 146.867 288.606 146.333 288.606 145.72V134.48L288.566 134.44L288.526 134.48L282.086 146.04C281.339 147.347 280.206 148 278.686 148H277.806ZM301.712 148C301.099 148 300.565 147.773 300.112 147.32C299.659 146.867 299.432 146.333 299.432 145.72V129.48C299.432 128.867 299.659 128.333 300.112 127.88C300.565 127.427 301.099 127.2 301.712 127.2H302.472C303.085 127.2 303.619 127.427 304.072 127.88C304.525 128.333 304.752 128.867 304.752 129.48V140.72L304.792 140.76L304.832 140.72L311.272 129.16C312.019 127.853 313.152 127.2 314.672 127.2H315.552C316.165 127.2 316.699 127.427 317.152 127.88C317.605 128.333 317.832 128.867 317.832 129.48V145.72C317.832 146.333 317.605 146.867 317.152 147.32C316.699 147.773 316.165 148 315.552 148H314.792C314.179 148 313.645 147.773 313.192 147.32C312.739 146.867 312.512 146.333 312.512 145.72V134.48L312.472 134.44L312.432 134.48L305.992 146.04C305.245 147.347 304.112 148 302.592 148H301.712ZM336.945 148C336.332 148 335.799 147.773 335.345 147.32C334.919 146.867 334.705 146.333 334.705 145.72V129.48C334.705 128.867 334.919 128.333 335.345 127.88C335.799 127.427 336.332 127.2 336.945 127.2H337.825C338.439 127.2 338.972 127.427 339.425 127.88C339.879 128.333 340.105 128.867 340.105 129.48V134.84C340.105 135.08 340.225 135.2 340.465 135.2H347.185C347.425 135.2 347.545 135.08 347.545 134.84V129.48C347.545 128.867 347.772 128.333 348.225 127.88C348.679 127.427 349.212 127.2 349.825 127.2H350.705C351.319 127.2 351.839 127.427 352.265 127.88C352.719 128.333 352.945 128.867 352.945 129.48V145.72C352.945 146.333 352.719 146.867 352.265 147.32C351.839 147.773 351.319 148 350.705 148H349.825C349.212 148 348.679 147.773 348.225 147.32C347.772 146.867 347.545 146.333 347.545 145.72V139.32C347.545 139.08 347.425 138.96 347.185 138.96H340.465C340.225 138.96 340.105 139.08 340.105 139.32V145.72C340.105 146.333 339.879 146.867 339.425 147.32C338.972 147.773 338.439 148 337.825 148H336.945ZM368.255 138C364.442 138 362.535 139.173 362.535 141.52C362.535 142.373 362.775 143.067 363.255 143.6C363.762 144.133 364.402 144.4 365.175 144.4C366.695 144.4 367.922 143.933 368.855 143C369.789 142.04 370.255 140.733 370.255 139.08V138.36C370.255 138.12 370.135 138 369.895 138H368.255ZM363.735 148.4C361.922 148.4 360.415 147.813 359.215 146.64C358.042 145.44 357.455 143.893 357.455 142C357.455 139.68 358.335 137.88 360.095 136.6C361.882 135.32 364.602 134.68 368.255 134.68H369.895C370.135 134.68 370.255 134.56 370.255 134.32V134C370.255 132.773 369.962 131.92 369.375 131.44C368.789 130.933 367.749 130.68 366.255 130.68C364.709 130.68 362.815 130.96 360.575 131.52C360.095 131.653 359.655 131.573 359.255 131.28C358.855 130.96 358.655 130.547 358.655 130.04C358.655 129.427 358.842 128.88 359.215 128.4C359.589 127.893 360.069 127.587 360.655 127.48C362.682 127.027 364.589 126.8 366.375 126.8C369.789 126.8 372.175 127.413 373.535 128.64C374.895 129.867 375.575 132.013 375.575 135.08V145.72C375.575 146.333 375.349 146.867 374.895 147.32C374.469 147.773 373.949 148 373.335 148H372.895C372.255 148 371.709 147.787 371.255 147.36C370.802 146.907 370.562 146.36 370.535 145.72V145.16C370.535 145.133 370.522 145.12 370.495 145.12C370.442 145.12 370.415 145.133 370.415 145.16C368.789 147.32 366.562 148.4 363.735 148.4ZM48 191.36C47.2267 190.24 46.0533 189.68 44.48 189.68C42.9067 189.68 41.72 190.24 40.92 191.36C40.1467 192.453 39.76 194.2 39.76 196.6C39.76 199 40.1467 200.76 40.92 201.88C41.72 202.973 42.9067 203.52 44.48 203.52C46.0533 203.52 47.2267 202.973 48 201.88C48.8 200.76 49.2 199 49.2 196.6C49.2 194.2 48.8 192.453 48 191.36ZM51.92 204.6C50.16 206.467 47.68 207.4 44.48 207.4C41.28 207.4 38.7867 206.467 37 204.6C35.24 202.707 34.36 200.04 34.36 196.6C34.36 193.16 35.24 190.507 37 188.64C38.7867 186.747 41.28 185.8 44.48 185.8C47.68 185.8 50.16 186.747 51.92 188.64C53.7067 190.507 54.6 193.16 54.6 196.6C54.6 200.04 53.7067 202.707 51.92 204.6ZM67.6488 207.4C64.3421 207.4 61.7954 206.493 60.0088 204.68C58.2221 202.84 57.3288 200.147 57.3288 196.6C57.3288 193.107 58.1821 190.44 59.8888 188.6C61.6221 186.733 64.0754 185.8 67.2488 185.8C68.6621 185.8 70.0221 185.893 71.3288 186.08C71.9421 186.16 72.4488 186.44 72.8488 186.92C73.2488 187.4 73.4488 187.96 73.4488 188.6C73.4488 189.133 73.2354 189.56 72.8088 189.88C72.4088 190.2 71.9421 190.307 71.4088 190.2C70.3688 189.987 69.2088 189.88 67.9288 189.88C66.2488 189.88 64.9954 190.413 64.1688 191.48C63.3421 192.547 62.9288 194.253 62.9288 196.6C62.9288 199 63.3688 200.72 64.2488 201.76C65.1288 202.8 66.4888 203.32 68.3288 203.32C69.6354 203.32 70.7688 203.2 71.7288 202.96C72.2354 202.827 72.6888 202.92 73.0888 203.24C73.5154 203.56 73.7288 203.973 73.7288 204.48C73.7288 205.12 73.5288 205.68 73.1288 206.16C72.7554 206.64 72.2621 206.933 71.6488 207.04C70.2888 207.28 68.9554 207.4 67.6488 207.4ZM81.2812 207C80.6679 207 80.1346 206.773 79.6813 206.32C79.2546 205.867 79.0413 205.333 79.0413 204.72V188.48C79.0413 187.867 79.2546 187.333 79.6813 186.88C80.1346 186.427 80.6679 186.2 81.2812 186.2H82.1612C82.7746 186.2 83.3079 186.427 83.7613 186.88C84.2146 187.333 84.4413 187.867 84.4413 188.48V193.84C84.4413 194.08 84.5613 194.2 84.8013 194.2H91.5213C91.7613 194.2 91.8813 194.08 91.8813 193.84V188.48C91.8813 187.867 92.1079 187.333 92.5613 186.88C93.0146 186.427 93.5479 186.2 94.1613 186.2H95.0413C95.6546 186.2 96.1746 186.427 96.6013 186.88C97.0546 187.333 97.2813 187.867 97.2813 188.48V204.72C97.2813 205.333 97.0546 205.867 96.6013 206.32C96.1746 206.773 95.6546 207 95.0413 207H94.1613C93.5479 207 93.0146 206.773 92.5613 206.32C92.1079 205.867 91.8813 205.333 91.8813 204.72V198.32C91.8813 198.08 91.7613 197.96 91.5213 197.96H84.8013C84.5613 197.96 84.4413 198.08 84.4413 198.32V204.72C84.4413 205.333 84.2146 205.867 83.7613 206.32C83.3079 206.773 82.7746 207 82.1612 207H81.2812ZM115.031 191.36C114.258 190.24 113.085 189.68 111.511 189.68C109.938 189.68 108.751 190.24 107.951 191.36C107.178 192.453 106.791 194.2 106.791 196.6C106.791 199 107.178 200.76 107.951 201.88C108.751 202.973 109.938 203.52 111.511 203.52C113.085 203.52 114.258 202.973 115.031 201.88C115.831 200.76 116.231 199 116.231 196.6C116.231 194.2 115.831 192.453 115.031 191.36ZM118.951 204.6C117.191 206.467 114.711 207.4 111.511 207.4C108.311 207.4 105.818 206.467 104.031 204.6C102.271 202.707 101.391 200.04 101.391 196.6C101.391 193.16 102.271 190.507 104.031 188.64C105.818 186.747 108.311 185.8 111.511 185.8C114.711 185.8 117.191 186.747 118.951 188.64C120.738 190.507 121.631 193.16 121.631 196.6C121.631 200.04 120.738 202.707 118.951 204.6ZM131.04 198.04V203.36C131.04 203.573 131.16 203.707 131.4 203.76C131.72 203.813 132.227 203.84 132.92 203.84C136.093 203.84 137.68 202.773 137.68 200.64C137.68 198.693 136.053 197.72 132.8 197.72H131.4C131.16 197.72 131.04 197.827 131.04 198.04ZM131.04 189.84V194.12C131.04 194.333 131.16 194.44 131.4 194.44H132.68C133.987 194.44 135.013 194.2 135.76 193.72C136.533 193.24 136.92 192.587 136.92 191.76C136.92 190.16 135.547 189.36 132.8 189.36C132.48 189.36 132 189.387 131.36 189.44C131.147 189.493 131.04 189.627 131.04 189.84ZM128 207.08C127.36 207.027 126.827 206.76 126.4 206.28C125.973 205.773 125.76 205.2 125.76 204.56V188.64C125.76 187.973 125.973 187.4 126.4 186.92C126.827 186.44 127.373 186.173 128.04 186.12C129.587 185.987 131.027 185.92 132.36 185.92C138.707 185.92 141.88 187.653 141.88 191.12C141.88 192.32 141.44 193.347 140.56 194.2C139.707 195.027 138.533 195.573 137.04 195.84L137 195.88H137.04C138.827 196.12 140.227 196.707 141.24 197.64C142.253 198.547 142.76 199.667 142.76 201C142.76 205.187 139.4 207.28 132.68 207.28C131.24 207.28 129.68 207.213 128 207.08ZM155.568 189.52C154.208 189.52 153.155 189.907 152.408 190.68C151.688 191.427 151.235 192.64 151.048 194.32C151.048 194.533 151.155 194.64 151.368 194.64H159.208C159.421 194.64 159.528 194.533 159.528 194.32C159.421 191.12 158.101 189.52 155.568 189.52ZM156.568 207.4C153.075 207.4 150.381 206.493 148.488 204.68C146.621 202.84 145.688 200.147 145.688 196.6C145.688 193.08 146.528 190.4 148.208 188.56C149.888 186.72 152.315 185.8 155.488 185.8C161.408 185.8 164.448 189.16 164.608 195.88C164.635 196.52 164.408 197.053 163.928 197.48C163.448 197.907 162.888 198.12 162.248 198.12H151.328C151.088 198.12 150.995 198.24 151.048 198.48C151.235 200.267 151.821 201.573 152.808 202.4C153.821 203.2 155.288 203.6 157.208 203.6C158.408 203.6 159.741 203.4 161.208 203C161.688 202.867 162.128 202.947 162.528 203.24C162.955 203.533 163.168 203.933 163.168 204.44C163.168 205.053 162.981 205.6 162.608 206.08C162.261 206.533 161.795 206.813 161.208 206.92C159.715 207.24 158.168 207.4 156.568 207.4ZM185.571 198.04V203.36C185.571 203.573 185.691 203.707 185.931 203.76C186.251 203.813 186.758 203.84 187.451 203.84C190.625 203.84 192.211 202.773 192.211 200.64C192.211 198.693 190.585 197.72 187.331 197.72H185.931C185.691 197.72 185.571 197.827 185.571 198.04ZM185.571 189.84V194.12C185.571 194.333 185.691 194.44 185.931 194.44H187.211C188.518 194.44 189.545 194.2 190.291 193.72C191.065 193.24 191.451 192.587 191.451 191.76C191.451 190.16 190.078 189.36 187.331 189.36C187.011 189.36 186.531 189.387 185.891 189.44C185.678 189.493 185.571 189.627 185.571 189.84ZM182.531 207.08C181.891 207.027 181.358 206.76 180.931 206.28C180.505 205.773 180.291 205.2 180.291 204.56V188.64C180.291 187.973 180.505 187.4 180.931 186.92C181.358 186.44 181.905 186.173 182.571 186.12C184.118 185.987 185.558 185.92 186.891 185.92C193.238 185.92 196.411 187.653 196.411 191.12C196.411 192.32 195.971 193.347 195.091 194.2C194.238 195.027 193.065 195.573 191.571 195.84L191.531 195.88H191.571C193.358 196.12 194.758 196.707 195.771 197.64C196.785 198.547 197.291 199.667 197.291 201C197.291 205.187 193.931 207.28 187.211 207.28C185.771 207.28 184.211 207.213 182.531 207.08ZM211.419 197C207.606 197 205.699 198.173 205.699 200.52C205.699 201.373 205.939 202.067 206.419 202.6C206.926 203.133 207.566 203.4 208.339 203.4C209.859 203.4 211.086 202.933 212.019 202C212.953 201.04 213.419 199.733 213.419 198.08V197.36C213.419 197.12 213.299 197 213.059 197H211.419ZM206.899 207.4C205.086 207.4 203.579 206.813 202.379 205.64C201.206 204.44 200.619 202.893 200.619 201C200.619 198.68 201.499 196.88 203.259 195.6C205.046 194.32 207.766 193.68 211.419 193.68H213.059C213.299 193.68 213.419 193.56 213.419 193.32V193C213.419 191.773 213.126 190.92 212.539 190.44C211.953 189.933 210.913 189.68 209.419 189.68C207.873 189.68 205.979 189.96 203.739 190.52C203.259 190.653 202.819 190.573 202.419 190.28C202.019 189.96 201.819 189.547 201.819 189.04C201.819 188.427 202.006 187.88 202.379 187.4C202.753 186.893 203.233 186.587 203.819 186.48C205.846 186.027 207.753 185.8 209.539 185.8C212.953 185.8 215.339 186.413 216.699 187.64C218.059 188.867 218.739 191.013 218.739 194.08V204.72C218.739 205.333 218.513 205.867 218.059 206.32C217.633 206.773 217.113 207 216.499 207H216.059C215.419 207 214.873 206.787 214.419 206.36C213.966 205.907 213.726 205.36 213.699 204.72V204.16C213.699 204.133 213.686 204.12 213.659 204.12C213.606 204.12 213.579 204.133 213.579 204.16C211.953 206.32 209.726 207.4 206.899 207.4ZM226.281 207C225.668 207 225.135 206.773 224.681 206.32C224.255 205.867 224.041 205.333 224.041 204.72V188.48C224.041 187.867 224.255 187.333 224.681 186.88C225.135 186.427 225.668 186.2 226.281 186.2H226.881C227.495 186.2 228.028 186.427 228.481 186.88C228.935 187.333 229.161 187.867 229.161 188.48V202.8C229.161 203.013 229.268 203.12 229.481 203.12H233.961C234.201 203.12 234.321 203.013 234.321 202.8V188.48C234.321 187.867 234.535 187.333 234.961 186.88C235.415 186.427 235.948 186.2 236.561 186.2H237.041C237.655 186.2 238.175 186.427 238.601 186.88C239.055 187.333 239.281 187.867 239.281 188.48V202.8C239.281 203.013 239.401 203.12 239.641 203.12H244.121C244.335 203.12 244.441 203.013 244.441 202.8V188.48C244.441 187.867 244.668 187.333 245.121 186.88C245.575 186.427 246.108 186.2 246.721 186.2H247.321C247.935 186.2 248.455 186.427 248.881 186.88C249.335 187.333 249.561 187.867 249.561 188.48V204.72C249.561 205.333 249.335 205.867 248.881 206.32C248.455 206.773 247.935 207 247.321 207H226.281ZM257.376 207C256.763 207 256.229 206.773 255.776 206.32C255.323 205.867 255.096 205.333 255.096 204.72V188.48C255.096 187.867 255.323 187.333 255.776 186.88C256.229 186.427 256.763 186.2 257.376 186.2H258.136C258.749 186.2 259.283 186.427 259.736 186.88C260.189 187.333 260.416 187.867 260.416 188.48V199.72L260.456 199.76L260.496 199.72L266.936 188.16C267.683 186.853 268.816 186.2 270.336 186.2H271.216C271.829 186.2 272.363 186.427 272.816 186.88C273.269 187.333 273.496 187.867 273.496 188.48V204.72C273.496 205.333 273.269 205.867 272.816 206.32C272.363 206.773 271.829 207 271.216 207H270.456C269.843 207 269.309 206.773 268.856 206.32C268.403 205.867 268.176 205.333 268.176 204.72V193.48L268.136 193.44L268.096 193.48L261.656 205.04C260.909 206.347 259.776 207 258.256 207H257.376ZM279.642 207C279.136 207 278.762 206.787 278.522 206.36C278.282 205.933 278.296 205.507 278.562 205.08L283.682 196.68C283.816 196.493 283.816 196.307 283.682 196.12L278.762 188.12C278.496 187.693 278.482 187.267 278.722 186.84C278.962 186.413 279.336 186.2 279.842 186.2H281.122C281.816 186.2 282.456 186.387 283.042 186.76C283.656 187.107 284.122 187.587 284.442 188.2L287.162 193.44C287.162 193.467 287.176 193.48 287.202 193.48C287.229 193.48 287.242 193.467 287.242 193.44L289.962 188.2C290.282 187.587 290.736 187.107 291.322 186.76C291.909 186.387 292.562 186.2 293.282 186.2H294.402C294.909 186.2 295.282 186.413 295.522 186.84C295.762 187.267 295.749 187.693 295.482 188.12L290.562 196.12C290.429 196.307 290.429 196.493 290.562 196.68L295.682 205.08C295.949 205.507 295.962 205.933 295.722 206.36C295.482 206.787 295.109 207 294.602 207H293.322C292.602 207 291.949 206.827 291.362 206.48C290.776 206.107 290.322 205.613 290.002 205L287.082 199.4C287.082 199.373 287.069 199.36 287.042 199.36C287.016 199.36 287.002 199.373 287.002 199.4L284.082 205C283.762 205.613 283.296 206.107 282.682 206.48C282.096 206.827 281.456 207 280.762 207H279.642ZM313.704 207C313.091 207 312.557 206.773 312.104 206.32C311.651 205.867 311.424 205.333 311.424 204.72V188.48C311.424 187.867 311.651 187.333 312.104 186.88C312.557 186.427 313.091 186.2 313.704 186.2H314.504C315.117 186.2 315.651 186.427 316.104 186.88C316.557 187.333 316.784 187.867 316.784 188.48V194.68C316.784 194.707 316.797 194.72 316.824 194.72H316.864L322.944 187.88C323.931 186.76 325.184 186.2 326.704 186.2H328.384C328.811 186.2 329.104 186.4 329.264 186.8C329.451 187.2 329.397 187.56 329.104 187.88L321.784 195.96C321.651 196.12 321.651 196.293 321.784 196.48L329.184 205.28C329.477 205.627 329.517 206 329.304 206.4C329.117 206.8 328.811 207 328.384 207H326.704C325.184 207 323.944 206.413 322.984 205.24L316.864 197.84C316.864 197.813 316.851 197.8 316.824 197.8C316.797 197.8 316.784 197.813 316.784 197.84V204.72C316.784 205.333 316.557 205.867 316.104 206.32C315.651 206.773 315.117 207 314.504 207H313.704ZM335.969 207C335.355 207 334.822 206.773 334.369 206.32C333.942 205.867 333.729 205.333 333.729 204.72V188.48C333.729 187.867 333.942 187.333 334.369 186.88C334.822 186.427 335.355 186.2 335.969 186.2H336.849C337.462 186.2 337.995 186.427 338.449 186.88C338.902 187.333 339.129 187.867 339.129 188.48V193.84C339.129 194.08 339.249 194.2 339.489 194.2H346.209C346.449 194.2 346.569 194.08 346.569 193.84V188.48C346.569 187.867 346.795 187.333 347.249 186.88C347.702 186.427 348.235 186.2 348.849 186.2H349.729C350.342 186.2 350.862 186.427 351.289 186.88C351.742 187.333 351.969 187.867 351.969 188.48V204.72C351.969 205.333 351.742 205.867 351.289 206.32C350.862 206.773 350.342 207 349.729 207H348.849C348.235 207 347.702 206.773 347.249 206.32C346.795 205.867 346.569 205.333 346.569 204.72V198.32C346.569 198.08 346.449 197.96 346.209 197.96H339.489C339.249 197.96 339.129 198.08 339.129 198.32V204.72C339.129 205.333 338.902 205.867 338.449 206.32C337.995 206.773 337.462 207 336.849 207H335.969ZM359.759 207C359.145 207 358.612 206.773 358.159 206.32C357.705 205.867 357.479 205.333 357.479 204.72V188.48C357.479 187.867 357.705 187.333 358.159 186.88C358.612 186.427 359.145 186.2 359.759 186.2H360.519C361.132 186.2 361.665 186.427 362.119 186.88C362.572 187.333 362.799 187.867 362.799 188.48V199.72L362.839 199.76L362.879 199.72L369.319 188.16C370.065 186.853 371.199 186.2 372.719 186.2H373.599C374.212 186.2 374.745 186.427 375.199 186.88C375.652 187.333 375.879 187.867 375.879 188.48V204.72C375.879 205.333 375.652 205.867 375.199 206.32C374.745 206.773 374.212 207 373.599 207H372.839C372.225 207 371.692 206.773 371.239 206.32C370.785 205.867 370.559 205.333 370.559 204.72V193.48L370.519 193.44L370.479 193.48L364.039 205.04C363.292 206.347 362.159 207 360.639 207H359.759ZM382.065 207C381.585 207 381.212 206.787 380.945 206.36C380.678 205.907 380.665 205.467 380.905 205.04L385.745 196.64C385.878 196.453 385.878 196.253 385.745 196.04L381.145 188.16C380.905 187.707 380.905 187.267 381.145 186.84C381.412 186.413 381.785 186.2 382.265 186.2H382.985C383.705 186.2 384.372 186.387 384.985 186.76C385.598 187.107 386.065 187.573 386.385 188.16L389.705 194.16C389.838 194.373 390.012 194.48 390.225 194.48H391.105C391.345 194.48 391.465 194.36 391.465 194.12V188.48C391.465 187.867 391.678 187.333 392.105 186.88C392.558 186.427 393.092 186.2 393.705 186.2H394.265C394.905 186.2 395.438 186.427 395.865 186.88C396.292 187.333 396.505 187.867 396.505 188.48V194.12C396.505 194.36 396.625 194.48 396.865 194.48H397.745C397.985 194.48 398.158 194.373 398.265 194.16L401.585 188.16C401.932 187.573 402.412 187.107 403.025 186.76C403.638 186.387 404.292 186.2 404.985 186.2H405.705C406.212 186.2 406.585 186.413 406.825 186.84C407.092 187.267 407.092 187.707 406.825 188.16L402.225 195.96C402.118 196.173 402.118 196.373 402.225 196.56L407.065 205.04C407.332 205.467 407.332 205.907 407.065 206.36C406.798 206.787 406.412 207 405.905 207H405.185C404.518 207 403.878 206.827 403.265 206.48C402.652 206.107 402.172 205.613 401.825 205L398.265 198.64C398.158 198.427 397.985 198.32 397.745 198.32H396.865C396.625 198.32 396.505 198.44 396.505 198.68V204.72C396.505 205.333 396.292 205.867 395.865 206.32C395.438 206.773 394.905 207 394.265 207H393.705C393.092 207 392.558 206.773 392.105 206.32C391.678 205.867 391.465 205.333 391.465 204.72V198.68C391.465 198.44 391.345 198.32 391.105 198.32H390.225C390.012 198.32 389.838 198.427 389.705 198.64L386.145 205C385.825 205.613 385.358 206.107 384.745 206.48C384.132 206.827 383.478 207 382.785 207H382.065ZM413.664 207C413.051 207 412.517 206.773 412.064 206.32C411.637 205.867 411.424 205.333 411.424 204.72V188.48C411.424 187.867 411.637 187.333 412.064 186.88C412.517 186.427 413.051 186.2 413.664 186.2H414.544C415.157 186.2 415.691 186.427 416.144 186.88C416.597 187.333 416.824 187.867 416.824 188.48V193.84C416.824 194.08 416.944 194.2 417.184 194.2H423.904C424.144 194.2 424.264 194.08 424.264 193.84V188.48C424.264 187.867 424.491 187.333 424.944 186.88C425.397 186.427 425.931 186.2 426.544 186.2H427.424C428.037 186.2 428.557 186.427 428.984 186.88C429.437 187.333 429.664 187.867 429.664 188.48V204.72C429.664 205.333 429.437 205.867 428.984 206.32C428.557 206.773 428.037 207 427.424 207H426.544C425.931 207 425.397 206.773 424.944 206.32C424.491 205.867 424.264 205.333 424.264 204.72V198.32C424.264 198.08 424.144 197.96 423.904 197.96H417.184C416.944 197.96 416.824 198.08 416.824 198.32V204.72C416.824 205.333 416.597 205.867 416.144 206.32C415.691 206.773 415.157 207 414.544 207H413.664ZM457.214 207C456.601 207 456.067 206.773 455.614 206.32C455.187 205.867 454.974 205.333 454.974 204.72V188.48C454.974 187.867 455.187 187.333 455.614 186.88C456.067 186.427 456.601 186.2 457.214 186.2H457.894C458.507 186.2 459.041 186.427 459.494 186.88C459.947 187.333 460.174 187.867 460.174 188.48V204.72C460.174 205.333 459.947 205.867 459.494 206.32C459.041 206.773 458.507 207 457.894 207H457.214ZM442.614 203.52C444.321 203.52 445.561 203.187 446.334 202.52C447.134 201.827 447.534 200.76 447.534 199.32C447.534 196.84 445.881 195.6 442.574 195.6C441.987 195.6 441.361 195.667 440.694 195.8C440.481 195.853 440.374 195.987 440.374 196.2V202.92C440.374 203.133 440.481 203.267 440.694 203.32C441.414 203.453 442.054 203.52 442.614 203.52ZM443.374 191.72C446.334 191.72 448.601 192.4 450.174 193.76C451.774 195.12 452.574 196.973 452.574 199.32C452.574 202.04 451.734 204.067 450.054 205.4C448.374 206.733 445.747 207.4 442.174 207.4C440.387 207.4 438.787 207.307 437.374 207.12C436.734 207.04 436.201 206.747 435.774 206.24C435.374 205.733 435.174 205.16 435.174 204.52V188.48C435.174 187.867 435.387 187.333 435.814 186.88C436.267 186.427 436.801 186.2 437.414 186.2H438.094C438.707 186.2 439.241 186.427 439.694 186.88C440.147 187.333 440.374 187.867 440.374 188.48V191.64C440.374 191.72 440.401 191.8 440.454 191.88C440.534 191.96 440.614 191.987 440.694 191.96C441.761 191.8 442.654 191.72 443.374 191.72ZM466.322 207C465.815 207 465.442 206.787 465.202 206.36C464.962 205.933 464.975 205.507 465.242 205.08L470.362 196.68C470.495 196.493 470.495 196.307 470.362 196.12L465.442 188.12C465.175 187.693 465.162 187.267 465.402 186.84C465.642 186.413 466.015 186.2 466.522 186.2H467.802C468.495 186.2 469.135 186.387 469.722 186.76C470.335 187.107 470.802 187.587 471.122 188.2L473.842 193.44C473.842 193.467 473.855 193.48 473.882 193.48C473.909 193.48 473.922 193.467 473.922 193.44L476.642 188.2C476.962 187.587 477.415 187.107 478.002 186.76C478.589 186.387 479.242 186.2 479.962 186.2H481.082C481.589 186.2 481.962 186.413 482.202 186.84C482.442 187.267 482.429 187.693 482.162 188.12L477.242 196.12C477.109 196.307 477.109 196.493 477.242 196.68L482.362 205.08C482.629 205.507 482.642 205.933 482.402 206.36C482.162 206.787 481.789 207 481.282 207H480.002C479.282 207 478.629 206.827 478.042 206.48C477.455 206.107 477.002 205.613 476.682 205L473.762 199.4C473.762 199.373 473.749 199.36 473.722 199.36C473.695 199.36 473.682 199.373 473.682 199.4L470.762 205C470.442 205.613 469.975 206.107 469.362 206.48C468.775 206.827 468.135 207 467.442 207H466.322ZM38.04 266C37.4267 266 36.8933 265.773 36.44 265.32C35.9867 264.867 35.76 264.333 35.76 263.72V247.48C35.76 246.867 35.9867 246.333 36.44 245.88C36.8933 245.427 37.4267 245.2 38.04 245.2H51.56C52.1733 245.2 52.7067 245.427 53.16 245.88C53.6133 246.333 53.84 246.867 53.84 247.48V263.72C53.84 264.333 53.6133 264.867 53.16 265.32C52.7067 265.773 52.1733 266 51.56 266H50.84C50.2267 266 49.6933 265.773 49.24 265.32C48.7867 264.867 48.56 264.333 48.56 263.72V249.56C48.56 249.32 48.4533 249.2 48.24 249.2H41.36C41.1467 249.2 41.04 249.32 41.04 249.56V263.72C41.04 264.333 40.8133 264.867 40.36 265.32C39.9067 265.773 39.3733 266 38.76 266H38.04ZM64.6338 252.88V258.32C64.6338 259.387 65.0871 260.333 65.9938 261.16C66.9271 261.987 68.0071 262.4 69.2338 262.4C70.6471 262.4 71.7671 261.827 72.5938 260.68C73.4204 259.533 73.8338 257.84 73.8338 255.6C73.8338 251.067 72.3004 248.8 69.2338 248.8C68.0071 248.8 66.9271 249.213 65.9938 250.04C65.0871 250.867 64.6338 251.813 64.6338 252.88ZM61.6338 274.8C61.0204 274.8 60.4871 274.573 60.0338 274.12C59.5804 273.667 59.3538 273.133 59.3538 272.52V247.48C59.3538 246.867 59.5804 246.333 60.0338 245.88C60.4871 245.427 61.0204 245.2 61.6338 245.2H62.1138C62.7538 245.2 63.3004 245.427 63.7538 245.88C64.2071 246.307 64.4471 246.84 64.4738 247.48V247.76C64.4738 247.787 64.4871 247.8 64.5138 247.8C64.5404 247.8 64.5671 247.787 64.5938 247.76C65.5538 246.693 66.5138 245.933 67.4738 245.48C68.4338 245.027 69.5538 244.8 70.8338 244.8C73.3404 244.8 75.3404 245.747 76.8338 247.64C78.3271 249.507 79.0738 252.16 79.0738 255.6C79.0738 258.933 78.2871 261.573 76.7138 263.52C75.1671 265.44 73.2071 266.4 70.8338 266.4C68.5138 266.4 66.5004 265.56 64.7938 263.88C64.7671 263.853 64.7404 263.84 64.7138 263.84C64.6871 263.84 64.6738 263.853 64.6738 263.88V272.52C64.6738 273.133 64.4471 273.667 63.9938 274.12C63.5671 274.573 63.0471 274.8 62.4338 274.8H61.6338ZM91.8572 248.52C90.4972 248.52 89.4439 248.907 88.6972 249.68C87.9772 250.427 87.5239 251.64 87.3372 253.32C87.3372 253.533 87.4439 253.64 87.6572 253.64H95.4972C95.7105 253.64 95.8172 253.533 95.8172 253.32C95.7105 250.12 94.3905 248.52 91.8572 248.52ZM92.8572 266.4C89.3639 266.4 86.6705 265.493 84.7772 263.68C82.9105 261.84 81.9772 259.147 81.9772 255.6C81.9772 252.08 82.8172 249.4 84.4972 247.56C86.1772 245.72 88.6039 244.8 91.7772 244.8C97.6972 244.8 100.737 248.16 100.897 254.88C100.924 255.52 100.697 256.053 100.217 256.48C99.7372 256.907 99.1772 257.12 98.5372 257.12H87.6172C87.3772 257.12 87.2839 257.24 87.3372 257.48C87.5239 259.267 88.1105 260.573 89.0972 261.4C90.1105 262.2 91.5772 262.6 93.4972 262.6C94.6972 262.6 96.0305 262.4 97.4972 262C97.9772 261.867 98.4172 261.947 98.8172 262.24C99.2439 262.533 99.4572 262.933 99.4572 263.44C99.4572 264.053 99.2705 264.6 98.8972 265.08C98.5505 265.533 98.0839 265.813 97.4972 265.92C96.0039 266.24 94.4572 266.4 92.8572 266.4ZM111.533 261.84C111.48 261.893 111.466 261.96 111.493 262.04C111.546 262.093 111.613 262.12 111.693 262.12H119.053C119.293 262.12 119.413 262.013 119.413 261.8V249.4C119.413 249.187 119.293 249.08 119.053 249.08H113.933C113.72 249.08 113.613 249.187 113.613 249.4C113.613 252.653 113.573 254.907 113.493 256.16C113.413 257.387 113.24 258.387 112.973 259.16C112.733 259.907 112.253 260.8 111.533 261.84ZM106.053 270.8C105.44 270.8 104.906 270.573 104.453 270.12C104.026 269.667 103.813 269.133 103.813 268.52V263.64C103.813 263.213 103.946 262.853 104.213 262.56C104.506 262.267 104.866 262.12 105.293 262.12C105.453 262.12 105.573 262.067 105.653 261.96C106.64 260.733 107.306 259.733 107.653 258.96C108 258.187 108.226 257.16 108.333 255.88C108.466 254.573 108.533 252.307 108.533 249.08V247.48C108.533 246.867 108.76 246.333 109.213 245.88C109.666 245.427 110.2 245.2 110.813 245.2H122.253C122.866 245.2 123.4 245.427 123.853 245.88C124.306 246.333 124.533 246.867 124.533 247.48V261.8C124.533 262.013 124.653 262.12 124.893 262.12H125.013C125.626 262.12 126.146 262.347 126.573 262.8C127.026 263.253 127.253 263.787 127.253 264.4V268.52C127.253 269.133 127.026 269.667 126.573 270.12C126.146 270.573 125.626 270.8 125.013 270.8H124.413C123.8 270.8 123.266 270.573 122.813 270.12C122.36 269.667 122.133 269.133 122.133 268.52V266.36C122.133 266.12 122.013 266 121.773 266H109.293C109.053 266 108.933 266.12 108.933 266.36V268.52C108.933 269.133 108.706 269.667 108.253 270.12C107.8 270.573 107.266 270.8 106.653 270.8H106.053ZM133.665 266C133.052 266 132.518 265.773 132.065 265.32C131.612 264.867 131.385 264.333 131.385 263.72V247.48C131.385 246.867 131.612 246.333 132.065 245.88C132.518 245.427 133.052 245.2 133.665 245.2H147.185C147.798 245.2 148.332 245.427 148.785 245.88C149.238 246.333 149.465 246.867 149.465 247.48V263.72C149.465 264.333 149.238 264.867 148.785 265.32C148.332 265.773 147.798 266 147.185 266H146.465C145.852 266 145.318 265.773 144.865 265.32C144.412 264.867 144.185 264.333 144.185 263.72V249.56C144.185 249.32 144.078 249.2 143.865 249.2H136.985C136.772 249.2 136.665 249.32 136.665 249.56V263.72C136.665 264.333 136.438 264.867 135.985 265.32C135.532 265.773 134.998 266 134.385 266H133.665ZM167.219 250.36C166.445 249.24 165.272 248.68 163.699 248.68C162.125 248.68 160.939 249.24 160.139 250.36C159.365 251.453 158.979 253.2 158.979 255.6C158.979 258 159.365 259.76 160.139 260.88C160.939 261.973 162.125 262.52 163.699 262.52C165.272 262.52 166.445 261.973 167.219 260.88C168.019 259.76 168.419 258 168.419 255.6C168.419 253.2 168.019 251.453 167.219 250.36ZM171.139 263.6C169.379 265.467 166.899 266.4 163.699 266.4C160.499 266.4 158.005 265.467 156.219 263.6C154.459 261.707 153.579 259.04 153.579 255.6C153.579 252.16 154.459 249.507 156.219 247.64C158.005 245.747 160.499 244.8 163.699 244.8C166.899 244.8 169.379 245.747 171.139 247.64C172.925 249.507 173.819 252.16 173.819 255.6C173.819 259.04 172.925 261.707 171.139 263.6ZM185.467 260.48C182.534 260.48 180.481 259.96 179.308 258.92C178.134 257.853 177.548 256.013 177.548 253.4V247.48C177.548 246.867 177.761 246.333 178.188 245.88C178.641 245.427 179.174 245.2 179.788 245.2H180.388C181.001 245.2 181.534 245.427 181.988 245.88C182.441 246.333 182.668 246.867 182.668 247.48V252.36C182.668 254.04 182.908 255.133 183.388 255.64C183.894 256.147 184.894 256.4 186.388 256.4C187.854 256.4 189.161 256.147 190.308 255.64C190.494 255.56 190.588 255.387 190.588 255.12V247.48C190.588 246.867 190.814 246.333 191.268 245.88C191.721 245.427 192.254 245.2 192.868 245.2H193.548C194.161 245.2 194.681 245.427 195.108 245.88C195.561 246.333 195.788 246.867 195.788 247.48V263.72C195.788 264.333 195.561 264.867 195.108 265.32C194.681 265.773 194.161 266 193.548 266H192.868C192.254 266 191.721 265.773 191.268 265.32C190.814 264.867 190.588 264.333 190.588 263.72V259.8C190.588 259.72 190.548 259.653 190.468 259.6C190.414 259.547 190.348 259.533 190.268 259.56C188.721 260.173 187.121 260.48 185.467 260.48ZM202.147 249.28C201.587 249.28 201.107 249.08 200.707 248.68C200.307 248.28 200.107 247.8 200.107 247.24C200.107 246.68 200.307 246.2 200.707 245.8C201.107 245.4 201.587 245.2 202.147 245.2H216.627C217.187 245.2 217.667 245.4 218.067 245.8C218.467 246.2 218.667 246.68 218.667 247.24C218.667 247.8 218.467 248.28 218.067 248.68C217.667 249.08 217.187 249.28 216.627 249.28H212.507C212.267 249.28 212.147 249.387 212.147 249.6V263.72C212.147 264.333 211.92 264.867 211.467 265.32C211.014 265.773 210.48 266 209.867 266H208.907C208.294 266 207.76 265.773 207.307 265.32C206.854 264.867 206.627 264.333 206.627 263.72V249.6C206.627 249.387 206.507 249.28 206.267 249.28H202.147ZM231.467 248.52C230.107 248.52 229.053 248.907 228.307 249.68C227.587 250.427 227.133 251.64 226.947 253.32C226.947 253.533 227.053 253.64 227.267 253.64H235.107C235.32 253.64 235.427 253.533 235.427 253.32C235.32 250.12 234 248.52 231.467 248.52ZM232.467 266.4C228.973 266.4 226.28 265.493 224.387 263.68C222.52 261.84 221.587 259.147 221.587 255.6C221.587 252.08 222.427 249.4 224.107 247.56C225.787 245.72 228.213 244.8 231.387 244.8C237.307 244.8 240.347 248.16 240.507 254.88C240.533 255.52 240.307 256.053 239.827 256.48C239.347 256.907 238.787 257.12 238.147 257.12H227.227C226.987 257.12 226.893 257.24 226.947 257.48C227.133 259.267 227.72 260.573 228.707 261.4C229.72 262.2 231.187 262.6 233.107 262.6C234.307 262.6 235.64 262.4 237.107 262C237.587 261.867 238.027 261.947 238.427 262.24C238.853 262.533 239.067 262.933 239.067 263.44C239.067 264.053 238.88 264.6 238.507 265.08C238.16 265.533 237.693 265.813 237.107 265.92C235.613 266.24 234.067 266.4 232.467 266.4ZM247.062 266C246.449 266 245.916 265.773 245.463 265.32C245.036 264.867 244.823 264.333 244.823 263.72V247.48C244.823 246.867 245.036 246.333 245.463 245.88C245.916 245.427 246.449 245.2 247.062 245.2H247.942C248.556 245.2 249.089 245.427 249.543 245.88C249.996 246.333 250.223 246.867 250.223 247.48V252.84C250.223 253.08 250.343 253.2 250.583 253.2H257.303C257.543 253.2 257.663 253.08 257.663 252.84V247.48C257.663 246.867 257.889 246.333 258.343 245.88C258.796 245.427 259.329 245.2 259.943 245.2H260.823C261.436 245.2 261.956 245.427 262.383 245.88C262.836 246.333 263.063 246.867 263.063 247.48V263.72C263.063 264.333 262.836 264.867 262.383 265.32C261.956 265.773 261.436 266 260.823 266H259.943C259.329 266 258.796 265.773 258.343 265.32C257.889 264.867 257.663 264.333 257.663 263.72V257.32C257.663 257.08 257.543 256.96 257.303 256.96H250.583C250.343 256.96 250.223 257.08 250.223 257.32V263.72C250.223 264.333 249.996 264.867 249.543 265.32C249.089 265.773 248.556 266 247.942 266H247.062ZM270.853 266C270.239 266 269.706 265.773 269.253 265.32C268.799 264.867 268.573 264.333 268.573 263.72V247.48C268.573 246.867 268.799 246.333 269.253 245.88C269.706 245.427 270.239 245.2 270.853 245.2H271.613C272.226 245.2 272.759 245.427 273.213 245.88C273.666 246.333 273.893 246.867 273.893 247.48V258.72L273.933 258.76L273.973 258.72L280.413 247.16C281.159 245.853 282.293 245.2 283.813 245.2H284.693C285.306 245.2 285.839 245.427 286.293 245.88C286.746 246.333 286.973 246.867 286.973 247.48V263.72C286.973 264.333 286.746 264.867 286.293 265.32C285.839 265.773 285.306 266 284.693 266H283.933C283.319 266 282.786 265.773 282.333 265.32C281.879 264.867 281.653 264.333 281.653 263.72V252.48L281.613 252.44L281.573 252.48L275.133 264.04C274.386 265.347 273.253 266 271.733 266H270.853ZM294.759 266C294.145 266 293.612 265.773 293.159 265.32C292.705 264.867 292.479 264.333 292.479 263.72V247.48C292.479 246.867 292.705 246.333 293.159 245.88C293.612 245.427 294.145 245.2 294.759 245.2H295.519C296.132 245.2 296.665 245.427 297.119 245.88C297.572 246.333 297.799 246.867 297.799 247.48V258.72L297.839 258.76L297.879 258.72L304.319 247.16C305.065 245.853 306.199 245.2 307.719 245.2H308.599C309.212 245.2 309.745 245.427 310.199 245.88C310.652 246.333 310.879 246.867 310.879 247.48V263.72C310.879 264.333 310.652 264.867 310.199 265.32C309.745 265.773 309.212 266 308.599 266H307.839C307.225 266 306.692 265.773 306.239 265.32C305.785 264.867 305.559 264.333 305.559 263.72V252.48L305.519 252.44L305.479 252.48L299.039 264.04C298.292 265.347 297.159 266 295.639 266H294.759ZM307.679 235.88H307.759C308.345 235.88 308.825 236.08 309.199 236.48C309.572 236.88 309.665 237.347 309.479 237.88C308.999 239.373 308.052 240.573 306.639 241.48C305.252 242.36 303.599 242.8 301.679 242.8C299.759 242.8 298.092 242.36 296.679 241.48C295.292 240.573 294.359 239.373 293.879 237.88C293.692 237.347 293.785 236.88 294.159 236.48C294.532 236.08 295.012 235.88 295.599 235.88H295.679C296.559 235.88 297.412 236.48 298.239 237.68C298.985 238.773 300.132 239.32 301.679 239.32C303.225 239.32 304.372 238.773 305.119 237.68C305.945 236.48 306.799 235.88 307.679 235.88Z" fill="black"/>
<path d="M716.426 203.385L722.776 166.667C724.362 157.496 717.31 149.108 708.013 149.108H661.383C656.762 149.108 653.242 144.96 653.99 140.394L659.954 103.993C660.923 98.0791 660.647 92.028 659.142 86.2277C657.896 81.4228 654.188 77.5645 649.313 75.9983L648.008 75.5792C645.062 74.6326 641.846 74.8529 639.068 76.1915C636.01 77.665 633.773 80.3526 632.944 83.549L628.662 100.054C627.3 105.305 625.316 110.374 622.757 115.164C619.019 122.162 613.24 127.762 607.232 132.939L594.283 144.097C590.632 147.243 588.715 151.955 589.13 156.76L596.44 241.294C597.11 249.048 603.593 255 611.367 255H653.205C684.536 255 711.276 233.17 716.426 203.385Z" fill="white"/>
<path fill-rule="evenodd" clip-rule="evenodd" d="M560.5 142C562 143.5 562.5 146.5 564 152L576.469 249.657C577.031 256.153 571.914 261.752 565.38 261.752C559.226 261.752 554.25 256.759 554.25 250.616L559 152C560 148 559.5 144 560.5 142Z" fill="white"/>
<path d="M722.776 166.667L720.806 166.326L722.776 166.667ZM716.427 203.385L714.456 203.044L716.427 203.385ZM596.44 241.294L594.447 241.466L596.44 241.294ZM589.13 156.76L591.123 156.587L589.13 156.76ZM659.955 103.993L661.928 104.316V104.316L659.955 103.993ZM653.99 140.394L655.964 140.717L653.99 140.394ZM594.283 144.097L592.978 142.582L592.978 142.582L594.283 144.097ZM607.232 132.939L608.537 134.454H608.537L607.232 132.939ZM628.662 100.054L626.727 99.5515L628.662 100.054ZM632.944 83.549L634.88 84.0512V84.0512L632.944 83.549ZM648.008 75.5792L647.397 77.4833V77.4833L648.008 75.5792ZM649.313 75.9983L649.925 74.0942V74.0942L649.313 75.9983ZM622.758 115.164L624.522 116.106V116.106L622.758 115.164ZM659.142 86.2277L657.206 86.7299V86.7299L659.142 86.2277ZM639.068 76.1915L638.2 74.3898L638.2 74.3898L639.068 76.1915ZM575.5 250L577.493 249.828C577.49 249.795 577.486 249.762 577.482 249.729L575.5 250ZM561 144.097L562.982 143.826C562.842 142.805 561.949 142.058 560.92 142.099C559.89 142.14 559.061 142.957 559.003 143.986L561 144.097ZM555 251.5L553.003 251.388L553 251.444V251.5H555ZM558 197.799L559.997 197.91L558 197.799ZM720.806 166.326L714.456 203.044L718.397 203.725L724.747 167.008L720.806 166.326ZM653.205 253H611.367V257H653.205V253ZM598.433 241.121L591.123 156.587L587.138 156.932L594.447 241.466L598.433 241.121ZM714.456 203.044C709.48 231.818 683.616 253 653.205 253V257C685.456 257 713.072 234.521 718.397 203.725L714.456 203.044ZM657.981 103.669L652.017 140.07L655.964 140.717L661.928 104.316L657.981 103.669ZM595.589 145.612L608.537 134.454L605.926 131.424L592.978 142.582L595.589 145.612ZM630.598 100.556L634.88 84.0512L631.008 83.0468L626.727 99.5515L630.598 100.556ZM647.397 77.4833L648.701 77.9025L649.925 74.0942L648.62 73.675L647.397 77.4833ZM624.522 116.106C627.154 111.178 629.196 105.962 630.598 100.556L626.727 99.5515C625.404 104.649 623.478 109.57 620.993 114.221L624.522 116.106ZM648.701 77.9025C652.949 79.2671 656.138 82.6133 657.206 86.7299L661.078 85.7255C659.653 80.2322 655.428 75.862 649.925 74.0942L648.701 77.9025ZM634.88 84.0512C635.557 81.4419 637.391 79.2197 639.936 77.9933L638.2 74.3898C634.629 76.1103 631.989 79.2634 631.008 83.0468L634.88 84.0512ZM639.936 77.9933C642.25 76.8781 644.936 76.693 647.397 77.4833L648.62 73.675C645.187 72.5723 641.441 72.8277 638.2 74.3898L639.936 77.9933ZM661.383 151.108H708.013V147.108H661.383V151.108ZM577.482 249.729L562.982 143.826L559.018 144.369L573.518 250.271L577.482 249.729ZM573.507 250.172C573.605 251.296 573.583 253.364 572.669 255.191C571.832 256.866 570.131 258.584 566.279 259.012L566.721 262.988C571.869 262.416 574.779 259.915 576.247 256.98C577.639 254.197 577.617 251.266 577.493 249.828L573.507 250.172ZM661.928 104.316C662.942 98.1277 662.653 91.7954 661.078 85.7255L657.206 86.7299C658.641 92.2606 658.905 98.0306 657.981 103.669L661.928 104.316ZM611.367 253C604.633 253 599.014 247.843 598.433 241.121L594.447 241.466C595.207 250.252 602.553 257 611.367 257V253ZM608.537 134.454C614.578 129.249 620.6 123.448 624.522 116.106L620.993 114.221C617.439 120.875 611.901 126.275 605.926 131.424L608.537 134.454ZM724.747 167.008C726.544 156.617 718.553 147.108 708.013 147.108V151.108C716.066 151.108 722.181 158.375 720.806 166.326L724.747 167.008ZM566.279 259.012C562.515 259.43 560.295 257.99 558.939 256.287C557.476 254.45 557 252.266 557 251.5H553C553 253.156 553.774 256.222 555.811 258.779C557.955 261.471 561.485 263.57 566.721 262.988L566.279 259.012ZM652.017 140.07C651.07 145.851 655.525 151.108 661.383 151.108V147.108C657.998 147.108 655.415 144.068 655.964 140.717L652.017 140.07ZM591.123 156.587C590.763 152.422 592.425 148.339 595.589 145.612L592.978 142.582C588.84 146.148 586.667 151.488 587.138 156.932L591.123 156.587ZM556.997 251.612L559.997 197.91L556.003 197.687L553.003 251.388L556.997 251.612ZM559.997 197.91L562.997 144.209L559.003 143.986L556.003 197.687L559.997 197.91Z" fill="black"/>
</svg>
