<svg width="750" height="330" viewBox="0 0 750 330" fill="none" xmlns="http://www.w3.org/2000/svg">
<rect width="750" height="330" rx="19" fill="#B8BEF6"/>
<path d="M60.08 82.4C55.8667 82.4 52.52 81.1067 50.04 78.52C47.5867 75.9067 46.36 72.2 46.36 67.4C46.36 62.6533 47.5467 58.9733 49.92 56.36C52.32 53.72 55.6667 52.4 59.96 52.4C61.9333 52.4 63.5867 52.52 64.92 52.76C65.56 52.8667 66.0933 53.1867 66.52 53.72C66.9467 54.2533 67.16 54.8533 67.16 55.52V55.84C67.16 56.4 66.92 56.84 66.44 57.16C65.9867 57.48 65.4933 57.5733 64.96 57.44C63.6533 57.0933 62.1867 56.92 60.56 56.92C57.92 56.92 55.84 57.8267 54.32 59.64C52.8267 61.4533 52.08 64.04 52.08 67.4C52.08 70.7333 52.8533 73.32 54.4 75.16C55.9733 76.9733 58.0667 77.88 60.68 77.88C62.44 77.88 63.9467 77.72 65.2 77.4C65.7333 77.2667 66.2267 77.36 66.68 77.68C67.16 78 67.4 78.44 67.4 79V79.28C67.4 79.9467 67.1867 80.5467 66.76 81.08C66.36 81.5867 65.8267 81.8933 65.16 82C63.64 82.2667 61.9467 82.4 60.08 82.4ZM85.3516 66.36C84.5782 65.24 83.4049 64.68 81.8316 64.68C80.2582 64.68 79.0716 65.24 78.2716 66.36C77.4982 67.4533 77.1116 69.2 77.1116 71.6C77.1116 74 77.4982 75.76 78.2716 76.88C79.0716 77.9733 80.2582 78.52 81.8316 78.52C83.4049 78.52 84.5782 77.9733 85.3516 76.88C86.1516 75.76 86.5516 74 86.5516 71.6C86.5516 69.2 86.1516 67.4533 85.3516 66.36ZM89.2716 79.6C87.5116 81.4667 85.0316 82.4 81.8316 82.4C78.6316 82.4 76.1382 81.4667 74.3516 79.6C72.5916 77.7067 71.7116 75.04 71.7116 71.6C71.7116 68.16 72.5916 65.5067 74.3516 63.64C76.1382 61.7467 78.6316 60.8 81.8316 60.8C85.0316 60.8 87.5116 61.7467 89.2716 63.64C91.0582 65.5067 91.9516 68.16 91.9516 71.6C91.9516 75.04 91.0582 77.7067 89.2716 79.6ZM96.8003 81.76C96.2403 81.6267 95.7736 81.32 95.4003 80.84C95.0536 80.36 94.8803 79.8133 94.8803 79.2C94.8803 78.72 95.0803 78.3333 95.4803 78.04C95.8803 77.7467 96.3203 77.6667 96.8003 77.8C98.5336 78.2533 100.294 78.48 102.08 78.48C105.36 78.48 107 77.56 107 75.72C107 74.8133 106.48 74.1333 105.44 73.68C104.427 73.2267 102.627 72.9867 100.04 72.96C99.5603 72.96 99.147 72.7867 98.8003 72.44C98.4536 72.0667 98.2803 71.64 98.2803 71.16C98.2803 70.68 98.4536 70.2667 98.8003 69.92C99.147 69.5733 99.5603 69.4 100.04 69.4C104.494 69.32 106.72 68.48 106.72 66.88C106.72 65.36 105.08 64.6 101.8 64.6C100.414 64.6 98.8536 64.84 97.1203 65.32C96.6403 65.4533 96.2003 65.3867 95.8003 65.12C95.4003 64.8533 95.2003 64.4667 95.2003 63.96C95.2003 63.3467 95.3736 62.8133 95.7203 62.36C96.067 61.88 96.5336 61.5733 97.1203 61.44C98.827 61.0133 100.56 60.8 102.32 60.8C105.334 60.8 107.694 61.32 109.4 62.36C111.134 63.3733 112 64.6133 112 66.08C112 67.2 111.574 68.2 110.72 69.08C109.894 69.96 108.694 70.6 107.12 71C107.067 71 107.04 71.0267 107.04 71.08C107.04 71.1067 107.067 71.12 107.12 71.12C108.667 71.36 109.907 71.9733 110.84 72.96C111.8 73.9467 112.28 75.0933 112.28 76.4C112.28 78.2133 111.414 79.6667 109.68 80.76C107.974 81.8533 105.52 82.4 102.32 82.4C100.454 82.4 98.6136 82.1867 96.8003 81.76ZM122.908 77.84C122.855 77.8933 122.841 77.96 122.868 78.04C122.921 78.0933 122.988 78.12 123.068 78.12H130.428C130.668 78.12 130.788 78.0133 130.788 77.8V65.4C130.788 65.1867 130.668 65.08 130.428 65.08H125.308C125.095 65.08 124.988 65.1867 124.988 65.4C124.988 68.6533 124.948 70.9067 124.868 72.16C124.788 73.3867 124.615 74.3867 124.348 75.16C124.108 75.9067 123.628 76.8 122.908 77.84ZM117.428 86.8C116.815 86.8 116.281 86.5733 115.828 86.12C115.401 85.6667 115.188 85.1333 115.188 84.52V79.64C115.188 79.2133 115.321 78.8533 115.588 78.56C115.881 78.2667 116.241 78.12 116.668 78.12C116.828 78.12 116.948 78.0667 117.028 77.96C118.015 76.7333 118.681 75.7333 119.028 74.96C119.375 74.1867 119.601 73.16 119.708 71.88C119.841 70.5733 119.908 68.3067 119.908 65.08V63.48C119.908 62.8667 120.135 62.3333 120.588 61.88C121.041 61.4267 121.575 61.2 122.188 61.2H133.628C134.241 61.2 134.775 61.4267 135.228 61.88C135.681 62.3333 135.908 62.8667 135.908 63.48V77.8C135.908 78.0133 136.028 78.12 136.268 78.12H136.388C137.001 78.12 137.521 78.3467 137.948 78.8C138.401 79.2533 138.628 79.7867 138.628 80.4V84.52C138.628 85.1333 138.401 85.6667 137.948 86.12C137.521 86.5733 137.001 86.8 136.388 86.8H135.788C135.175 86.8 134.641 86.5733 134.188 86.12C133.735 85.6667 133.508 85.1333 133.508 84.52V82.36C133.508 82.12 133.388 82 133.148 82H120.668C120.428 82 120.308 82.12 120.308 82.36V84.52C120.308 85.1333 120.081 85.6667 119.628 86.12C119.175 86.5733 118.641 86.8 118.028 86.8H117.428ZM152.56 72C148.747 72 146.84 73.1733 146.84 75.52C146.84 76.3733 147.08 77.0667 147.56 77.6C148.067 78.1333 148.707 78.4 149.48 78.4C151 78.4 152.227 77.9333 153.16 77C154.093 76.04 154.56 74.7333 154.56 73.08V72.36C154.56 72.12 154.44 72 154.2 72H152.56ZM148.04 82.4C146.227 82.4 144.72 81.8133 143.52 80.64C142.347 79.44 141.76 77.8933 141.76 76C141.76 73.68 142.64 71.88 144.4 70.6C146.187 69.32 148.907 68.68 152.56 68.68H154.2C154.44 68.68 154.56 68.56 154.56 68.32V68C154.56 66.7733 154.267 65.92 153.68 65.44C153.093 64.9333 152.053 64.68 150.56 64.68C149.013 64.68 147.12 64.96 144.88 65.52C144.4 65.6533 143.96 65.5733 143.56 65.28C143.16 64.96 142.96 64.5467 142.96 64.04C142.96 63.4267 143.147 62.88 143.52 62.4C143.893 61.8933 144.373 61.5867 144.96 61.48C146.987 61.0267 148.893 60.8 150.68 60.8C154.093 60.8 156.48 61.4133 157.84 62.64C159.2 63.8667 159.88 66.0133 159.88 69.08V79.72C159.88 80.3333 159.653 80.8667 159.2 81.32C158.773 81.7733 158.253 82 157.64 82H157.2C156.56 82 156.013 81.7867 155.56 81.36C155.107 80.9067 154.867 80.36 154.84 79.72V79.16C154.84 79.1333 154.827 79.12 154.8 79.12C154.747 79.12 154.72 79.1333 154.72 79.16C153.093 81.32 150.867 82.4 148.04 82.4ZM170.462 73.04V78.36C170.462 78.5733 170.582 78.7067 170.822 78.76C171.142 78.8133 171.649 78.84 172.342 78.84C175.515 78.84 177.102 77.7733 177.102 75.64C177.102 73.6933 175.475 72.72 172.222 72.72H170.822C170.582 72.72 170.462 72.8267 170.462 73.04ZM170.462 64.84V69.12C170.462 69.3333 170.582 69.44 170.822 69.44H172.102C173.409 69.44 174.435 69.2 175.182 68.72C175.955 68.24 176.342 67.5867 176.342 66.76C176.342 65.16 174.969 64.36 172.222 64.36C171.902 64.36 171.422 64.3867 170.782 64.44C170.569 64.4933 170.462 64.6267 170.462 64.84ZM167.422 82.08C166.782 82.0267 166.249 81.76 165.822 81.28C165.395 80.7733 165.182 80.2 165.182 79.56V63.64C165.182 62.9733 165.395 62.4 165.822 61.92C166.249 61.44 166.795 61.1733 167.462 61.12C169.009 60.9867 170.449 60.92 171.782 60.92C178.129 60.92 181.302 62.6533 181.302 66.12C181.302 67.32 180.862 68.3467 179.982 69.2C179.129 70.0267 177.955 70.5733 176.462 70.84L176.422 70.88H176.462C178.249 71.12 179.649 71.7067 180.662 72.64C181.675 73.5467 182.182 74.6667 182.182 76C182.182 80.1867 178.822 82.28 172.102 82.28C170.662 82.28 169.102 82.2133 167.422 82.08ZM196.31 72C192.497 72 190.59 73.1733 190.59 75.52C190.59 76.3733 190.83 77.0667 191.31 77.6C191.817 78.1333 192.457 78.4 193.23 78.4C194.75 78.4 195.977 77.9333 196.91 77C197.843 76.04 198.31 74.7333 198.31 73.08V72.36C198.31 72.12 198.19 72 197.95 72H196.31ZM191.79 82.4C189.977 82.4 188.47 81.8133 187.27 80.64C186.097 79.44 185.51 77.8933 185.51 76C185.51 73.68 186.39 71.88 188.15 70.6C189.937 69.32 192.657 68.68 196.31 68.68H197.95C198.19 68.68 198.31 68.56 198.31 68.32V68C198.31 66.7733 198.017 65.92 197.43 65.44C196.843 64.9333 195.803 64.68 194.31 64.68C192.763 64.68 190.87 64.96 188.63 65.52C188.15 65.6533 187.71 65.5733 187.31 65.28C186.91 64.96 186.71 64.5467 186.71 64.04C186.71 63.4267 186.897 62.88 187.27 62.4C187.643 61.8933 188.123 61.5867 188.71 61.48C190.737 61.0267 192.643 60.8 194.43 60.8C197.843 60.8 200.23 61.4133 201.59 62.64C202.95 63.8667 203.63 66.0133 203.63 69.08V79.72C203.63 80.3333 203.403 80.8667 202.95 81.32C202.523 81.7733 202.003 82 201.39 82H200.95C200.31 82 199.763 81.7867 199.31 81.36C198.857 80.9067 198.617 80.36 198.59 79.72V79.16C198.59 79.1333 198.577 79.12 198.55 79.12C198.497 79.12 198.47 79.1333 198.47 79.16C196.843 81.32 194.617 82.4 191.79 82.4ZM209.772 65.28C209.212 65.28 208.732 65.08 208.332 64.68C207.932 64.28 207.732 63.8 207.732 63.24C207.732 62.68 207.932 62.2 208.332 61.8C208.732 61.4 209.212 61.2 209.772 61.2H224.252C224.812 61.2 225.292 61.4 225.692 61.8C226.092 62.2 226.292 62.68 226.292 63.24C226.292 63.8 226.092 64.28 225.692 64.68C225.292 65.08 224.812 65.28 224.252 65.28H220.132C219.892 65.28 219.772 65.3867 219.772 65.6V79.72C219.772 80.3333 219.545 80.8667 219.092 81.32C218.639 81.7733 218.105 82 217.492 82H216.532C215.919 82 215.385 81.7733 214.932 81.32C214.479 80.8667 214.252 80.3333 214.252 79.72V65.6C214.252 65.3867 214.132 65.28 213.892 65.28H209.772ZM235.812 71.2V77.92C235.812 78.1333 235.932 78.2667 236.172 78.32C236.892 78.4533 237.532 78.52 238.092 78.52C239.798 78.52 241.038 78.1867 241.812 77.52C242.612 76.8267 243.012 75.76 243.012 74.32C243.012 73.1467 242.585 72.24 241.732 71.6C240.905 70.9333 239.665 70.6 238.012 70.6C237.425 70.6 236.798 70.6667 236.132 70.8C235.918 70.8533 235.812 70.9867 235.812 71.2ZM232.852 82.12C232.212 82.04 231.678 81.7467 231.252 81.24C230.825 80.7333 230.612 80.16 230.612 79.52V63.48C230.612 62.8667 230.838 62.3333 231.292 61.88C231.745 61.4267 232.278 61.2 232.892 61.2H233.572C234.185 61.2 234.705 61.4267 235.132 61.88C235.585 62.3333 235.812 62.8667 235.812 63.48V66.64C235.812 66.72 235.852 66.8 235.932 66.88C236.012 66.96 236.092 66.9867 236.172 66.96C237.238 66.8 238.118 66.72 238.812 66.72C241.772 66.72 244.038 67.4 245.612 68.76C247.212 70.12 248.012 71.9733 248.012 74.32C248.012 77.04 247.172 79.0667 245.492 80.4C243.812 81.7333 241.185 82.4 237.612 82.4C235.852 82.4 234.265 82.3067 232.852 82.12ZM56.68 141.4C53.3733 141.4 50.8267 140.493 49.04 138.68C47.2533 136.84 46.36 134.147 46.36 130.6C46.36 127.107 47.2133 124.44 48.92 122.6C50.6533 120.733 53.1067 119.8 56.28 119.8C57.6933 119.8 59.0533 119.893 60.36 120.08C60.9733 120.16 61.48 120.44 61.88 120.92C62.28 121.4 62.48 121.96 62.48 122.6C62.48 123.133 62.2667 123.56 61.84 123.88C61.44 124.2 60.9733 124.307 60.44 124.2C59.4 123.987 58.24 123.88 56.96 123.88C55.28 123.88 54.0267 124.413 53.2 125.48C52.3733 126.547 51.96 128.253 51.96 130.6C51.96 133 52.4 134.72 53.28 135.76C54.16 136.8 55.52 137.32 57.36 137.32C58.6667 137.32 59.8 137.2 60.76 136.96C61.2667 136.827 61.72 136.92 62.12 137.24C62.5467 137.56 62.76 137.973 62.76 138.48C62.76 139.12 62.56 139.68 62.16 140.16C61.7867 140.64 61.2933 140.933 60.68 141.04C59.32 141.28 57.9867 141.4 56.68 141.4ZM80.3125 125.36C79.5392 124.24 78.3658 123.68 76.7925 123.68C75.2192 123.68 74.0325 124.24 73.2325 125.36C72.4592 126.453 72.0725 128.2 72.0725 130.6C72.0725 133 72.4592 134.76 73.2325 135.88C74.0325 136.973 75.2192 137.52 76.7925 137.52C78.3658 137.52 79.5392 136.973 80.3125 135.88C81.1125 134.76 81.5125 133 81.5125 130.6C81.5125 128.2 81.1125 126.453 80.3125 125.36ZM84.2325 138.6C82.4725 140.467 79.9925 141.4 76.7925 141.4C73.5925 141.4 71.0992 140.467 69.3125 138.6C67.5525 136.707 66.6725 134.04 66.6725 130.6C66.6725 127.16 67.5525 124.507 69.3125 122.64C71.0992 120.747 73.5925 119.8 76.7925 119.8C79.9925 119.8 82.4725 120.747 84.2325 122.64C86.0192 124.507 86.9125 127.16 86.9125 130.6C86.9125 134.04 86.0192 136.707 84.2325 138.6ZM96.0413 130.8V131.2C96.0413 133.093 96.4813 134.6 97.3613 135.72C98.2413 136.84 99.3879 137.4 100.801 137.4C102.321 137.4 103.495 136.867 104.321 135.8C105.148 134.707 105.561 133.12 105.561 131.04V131V130.96C105.561 128.987 105.121 127.44 104.241 126.32C103.388 125.173 102.281 124.6 100.921 124.6C99.4546 124.6 98.2679 125.147 97.3613 126.24C96.4813 127.333 96.0413 128.853 96.0413 130.8ZM101.001 141.4C97.7479 141.4 95.2413 140.453 93.4813 138.56C91.7213 136.64 90.8413 133.893 90.8413 130.32V122.32C90.8413 118.507 91.8413 115.733 93.8413 114C95.8413 112.267 99.0279 111.4 103.401 111.4C104.948 111.4 106.308 111.347 107.481 111.24C108.015 111.187 108.468 111.333 108.841 111.68C109.241 112.027 109.441 112.453 109.441 112.96C109.441 113.52 109.255 114.013 108.881 114.44C108.535 114.867 108.081 115.107 107.521 115.16C106.375 115.267 105.041 115.32 103.521 115.32C100.615 115.32 98.6279 115.813 97.5613 116.8C96.5213 117.76 96.0013 119.56 96.0013 122.2V123.64V123.68C96.0546 123.68 96.0813 123.653 96.0813 123.6C97.5479 121.6 99.6546 120.6 102.401 120.6C104.748 120.6 106.695 121.547 108.241 123.44C109.815 125.307 110.601 127.827 110.601 131C110.601 134.333 109.761 136.907 108.081 138.72C106.401 140.507 104.041 141.4 101.001 141.4ZM124.453 141.4C121.147 141.4 118.6 140.493 116.813 138.68C115.027 136.84 114.133 134.147 114.133 130.6C114.133 127.107 114.987 124.44 116.693 122.6C118.427 120.733 120.88 119.8 124.053 119.8C125.467 119.8 126.827 119.893 128.133 120.08C128.747 120.16 129.253 120.44 129.653 120.92C130.053 121.4 130.253 121.96 130.253 122.6C130.253 123.133 130.04 123.56 129.613 123.88C129.213 124.2 128.747 124.307 128.213 124.2C127.173 123.987 126.013 123.88 124.733 123.88C123.053 123.88 121.8 124.413 120.973 125.48C120.147 126.547 119.733 128.253 119.733 130.6C119.733 133 120.173 134.72 121.053 135.76C121.933 136.8 123.293 137.32 125.133 137.32C126.44 137.32 127.573 137.2 128.533 136.96C129.04 136.827 129.493 136.92 129.893 137.24C130.32 137.56 130.533 137.973 130.533 138.48C130.533 139.12 130.333 139.68 129.933 140.16C129.56 140.64 129.067 140.933 128.453 141.04C127.093 141.28 125.76 141.4 124.453 141.4ZM136.686 124.28C136.126 124.28 135.646 124.08 135.246 123.68C134.846 123.28 134.646 122.8 134.646 122.24C134.646 121.68 134.846 121.2 135.246 120.8C135.646 120.4 136.126 120.2 136.686 120.2H151.166C151.726 120.2 152.206 120.4 152.606 120.8C153.006 121.2 153.206 121.68 153.206 122.24C153.206 122.8 153.006 123.28 152.606 123.68C152.206 124.08 151.726 124.28 151.166 124.28H147.046C146.806 124.28 146.686 124.387 146.686 124.6V138.72C146.686 139.333 146.459 139.867 146.006 140.32C145.553 140.773 145.019 141 144.406 141H143.446C142.833 141 142.299 140.773 141.846 140.32C141.393 139.867 141.166 139.333 141.166 138.72V124.6C141.166 124.387 141.046 124.28 140.806 124.28H136.686ZM162.806 132.04V137.36C162.806 137.573 162.926 137.707 163.166 137.76C163.486 137.813 163.992 137.84 164.686 137.84C167.859 137.84 169.446 136.773 169.446 134.64C169.446 132.693 167.819 131.72 164.566 131.72H163.166C162.926 131.72 162.806 131.827 162.806 132.04ZM162.806 123.84V128.12C162.806 128.333 162.926 128.44 163.166 128.44H164.446C165.752 128.44 166.779 128.2 167.526 127.72C168.299 127.24 168.686 126.587 168.686 125.76C168.686 124.16 167.312 123.36 164.566 123.36C164.246 123.36 163.766 123.387 163.126 123.44C162.912 123.493 162.806 123.627 162.806 123.84ZM159.766 141.08C159.126 141.027 158.592 140.76 158.166 140.28C157.739 139.773 157.526 139.2 157.526 138.56V122.64C157.526 121.973 157.739 121.4 158.166 120.92C158.592 120.44 159.139 120.173 159.806 120.12C161.352 119.987 162.792 119.92 164.126 119.92C170.472 119.92 173.646 121.653 173.646 125.12C173.646 126.32 173.206 127.347 172.326 128.2C171.472 129.027 170.299 129.573 168.806 129.84L168.766 129.88H168.806C170.592 130.12 171.992 130.707 173.006 131.64C174.019 132.547 174.526 133.667 174.526 135C174.526 139.187 171.166 141.28 164.446 141.28C163.006 141.28 161.446 141.213 159.766 141.08ZM187.334 123.52C185.974 123.52 184.92 123.907 184.174 124.68C183.454 125.427 183 126.64 182.814 128.32C182.814 128.533 182.92 128.64 183.134 128.64H190.974C191.187 128.64 191.294 128.533 191.294 128.32C191.187 125.12 189.867 123.52 187.334 123.52ZM188.334 141.4C184.84 141.4 182.147 140.493 180.254 138.68C178.387 136.84 177.454 134.147 177.454 130.6C177.454 127.08 178.294 124.4 179.974 122.56C181.654 120.72 184.08 119.8 187.254 119.8C193.174 119.8 196.214 123.16 196.374 129.88C196.4 130.52 196.174 131.053 195.694 131.48C195.214 131.907 194.654 132.12 194.014 132.12H183.094C182.854 132.12 182.76 132.24 182.814 132.48C183 134.267 183.587 135.573 184.574 136.4C185.587 137.2 187.054 137.6 188.974 137.6C190.174 137.6 191.507 137.4 192.974 137C193.454 136.867 193.894 136.947 194.294 137.24C194.72 137.533 194.934 137.933 194.934 138.44C194.934 139.053 194.747 139.6 194.374 140.08C194.027 140.533 193.56 140.813 192.974 140.92C191.48 141.24 189.934 141.4 188.334 141.4ZM202.93 141C202.316 141 201.783 140.773 201.33 140.32C200.903 139.867 200.69 139.333 200.69 138.72V122.48C200.69 121.867 200.903 121.333 201.33 120.88C201.783 120.427 202.316 120.2 202.93 120.2H203.81C204.423 120.2 204.956 120.427 205.41 120.88C205.863 121.333 206.09 121.867 206.09 122.48V127.84C206.09 128.08 206.21 128.2 206.45 128.2H213.17C213.41 128.2 213.53 128.08 213.53 127.84V122.48C213.53 121.867 213.756 121.333 214.21 120.88C214.663 120.427 215.196 120.2 215.81 120.2H216.69C217.303 120.2 217.823 120.427 218.25 120.88C218.703 121.333 218.93 121.867 218.93 122.48V138.72C218.93 139.333 218.703 139.867 218.25 140.32C217.823 140.773 217.303 141 216.69 141H215.81C215.196 141 214.663 140.773 214.21 140.32C213.756 139.867 213.53 139.333 213.53 138.72V132.32C213.53 132.08 213.41 131.96 213.17 131.96H206.45C206.21 131.96 206.09 132.08 206.09 132.32V138.72C206.09 139.333 205.863 139.867 205.41 140.32C204.956 140.773 204.423 141 203.81 141H202.93ZM226.68 141C226.066 141 225.533 140.773 225.08 140.32C224.653 139.867 224.44 139.333 224.44 138.72V122.48C224.44 121.867 224.653 121.333 225.08 120.88C225.533 120.427 226.066 120.2 226.68 120.2H227.56C228.173 120.2 228.706 120.427 229.16 120.88C229.613 121.333 229.84 121.867 229.84 122.48V127.84C229.84 128.08 229.96 128.2 230.2 128.2H236.92C237.16 128.2 237.28 128.08 237.28 127.84V122.48C237.28 121.867 237.506 121.333 237.96 120.88C238.413 120.427 238.946 120.2 239.56 120.2H240.44C241.053 120.2 241.573 120.427 242 120.88C242.453 121.333 242.68 121.867 242.68 122.48V138.72C242.68 139.333 242.453 139.867 242 140.32C241.573 140.773 241.053 141 240.44 141H239.56C238.946 141 238.413 140.773 237.96 140.32C237.506 139.867 237.28 139.333 237.28 138.72V132.32C237.28 132.08 237.16 131.96 236.92 131.96H230.2C229.96 131.96 229.84 132.08 229.84 132.32V138.72C229.84 139.333 229.613 139.867 229.16 140.32C228.706 140.773 228.173 141 227.56 141H226.68ZM270.23 141C269.616 141 269.083 140.773 268.63 140.32C268.203 139.867 267.99 139.333 267.99 138.72V122.48C267.99 121.867 268.203 121.333 268.63 120.88C269.083 120.427 269.616 120.2 270.23 120.2H270.91C271.523 120.2 272.056 120.427 272.51 120.88C272.963 121.333 273.19 121.867 273.19 122.48V138.72C273.19 139.333 272.963 139.867 272.51 140.32C272.056 140.773 271.523 141 270.91 141H270.23ZM255.63 137.52C257.336 137.52 258.576 137.187 259.35 136.52C260.15 135.827 260.55 134.76 260.55 133.32C260.55 130.84 258.896 129.6 255.59 129.6C255.003 129.6 254.376 129.667 253.71 129.8C253.496 129.853 253.39 129.987 253.39 130.2V136.92C253.39 137.133 253.496 137.267 253.71 137.32C254.43 137.453 255.07 137.52 255.63 137.52ZM256.39 125.72C259.35 125.72 261.616 126.4 263.19 127.76C264.79 129.12 265.59 130.973 265.59 133.32C265.59 136.04 264.75 138.067 263.07 139.4C261.39 140.733 258.763 141.4 255.19 141.4C253.403 141.4 251.803 141.307 250.39 141.12C249.75 141.04 249.216 140.747 248.79 140.24C248.39 139.733 248.19 139.16 248.19 138.52V122.48C248.19 121.867 248.403 121.333 248.83 120.88C249.283 120.427 249.816 120.2 250.43 120.2H251.11C251.723 120.2 252.256 120.427 252.71 120.88C253.163 121.333 253.39 121.867 253.39 122.48V125.64C253.39 125.72 253.416 125.8 253.47 125.88C253.55 125.96 253.63 125.987 253.71 125.96C254.776 125.8 255.67 125.72 256.39 125.72ZM280.978 141C280.364 141 279.831 140.773 279.378 140.32C278.924 139.867 278.698 139.333 278.698 138.72V122.48C278.698 121.867 278.924 121.333 279.378 120.88C279.831 120.427 280.364 120.2 280.978 120.2H281.738C282.351 120.2 282.884 120.427 283.338 120.88C283.791 121.333 284.018 121.867 284.018 122.48V133.72L284.058 133.76L284.098 133.72L290.538 122.16C291.284 120.853 292.418 120.2 293.938 120.2H294.818C295.431 120.2 295.964 120.427 296.418 120.88C296.871 121.333 297.098 121.867 297.098 122.48V138.72C297.098 139.333 296.871 139.867 296.418 140.32C295.964 140.773 295.431 141 294.818 141H294.058C293.444 141 292.911 140.773 292.458 140.32C292.004 139.867 291.778 139.333 291.778 138.72V127.48L291.738 127.44L291.698 127.48L285.258 139.04C284.511 140.347 283.378 141 281.858 141H280.978ZM293.898 110.88H293.978C294.564 110.88 295.044 111.08 295.418 111.48C295.791 111.88 295.884 112.347 295.698 112.88C295.218 114.373 294.271 115.573 292.858 116.48C291.471 117.36 289.818 117.8 287.898 117.8C285.978 117.8 284.311 117.36 282.898 116.48C281.511 115.573 280.578 114.373 280.098 112.88C279.911 112.347 280.004 111.88 280.378 111.48C280.751 111.08 281.231 110.88 281.817 110.88H281.898C282.778 110.88 283.631 111.48 284.458 112.68C285.204 113.773 286.351 114.32 287.898 114.32C289.444 114.32 290.591 113.773 291.338 112.68C292.164 111.48 293.018 110.88 293.898 110.88ZM322.891 141.4C319.584 141.4 317.038 140.493 315.251 138.68C313.464 136.84 312.571 134.147 312.571 130.6C312.571 127.107 313.424 124.44 315.131 122.6C316.864 120.733 319.318 119.8 322.491 119.8C323.904 119.8 325.264 119.893 326.571 120.08C327.184 120.16 327.691 120.44 328.091 120.92C328.491 121.4 328.691 121.96 328.691 122.6C328.691 123.133 328.478 123.56 328.051 123.88C327.651 124.2 327.184 124.307 326.651 124.2C325.611 123.987 324.451 123.88 323.171 123.88C321.491 123.88 320.238 124.413 319.411 125.48C318.584 126.547 318.171 128.253 318.171 130.6C318.171 133 318.611 134.72 319.491 135.76C320.371 136.8 321.731 137.32 323.571 137.32C324.878 137.32 326.011 137.2 326.971 136.96C327.478 136.827 327.931 136.92 328.331 137.24C328.758 137.56 328.971 137.973 328.971 138.48C328.971 139.12 328.771 139.68 328.371 140.16C327.998 140.64 327.504 140.933 326.891 141.04C325.531 141.28 324.198 141.4 322.891 141.4ZM336.563 141C335.95 141 335.417 140.773 334.963 140.32C334.51 139.867 334.283 139.333 334.283 138.72V122.48C334.283 121.867 334.51 121.333 334.963 120.88C335.417 120.427 335.95 120.2 336.563 120.2H350.083C350.697 120.2 351.23 120.427 351.683 120.88C352.137 121.333 352.363 121.867 352.363 122.48V138.72C352.363 139.333 352.137 139.867 351.683 140.32C351.23 140.773 350.697 141 350.083 141H349.363C348.75 141 348.217 140.773 347.763 140.32C347.31 139.867 347.083 139.333 347.083 138.72V124.56C347.083 124.32 346.977 124.2 346.763 124.2H339.883C339.67 124.2 339.563 124.32 339.563 124.56V138.72C339.563 139.333 339.337 139.867 338.883 140.32C338.43 140.773 337.897 141 337.283 141H336.563ZM360.157 141C359.544 141 359.011 140.773 358.557 140.32C358.104 139.867 357.877 139.333 357.877 138.72V122.48C357.877 121.867 358.104 121.333 358.557 120.88C359.011 120.427 359.544 120.2 360.157 120.2H360.917C361.531 120.2 362.064 120.427 362.517 120.88C362.971 121.333 363.197 121.867 363.197 122.48V133.72L363.237 133.76L363.277 133.72L369.717 122.16C370.464 120.853 371.597 120.2 373.117 120.2H373.997C374.611 120.2 375.144 120.427 375.597 120.88C376.051 121.333 376.277 121.867 376.277 122.48V138.72C376.277 139.333 376.051 139.867 375.597 140.32C375.144 140.773 374.611 141 373.997 141H373.237C372.624 141 372.091 140.773 371.637 140.32C371.184 139.867 370.957 139.333 370.957 138.72V127.48L370.917 127.44L370.877 127.48L364.437 139.04C363.691 140.347 362.557 141 361.037 141H360.157ZM390.703 141.4C387.397 141.4 384.85 140.493 383.063 138.68C381.277 136.84 380.383 134.147 380.383 130.6C380.383 127.107 381.237 124.44 382.943 122.6C384.677 120.733 387.13 119.8 390.303 119.8C391.717 119.8 393.077 119.893 394.383 120.08C394.997 120.16 395.503 120.44 395.903 120.92C396.303 121.4 396.503 121.96 396.503 122.6C396.503 123.133 396.29 123.56 395.863 123.88C395.463 124.2 394.997 124.307 394.463 124.2C393.423 123.987 392.263 123.88 390.983 123.88C389.303 123.88 388.05 124.413 387.223 125.48C386.397 126.547 385.983 128.253 385.983 130.6C385.983 133 386.423 134.72 387.303 135.76C388.183 136.8 389.543 137.32 391.383 137.32C392.69 137.32 393.823 137.2 394.783 136.96C395.29 136.827 395.743 136.92 396.143 137.24C396.57 137.56 396.783 137.973 396.783 138.48C396.783 139.12 396.583 139.68 396.183 140.16C395.81 140.64 395.317 140.933 394.703 141.04C393.343 141.28 392.01 141.4 390.703 141.4ZM414.336 125.36C413.563 124.24 412.389 123.68 410.816 123.68C409.243 123.68 408.056 124.24 407.256 125.36C406.483 126.453 406.096 128.2 406.096 130.6C406.096 133 406.483 134.76 407.256 135.88C408.056 136.973 409.243 137.52 410.816 137.52C412.389 137.52 413.563 136.973 414.336 135.88C415.136 134.76 415.536 133 415.536 130.6C415.536 128.2 415.136 126.453 414.336 125.36ZM418.256 138.6C416.496 140.467 414.016 141.4 410.816 141.4C407.616 141.4 405.123 140.467 403.336 138.6C401.576 136.707 400.696 134.04 400.696 130.6C400.696 127.16 401.576 124.507 403.336 122.64C405.123 120.747 407.616 119.8 410.816 119.8C414.016 119.8 416.496 120.747 418.256 122.64C420.043 124.507 420.936 127.16 420.936 130.6C420.936 134.04 420.043 136.707 418.256 138.6ZM427.345 141C426.731 141 426.198 140.773 425.745 140.32C425.291 139.867 425.065 139.333 425.065 138.72V122.48C425.065 121.867 425.291 121.333 425.745 120.88C426.198 120.427 426.731 120.2 427.345 120.2H428.145C428.758 120.2 429.291 120.427 429.745 120.88C430.198 121.333 430.425 121.867 430.425 122.48V128.68C430.425 128.707 430.438 128.72 430.465 128.72H430.505L436.585 121.88C437.571 120.76 438.825 120.2 440.345 120.2H442.025C442.451 120.2 442.745 120.4 442.905 120.8C443.091 121.2 443.038 121.56 442.745 121.88L435.425 129.96C435.291 130.12 435.291 130.293 435.425 130.48L442.825 139.28C443.118 139.627 443.158 140 442.945 140.4C442.758 140.8 442.451 141 442.025 141H440.345C438.825 141 437.585 140.413 436.625 139.24L430.505 131.84C430.505 131.813 430.491 131.8 430.465 131.8C430.438 131.8 430.425 131.813 430.425 131.84V138.72C430.425 139.333 430.198 139.867 429.745 140.32C429.291 140.773 428.758 141 428.145 141H427.345ZM55.28 194.48C52.3467 194.48 50.2933 193.96 49.12 192.92C47.9467 191.853 47.36 190.013 47.36 187.4V181.48C47.36 180.867 47.5733 180.333 48 179.88C48.4533 179.427 48.9867 179.2 49.6 179.2H50.2C50.8133 179.2 51.3467 179.427 51.8 179.88C52.2533 180.333 52.48 180.867 52.48 181.48V186.36C52.48 188.04 52.72 189.133 53.2 189.64C53.7067 190.147 54.7067 190.4 56.2 190.4C57.6667 190.4 58.9733 190.147 60.12 189.64C60.3067 189.56 60.4 189.387 60.4 189.12V181.48C60.4 180.867 60.6267 180.333 61.08 179.88C61.5333 179.427 62.0667 179.2 62.68 179.2H63.36C63.9733 179.2 64.4933 179.427 64.92 179.88C65.3733 180.333 65.6 180.867 65.6 181.48V197.72C65.6 198.333 65.3733 198.867 64.92 199.32C64.4933 199.773 63.9733 200 63.36 200H62.68C62.0667 200 61.5333 199.773 61.08 199.32C60.6267 198.867 60.4 198.333 60.4 197.72V193.8C60.4 193.72 60.36 193.653 60.28 193.6C60.2267 193.547 60.16 193.533 60.08 193.56C58.5333 194.173 56.9333 194.48 55.28 194.48ZM71.9594 183.28C71.3994 183.28 70.9194 183.08 70.5194 182.68C70.1194 182.28 69.9194 181.8 69.9194 181.24C69.9194 180.68 70.1194 180.2 70.5194 179.8C70.9194 179.4 71.3994 179.2 71.9594 179.2H86.4394C86.9994 179.2 87.4794 179.4 87.8794 179.8C88.2794 180.2 88.4794 180.68 88.4794 181.24C88.4794 181.8 88.2794 182.28 87.8794 182.68C87.4794 183.08 86.9994 183.28 86.4394 183.28H82.3194C82.0794 183.28 81.9594 183.387 81.9594 183.6V197.72C81.9594 198.333 81.7327 198.867 81.2794 199.32C80.826 199.773 80.2927 200 79.6794 200H78.7194C78.106 200 77.5727 199.773 77.1194 199.32C76.666 198.867 76.4394 198.333 76.4394 197.72V183.6C76.4394 183.387 76.3194 183.28 76.0794 183.28H71.9594ZM101.279 182.52C99.9191 182.52 98.8657 182.907 98.1191 183.68C97.3991 184.427 96.9457 185.64 96.7591 187.32C96.7591 187.533 96.8657 187.64 97.0791 187.64H104.919C105.132 187.64 105.239 187.533 105.239 187.32C105.132 184.12 103.812 182.52 101.279 182.52ZM102.279 200.4C98.7857 200.4 96.0924 199.493 94.1991 197.68C92.3324 195.84 91.3991 193.147 91.3991 189.6C91.3991 186.08 92.2391 183.4 93.9191 181.56C95.5991 179.72 98.0257 178.8 101.199 178.8C107.119 178.8 110.159 182.16 110.319 188.88C110.346 189.52 110.119 190.053 109.639 190.48C109.159 190.907 108.599 191.12 107.959 191.12H97.0391C96.7991 191.12 96.7057 191.24 96.7591 191.48C96.9457 193.267 97.5324 194.573 98.5191 195.4C99.5324 196.2 100.999 196.6 102.919 196.6C104.119 196.6 105.452 196.4 106.919 196C107.399 195.867 107.839 195.947 108.239 196.24C108.666 196.533 108.879 196.933 108.879 197.44C108.879 198.053 108.692 198.6 108.319 199.08C107.972 199.533 107.506 199.813 106.919 199.92C105.426 200.24 103.879 200.4 102.279 200.4ZM116.875 200C116.262 200 115.728 199.773 115.275 199.32C114.848 198.867 114.635 198.333 114.635 197.72V181.48C114.635 180.867 114.848 180.333 115.275 179.88C115.728 179.427 116.262 179.2 116.875 179.2H117.755C118.368 179.2 118.902 179.427 119.355 179.88C119.808 180.333 120.035 180.867 120.035 181.48V186.84C120.035 187.08 120.155 187.2 120.395 187.2H127.115C127.355 187.2 127.475 187.08 127.475 186.84V181.48C127.475 180.867 127.702 180.333 128.155 179.88C128.608 179.427 129.142 179.2 129.755 179.2H130.635C131.248 179.2 131.768 179.427 132.195 179.88C132.648 180.333 132.875 180.867 132.875 181.48V197.72C132.875 198.333 132.648 198.867 132.195 199.32C131.768 199.773 131.248 200 130.635 200H129.755C129.142 200 128.608 199.773 128.155 199.32C127.702 198.867 127.475 198.333 127.475 197.72V191.32C127.475 191.08 127.355 190.96 127.115 190.96H120.395C120.155 190.96 120.035 191.08 120.035 191.32V197.72C120.035 198.333 119.808 198.867 119.355 199.32C118.902 199.773 118.368 200 117.755 200H116.875ZM140.665 200C140.052 200 139.518 199.773 139.065 199.32C138.612 198.867 138.385 198.333 138.385 197.72V181.48C138.385 180.867 138.612 180.333 139.065 179.88C139.518 179.427 140.052 179.2 140.665 179.2H141.425C142.038 179.2 142.572 179.427 143.025 179.88C143.478 180.333 143.705 180.867 143.705 181.48V192.72L143.745 192.76L143.785 192.72L150.225 181.16C150.972 179.853 152.105 179.2 153.625 179.2H154.505C155.118 179.2 155.652 179.427 156.105 179.88C156.558 180.333 156.785 180.867 156.785 181.48V197.72C156.785 198.333 156.558 198.867 156.105 199.32C155.652 199.773 155.118 200 154.505 200H153.745C153.132 200 152.598 199.773 152.145 199.32C151.692 198.867 151.465 198.333 151.465 197.72V186.48L151.425 186.44L151.385 186.48L144.945 198.04C144.198 199.347 143.065 200 141.545 200H140.665ZM170.931 182.72C167.678 182.72 166.051 183.667 166.051 185.56C166.051 187.507 167.745 188.48 171.131 188.48H172.691C172.905 188.48 173.011 188.36 173.011 188.12V183.16C173.011 182.92 172.905 182.8 172.691 182.8C171.891 182.747 171.305 182.72 170.931 182.72ZM165.971 190.44C164.505 190.04 163.305 189.373 162.371 188.44C161.438 187.48 160.971 186.347 160.971 185.04C160.971 180.96 164.211 178.92 170.691 178.92C172.345 178.92 174.131 178.987 176.051 179.12C176.691 179.147 177.225 179.413 177.651 179.92C178.105 180.4 178.331 180.96 178.331 181.6V197.72C178.331 198.333 178.105 198.867 177.651 199.32C177.198 199.773 176.665 200 176.051 200H175.291C174.678 200 174.145 199.773 173.691 199.32C173.238 198.867 173.011 198.333 173.011 197.72V192.48C173.011 192.267 172.905 192.16 172.691 192.16H171.371C170.331 192.16 169.611 192.293 169.211 192.56C168.811 192.8 168.371 193.44 167.891 194.48L166.411 197.92C166.118 198.533 165.678 199.04 165.091 199.44C164.531 199.813 163.918 200 163.251 200H162.531C161.998 200 161.585 199.773 161.291 199.32C161.025 198.867 160.998 198.4 161.211 197.92L162.931 194.2C163.811 192.307 164.838 191.093 166.011 190.56C166.038 190.56 166.051 190.547 166.051 190.52C166.051 190.467 166.025 190.44 165.971 190.44ZM197.423 200C196.809 200 196.276 199.773 195.823 199.32C195.369 198.867 195.143 198.333 195.143 197.72V181.48C195.143 180.867 195.369 180.333 195.823 179.88C196.276 179.427 196.809 179.2 197.423 179.2H198.183C198.796 179.2 199.329 179.427 199.783 179.88C200.236 180.333 200.463 180.867 200.463 181.48V192.72L200.503 192.76L200.543 192.72L206.983 181.16C207.729 179.853 208.863 179.2 210.383 179.2H211.263C211.876 179.2 212.409 179.427 212.863 179.88C213.316 180.333 213.543 180.867 213.543 181.48V197.72C213.543 198.333 213.316 198.867 212.863 199.32C212.409 199.773 211.876 200 211.263 200H210.503C209.889 200 209.356 199.773 208.903 199.32C208.449 198.867 208.223 198.333 208.223 197.72V186.48L208.183 186.44L208.143 186.48L201.703 198.04C200.956 199.347 199.823 200 198.303 200H197.423ZM236.736 195.84C236.683 195.893 236.67 195.96 236.696 196.04C236.75 196.093 236.816 196.12 236.896 196.12H244.256C244.496 196.12 244.616 196.013 244.616 195.8V183.4C244.616 183.187 244.496 183.08 244.256 183.08H239.136C238.923 183.08 238.816 183.187 238.816 183.4C238.816 186.653 238.776 188.907 238.696 190.16C238.616 191.387 238.443 192.387 238.176 193.16C237.936 193.907 237.456 194.8 236.736 195.84ZM231.256 204.8C230.643 204.8 230.11 204.573 229.656 204.12C229.23 203.667 229.016 203.133 229.016 202.52V197.64C229.016 197.213 229.15 196.853 229.416 196.56C229.71 196.267 230.07 196.12 230.496 196.12C230.656 196.12 230.776 196.067 230.856 195.96C231.843 194.733 232.51 193.733 232.856 192.96C233.203 192.187 233.43 191.16 233.536 189.88C233.67 188.573 233.736 186.307 233.736 183.08V181.48C233.736 180.867 233.963 180.333 234.416 179.88C234.87 179.427 235.403 179.2 236.016 179.2H247.456C248.07 179.2 248.603 179.427 249.056 179.88C249.51 180.333 249.736 180.867 249.736 181.48V195.8C249.736 196.013 249.856 196.12 250.096 196.12H250.216C250.83 196.12 251.35 196.347 251.776 196.8C252.23 197.253 252.456 197.787 252.456 198.4V202.52C252.456 203.133 252.23 203.667 251.776 204.12C251.35 204.573 250.83 204.8 250.216 204.8H249.616C249.003 204.8 248.47 204.573 248.016 204.12C247.563 203.667 247.336 203.133 247.336 202.52V200.36C247.336 200.12 247.216 200 246.976 200H234.496C234.256 200 234.136 200.12 234.136 200.36V202.52C234.136 203.133 233.91 203.667 233.456 204.12C233.003 204.573 232.47 204.8 231.856 204.8H231.256ZM268.828 184.36C268.055 183.24 266.881 182.68 265.308 182.68C263.735 182.68 262.548 183.24 261.748 184.36C260.975 185.453 260.588 187.2 260.588 189.6C260.588 192 260.975 193.76 261.748 194.88C262.548 195.973 263.735 196.52 265.308 196.52C266.881 196.52 268.055 195.973 268.828 194.88C269.628 193.76 270.028 192 270.028 189.6C270.028 187.2 269.628 185.453 268.828 184.36ZM272.748 197.6C270.988 199.467 268.508 200.4 265.308 200.4C262.108 200.4 259.615 199.467 257.828 197.6C256.068 195.707 255.188 193.04 255.188 189.6C255.188 186.16 256.068 183.507 257.828 181.64C259.615 179.747 262.108 178.8 265.308 178.8C268.508 178.8 270.988 179.747 272.748 181.64C274.535 183.507 275.428 186.16 275.428 189.6C275.428 193.04 274.535 195.707 272.748 197.6ZM284.557 189.8V190.2C284.557 192.093 284.997 193.6 285.877 194.72C286.757 195.84 287.904 196.4 289.317 196.4C290.837 196.4 292.01 195.867 292.837 194.8C293.664 193.707 294.077 192.12 294.077 190.04V190V189.96C294.077 187.987 293.637 186.44 292.757 185.32C291.904 184.173 290.797 183.6 289.437 183.6C287.97 183.6 286.784 184.147 285.877 185.24C284.997 186.333 284.557 187.853 284.557 189.8ZM289.517 200.4C286.264 200.4 283.757 199.453 281.997 197.56C280.237 195.64 279.357 192.893 279.357 189.32V181.32C279.357 177.507 280.357 174.733 282.357 173C284.357 171.267 287.544 170.4 291.917 170.4C293.464 170.4 294.824 170.347 295.997 170.24C296.53 170.187 296.984 170.333 297.357 170.68C297.757 171.027 297.957 171.453 297.957 171.96C297.957 172.52 297.77 173.013 297.397 173.44C297.05 173.867 296.597 174.107 296.037 174.16C294.89 174.267 293.557 174.32 292.037 174.32C289.13 174.32 287.144 174.813 286.077 175.8C285.037 176.76 284.517 178.56 284.517 181.2V182.64V182.68C284.57 182.68 284.597 182.653 284.597 182.6C286.064 180.6 288.17 179.6 290.917 179.6C293.264 179.6 295.21 180.547 296.757 182.44C298.33 184.307 299.117 186.827 299.117 190C299.117 193.333 298.277 195.907 296.597 197.72C294.917 199.507 292.557 200.4 289.517 200.4ZM313.849 190C310.036 190 308.129 191.173 308.129 193.52C308.129 194.373 308.369 195.067 308.849 195.6C309.356 196.133 309.996 196.4 310.769 196.4C312.289 196.4 313.516 195.933 314.449 195C315.382 194.04 315.849 192.733 315.849 191.08V190.36C315.849 190.12 315.729 190 315.489 190H313.849ZM309.329 200.4C307.516 200.4 306.009 199.813 304.809 198.64C303.636 197.44 303.049 195.893 303.049 194C303.049 191.68 303.929 189.88 305.689 188.6C307.476 187.32 310.196 186.68 313.849 186.68H315.489C315.729 186.68 315.849 186.56 315.849 186.32V186C315.849 184.773 315.556 183.92 314.969 183.44C314.382 182.933 313.342 182.68 311.849 182.68C310.302 182.68 308.409 182.96 306.169 183.52C305.689 183.653 305.249 183.573 304.849 183.28C304.449 182.96 304.249 182.547 304.249 182.04C304.249 181.427 304.436 180.88 304.809 180.4C305.182 179.893 305.662 179.587 306.249 179.48C308.276 179.027 310.182 178.8 311.969 178.8C315.382 178.8 317.769 179.413 319.129 180.64C320.489 181.867 321.169 184.013 321.169 187.08V197.72C321.169 198.333 320.942 198.867 320.489 199.32C320.062 199.773 319.542 200 318.929 200H318.489C317.849 200 317.302 199.787 316.849 199.36C316.396 198.907 316.156 198.36 316.129 197.72V197.16C316.129 197.133 316.116 197.12 316.089 197.12C316.036 197.12 316.009 197.133 316.009 197.16C314.382 199.32 312.156 200.4 309.329 200.4ZM331.751 191.04V196.36C331.751 196.573 331.871 196.707 332.111 196.76C332.431 196.813 332.938 196.84 333.631 196.84C336.804 196.84 338.391 195.773 338.391 193.64C338.391 191.693 336.764 190.72 333.511 190.72H332.111C331.871 190.72 331.751 190.827 331.751 191.04ZM331.751 182.84V187.12C331.751 187.333 331.871 187.44 332.111 187.44H333.391C334.698 187.44 335.724 187.2 336.471 186.72C337.244 186.24 337.631 185.587 337.631 184.76C337.631 183.16 336.258 182.36 333.511 182.36C333.191 182.36 332.711 182.387 332.071 182.44C331.858 182.493 331.751 182.627 331.751 182.84ZM328.711 200.08C328.071 200.027 327.538 199.76 327.111 199.28C326.684 198.773 326.471 198.2 326.471 197.56V181.64C326.471 180.973 326.684 180.4 327.111 179.92C327.538 179.44 328.084 179.173 328.751 179.12C330.298 178.987 331.738 178.92 333.071 178.92C339.418 178.92 342.591 180.653 342.591 184.12C342.591 185.32 342.151 186.347 341.271 187.2C340.418 188.027 339.244 188.573 337.751 188.84L337.711 188.88H337.751C339.538 189.12 340.938 189.707 341.951 190.64C342.964 191.547 343.471 192.667 343.471 194C343.471 198.187 340.111 200.28 333.391 200.28C331.951 200.28 330.391 200.213 328.711 200.08ZM347.759 200.24C347.226 200.293 346.759 200.133 346.359 199.76C345.986 199.387 345.799 198.933 345.799 198.4C345.799 197.867 345.986 197.387 346.359 196.96C346.759 196.533 347.239 196.253 347.799 196.12C348.946 195.827 349.719 195.187 350.119 194.2C350.519 193.213 350.719 191.52 350.719 189.12V181.48C350.719 180.867 350.946 180.333 351.399 179.88C351.852 179.427 352.386 179.2 352.999 179.2H365.399C366.012 179.2 366.546 179.427 366.999 179.88C367.452 180.333 367.679 180.867 367.679 181.48V197.72C367.679 198.333 367.452 198.867 366.999 199.32C366.546 199.773 366.012 200 365.399 200H364.679C364.066 200 363.532 199.773 363.079 199.32C362.626 198.867 362.399 198.333 362.399 197.72V183.56C362.399 183.32 362.279 183.2 362.039 183.2H356.199C355.986 183.2 355.879 183.32 355.879 183.56V189.88C355.879 193.4 355.292 195.92 354.119 197.44C352.972 198.933 350.852 199.867 347.759 200.24ZM381.83 182.72C378.576 182.72 376.95 183.667 376.95 185.56C376.95 187.507 378.643 188.48 382.03 188.48H383.59C383.803 188.48 383.91 188.36 383.91 188.12V183.16C383.91 182.92 383.803 182.8 383.59 182.8C382.79 182.747 382.203 182.72 381.83 182.72ZM376.87 190.44C375.403 190.04 374.203 189.373 373.27 188.44C372.336 187.48 371.87 186.347 371.87 185.04C371.87 180.96 375.11 178.92 381.59 178.92C383.243 178.92 385.03 178.987 386.95 179.12C387.59 179.147 388.123 179.413 388.55 179.92C389.003 180.4 389.23 180.96 389.23 181.6V197.72C389.23 198.333 389.003 198.867 388.55 199.32C388.096 199.773 387.563 200 386.95 200H386.19C385.576 200 385.043 199.773 384.59 199.32C384.136 198.867 383.91 198.333 383.91 197.72V192.48C383.91 192.267 383.803 192.16 383.59 192.16H382.27C381.23 192.16 380.51 192.293 380.11 192.56C379.71 192.8 379.27 193.44 378.79 194.48L377.31 197.92C377.016 198.533 376.576 199.04 375.99 199.44C375.43 199.813 374.816 200 374.15 200H373.43C372.896 200 372.483 199.773 372.19 199.32C371.923 198.867 371.896 198.4 372.11 197.92L373.83 194.2C374.71 192.307 375.736 191.093 376.91 190.56C376.936 190.56 376.95 190.547 376.95 190.52C376.95 190.467 376.923 190.44 376.87 190.44ZM395.514 183.28C394.954 183.28 394.474 183.08 394.074 182.68C393.674 182.28 393.474 181.8 393.474 181.24C393.474 180.68 393.674 180.2 394.074 179.8C394.474 179.4 394.954 179.2 395.514 179.2H409.994C410.554 179.2 411.034 179.4 411.434 179.8C411.834 180.2 412.034 180.68 412.034 181.24C412.034 181.8 411.834 182.28 411.434 182.68C411.034 183.08 410.554 183.28 409.994 183.28H405.874C405.634 183.28 405.514 183.387 405.514 183.6V197.72C405.514 198.333 405.287 198.867 404.834 199.32C404.381 199.773 403.847 200 403.234 200H402.274C401.661 200 401.127 199.773 400.674 199.32C400.221 198.867 399.994 198.333 399.994 197.72V183.6C399.994 183.387 399.874 183.28 399.634 183.28H395.514ZM421.554 189.2V195.92C421.554 196.133 421.674 196.267 421.914 196.32C422.634 196.453 423.274 196.52 423.834 196.52C425.54 196.52 426.78 196.187 427.554 195.52C428.354 194.827 428.754 193.76 428.754 192.32C428.754 191.147 428.327 190.24 427.474 189.6C426.647 188.933 425.407 188.6 423.754 188.6C423.167 188.6 422.54 188.667 421.874 188.8C421.66 188.853 421.554 188.987 421.554 189.2ZM418.594 200.12C417.954 200.04 417.42 199.747 416.994 199.24C416.567 198.733 416.354 198.16 416.354 197.52V181.48C416.354 180.867 416.58 180.333 417.034 179.88C417.487 179.427 418.02 179.2 418.634 179.2H419.314C419.927 179.2 420.447 179.427 420.874 179.88C421.327 180.333 421.554 180.867 421.554 181.48V184.64C421.554 184.72 421.594 184.8 421.674 184.88C421.754 184.96 421.834 184.987 421.914 184.96C422.98 184.8 423.86 184.72 424.554 184.72C427.514 184.72 429.78 185.4 431.354 186.76C432.954 188.12 433.754 189.973 433.754 192.32C433.754 195.04 432.914 197.067 431.234 198.4C429.554 199.733 426.927 200.4 423.354 200.4C421.594 200.4 420.007 200.307 418.594 200.12ZM53.04 250.04V255.36C53.04 255.573 53.16 255.707 53.4 255.76C53.72 255.813 54.2267 255.84 54.92 255.84C58.0933 255.84 59.68 254.773 59.68 252.64C59.68 250.693 58.0533 249.72 54.8 249.72H53.4C53.16 249.72 53.04 249.827 53.04 250.04ZM53.04 241.84V246.12C53.04 246.333 53.16 246.44 53.4 246.44H54.68C55.9867 246.44 57.0133 246.2 57.76 245.72C58.5333 245.24 58.92 244.587 58.92 243.76C58.92 242.16 57.5467 241.36 54.8 241.36C54.48 241.36 54 241.387 53.36 241.44C53.1467 241.493 53.04 241.627 53.04 241.84ZM50 259.08C49.36 259.027 48.8267 258.76 48.4 258.28C47.9733 257.773 47.76 257.2 47.76 256.56V240.64C47.76 239.973 47.9733 239.4 48.4 238.92C48.8267 238.44 49.3733 238.173 50.04 238.12C51.5867 237.987 53.0267 237.92 54.36 237.92C60.7067 237.92 63.88 239.653 63.88 243.12C63.88 244.32 63.44 245.347 62.56 246.2C61.7067 247.027 60.5333 247.573 59.04 247.84L59 247.88H59.04C60.8267 248.12 62.2267 248.707 63.24 249.64C64.2533 250.547 64.76 251.667 64.76 253C64.76 257.187 61.4 259.28 54.68 259.28C53.24 259.28 51.68 259.213 50 259.08ZM82.6953 259C82.082 259 81.5486 258.773 81.0953 258.32C80.6686 257.867 80.4553 257.333 80.4553 256.72V240.48C80.4553 239.867 80.6686 239.333 81.0953 238.88C81.5486 238.427 82.082 238.2 82.6953 238.2H83.5753C84.1886 238.2 84.722 238.427 85.1753 238.88C85.6286 239.333 85.8553 239.867 85.8553 240.48V245.84C85.8553 246.08 85.9753 246.2 86.2153 246.2H92.9353C93.1753 246.2 93.2953 246.08 93.2953 245.84V240.48C93.2953 239.867 93.522 239.333 93.9753 238.88C94.4286 238.427 94.962 238.2 95.5753 238.2H96.4553C97.0686 238.2 97.5886 238.427 98.0153 238.88C98.4686 239.333 98.6953 239.867 98.6953 240.48V256.72C98.6953 257.333 98.4686 257.867 98.0153 258.32C97.5886 258.773 97.0686 259 96.4553 259H95.5753C94.962 259 94.4286 258.773 93.9753 258.32C93.522 257.867 93.2953 257.333 93.2953 256.72V250.32C93.2953 250.08 93.1753 249.96 92.9353 249.96H86.2153C85.9753 249.96 85.8553 250.08 85.8553 250.32V256.72C85.8553 257.333 85.6286 257.867 85.1753 258.32C84.722 258.773 84.1886 259 83.5753 259H82.6953ZM112.685 241.52C111.325 241.52 110.272 241.907 109.525 242.68C108.805 243.427 108.352 244.64 108.165 246.32C108.165 246.533 108.272 246.64 108.485 246.64H116.325C116.539 246.64 116.645 246.533 116.645 246.32C116.539 243.12 115.219 241.52 112.685 241.52ZM113.685 259.4C110.192 259.4 107.499 258.493 105.605 256.68C103.739 254.84 102.805 252.147 102.805 248.6C102.805 245.08 103.645 242.4 105.325 240.56C107.005 238.72 109.432 237.8 112.605 237.8C118.525 237.8 121.565 241.16 121.725 247.88C121.752 248.52 121.525 249.053 121.045 249.48C120.565 249.907 120.005 250.12 119.365 250.12H108.445C108.205 250.12 108.112 250.24 108.165 250.48C108.352 252.267 108.939 253.573 109.925 254.4C110.939 255.2 112.405 255.6 114.325 255.6C115.525 255.6 116.859 255.4 118.325 255C118.805 254.867 119.245 254.947 119.645 255.24C120.072 255.533 120.285 255.933 120.285 256.44C120.285 257.053 120.099 257.6 119.725 258.08C119.379 258.533 118.912 258.813 118.325 258.92C116.832 259.24 115.285 259.4 113.685 259.4ZM128.281 259C127.668 259 127.135 258.773 126.681 258.32C126.255 257.867 126.041 257.333 126.041 256.72V240.48C126.041 239.867 126.255 239.333 126.681 238.88C127.135 238.427 127.668 238.2 128.281 238.2H140.401C140.961 238.2 141.441 238.4 141.841 238.8C142.241 239.2 142.441 239.68 142.441 240.24C142.441 240.8 142.241 241.28 141.841 241.68C141.441 242.08 140.961 242.28 140.401 242.28H131.841C131.601 242.28 131.481 242.387 131.481 242.6V256.72C131.481 257.333 131.255 257.867 130.801 258.32C130.375 258.773 129.855 259 129.241 259H128.281ZM158.789 243.36C158.016 242.24 156.842 241.68 155.269 241.68C153.696 241.68 152.509 242.24 151.709 243.36C150.936 244.453 150.549 246.2 150.549 248.6C150.549 251 150.936 252.76 151.709 253.88C152.509 254.973 153.696 255.52 155.269 255.52C156.842 255.52 158.016 254.973 158.789 253.88C159.589 252.76 159.989 251 159.989 248.6C159.989 246.2 159.589 244.453 158.789 243.36ZM162.709 256.6C160.949 258.467 158.469 259.4 155.269 259.4C152.069 259.4 149.576 258.467 147.789 256.6C146.029 254.707 145.149 252.04 145.149 248.6C145.149 245.16 146.029 242.507 147.789 240.64C149.576 238.747 152.069 237.8 155.269 237.8C158.469 237.8 160.949 238.747 162.709 240.64C164.496 242.507 165.389 245.16 165.389 248.6C165.389 252.04 164.496 254.707 162.709 256.6ZM183.125 259C182.512 259 181.978 258.773 181.525 258.32C181.098 257.867 180.885 257.333 180.885 256.72V240.48C180.885 239.867 181.098 239.333 181.525 238.88C181.978 238.427 182.512 238.2 183.125 238.2H184.005C184.618 238.2 185.152 238.427 185.605 238.88C186.058 239.333 186.285 239.867 186.285 240.48V245.84C186.285 246.08 186.405 246.2 186.645 246.2H193.365C193.605 246.2 193.725 246.08 193.725 245.84V240.48C193.725 239.867 193.952 239.333 194.405 238.88C194.858 238.427 195.392 238.2 196.005 238.2H196.885C197.498 238.2 198.018 238.427 198.445 238.88C198.898 239.333 199.125 239.867 199.125 240.48V256.72C199.125 257.333 198.898 257.867 198.445 258.32C198.018 258.773 197.498 259 196.885 259H196.005C195.392 259 194.858 258.773 194.405 258.32C193.952 257.867 193.725 257.333 193.725 256.72V250.32C193.725 250.08 193.605 249.96 193.365 249.96H186.645C186.405 249.96 186.285 250.08 186.285 250.32V256.72C186.285 257.333 186.058 257.867 185.605 258.32C185.152 258.773 184.618 259 184.005 259H183.125ZM216.875 243.36C216.102 242.24 214.928 241.68 213.355 241.68C211.782 241.68 210.595 242.24 209.795 243.36C209.022 244.453 208.635 246.2 208.635 248.6C208.635 251 209.022 252.76 209.795 253.88C210.595 254.973 211.782 255.52 213.355 255.52C214.928 255.52 216.102 254.973 216.875 253.88C217.675 252.76 218.075 251 218.075 248.6C218.075 246.2 217.675 244.453 216.875 243.36ZM220.795 256.6C219.035 258.467 216.555 259.4 213.355 259.4C210.155 259.4 207.662 258.467 205.875 256.6C204.115 254.707 203.235 252.04 203.235 248.6C203.235 245.16 204.115 242.507 205.875 240.64C207.662 238.747 210.155 237.8 213.355 237.8C216.555 237.8 219.035 238.747 220.795 240.64C222.582 242.507 223.475 245.16 223.475 248.6C223.475 252.04 222.582 254.707 220.795 256.6ZM232.884 250.04V255.36C232.884 255.573 233.004 255.707 233.244 255.76C233.564 255.813 234.07 255.84 234.764 255.84C237.937 255.84 239.524 254.773 239.524 252.64C239.524 250.693 237.897 249.72 234.644 249.72H233.244C233.004 249.72 232.884 249.827 232.884 250.04ZM232.884 241.84V246.12C232.884 246.333 233.004 246.44 233.244 246.44H234.524C235.83 246.44 236.857 246.2 237.604 245.72C238.377 245.24 238.764 244.587 238.764 243.76C238.764 242.16 237.39 241.36 234.644 241.36C234.324 241.36 233.844 241.387 233.204 241.44C232.99 241.493 232.884 241.627 232.884 241.84ZM229.844 259.08C229.204 259.027 228.67 258.76 228.244 258.28C227.817 257.773 227.604 257.2 227.604 256.56V240.64C227.604 239.973 227.817 239.4 228.244 238.92C228.67 238.44 229.217 238.173 229.884 238.12C231.43 237.987 232.87 237.92 234.204 237.92C240.55 237.92 243.724 239.653 243.724 243.12C243.724 244.32 243.284 245.347 242.404 246.2C241.55 247.027 240.377 247.573 238.884 247.84L238.844 247.88H238.884C240.67 248.12 242.07 248.707 243.084 249.64C244.097 250.547 244.604 251.667 244.604 253C244.604 257.187 241.244 259.28 234.524 259.28C233.084 259.28 231.524 259.213 229.844 259.08ZM270.972 259C270.359 259 269.825 258.773 269.372 258.32C268.945 257.867 268.732 257.333 268.732 256.72V240.48C268.732 239.867 268.945 239.333 269.372 238.88C269.825 238.427 270.359 238.2 270.972 238.2H271.652C272.265 238.2 272.799 238.427 273.252 238.88C273.705 239.333 273.932 239.867 273.932 240.48V256.72C273.932 257.333 273.705 257.867 273.252 258.32C272.799 258.773 272.265 259 271.652 259H270.972ZM256.372 255.52C258.079 255.52 259.319 255.187 260.092 254.52C260.892 253.827 261.292 252.76 261.292 251.32C261.292 248.84 259.639 247.6 256.332 247.6C255.745 247.6 255.119 247.667 254.452 247.8C254.239 247.853 254.132 247.987 254.132 248.2V254.92C254.132 255.133 254.239 255.267 254.452 255.32C255.172 255.453 255.812 255.52 256.372 255.52ZM257.132 243.72C260.092 243.72 262.359 244.4 263.932 245.76C265.532 247.12 266.332 248.973 266.332 251.32C266.332 254.04 265.492 256.067 263.812 257.4C262.132 258.733 259.505 259.4 255.932 259.4C254.145 259.4 252.545 259.307 251.132 259.12C250.492 259.04 249.959 258.747 249.532 258.24C249.132 257.733 248.932 257.16 248.932 256.52V240.48C248.932 239.867 249.145 239.333 249.572 238.88C250.025 238.427 250.559 238.2 251.172 238.2H251.852C252.465 238.2 252.999 238.427 253.452 238.88C253.905 239.333 254.132 239.867 254.132 240.48V243.64C254.132 243.72 254.159 243.8 254.212 243.88C254.292 243.96 254.372 243.987 254.452 243.96C255.519 243.8 256.412 243.72 257.132 243.72ZM287.92 241.52C286.56 241.52 285.506 241.907 284.76 242.68C284.04 243.427 283.586 244.64 283.4 246.32C283.4 246.533 283.506 246.64 283.72 246.64H291.56C291.773 246.64 291.88 246.533 291.88 246.32C291.773 243.12 290.453 241.52 287.92 241.52ZM288.92 259.4C285.426 259.4 282.733 258.493 280.84 256.68C278.973 254.84 278.04 252.147 278.04 248.6C278.04 245.08 278.88 242.4 280.56 240.56C282.24 238.72 284.666 237.8 287.84 237.8C293.76 237.8 296.8 241.16 296.96 247.88C296.986 248.52 296.76 249.053 296.28 249.48C295.8 249.907 295.24 250.12 294.6 250.12H283.68C283.44 250.12 283.346 250.24 283.4 250.48C283.586 252.267 284.173 253.573 285.16 254.4C286.173 255.2 287.64 255.6 289.56 255.6C290.76 255.6 292.093 255.4 293.56 255C294.04 254.867 294.48 254.947 294.88 255.24C295.306 255.533 295.52 255.933 295.52 256.44C295.52 257.053 295.333 257.6 294.96 258.08C294.613 258.533 294.146 258.813 293.56 258.92C292.066 259.24 290.52 259.4 288.92 259.4ZM314.923 259C314.309 259 313.776 258.773 313.323 258.32C312.869 257.867 312.643 257.333 312.643 256.72V240.48C312.643 239.867 312.869 239.333 313.323 238.88C313.776 238.427 314.309 238.2 314.923 238.2H315.723C316.336 238.2 316.869 238.427 317.323 238.88C317.776 239.333 318.003 239.867 318.003 240.48V246.68C318.003 246.707 318.016 246.72 318.043 246.72H318.083L324.163 239.88C325.149 238.76 326.403 238.2 327.923 238.2H329.603C330.029 238.2 330.323 238.4 330.483 238.8C330.669 239.2 330.616 239.56 330.323 239.88L323.003 247.96C322.869 248.12 322.869 248.293 323.003 248.48L330.403 257.28C330.696 257.627 330.736 258 330.523 258.4C330.336 258.8 330.029 259 329.603 259H327.923C326.403 259 325.163 258.413 324.203 257.24L318.083 249.84C318.083 249.813 318.069 249.8 318.043 249.8C318.016 249.8 318.003 249.813 318.003 249.84V256.72C318.003 257.333 317.776 257.867 317.323 258.32C316.869 258.773 316.336 259 315.723 259H314.923ZM337.188 259C336.574 259 336.041 258.773 335.588 258.32C335.161 257.867 334.948 257.333 334.948 256.72V240.48C334.948 239.867 335.161 239.333 335.588 238.88C336.041 238.427 336.574 238.2 337.188 238.2H338.067C338.681 238.2 339.214 238.427 339.668 238.88C340.121 239.333 340.348 239.867 340.348 240.48V245.84C340.348 246.08 340.468 246.2 340.708 246.2H347.428C347.668 246.2 347.788 246.08 347.788 245.84V240.48C347.788 239.867 348.014 239.333 348.468 238.88C348.921 238.427 349.454 238.2 350.068 238.2H350.948C351.561 238.2 352.081 238.427 352.508 238.88C352.961 239.333 353.188 239.867 353.188 240.48V256.72C353.188 257.333 352.961 257.867 352.508 258.32C352.081 258.773 351.561 259 350.948 259H350.068C349.454 259 348.921 258.773 348.468 258.32C348.014 257.867 347.788 257.333 347.788 256.72V250.32C347.788 250.08 347.668 249.96 347.428 249.96H340.708C340.468 249.96 340.348 250.08 340.348 250.32V256.72C340.348 257.333 340.121 257.867 339.668 258.32C339.214 258.773 338.681 259 338.067 259H337.188ZM360.978 259C360.364 259 359.831 258.773 359.378 258.32C358.924 257.867 358.698 257.333 358.698 256.72V240.48C358.698 239.867 358.924 239.333 359.378 238.88C359.831 238.427 360.364 238.2 360.978 238.2H361.738C362.351 238.2 362.884 238.427 363.338 238.88C363.791 239.333 364.018 239.867 364.018 240.48V251.72L364.058 251.76L364.098 251.72L370.538 240.16C371.284 238.853 372.418 238.2 373.938 238.2H374.818C375.431 238.2 375.964 238.427 376.418 238.88C376.871 239.333 377.098 239.867 377.098 240.48V256.72C377.098 257.333 376.871 257.867 376.418 258.32C375.964 258.773 375.431 259 374.818 259H374.058C373.444 259 372.911 258.773 372.458 258.32C372.004 257.867 371.778 257.333 371.778 256.72V245.48L371.738 245.44L371.698 245.48L365.258 257.04C364.511 258.347 363.378 259 361.858 259H360.978ZM384.844 259C384.23 259 383.697 258.773 383.244 258.32C382.817 257.867 382.604 257.333 382.604 256.72V240.48C382.604 239.867 382.817 239.333 383.244 238.88C383.697 238.427 384.23 238.2 384.844 238.2H396.964C397.524 238.2 398.004 238.4 398.404 238.8C398.804 239.2 399.004 239.68 399.004 240.24C399.004 240.8 398.804 241.28 398.404 241.68C398.004 242.08 397.524 242.28 396.964 242.28H388.404C388.164 242.28 388.044 242.387 388.044 242.6V256.72C388.044 257.333 387.817 257.867 387.364 258.32C386.937 258.773 386.417 259 385.804 259H384.844ZM405.392 259C404.778 259 404.245 258.773 403.792 258.32C403.338 257.867 403.112 257.333 403.112 256.72V240.48C403.112 239.867 403.338 239.333 403.792 238.88C404.245 238.427 404.778 238.2 405.392 238.2H406.152C406.765 238.2 407.298 238.427 407.752 238.88C408.205 239.333 408.432 239.867 408.432 240.48V251.72L408.472 251.76L408.512 251.72L414.952 240.16C415.698 238.853 416.832 238.2 418.352 238.2H419.232C419.845 238.2 420.378 238.427 420.832 238.88C421.285 239.333 421.512 239.867 421.512 240.48V256.72C421.512 257.333 421.285 257.867 420.832 258.32C420.378 258.773 419.845 259 419.232 259H418.472C417.858 259 417.325 258.773 416.872 258.32C416.418 257.867 416.192 257.333 416.192 256.72V245.48L416.152 245.44L416.112 245.48L409.672 257.04C408.925 258.347 407.792 259 406.272 259H405.392Z" fill="black"/>
<path fill-rule="evenodd" clip-rule="evenodd" d="M568.794 64.7422C571.491 67.6315 571.335 72.1599 568.445 74.8566L527.553 113.023C526.101 114.378 524.152 115.069 522.171 114.931C520.191 114.792 518.357 113.838 517.108 112.294L505.521 97.9819C503.034 94.91 503.509 90.4038 506.581 87.917C509.653 85.4303 514.159 85.9046 516.646 88.9765L523.4 97.3208L558.68 64.3934C561.569 61.6967 566.097 61.8528 568.794 64.7422ZM599.344 88.7084C599.344 84.7561 602.548 81.5521 606.5 81.5521H701.917C705.869 81.5521 709.073 84.7561 709.073 88.7084C709.073 92.6607 705.869 95.8646 701.917 95.8646H606.5C602.548 95.8646 599.344 92.6607 599.344 88.7084ZM568.794 131.534C571.491 134.423 571.335 138.952 568.445 141.648L527.553 179.815C526.101 181.17 524.152 181.86 522.171 181.722C520.191 181.584 518.357 180.629 517.108 179.086L505.521 164.774C503.034 161.702 503.509 157.195 506.581 154.709C509.653 152.222 514.159 152.696 516.646 155.768L523.4 164.112L558.68 131.185C561.569 128.488 566.097 128.645 568.794 131.534ZM599.344 155.5C599.344 151.548 602.548 148.344 606.5 148.344H701.917C705.869 148.344 709.073 151.548 709.073 155.5C709.073 159.452 705.869 162.656 701.917 162.656H606.5C602.548 162.656 599.344 159.452 599.344 155.5ZM568.794 198.326C571.491 201.215 571.335 205.743 568.445 208.44L527.553 246.607C526.101 247.961 524.152 248.652 522.171 248.514C520.191 248.376 518.357 247.421 517.108 245.878L505.521 231.565C503.034 228.493 503.509 223.987 506.581 221.5C509.653 219.014 514.159 219.488 516.646 222.56L523.4 230.904L558.68 197.977C561.569 195.28 566.097 195.436 568.794 198.326ZM599.344 222.292C599.344 218.339 602.548 215.135 606.5 215.135H701.917C705.869 215.135 709.073 218.339 709.073 222.292C709.073 226.244 705.869 229.448 701.917 229.448H606.5C602.548 229.448 599.344 226.244 599.344 222.292Z" fill="white"/>
<path fill-rule="evenodd" clip-rule="evenodd" d="M568.794 64.7422C571.491 67.6315 571.335 72.1599 568.445 74.8566L527.553 113.023C526.101 114.378 524.152 115.069 522.171 114.931C520.191 114.792 518.357 113.838 517.108 112.294L505.521 97.9819C503.034 94.91 503.509 90.4038 506.581 87.917C509.653 85.4303 514.159 85.9046 516.646 88.9765L523.4 97.3208L558.68 64.3934C561.569 61.6967 566.097 61.8528 568.794 64.7422ZM599.344 88.7084C599.344 84.7561 602.548 81.5521 606.5 81.5521H701.917C705.869 81.5521 709.073 84.7561 709.073 88.7084C709.073 92.6607 705.869 95.8646 701.917 95.8646H606.5C602.548 95.8646 599.344 92.6607 599.344 88.7084ZM568.794 198.326C571.491 201.215 571.335 205.743 568.445 208.44L527.553 246.607C526.101 247.961 524.152 248.652 522.171 248.514C520.191 248.376 518.357 247.421 517.108 245.878L505.521 231.565C503.034 228.493 503.509 223.987 506.581 221.5C509.653 219.014 514.159 219.488 516.646 222.56L523.4 230.904L558.68 197.977C561.569 195.28 566.097 195.436 568.794 198.326ZM599.344 222.292C599.344 218.339 602.548 215.135 606.5 215.135H701.917C705.869 215.135 709.073 218.339 709.073 222.292C709.073 226.244 705.869 229.448 701.917 229.448H606.5C602.548 229.448 599.344 226.244 599.344 222.292Z" fill="white"/>
<g opacity="0.5">
<path d="M568.794 131.534C571.491 134.423 571.335 138.952 568.446 141.648L527.553 179.815C526.101 181.17 524.152 181.86 522.172 181.722C520.191 181.584 518.357 180.629 517.108 179.086L505.521 164.774C503.035 161.702 503.509 157.195 506.581 154.709C509.653 152.222 514.159 152.696 516.646 155.768L523.401 164.112L558.68 131.185C561.569 128.488 566.098 128.645 568.794 131.534Z" fill="white"/>
<path d="M599.344 155.5C599.344 151.548 602.548 148.344 606.5 148.344H701.917C705.869 148.344 709.073 151.548 709.073 155.5C709.073 159.452 705.869 162.656 701.917 162.656H606.5C602.548 162.656 599.344 159.452 599.344 155.5Z" fill="white"/>
</g>
<path d="M509 167.625L522.5 184L568 141" stroke="black" stroke-width="4" stroke-linecap="round" stroke-linejoin="round"/>
<path d="M509 100.625L522.5 117L568 74" stroke="black" stroke-width="4" stroke-linecap="round" stroke-linejoin="round"/>
<path d="M509 232.625L522.5 249L568 206" stroke="black" stroke-width="4" stroke-linecap="round" stroke-linejoin="round"/>
<path d="M704.667 163H653.833M603 163H618.25" stroke="black" stroke-width="4" stroke-linecap="round"/>
<path d="M603 230H653.833M689.417 230H704.667" stroke="black" stroke-width="4" stroke-linecap="round"/>
<path d="M704.667 95.8333H603" stroke="black" stroke-width="4" stroke-linecap="round"/>
</svg>
