<svg width="750" height="330" viewBox="0 0 750 330" fill="none" xmlns="http://www.w3.org/2000/svg">
<rect width="750" height="330" rx="19" fill="#B8BEF6"/>
<path d="M63.28 77.4C63.28 70.4667 60.7467 67 55.68 67C50.6133 67 48.08 70.4667 48.08 77.4C48.08 84.3333 50.6133 87.8 55.68 87.8C60.7467 87.8 63.28 84.3333 63.28 77.4ZM65.4 88.44C63.0267 91.08 59.7867 92.4 55.68 92.4C51.5733 92.4 48.32 91.08 45.92 88.44C43.5467 85.8 42.36 82.12 42.36 77.4C42.36 72.68 43.5467 69 45.92 66.36C48.32 63.72 51.5733 62.4 55.68 62.4C59.7867 62.4 63.0267 63.72 65.4 66.36C67.8 69 69 72.68 69 77.4C69 82.12 67.8 85.8 65.4 88.44ZM73.975 75.28C73.415 75.28 72.935 75.08 72.535 74.68C72.135 74.28 71.935 73.8 71.935 73.24C71.935 72.68 72.135 72.2 72.535 71.8C72.935 71.4 73.415 71.2 73.975 71.2H88.455C89.015 71.2 89.495 71.4 89.895 71.8C90.295 72.2 90.495 72.68 90.495 73.24C90.495 73.8 90.295 74.28 89.895 74.68C89.495 75.08 89.015 75.28 88.455 75.28H84.335C84.095 75.28 83.975 75.3867 83.975 75.6V89.72C83.975 90.3333 83.7483 90.8667 83.295 91.32C82.8417 91.7733 82.3083 92 81.695 92H80.735C80.1217 92 79.5883 91.7733 79.135 91.32C78.6817 90.8667 78.455 90.3333 78.455 89.72V75.6C78.455 75.3867 78.335 75.28 78.095 75.28H73.975ZM103.735 92.4C100.428 92.4 97.8814 91.4933 96.0947 89.68C94.308 87.84 93.4147 85.1467 93.4147 81.6C93.4147 78.1067 94.268 75.44 95.9747 73.6C97.708 71.7333 100.161 70.8 103.335 70.8C104.748 70.8 106.108 70.8933 107.415 71.08C108.028 71.16 108.535 71.44 108.935 71.92C109.335 72.4 109.535 72.96 109.535 73.6C109.535 74.1333 109.321 74.56 108.895 74.88C108.495 75.2 108.028 75.3067 107.495 75.2C106.455 74.9867 105.295 74.88 104.015 74.88C102.335 74.88 101.081 75.4133 100.255 76.48C99.428 77.5467 99.0147 79.2533 99.0147 81.6C99.0147 84 99.4547 85.72 100.335 86.76C101.215 87.8 102.575 88.32 104.415 88.32C105.721 88.32 106.855 88.2 107.815 87.96C108.321 87.8267 108.775 87.92 109.175 88.24C109.601 88.56 109.815 88.9733 109.815 89.48C109.815 90.12 109.615 90.68 109.215 91.16C108.841 91.64 108.348 91.9333 107.735 92.04C106.375 92.28 105.041 92.4 103.735 92.4ZM115.087 92.24C114.554 92.2933 114.087 92.1333 113.687 91.76C113.314 91.3867 113.127 90.9333 113.127 90.4C113.127 89.8667 113.314 89.3867 113.687 88.96C114.087 88.5333 114.567 88.2533 115.127 88.12C116.274 87.8267 117.047 87.1867 117.447 86.2C117.847 85.2133 118.047 83.52 118.047 81.12V73.48C118.047 72.8667 118.274 72.3333 118.727 71.88C119.181 71.4267 119.714 71.2 120.327 71.2H132.727C133.341 71.2 133.874 71.4267 134.327 71.88C134.781 72.3333 135.007 72.8667 135.007 73.48V89.72C135.007 90.3333 134.781 90.8667 134.327 91.32C133.874 91.7733 133.341 92 132.727 92H132.007C131.394 92 130.861 91.7733 130.407 91.32C129.954 90.8667 129.727 90.3333 129.727 89.72V75.56C129.727 75.32 129.607 75.2 129.367 75.2H123.527C123.314 75.2 123.207 75.32 123.207 75.56V81.88C123.207 85.4 122.621 87.92 121.447 89.44C120.301 90.9333 118.181 91.8667 115.087 92.24ZM148.998 74.52C147.638 74.52 146.584 74.9067 145.838 75.68C145.118 76.4267 144.664 77.64 144.478 79.32C144.478 79.5333 144.584 79.64 144.798 79.64H152.638C152.851 79.64 152.958 79.5333 152.958 79.32C152.851 76.12 151.531 74.52 148.998 74.52ZM149.998 92.4C146.504 92.4 143.811 91.4933 141.918 89.68C140.051 87.84 139.118 85.1467 139.118 81.6C139.118 78.08 139.958 75.4 141.638 73.56C143.318 71.72 145.744 70.8 148.918 70.8C154.838 70.8 157.878 74.16 158.038 80.88C158.064 81.52 157.838 82.0533 157.358 82.48C156.878 82.9067 156.318 83.12 155.678 83.12H144.758C144.518 83.12 144.424 83.24 144.478 83.48C144.664 85.2667 145.251 86.5733 146.238 87.4C147.251 88.2 148.718 88.6 150.638 88.6C151.838 88.6 153.171 88.4 154.638 88C155.118 87.8667 155.558 87.9467 155.958 88.24C156.384 88.5333 156.598 88.9333 156.598 89.44C156.598 90.0533 156.411 90.6 156.038 91.08C155.691 91.5333 155.224 91.8133 154.638 91.92C153.144 92.24 151.598 92.4 149.998 92.4ZM163.034 92C162.554 92 162.18 91.7867 161.914 91.36C161.647 90.9067 161.634 90.4667 161.874 90.04L166.714 81.64C166.847 81.4533 166.847 81.2533 166.714 81.04L162.114 73.16C161.874 72.7067 161.874 72.2667 162.114 71.84C162.38 71.4133 162.754 71.2 163.234 71.2H163.954C164.674 71.2 165.34 71.3867 165.954 71.76C166.567 72.1067 167.034 72.5733 167.354 73.16L170.674 79.16C170.807 79.3733 170.98 79.48 171.194 79.48H172.074C172.314 79.48 172.434 79.36 172.434 79.12V73.48C172.434 72.8667 172.647 72.3333 173.074 71.88C173.527 71.4267 174.06 71.2 174.674 71.2H175.234C175.874 71.2 176.407 71.4267 176.834 71.88C177.26 72.3333 177.474 72.8667 177.474 73.48V79.12C177.474 79.36 177.594 79.48 177.834 79.48H178.714C178.954 79.48 179.127 79.3733 179.234 79.16L182.554 73.16C182.9 72.5733 183.38 72.1067 183.994 71.76C184.607 71.3867 185.26 71.2 185.954 71.2H186.674C187.18 71.2 187.554 71.4133 187.794 71.84C188.06 72.2667 188.06 72.7067 187.794 73.16L183.194 80.96C183.087 81.1733 183.087 81.3733 183.194 81.56L188.034 90.04C188.3 90.4667 188.3 90.9067 188.034 91.36C187.767 91.7867 187.38 92 186.874 92H186.154C185.487 92 184.847 91.8267 184.234 91.48C183.62 91.1067 183.14 90.6133 182.794 90L179.234 83.64C179.127 83.4267 178.954 83.32 178.714 83.32H177.834C177.594 83.32 177.474 83.44 177.474 83.68V89.72C177.474 90.3333 177.26 90.8667 176.834 91.32C176.407 91.7733 175.874 92 175.234 92H174.674C174.06 92 173.527 91.7733 173.074 91.32C172.647 90.8667 172.434 90.3333 172.434 89.72V83.68C172.434 83.44 172.314 83.32 172.074 83.32H171.194C170.98 83.32 170.807 83.4267 170.674 83.64L167.114 90C166.794 90.6133 166.327 91.1067 165.714 91.48C165.1 91.8267 164.447 92 163.754 92H163.034ZM194.673 92C194.059 92 193.526 91.7733 193.073 91.32C192.619 90.8667 192.393 90.3333 192.393 89.72V73.48C192.393 72.8667 192.619 72.3333 193.073 71.88C193.526 71.4267 194.059 71.2 194.673 71.2H195.433C196.046 71.2 196.579 71.4267 197.033 71.88C197.486 72.3333 197.713 72.8667 197.713 73.48V84.72L197.753 84.76L197.793 84.72L204.233 73.16C204.979 71.8533 206.113 71.2 207.633 71.2H208.513C209.126 71.2 209.659 71.4267 210.113 71.88C210.566 72.3333 210.793 72.8667 210.793 73.48V89.72C210.793 90.3333 210.566 90.8667 210.113 91.32C209.659 91.7733 209.126 92 208.513 92H207.753C207.139 92 206.606 91.7733 206.153 91.32C205.699 90.8667 205.473 90.3333 205.473 89.72V78.48L205.433 78.44L205.393 78.48L198.953 90.04C198.206 91.3467 197.073 92 195.553 92H194.673ZM221.579 83.04V88.36C221.579 88.5733 221.699 88.7067 221.939 88.76C222.259 88.8133 222.766 88.84 223.459 88.84C226.632 88.84 228.219 87.7733 228.219 85.64C228.219 83.6933 226.592 82.72 223.339 82.72H221.939C221.699 82.72 221.579 82.8267 221.579 83.04ZM221.579 74.84V79.12C221.579 79.3333 221.699 79.44 221.939 79.44H223.219C224.526 79.44 225.552 79.2 226.299 78.72C227.072 78.24 227.459 77.5867 227.459 76.76C227.459 75.16 226.086 74.36 223.339 74.36C223.019 74.36 222.539 74.3867 221.899 74.44C221.686 74.4933 221.579 74.6267 221.579 74.84ZM218.539 92.08C217.899 92.0267 217.366 91.76 216.939 91.28C216.512 90.7733 216.299 90.2 216.299 89.56V73.64C216.299 72.9733 216.512 72.4 216.939 71.92C217.366 71.44 217.912 71.1733 218.579 71.12C220.126 70.9867 221.566 70.92 222.899 70.92C229.246 70.92 232.419 72.6533 232.419 76.12C232.419 77.32 231.979 78.3467 231.099 79.2C230.246 80.0267 229.072 80.5733 227.579 80.84L227.539 80.88H227.579C229.366 81.12 230.766 81.7067 231.779 82.64C232.792 83.5467 233.299 84.6667 233.299 86C233.299 90.1867 229.939 92.28 223.219 92.28C221.779 92.28 220.219 92.2133 218.539 92.08ZM247.427 82C243.614 82 241.707 83.1733 241.707 85.52C241.707 86.3733 241.947 87.0667 242.427 87.6C242.934 88.1333 243.574 88.4 244.347 88.4C245.867 88.4 247.094 87.9333 248.027 87C248.961 86.04 249.427 84.7333 249.427 83.08V82.36C249.427 82.12 249.307 82 249.067 82H247.427ZM242.907 92.4C241.094 92.4 239.587 91.8133 238.387 90.64C237.214 89.44 236.627 87.8933 236.627 86C236.627 83.68 237.507 81.88 239.267 80.6C241.054 79.32 243.774 78.68 247.427 78.68H249.067C249.307 78.68 249.427 78.56 249.427 78.32V78C249.427 76.7733 249.134 75.92 248.547 75.44C247.961 74.9333 246.921 74.68 245.427 74.68C243.881 74.68 241.987 74.96 239.747 75.52C239.267 75.6533 238.827 75.5733 238.427 75.28C238.027 74.96 237.827 74.5467 237.827 74.04C237.827 73.4267 238.014 72.88 238.387 72.4C238.761 71.8933 239.241 71.5867 239.827 71.48C241.854 71.0267 243.761 70.8 245.547 70.8C248.961 70.8 251.347 71.4133 252.707 72.64C254.067 73.8667 254.747 76.0133 254.747 79.08V89.72C254.747 90.3333 254.521 90.8667 254.067 91.32C253.641 91.7733 253.121 92 252.507 92H252.067C251.427 92 250.881 91.7867 250.427 91.36C249.974 90.9067 249.734 90.36 249.707 89.72V89.16C249.707 89.1333 249.694 89.12 249.667 89.12C249.614 89.12 249.587 89.1333 249.587 89.16C247.961 91.32 245.734 92.4 242.907 92.4ZM260.889 75.28C260.329 75.28 259.849 75.08 259.449 74.68C259.049 74.28 258.849 73.8 258.849 73.24C258.849 72.68 259.049 72.2 259.449 71.8C259.849 71.4 260.329 71.2 260.889 71.2H275.369C275.929 71.2 276.409 71.4 276.809 71.8C277.209 72.2 277.409 72.68 277.409 73.24C277.409 73.8 277.209 74.28 276.809 74.68C276.409 75.08 275.929 75.28 275.369 75.28H271.249C271.009 75.28 270.889 75.3867 270.889 75.6V89.72C270.889 90.3333 270.662 90.8667 270.209 91.32C269.756 91.7733 269.222 92 268.609 92H267.649C267.036 92 266.502 91.7733 266.049 91.32C265.596 90.8667 265.369 90.3333 265.369 89.72V75.6C265.369 75.3867 265.249 75.28 265.009 75.28H260.889ZM286.929 81.2V87.92C286.929 88.1333 287.049 88.2667 287.289 88.32C288.009 88.4533 288.649 88.52 289.209 88.52C290.915 88.52 292.155 88.1867 292.929 87.52C293.729 86.8267 294.129 85.76 294.129 84.32C294.129 83.1467 293.702 82.24 292.849 81.6C292.022 80.9333 290.782 80.6 289.129 80.6C288.542 80.6 287.915 80.6667 287.249 80.8C287.035 80.8533 286.929 80.9867 286.929 81.2ZM283.969 92.12C283.329 92.04 282.795 91.7467 282.369 91.24C281.942 90.7333 281.729 90.16 281.729 89.52V73.48C281.729 72.8667 281.955 72.3333 282.409 71.88C282.862 71.4267 283.395 71.2 284.009 71.2H284.689C285.302 71.2 285.822 71.4267 286.249 71.88C286.702 72.3333 286.929 72.8667 286.929 73.48V76.64C286.929 76.72 286.969 76.8 287.049 76.88C287.129 76.96 287.209 76.9867 287.289 76.96C288.355 76.8 289.235 76.72 289.929 76.72C292.889 76.72 295.155 77.4 296.729 78.76C298.329 80.12 299.129 81.9733 299.129 84.32C299.129 87.04 298.289 89.0667 296.609 90.4C294.929 91.7333 292.302 92.4 288.729 92.4C286.969 92.4 285.382 92.3067 283.969 92.12ZM316.899 92C316.286 92 315.753 91.7733 315.299 91.32C314.846 90.8667 314.619 90.3333 314.619 89.72V73.48C314.619 72.8667 314.846 72.3333 315.299 71.88C315.753 71.4267 316.286 71.2 316.899 71.2H330.419C331.033 71.2 331.566 71.4267 332.019 71.88C332.473 72.3333 332.699 72.8667 332.699 73.48V89.72C332.699 90.3333 332.473 90.8667 332.019 91.32C331.566 91.7733 331.033 92 330.419 92H329.699C329.086 92 328.553 91.7733 328.099 91.32C327.646 90.8667 327.419 90.3333 327.419 89.72V75.56C327.419 75.32 327.313 75.2 327.099 75.2H320.219C320.006 75.2 319.899 75.32 319.899 75.56V89.72C319.899 90.3333 319.673 90.8667 319.219 91.32C318.766 91.7733 318.233 92 317.619 92H316.899ZM343.493 78.88V84.32C343.493 85.3867 343.946 86.3333 344.853 87.16C345.786 87.9867 346.866 88.4 348.093 88.4C349.506 88.4 350.626 87.8267 351.453 86.68C352.28 85.5333 352.693 83.84 352.693 81.6C352.693 77.0667 351.16 74.8 348.093 74.8C346.866 74.8 345.786 75.2133 344.853 76.04C343.946 76.8667 343.493 77.8133 343.493 78.88ZM340.493 100.8C339.88 100.8 339.346 100.573 338.893 100.12C338.44 99.6667 338.213 99.1333 338.213 98.52V73.48C338.213 72.8667 338.44 72.3333 338.893 71.88C339.346 71.4267 339.88 71.2 340.493 71.2H340.973C341.613 71.2 342.16 71.4267 342.613 71.88C343.066 72.3067 343.306 72.84 343.333 73.48V73.76C343.333 73.7867 343.346 73.8 343.373 73.8C343.4 73.8 343.426 73.7867 343.453 73.76C344.413 72.6933 345.373 71.9333 346.333 71.48C347.293 71.0267 348.413 70.8 349.693 70.8C352.2 70.8 354.2 71.7467 355.693 73.64C357.186 75.5067 357.933 78.16 357.933 81.6C357.933 84.9333 357.146 87.5733 355.573 89.52C354.026 91.44 352.066 92.4 349.693 92.4C347.373 92.4 345.36 91.56 343.653 89.88C343.626 89.8533 343.6 89.84 343.573 89.84C343.546 89.84 343.533 89.8533 343.533 89.88V98.52C343.533 99.1333 343.306 99.6667 342.853 100.12C342.426 100.573 341.906 100.8 341.293 100.8H340.493ZM374.477 76.36C373.703 75.24 372.53 74.68 370.957 74.68C369.383 74.68 368.197 75.24 367.397 76.36C366.623 77.4533 366.237 79.2 366.237 81.6C366.237 84 366.623 85.76 367.397 86.88C368.197 87.9733 369.383 88.52 370.957 88.52C372.53 88.52 373.703 87.9733 374.477 86.88C375.277 85.76 375.677 84 375.677 81.6C375.677 79.2 375.277 77.4533 374.477 76.36ZM378.397 89.6C376.637 91.4667 374.157 92.4 370.957 92.4C367.757 92.4 365.263 91.4667 363.477 89.6C361.717 87.7067 360.837 85.04 360.837 81.6C360.837 78.16 361.717 75.5067 363.477 73.64C365.263 71.7467 367.757 70.8 370.957 70.8C374.157 70.8 376.637 71.7467 378.397 73.64C380.183 75.5067 381.077 78.16 381.077 81.6C381.077 85.04 380.183 87.7067 378.397 89.6ZM387.445 92C386.832 92 386.299 91.7733 385.845 91.32C385.419 90.8667 385.205 90.3333 385.205 89.72V73.48C385.205 72.8667 385.419 72.3333 385.845 71.88C386.299 71.4267 386.832 71.2 387.445 71.2H399.565C400.125 71.2 400.605 71.4 401.005 71.8C401.405 72.2 401.605 72.68 401.605 73.24C401.605 73.8 401.405 74.28 401.005 74.68C400.605 75.08 400.125 75.28 399.565 75.28H391.005C390.765 75.28 390.645 75.3867 390.645 75.6V89.72C390.645 90.3333 390.419 90.8667 389.965 91.32C389.539 91.7733 389.019 92 388.405 92H387.445ZM410.993 78.88V84.32C410.993 85.3867 411.446 86.3333 412.353 87.16C413.286 87.9867 414.366 88.4 415.593 88.4C417.006 88.4 418.126 87.8267 418.953 86.68C419.78 85.5333 420.193 83.84 420.193 81.6C420.193 77.0667 418.66 74.8 415.593 74.8C414.366 74.8 413.286 75.2133 412.353 76.04C411.446 76.8667 410.993 77.8133 410.993 78.88ZM407.993 100.8C407.38 100.8 406.846 100.573 406.393 100.12C405.94 99.6667 405.713 99.1333 405.713 98.52V73.48C405.713 72.8667 405.94 72.3333 406.393 71.88C406.846 71.4267 407.38 71.2 407.993 71.2H408.473C409.113 71.2 409.66 71.4267 410.113 71.88C410.566 72.3067 410.806 72.84 410.833 73.48V73.76C410.833 73.7867 410.846 73.8 410.873 73.8C410.9 73.8 410.926 73.7867 410.953 73.76C411.913 72.6933 412.873 71.9333 413.833 71.48C414.793 71.0267 415.913 70.8 417.193 70.8C419.7 70.8 421.7 71.7467 423.193 73.64C424.686 75.5067 425.433 78.16 425.433 81.6C425.433 84.9333 424.646 87.5733 423.073 89.52C421.526 91.44 419.566 92.4 417.193 92.4C414.873 92.4 412.86 91.56 411.153 89.88C411.126 89.8533 411.1 89.84 411.073 89.84C411.046 89.84 411.033 89.8533 411.033 89.88V98.52C411.033 99.1333 410.806 99.6667 410.353 100.12C409.926 100.573 409.406 100.8 408.793 100.8H407.993ZM438.217 74.52C436.857 74.52 435.803 74.9067 435.057 75.68C434.337 76.4267 433.883 77.64 433.697 79.32C433.697 79.5333 433.803 79.64 434.017 79.64H441.857C442.07 79.64 442.177 79.5333 442.177 79.32C442.07 76.12 440.75 74.52 438.217 74.52ZM439.217 92.4C435.723 92.4 433.03 91.4933 431.137 89.68C429.27 87.84 428.337 85.1467 428.337 81.6C428.337 78.08 429.177 75.4 430.857 73.56C432.537 71.72 434.963 70.8 438.137 70.8C444.057 70.8 447.097 74.16 447.257 80.88C447.283 81.52 447.057 82.0533 446.577 82.48C446.097 82.9067 445.537 83.12 444.897 83.12H433.977C433.737 83.12 433.643 83.24 433.697 83.48C433.883 85.2667 434.47 86.5733 435.457 87.4C436.47 88.2 437.937 88.6 439.857 88.6C441.057 88.6 442.39 88.4 443.857 88C444.337 87.8667 444.777 87.9467 445.177 88.24C445.603 88.5333 445.817 88.9333 445.817 89.44C445.817 90.0533 445.63 90.6 445.257 91.08C444.91 91.5333 444.443 91.8133 443.857 91.92C442.363 92.24 440.817 92.4 439.217 92.4ZM460.493 92.4C457.186 92.4 454.639 91.4933 452.853 89.68C451.066 87.84 450.173 85.1467 450.173 81.6C450.173 78.1067 451.026 75.44 452.733 73.6C454.466 71.7333 456.919 70.8 460.093 70.8C461.506 70.8 462.866 70.8933 464.173 71.08C464.786 71.16 465.293 71.44 465.693 71.92C466.093 72.4 466.293 72.96 466.293 73.6C466.293 74.1333 466.079 74.56 465.653 74.88C465.253 75.2 464.786 75.3067 464.253 75.2C463.213 74.9867 462.053 74.88 460.773 74.88C459.093 74.88 457.839 75.4133 457.013 76.48C456.186 77.5467 455.773 79.2533 455.773 81.6C455.773 84 456.213 85.72 457.093 86.76C457.973 87.8 459.333 88.32 461.173 88.32C462.479 88.32 463.613 88.2 464.573 87.96C465.079 87.8267 465.533 87.92 465.933 88.24C466.359 88.56 466.573 88.9733 466.573 89.48C466.573 90.12 466.373 90.68 465.973 91.16C465.599 91.64 465.106 91.9333 464.493 92.04C463.133 92.28 461.799 92.4 460.493 92.4ZM480.805 92.4C477.498 92.4 474.952 91.4933 473.165 89.68C471.378 87.84 470.485 85.1467 470.485 81.6C470.485 78.1067 471.338 75.44 473.045 73.6C474.778 71.7333 477.232 70.8 480.405 70.8C481.818 70.8 483.178 70.8933 484.485 71.08C485.098 71.16 485.605 71.44 486.005 71.92C486.405 72.4 486.605 72.96 486.605 73.6C486.605 74.1333 486.392 74.56 485.965 74.88C485.565 75.2 485.098 75.3067 484.565 75.2C483.525 74.9867 482.365 74.88 481.085 74.88C479.405 74.88 478.152 75.4133 477.325 76.48C476.498 77.5467 476.085 79.2533 476.085 81.6C476.085 84 476.525 85.72 477.405 86.76C478.285 87.8 479.645 88.32 481.485 88.32C482.792 88.32 483.925 88.2 484.885 87.96C485.392 87.8267 485.845 87.92 486.245 88.24C486.672 88.56 486.885 88.9733 486.885 89.48C486.885 90.12 486.685 90.68 486.285 91.16C485.912 91.64 485.418 91.9333 484.805 92.04C483.445 92.28 482.112 92.4 480.805 92.4ZM51.28 145.48C48.3467 145.48 46.2933 144.96 45.12 143.92C43.9467 142.853 43.36 141.013 43.36 138.4V132.48C43.36 131.867 43.5733 131.333 44 130.88C44.4533 130.427 44.9867 130.2 45.6 130.2H46.2C46.8133 130.2 47.3467 130.427 47.8 130.88C48.2533 131.333 48.48 131.867 48.48 132.48V137.36C48.48 139.04 48.72 140.133 49.2 140.64C49.7067 141.147 50.7067 141.4 52.2 141.4C53.6667 141.4 54.9733 141.147 56.12 140.64C56.3067 140.56 56.4 140.387 56.4 140.12V132.48C56.4 131.867 56.6267 131.333 57.08 130.88C57.5333 130.427 58.0667 130.2 58.68 130.2H59.36C59.9733 130.2 60.4933 130.427 60.92 130.88C61.3733 131.333 61.6 131.867 61.6 132.48V148.72C61.6 149.333 61.3733 149.867 60.92 150.32C60.4933 150.773 59.9733 151 59.36 151H58.68C58.0667 151 57.5333 150.773 57.08 150.32C56.6267 149.867 56.4 149.333 56.4 148.72V144.8C56.4 144.72 56.36 144.653 56.28 144.6C56.2267 144.547 56.16 144.533 56.08 144.56C54.5333 145.173 52.9333 145.48 51.28 145.48ZM67.9594 134.28C67.3994 134.28 66.9194 134.08 66.5194 133.68C66.1194 133.28 65.9194 132.8 65.9194 132.24C65.9194 131.68 66.1194 131.2 66.5194 130.8C66.9194 130.4 67.3994 130.2 67.9594 130.2H82.4394C82.9994 130.2 83.4794 130.4 83.8794 130.8C84.2794 131.2 84.4794 131.68 84.4794 132.24C84.4794 132.8 84.2794 133.28 83.8794 133.68C83.4794 134.08 82.9994 134.28 82.4394 134.28H78.3194C78.0794 134.28 77.9594 134.387 77.9594 134.6V148.72C77.9594 149.333 77.7327 149.867 77.2794 150.32C76.826 150.773 76.2927 151 75.6794 151H74.7194C74.106 151 73.5727 150.773 73.1194 150.32C72.666 149.867 72.4394 149.333 72.4394 148.72V134.6C72.4394 134.387 72.3194 134.28 72.0794 134.28H67.9594ZM97.2791 133.52C95.9191 133.52 94.8657 133.907 94.1191 134.68C93.3991 135.427 92.9457 136.64 92.7591 138.32C92.7591 138.533 92.8657 138.64 93.0791 138.64H100.919C101.132 138.64 101.239 138.533 101.239 138.32C101.132 135.12 99.8124 133.52 97.2791 133.52ZM98.2791 151.4C94.7857 151.4 92.0924 150.493 90.1991 148.68C88.3324 146.84 87.3991 144.147 87.3991 140.6C87.3991 137.08 88.2391 134.4 89.9191 132.56C91.5991 130.72 94.0257 129.8 97.1991 129.8C103.119 129.8 106.159 133.16 106.319 139.88C106.346 140.52 106.119 141.053 105.639 141.48C105.159 141.907 104.599 142.12 103.959 142.12H93.0391C92.7991 142.12 92.7057 142.24 92.7591 142.48C92.9457 144.267 93.5324 145.573 94.5191 146.4C95.5324 147.2 96.9991 147.6 98.9191 147.6C100.119 147.6 101.452 147.4 102.919 147C103.399 146.867 103.839 146.947 104.239 147.24C104.666 147.533 104.879 147.933 104.879 148.44C104.879 149.053 104.692 149.6 104.319 150.08C103.972 150.533 103.506 150.813 102.919 150.92C101.426 151.24 99.8791 151.4 98.2791 151.4ZM112.875 151C112.262 151 111.728 150.773 111.275 150.32C110.848 149.867 110.635 149.333 110.635 148.72V132.48C110.635 131.867 110.848 131.333 111.275 130.88C111.728 130.427 112.262 130.2 112.875 130.2H113.755C114.368 130.2 114.902 130.427 115.355 130.88C115.808 131.333 116.035 131.867 116.035 132.48V137.84C116.035 138.08 116.155 138.2 116.395 138.2H123.115C123.355 138.2 123.475 138.08 123.475 137.84V132.48C123.475 131.867 123.702 131.333 124.155 130.88C124.608 130.427 125.142 130.2 125.755 130.2H126.635C127.248 130.2 127.768 130.427 128.195 130.88C128.648 131.333 128.875 131.867 128.875 132.48V148.72C128.875 149.333 128.648 149.867 128.195 150.32C127.768 150.773 127.248 151 126.635 151H125.755C125.142 151 124.608 150.773 124.155 150.32C123.702 149.867 123.475 149.333 123.475 148.72V142.32C123.475 142.08 123.355 141.96 123.115 141.96H116.395C116.155 141.96 116.035 142.08 116.035 142.32V148.72C116.035 149.333 115.808 149.867 115.355 150.32C114.902 150.773 114.368 151 113.755 151H112.875ZM136.665 151C136.052 151 135.518 150.773 135.065 150.32C134.612 149.867 134.385 149.333 134.385 148.72V132.48C134.385 131.867 134.612 131.333 135.065 130.88C135.518 130.427 136.052 130.2 136.665 130.2H137.425C138.038 130.2 138.572 130.427 139.025 130.88C139.478 131.333 139.705 131.867 139.705 132.48V143.72L139.745 143.76L139.785 143.72L146.225 132.16C146.972 130.853 148.105 130.2 149.625 130.2H150.505C151.118 130.2 151.652 130.427 152.105 130.88C152.558 131.333 152.785 131.867 152.785 132.48V148.72C152.785 149.333 152.558 149.867 152.105 150.32C151.652 150.773 151.118 151 150.505 151H149.745C149.132 151 148.598 150.773 148.145 150.32C147.692 149.867 147.465 149.333 147.465 148.72V137.48L147.425 137.44L147.385 137.48L140.945 149.04C140.198 150.347 139.065 151 137.545 151H136.665ZM166.931 133.72C163.678 133.72 162.051 134.667 162.051 136.56C162.051 138.507 163.745 139.48 167.131 139.48H168.691C168.905 139.48 169.011 139.36 169.011 139.12V134.16C169.011 133.92 168.905 133.8 168.691 133.8C167.891 133.747 167.305 133.72 166.931 133.72ZM161.971 141.44C160.505 141.04 159.305 140.373 158.371 139.44C157.438 138.48 156.971 137.347 156.971 136.04C156.971 131.96 160.211 129.92 166.691 129.92C168.345 129.92 170.131 129.987 172.051 130.12C172.691 130.147 173.225 130.413 173.651 130.92C174.105 131.4 174.331 131.96 174.331 132.6V148.72C174.331 149.333 174.105 149.867 173.651 150.32C173.198 150.773 172.665 151 172.051 151H171.291C170.678 151 170.145 150.773 169.691 150.32C169.238 149.867 169.011 149.333 169.011 148.72V143.48C169.011 143.267 168.905 143.16 168.691 143.16H167.371C166.331 143.16 165.611 143.293 165.211 143.56C164.811 143.8 164.371 144.44 163.891 145.48L162.411 148.92C162.118 149.533 161.678 150.04 161.091 150.44C160.531 150.813 159.918 151 159.251 151H158.531C157.998 151 157.585 150.773 157.291 150.32C157.025 149.867 156.998 149.4 157.211 148.92L158.931 145.2C159.811 143.307 160.838 142.093 162.011 141.56C162.038 141.56 162.051 141.547 162.051 141.52C162.051 141.467 162.025 141.44 161.971 141.44ZM193.423 151C192.809 151 192.276 150.773 191.823 150.32C191.369 149.867 191.143 149.333 191.143 148.72V132.48C191.143 131.867 191.369 131.333 191.823 130.88C192.276 130.427 192.809 130.2 193.423 130.2H194.223C194.836 130.2 195.369 130.427 195.823 130.88C196.276 131.333 196.503 131.867 196.503 132.48V138.68C196.503 138.707 196.516 138.72 196.543 138.72H196.583L202.663 131.88C203.649 130.76 204.903 130.2 206.423 130.2H208.103C208.529 130.2 208.823 130.4 208.983 130.8C209.169 131.2 209.116 131.56 208.823 131.88L201.503 139.96C201.369 140.12 201.369 140.293 201.503 140.48L208.903 149.28C209.196 149.627 209.236 150 209.023 150.4C208.836 150.8 208.529 151 208.103 151H206.423C204.903 151 203.663 150.413 202.703 149.24L196.583 141.84C196.583 141.813 196.569 141.8 196.543 141.8C196.516 141.8 196.503 141.813 196.503 141.84V148.72C196.503 149.333 196.276 149.867 195.823 150.32C195.369 150.773 194.836 151 194.223 151H193.423ZM223.248 141C219.434 141 217.528 142.173 217.528 144.52C217.528 145.373 217.768 146.067 218.248 146.6C218.754 147.133 219.394 147.4 220.168 147.4C221.688 147.4 222.914 146.933 223.848 146C224.781 145.04 225.248 143.733 225.248 142.08V141.36C225.248 141.12 225.128 141 224.888 141H223.248ZM218.728 151.4C216.914 151.4 215.408 150.813 214.208 149.64C213.034 148.44 212.448 146.893 212.448 145C212.448 142.68 213.328 140.88 215.088 139.6C216.874 138.32 219.594 137.68 223.248 137.68H224.888C225.128 137.68 225.248 137.56 225.248 137.32V137C225.248 135.773 224.954 134.92 224.368 134.44C223.781 133.933 222.741 133.68 221.247 133.68C219.701 133.68 217.808 133.96 215.568 134.52C215.088 134.653 214.648 134.573 214.248 134.28C213.848 133.96 213.648 133.547 213.648 133.04C213.648 132.427 213.834 131.88 214.208 131.4C214.581 130.893 215.061 130.587 215.648 130.48C217.674 130.027 219.581 129.8 221.368 129.8C224.781 129.8 227.168 130.413 228.528 131.64C229.888 132.867 230.568 135.013 230.568 138.08V148.72C230.568 149.333 230.341 149.867 229.888 150.32C229.461 150.773 228.941 151 228.328 151H227.888C227.248 151 226.701 150.787 226.248 150.36C225.794 149.907 225.554 149.36 225.528 148.72V148.16C225.528 148.133 225.514 148.12 225.488 148.12C225.434 148.12 225.408 148.133 225.408 148.16C223.781 150.32 221.554 151.4 218.728 151.4ZM236.549 151C236.069 151 235.696 150.787 235.429 150.36C235.163 149.907 235.149 149.467 235.389 149.04L240.229 140.64C240.363 140.453 240.363 140.253 240.229 140.04L235.629 132.16C235.389 131.707 235.389 131.267 235.629 130.84C235.896 130.413 236.269 130.2 236.749 130.2H237.469C238.189 130.2 238.856 130.387 239.469 130.76C240.083 131.107 240.549 131.573 240.869 132.16L244.189 138.16C244.323 138.373 244.496 138.48 244.709 138.48H245.589C245.829 138.48 245.949 138.36 245.949 138.12V132.48C245.949 131.867 246.163 131.333 246.589 130.88C247.043 130.427 247.576 130.2 248.189 130.2H248.749C249.389 130.2 249.923 130.427 250.349 130.88C250.776 131.333 250.989 131.867 250.989 132.48V138.12C250.989 138.36 251.109 138.48 251.349 138.48H252.229C252.469 138.48 252.643 138.373 252.749 138.16L256.069 132.16C256.416 131.573 256.896 131.107 257.509 130.76C258.123 130.387 258.776 130.2 259.469 130.2H260.189C260.696 130.2 261.069 130.413 261.309 130.84C261.576 131.267 261.576 131.707 261.309 132.16L256.709 139.96C256.603 140.173 256.603 140.373 256.709 140.56L261.549 149.04C261.816 149.467 261.816 149.907 261.549 150.36C261.283 150.787 260.896 151 260.389 151H259.669C259.003 151 258.363 150.827 257.749 150.48C257.136 150.107 256.656 149.613 256.309 149L252.749 142.64C252.643 142.427 252.469 142.32 252.229 142.32H251.349C251.109 142.32 250.989 142.44 250.989 142.68V148.72C250.989 149.333 250.776 149.867 250.349 150.32C249.923 150.773 249.389 151 248.749 151H248.189C247.576 151 247.043 150.773 246.589 150.32C246.163 149.867 245.949 149.333 245.949 148.72V142.68C245.949 142.44 245.829 142.32 245.589 142.32H244.709C244.496 142.32 244.323 142.427 244.189 142.64L240.629 149C240.309 149.613 239.843 150.107 239.229 150.48C238.616 150.827 237.963 151 237.269 151H236.549ZM272.228 146.84C272.175 146.893 272.162 146.96 272.188 147.04C272.242 147.093 272.308 147.12 272.388 147.12H279.748C279.988 147.12 280.108 147.013 280.108 146.8V134.4C280.108 134.187 279.988 134.08 279.748 134.08H274.628C274.415 134.08 274.308 134.187 274.308 134.4C274.308 137.653 274.268 139.907 274.188 141.16C274.108 142.387 273.935 143.387 273.668 144.16C273.428 144.907 272.948 145.8 272.228 146.84ZM266.748 155.8C266.135 155.8 265.602 155.573 265.148 155.12C264.722 154.667 264.508 154.133 264.508 153.52V148.64C264.508 148.213 264.642 147.853 264.908 147.56C265.202 147.267 265.562 147.12 265.988 147.12C266.148 147.12 266.268 147.067 266.348 146.96C267.335 145.733 268.002 144.733 268.348 143.96C268.695 143.187 268.922 142.16 269.028 140.88C269.162 139.573 269.228 137.307 269.228 134.08V132.48C269.228 131.867 269.455 131.333 269.908 130.88C270.362 130.427 270.895 130.2 271.508 130.2H282.948C283.562 130.2 284.095 130.427 284.548 130.88C285.002 131.333 285.228 131.867 285.228 132.48V146.8C285.228 147.013 285.348 147.12 285.588 147.12H285.708C286.322 147.12 286.842 147.347 287.268 147.8C287.722 148.253 287.948 148.787 287.948 149.4V153.52C287.948 154.133 287.722 154.667 287.268 155.12C286.842 155.573 286.322 155.8 285.708 155.8H285.108C284.495 155.8 283.962 155.573 283.508 155.12C283.055 154.667 282.828 154.133 282.828 153.52V151.36C282.828 151.12 282.708 151 282.468 151H269.988C269.748 151 269.628 151.12 269.628 151.36V153.52C269.628 154.133 269.402 154.667 268.948 155.12C268.495 155.573 267.962 155.8 267.348 155.8H266.748ZM304.32 135.36C303.547 134.24 302.374 133.68 300.8 133.68C299.227 133.68 298.04 134.24 297.24 135.36C296.467 136.453 296.08 138.2 296.08 140.6C296.08 143 296.467 144.76 297.24 145.88C298.04 146.973 299.227 147.52 300.8 147.52C302.374 147.52 303.547 146.973 304.32 145.88C305.12 144.76 305.52 143 305.52 140.6C305.52 138.2 305.12 136.453 304.32 135.36ZM308.24 148.6C306.48 150.467 304 151.4 300.8 151.4C297.6 151.4 295.107 150.467 293.32 148.6C291.56 146.707 290.68 144.04 290.68 140.6C290.68 137.16 291.56 134.507 293.32 132.64C295.107 130.747 297.6 129.8 300.8 129.8C304 129.8 306.48 130.747 308.24 132.64C310.027 134.507 310.92 137.16 310.92 140.6C310.92 144.04 310.027 146.707 308.24 148.6ZM317.329 151C316.716 151 316.182 150.773 315.729 150.32C315.276 149.867 315.049 149.333 315.049 148.72V132.48C315.049 131.867 315.276 131.333 315.729 130.88C316.182 130.427 316.716 130.2 317.329 130.2H318.089C318.702 130.2 319.236 130.427 319.689 130.88C320.142 131.333 320.369 131.867 320.369 132.48V143.72L320.409 143.76L320.449 143.72L326.889 132.16C327.636 130.853 328.769 130.2 330.289 130.2H331.169C331.782 130.2 332.316 130.427 332.769 130.88C333.222 131.333 333.449 131.867 333.449 132.48V148.72C333.449 149.333 333.222 149.867 332.769 150.32C332.316 150.773 331.782 151 331.169 151H330.409C329.796 151 329.262 150.773 328.809 150.32C328.356 149.867 328.129 149.333 328.129 148.72V137.48L328.089 137.44L328.049 137.48L321.609 149.04C320.862 150.347 319.729 151 318.209 151H317.329ZM330.249 120.88H330.329C330.916 120.88 331.396 121.08 331.769 121.48C332.142 121.88 332.236 122.347 332.049 122.88C331.569 124.373 330.622 125.573 329.209 126.48C327.822 127.36 326.169 127.8 324.249 127.8C322.329 127.8 320.662 127.36 319.249 126.48C317.862 125.573 316.929 124.373 316.449 122.88C316.262 122.347 316.356 121.88 316.729 121.48C317.102 121.08 317.582 120.88 318.169 120.88H318.249C319.129 120.88 319.982 121.48 320.809 122.68C321.556 123.773 322.702 124.32 324.249 124.32C325.796 124.32 326.942 123.773 327.689 122.68C328.516 121.48 329.369 120.88 330.249 120.88ZM352.603 151C351.989 151 351.456 150.773 351.003 150.32C350.549 149.867 350.323 149.333 350.323 148.72V132.48C350.323 131.867 350.549 131.333 351.003 130.88C351.456 130.427 351.989 130.2 352.603 130.2H353.403C354.016 130.2 354.549 130.427 355.003 130.88C355.456 131.333 355.683 131.867 355.683 132.48V138.68C355.683 138.707 355.696 138.72 355.723 138.72H355.763L361.843 131.88C362.829 130.76 364.083 130.2 365.603 130.2H367.283C367.709 130.2 368.003 130.4 368.163 130.8C368.349 131.2 368.296 131.56 368.003 131.88L360.683 139.96C360.549 140.12 360.549 140.293 360.683 140.48L368.083 149.28C368.376 149.627 368.416 150 368.203 150.4C368.016 150.8 367.709 151 367.283 151H365.603C364.083 151 362.843 150.413 361.883 149.24L355.763 141.84C355.763 141.813 355.749 141.8 355.723 141.8C355.696 141.8 355.683 141.813 355.683 141.84V148.72C355.683 149.333 355.456 149.867 355.003 150.32C354.549 150.773 354.016 151 353.403 151H352.603ZM374.867 151C374.254 151 373.721 150.773 373.267 150.32C372.841 149.867 372.627 149.333 372.627 148.72V132.48C372.627 131.867 372.841 131.333 373.267 130.88C373.721 130.427 374.254 130.2 374.867 130.2H375.747C376.361 130.2 376.894 130.427 377.347 130.88C377.801 131.333 378.027 131.867 378.027 132.48V137.84C378.027 138.08 378.147 138.2 378.387 138.2H385.107C385.347 138.2 385.467 138.08 385.467 137.84V132.48C385.467 131.867 385.694 131.333 386.147 130.88C386.601 130.427 387.134 130.2 387.747 130.2H388.627C389.241 130.2 389.761 130.427 390.187 130.88C390.641 131.333 390.867 131.867 390.867 132.48V148.72C390.867 149.333 390.641 149.867 390.187 150.32C389.761 150.773 389.241 151 388.627 151H387.747C387.134 151 386.601 150.773 386.147 150.32C385.694 149.867 385.467 149.333 385.467 148.72V142.32C385.467 142.08 385.347 141.96 385.107 141.96H378.387C378.147 141.96 378.027 142.08 378.027 142.32V148.72C378.027 149.333 377.801 149.867 377.347 150.32C376.894 150.773 376.361 151 375.747 151H374.867ZM398.657 151C398.044 151 397.511 150.773 397.057 150.32C396.604 149.867 396.377 149.333 396.377 148.72V132.48C396.377 131.867 396.604 131.333 397.057 130.88C397.511 130.427 398.044 130.2 398.657 130.2H399.417C400.031 130.2 400.564 130.427 401.017 130.88C401.471 131.333 401.697 131.867 401.697 132.48V143.72L401.737 143.76L401.777 143.72L408.217 132.16C408.964 130.853 410.097 130.2 411.617 130.2H412.497C413.111 130.2 413.644 130.427 414.097 130.88C414.551 131.333 414.777 131.867 414.777 132.48V148.72C414.777 149.333 414.551 149.867 414.097 150.32C413.644 150.773 413.111 151 412.497 151H411.737C411.124 151 410.591 150.773 410.137 150.32C409.684 149.867 409.457 149.333 409.457 148.72V137.48L409.417 137.44L409.377 137.48L402.937 149.04C402.191 150.347 401.057 151 399.537 151H398.657ZM422.523 151C421.91 151 421.377 150.773 420.923 150.32C420.497 149.867 420.283 149.333 420.283 148.72V132.48C420.283 131.867 420.497 131.333 420.923 130.88C421.377 130.427 421.91 130.2 422.523 130.2H434.643C435.203 130.2 435.683 130.4 436.083 130.8C436.483 131.2 436.683 131.68 436.683 132.24C436.683 132.8 436.483 133.28 436.083 133.68C435.683 134.08 435.203 134.28 434.643 134.28H426.083C425.843 134.28 425.723 134.387 425.723 134.6V148.72C425.723 149.333 425.497 149.867 425.043 150.32C424.617 150.773 424.097 151 423.483 151H422.523ZM443.071 151C442.458 151 441.925 150.773 441.471 150.32C441.018 149.867 440.791 149.333 440.791 148.72V132.48C440.791 131.867 441.018 131.333 441.471 130.88C441.925 130.427 442.458 130.2 443.071 130.2H443.831C444.445 130.2 444.978 130.427 445.431 130.88C445.885 131.333 446.111 131.867 446.111 132.48V143.72L446.151 143.76L446.191 143.72L452.631 132.16C453.378 130.853 454.511 130.2 456.031 130.2H456.911C457.525 130.2 458.058 130.427 458.511 130.88C458.965 131.333 459.191 131.867 459.191 132.48V148.72C459.191 149.333 458.965 149.867 458.511 150.32C458.058 150.773 457.525 151 456.911 151H456.151C455.538 151 455.005 150.773 454.551 150.32C454.098 149.867 453.871 149.333 453.871 148.72V137.48L453.831 137.44L453.791 137.48L447.351 149.04C446.605 150.347 445.471 151 443.951 151H443.071ZM46.04 210C45.4267 210 44.8933 209.773 44.44 209.32C43.9867 208.867 43.76 208.333 43.76 207.72V191.48C43.76 190.867 43.9867 190.333 44.44 189.88C44.8933 189.427 45.4267 189.2 46.04 189.2H46.8C47.4133 189.2 47.9467 189.427 48.4 189.88C48.8533 190.333 49.08 190.867 49.08 191.48V202.72L49.12 202.76L49.16 202.72L55.6 191.16C56.3467 189.853 57.48 189.2 59 189.2H59.88C60.4933 189.2 61.0267 189.427 61.48 189.88C61.9333 190.333 62.16 190.867 62.16 191.48V207.72C62.16 208.333 61.9333 208.867 61.48 209.32C61.0267 209.773 60.4933 210 59.88 210H59.12C58.5067 210 57.9733 209.773 57.52 209.32C57.0667 208.867 56.84 208.333 56.84 207.72V196.48L56.8 196.44L56.76 196.48L50.32 208.04C49.5733 209.347 48.44 210 46.92 210H46.04ZM84.3134 201.04V206.36C84.3134 206.573 84.4334 206.707 84.6734 206.76C84.9934 206.813 85.5001 206.84 86.1934 206.84C89.3668 206.84 90.9534 205.773 90.9534 203.64C90.9534 201.693 89.3268 200.72 86.0734 200.72H84.6734C84.4334 200.72 84.3134 200.827 84.3134 201.04ZM84.3134 192.84V197.12C84.3134 197.333 84.4334 197.44 84.6734 197.44H85.9534C87.2601 197.44 88.2868 197.2 89.0334 196.72C89.8068 196.24 90.1934 195.587 90.1934 194.76C90.1934 193.16 88.8201 192.36 86.0734 192.36C85.7534 192.36 85.2734 192.387 84.6334 192.44C84.4201 192.493 84.3134 192.627 84.3134 192.84ZM81.2734 210.08C80.6334 210.027 80.1001 209.76 79.6734 209.28C79.2468 208.773 79.0334 208.2 79.0334 207.56V191.64C79.0334 190.973 79.2468 190.4 79.6734 189.92C80.1001 189.44 80.6468 189.173 81.3134 189.12C82.8601 188.987 84.3001 188.92 85.6334 188.92C91.9801 188.92 95.1534 190.653 95.1534 194.12C95.1534 195.32 94.7134 196.347 93.8334 197.2C92.9801 198.027 91.8068 198.573 90.3134 198.84L90.2734 198.88H90.3134C92.1001 199.12 93.5001 199.707 94.5134 200.64C95.5268 201.547 96.0334 202.667 96.0334 204C96.0334 208.187 92.6734 210.28 85.9534 210.28C84.5134 210.28 82.9534 210.213 81.2734 210.08ZM102.642 210C102.028 210 101.495 209.773 101.042 209.32C100.588 208.867 100.362 208.333 100.362 207.72V191.48C100.362 190.867 100.588 190.333 101.042 189.88C101.495 189.427 102.028 189.2 102.642 189.2H103.402C104.015 189.2 104.548 189.427 105.002 189.88C105.455 190.333 105.682 190.867 105.682 191.48V202.72L105.722 202.76L105.762 202.72L112.202 191.16C112.948 189.853 114.082 189.2 115.602 189.2H116.482C117.095 189.2 117.628 189.427 118.082 189.88C118.535 190.333 118.762 190.867 118.762 191.48V207.72C118.762 208.333 118.535 208.867 118.082 209.32C117.628 209.773 117.095 210 116.482 210H115.722C115.108 210 114.575 209.773 114.122 209.32C113.668 208.867 113.442 208.333 113.442 207.72V196.48L113.402 196.44L113.362 196.48L106.922 208.04C106.175 209.347 105.042 210 103.522 210H102.642ZM130.588 205.84C130.534 205.893 130.521 205.96 130.548 206.04C130.601 206.093 130.668 206.12 130.748 206.12H138.108C138.348 206.12 138.468 206.013 138.468 205.8V193.4C138.468 193.187 138.348 193.08 138.108 193.08H132.988C132.774 193.08 132.668 193.187 132.668 193.4C132.668 196.653 132.628 198.907 132.548 200.16C132.468 201.387 132.294 202.387 132.028 203.16C131.788 203.907 131.308 204.8 130.588 205.84ZM125.108 214.8C124.494 214.8 123.961 214.573 123.508 214.12C123.081 213.667 122.868 213.133 122.868 212.52V207.64C122.868 207.213 123.001 206.853 123.268 206.56C123.561 206.267 123.921 206.12 124.348 206.12C124.508 206.12 124.628 206.067 124.708 205.96C125.694 204.733 126.361 203.733 126.708 202.96C127.054 202.187 127.281 201.16 127.388 199.88C127.521 198.573 127.588 196.307 127.588 193.08V191.48C127.588 190.867 127.814 190.333 128.268 189.88C128.721 189.427 129.254 189.2 129.868 189.2H141.308C141.921 189.2 142.454 189.427 142.908 189.88C143.361 190.333 143.588 190.867 143.588 191.48V205.8C143.588 206.013 143.708 206.12 143.948 206.12H144.068C144.681 206.12 145.201 206.347 145.628 206.8C146.081 207.253 146.308 207.787 146.308 208.4V212.52C146.308 213.133 146.081 213.667 145.628 214.12C145.201 214.573 144.681 214.8 144.068 214.8H143.468C142.854 214.8 142.321 214.573 141.868 214.12C141.414 213.667 141.188 213.133 141.188 212.52V210.36C141.188 210.12 141.068 210 140.828 210H128.348C128.108 210 127.988 210.12 127.988 210.36V212.52C127.988 213.133 127.761 213.667 127.308 214.12C126.854 214.573 126.321 214.8 125.708 214.8H125.108ZM158.92 192.52C157.56 192.52 156.506 192.907 155.76 193.68C155.04 194.427 154.586 195.64 154.4 197.32C154.4 197.533 154.506 197.64 154.72 197.64H162.56C162.773 197.64 162.88 197.533 162.88 197.32C162.773 194.12 161.453 192.52 158.92 192.52ZM159.92 210.4C156.426 210.4 153.733 209.493 151.84 207.68C149.973 205.84 149.04 203.147 149.04 199.6C149.04 196.08 149.88 193.4 151.56 191.56C153.24 189.72 155.666 188.8 158.84 188.8C164.76 188.8 167.8 192.16 167.96 198.88C167.986 199.52 167.76 200.053 167.28 200.48C166.8 200.907 166.24 201.12 165.6 201.12H154.68C154.44 201.12 154.346 201.24 154.4 201.48C154.586 203.267 155.173 204.573 156.16 205.4C157.173 206.2 158.64 206.6 160.56 206.6C161.76 206.6 163.093 206.4 164.56 206C165.04 205.867 165.48 205.947 165.88 206.24C166.306 206.533 166.52 206.933 166.52 207.44C166.52 208.053 166.333 208.6 165.96 209.08C165.613 209.533 165.146 209.813 164.56 209.92C163.066 210.24 161.52 210.4 159.92 210.4ZM173.116 193.28C172.556 193.28 172.076 193.08 171.676 192.68C171.276 192.28 171.076 191.8 171.076 191.24C171.076 190.68 171.276 190.2 171.676 189.8C172.076 189.4 172.556 189.2 173.116 189.2H187.596C188.156 189.2 188.636 189.4 189.036 189.8C189.436 190.2 189.636 190.68 189.636 191.24C189.636 191.8 189.436 192.28 189.036 192.68C188.636 193.08 188.156 193.28 187.596 193.28H183.476C183.236 193.28 183.116 193.387 183.116 193.6V207.72C183.116 208.333 182.889 208.867 182.436 209.32C181.982 209.773 181.449 210 180.836 210H179.876C179.262 210 178.729 209.773 178.276 209.32C177.822 208.867 177.596 208.333 177.596 207.72V193.6C177.596 193.387 177.476 193.28 177.236 193.28H173.116ZM199.155 199.2V205.92C199.155 206.133 199.275 206.267 199.515 206.32C200.235 206.453 200.875 206.52 201.435 206.52C203.142 206.52 204.382 206.187 205.155 205.52C205.955 204.827 206.355 203.76 206.355 202.32C206.355 201.147 205.929 200.24 205.075 199.6C204.249 198.933 203.009 198.6 201.355 198.6C200.769 198.6 200.142 198.667 199.475 198.8C199.262 198.853 199.155 198.987 199.155 199.2ZM196.195 210.12C195.555 210.04 195.022 209.747 194.595 209.24C194.169 208.733 193.955 208.16 193.955 207.52V191.48C193.955 190.867 194.182 190.333 194.635 189.88C195.089 189.427 195.622 189.2 196.235 189.2H196.915C197.529 189.2 198.049 189.427 198.475 189.88C198.929 190.333 199.155 190.867 199.155 191.48V194.64C199.155 194.72 199.195 194.8 199.275 194.88C199.355 194.96 199.435 194.987 199.515 194.96C200.582 194.8 201.462 194.72 202.155 194.72C205.115 194.72 207.382 195.4 208.955 196.76C210.555 198.12 211.355 199.973 211.355 202.32C211.355 205.04 210.515 207.067 208.835 208.4C207.155 209.733 204.529 210.4 200.955 210.4C199.195 210.4 197.609 210.307 196.195 210.12ZM216.879 214.4C216.292 214.4 215.812 214.173 215.439 213.72C215.092 213.267 214.985 212.76 215.119 212.2L216.759 205.4C216.919 204.76 217.265 204.24 217.799 203.84C218.332 203.413 218.919 203.2 219.559 203.2H221.679C222.212 203.2 222.625 203.427 222.919 203.88C223.239 204.333 223.292 204.813 223.079 205.32L220.279 212.28C220.039 212.92 219.625 213.427 219.039 213.8C218.479 214.2 217.852 214.4 217.159 214.4H216.879ZM248.618 210.4C245.311 210.4 242.764 209.493 240.978 207.68C239.191 205.84 238.298 203.147 238.298 199.6C238.298 196.107 239.151 193.44 240.858 191.6C242.591 189.733 245.044 188.8 248.218 188.8C249.631 188.8 250.991 188.893 252.298 189.08C252.911 189.16 253.418 189.44 253.818 189.92C254.218 190.4 254.418 190.96 254.418 191.6C254.418 192.133 254.204 192.56 253.778 192.88C253.378 193.2 252.911 193.307 252.378 193.2C251.338 192.987 250.178 192.88 248.898 192.88C247.218 192.88 245.964 193.413 245.138 194.48C244.311 195.547 243.898 197.253 243.898 199.6C243.898 202 244.338 203.72 245.218 204.76C246.098 205.8 247.458 206.32 249.298 206.32C250.604 206.32 251.738 206.2 252.698 205.96C253.204 205.827 253.658 205.92 254.058 206.24C254.484 206.56 254.698 206.973 254.698 207.48C254.698 208.12 254.498 208.68 254.098 209.16C253.724 209.64 253.231 209.933 252.618 210.04C251.258 210.28 249.924 210.4 248.618 210.4ZM262.29 210C261.677 210 261.143 209.773 260.69 209.32C260.237 208.867 260.01 208.333 260.01 207.72V191.48C260.01 190.867 260.237 190.333 260.69 189.88C261.143 189.427 261.677 189.2 262.29 189.2H263.09C263.703 189.2 264.237 189.427 264.69 189.88C265.143 190.333 265.37 190.867 265.37 191.48V197.68C265.37 197.707 265.383 197.72 265.41 197.72H265.45L271.53 190.88C272.517 189.76 273.77 189.2 275.29 189.2H276.97C277.397 189.2 277.69 189.4 277.85 189.8C278.037 190.2 277.983 190.56 277.69 190.88L270.37 198.96C270.237 199.12 270.237 199.293 270.37 199.48L277.77 208.28C278.063 208.627 278.103 209 277.89 209.4C277.703 209.8 277.397 210 276.97 210H275.29C273.77 210 272.53 209.413 271.57 208.24L265.45 200.84C265.45 200.813 265.437 200.8 265.41 200.8C265.383 200.8 265.37 200.813 265.37 200.84V207.72C265.37 208.333 265.143 208.867 264.69 209.32C264.237 209.773 263.703 210 263.09 210H262.29ZM294.555 194.36C293.781 193.24 292.608 192.68 291.035 192.68C289.461 192.68 288.275 193.24 287.475 194.36C286.701 195.453 286.315 197.2 286.315 199.6C286.315 202 286.701 203.76 287.475 204.88C288.275 205.973 289.461 206.52 291.035 206.52C292.608 206.52 293.781 205.973 294.555 204.88C295.355 203.76 295.755 202 295.755 199.6C295.755 197.2 295.355 195.453 294.555 194.36ZM298.475 207.6C296.715 209.467 294.235 210.4 291.035 210.4C287.835 210.4 285.341 209.467 283.555 207.6C281.795 205.707 280.915 203.04 280.915 199.6C280.915 196.16 281.795 193.507 283.555 191.64C285.341 189.747 287.835 188.8 291.035 188.8C294.235 188.8 296.715 189.747 298.475 191.64C300.261 193.507 301.155 196.16 301.155 199.6C301.155 203.04 300.261 205.707 298.475 207.6ZM305.243 210.24C304.71 210.293 304.243 210.133 303.843 209.76C303.47 209.387 303.283 208.933 303.283 208.4C303.283 207.867 303.47 207.387 303.843 206.96C304.243 206.533 304.723 206.253 305.283 206.12C306.43 205.827 307.203 205.187 307.603 204.2C308.003 203.213 308.203 201.52 308.203 199.12V191.48C308.203 190.867 308.43 190.333 308.883 189.88C309.337 189.427 309.87 189.2 310.483 189.2H322.883C323.497 189.2 324.03 189.427 324.483 189.88C324.937 190.333 325.163 190.867 325.163 191.48V207.72C325.163 208.333 324.937 208.867 324.483 209.32C324.03 209.773 323.497 210 322.883 210H322.163C321.55 210 321.017 209.773 320.563 209.32C320.11 208.867 319.883 208.333 319.883 207.72V193.56C319.883 193.32 319.763 193.2 319.523 193.2H313.683C313.47 193.2 313.363 193.32 313.363 193.56V199.88C313.363 203.4 312.777 205.92 311.603 207.44C310.457 208.933 308.337 209.867 305.243 210.24ZM335.874 199.2V205.92C335.874 206.133 335.994 206.267 336.234 206.32C336.954 206.453 337.594 206.52 338.154 206.52C339.861 206.52 341.101 206.187 341.874 205.52C342.674 204.827 343.074 203.76 343.074 202.32C343.074 201.147 342.647 200.24 341.794 199.6C340.967 198.933 339.727 198.6 338.074 198.6C337.487 198.6 336.861 198.667 336.194 198.8C335.981 198.853 335.874 198.987 335.874 199.2ZM332.914 210.12C332.274 210.04 331.741 209.747 331.314 209.24C330.887 208.733 330.674 208.16 330.674 207.52V191.48C330.674 190.867 330.901 190.333 331.354 189.88C331.807 189.427 332.341 189.2 332.954 189.2H333.634C334.247 189.2 334.767 189.427 335.194 189.88C335.647 190.333 335.874 190.867 335.874 191.48V194.64C335.874 194.72 335.914 194.8 335.994 194.88C336.074 194.96 336.154 194.987 336.234 194.96C337.301 194.8 338.181 194.72 338.874 194.72C341.834 194.72 344.101 195.4 345.674 196.76C347.274 198.12 348.074 199.973 348.074 202.32C348.074 205.04 347.234 207.067 345.554 208.4C343.874 209.733 341.247 210.4 337.674 210.4C335.914 210.4 334.327 210.307 332.914 210.12ZM354.478 210C353.864 210 353.331 209.773 352.878 209.32C352.424 208.867 352.198 208.333 352.198 207.72V191.48C352.198 190.867 352.424 190.333 352.878 189.88C353.331 189.427 353.864 189.2 354.478 189.2H355.278C355.891 189.2 356.424 189.427 356.878 189.88C357.331 190.333 357.558 190.867 357.558 191.48V197.68C357.558 197.707 357.571 197.72 357.598 197.72H357.638L363.718 190.88C364.704 189.76 365.958 189.2 367.478 189.2H369.158C369.584 189.2 369.878 189.4 370.038 189.8C370.224 190.2 370.171 190.56 369.878 190.88L362.558 198.96C362.424 199.12 362.424 199.293 362.558 199.48L369.958 208.28C370.251 208.627 370.291 209 370.078 209.4C369.891 209.8 369.584 210 369.158 210H367.478C365.958 210 364.718 209.413 363.758 208.24L357.638 200.84C357.638 200.813 357.624 200.8 357.598 200.8C357.571 200.8 357.558 200.813 357.558 200.84V207.72C357.558 208.333 357.331 208.867 356.878 209.32C356.424 209.773 355.891 210 355.278 210H354.478ZM386.742 194.36C385.969 193.24 384.796 192.68 383.222 192.68C381.649 192.68 380.462 193.24 379.662 194.36C378.889 195.453 378.502 197.2 378.502 199.6C378.502 202 378.889 203.76 379.662 204.88C380.462 205.973 381.649 206.52 383.222 206.52C384.796 206.52 385.969 205.973 386.742 204.88C387.542 203.76 387.942 202 387.942 199.6C387.942 197.2 387.542 195.453 386.742 194.36ZM390.662 207.6C388.902 209.467 386.422 210.4 383.222 210.4C380.022 210.4 377.529 209.467 375.742 207.6C373.982 205.707 373.102 203.04 373.102 199.6C373.102 196.16 373.982 193.507 375.742 191.64C377.529 189.747 380.022 188.8 383.222 188.8C386.422 188.8 388.902 189.747 390.662 191.64C392.449 193.507 393.342 196.16 393.342 199.6C393.342 203.04 392.449 205.707 390.662 207.6ZM417.318 192.52C415.958 192.52 414.905 192.907 414.158 193.68C413.438 194.427 412.985 195.64 412.798 197.32C412.798 197.533 412.905 197.64 413.118 197.64H420.958C421.171 197.64 421.278 197.533 421.278 197.32C421.171 194.12 419.851 192.52 417.318 192.52ZM418.318 210.4C414.825 210.4 412.131 209.493 410.238 207.68C408.371 205.84 407.438 203.147 407.438 199.6C407.438 196.08 408.278 193.4 409.958 191.56C411.638 189.72 414.065 188.8 417.238 188.8C423.158 188.8 426.198 192.16 426.358 198.88C426.385 199.52 426.158 200.053 425.678 200.48C425.198 200.907 424.638 201.12 423.998 201.12H413.078C412.838 201.12 412.745 201.24 412.798 201.48C412.985 203.267 413.571 204.573 414.558 205.4C415.571 206.2 417.038 206.6 418.958 206.6C420.158 206.6 421.491 206.4 422.958 206C423.438 205.867 423.878 205.947 424.278 206.24C424.705 206.533 424.918 206.933 424.918 207.44C424.918 208.053 424.731 208.6 424.358 209.08C424.011 209.533 423.545 209.813 422.958 209.92C421.465 210.24 419.918 210.4 418.318 210.4ZM432.914 210C432.301 210 431.767 209.773 431.314 209.32C430.887 208.867 430.674 208.333 430.674 207.72V191.48C430.674 190.867 430.887 190.333 431.314 189.88C431.767 189.427 432.301 189.2 432.914 189.2H433.514C434.127 189.2 434.661 189.427 435.114 189.88C435.567 190.333 435.794 190.867 435.794 191.48V205.8C435.794 206.013 435.901 206.12 436.114 206.12H440.594C440.834 206.12 440.954 206.013 440.954 205.8V191.48C440.954 190.867 441.167 190.333 441.594 189.88C442.047 189.427 442.581 189.2 443.194 189.2H443.674C444.287 189.2 444.807 189.427 445.234 189.88C445.687 190.333 445.914 190.867 445.914 191.48V205.8C445.914 206.013 446.034 206.12 446.274 206.12H450.754C450.967 206.12 451.074 206.013 451.074 205.8V191.48C451.074 190.867 451.301 190.333 451.754 189.88C452.207 189.427 452.741 189.2 453.354 189.2H453.954C454.567 189.2 455.087 189.427 455.514 189.88C455.967 190.333 456.194 190.867 456.194 191.48V205.8C456.194 206.013 456.314 206.12 456.554 206.12H457.274C457.887 206.12 458.421 206.347 458.874 206.8C459.327 207.253 459.554 207.787 459.554 208.4V212.52C459.554 213.133 459.327 213.667 458.874 214.12C458.421 214.573 457.887 214.8 457.274 214.8H457.154C456.541 214.8 456.007 214.573 455.554 214.12C455.101 213.667 454.874 213.133 454.874 212.52V210.36C454.874 210.12 454.767 210 454.554 210H432.914ZM471.967 192.52C470.607 192.52 469.553 192.907 468.807 193.68C468.087 194.427 467.633 195.64 467.447 197.32C467.447 197.533 467.553 197.64 467.767 197.64H475.607C475.82 197.64 475.927 197.533 475.927 197.32C475.82 194.12 474.5 192.52 471.967 192.52ZM472.967 210.4C469.473 210.4 466.78 209.493 464.887 207.68C463.02 205.84 462.087 203.147 462.087 199.6C462.087 196.08 462.927 193.4 464.607 191.56C466.287 189.72 468.713 188.8 471.887 188.8C477.807 188.8 480.847 192.16 481.007 198.88C481.033 199.52 480.807 200.053 480.327 200.48C479.847 200.907 479.287 201.12 478.647 201.12H467.727C467.487 201.12 467.393 201.24 467.447 201.48C467.633 203.267 468.22 204.573 469.207 205.4C470.22 206.2 471.687 206.6 473.607 206.6C474.807 206.6 476.14 206.4 477.607 206C478.087 205.867 478.527 205.947 478.927 206.24C479.353 206.533 479.567 206.933 479.567 207.44C479.567 208.053 479.38 208.6 479.007 209.08C478.66 209.533 478.193 209.813 477.607 209.92C476.113 210.24 474.567 210.4 472.967 210.4ZM52.68 269.4C49.3733 269.4 46.8267 268.493 45.04 266.68C43.2533 264.84 42.36 262.147 42.36 258.6C42.36 255.107 43.2133 252.44 44.92 250.6C46.6533 248.733 49.1067 247.8 52.28 247.8C53.6933 247.8 55.0533 247.893 56.36 248.08C56.9733 248.16 57.48 248.44 57.88 248.92C58.28 249.4 58.48 249.96 58.48 250.6C58.48 251.133 58.2667 251.56 57.84 251.88C57.44 252.2 56.9733 252.307 56.44 252.2C55.4 251.987 54.24 251.88 52.96 251.88C51.28 251.88 50.0267 252.413 49.2 253.48C48.3733 254.547 47.96 256.253 47.96 258.6C47.96 261 48.4 262.72 49.28 263.76C50.16 264.8 51.52 265.32 53.36 265.32C54.6667 265.32 55.8 265.2 56.76 264.96C57.2667 264.827 57.72 264.92 58.12 265.24C58.5467 265.56 58.76 265.973 58.76 266.48C58.76 267.12 58.56 267.68 58.16 268.16C57.7867 268.64 57.2933 268.933 56.68 269.04C55.32 269.28 53.9867 269.4 52.68 269.4ZM64.9125 252.28C64.3525 252.28 63.8725 252.08 63.4725 251.68C63.0725 251.28 62.8725 250.8 62.8725 250.24C62.8725 249.68 63.0725 249.2 63.4725 248.8C63.8725 248.4 64.3525 248.2 64.9125 248.2H79.3925C79.9525 248.2 80.4325 248.4 80.8325 248.8C81.2325 249.2 81.4325 249.68 81.4325 250.24C81.4325 250.8 81.2325 251.28 80.8325 251.68C80.4325 252.08 79.9525 252.28 79.3925 252.28H75.2725C75.0325 252.28 74.9125 252.387 74.9125 252.6V266.72C74.9125 267.333 74.6858 267.867 74.2325 268.32C73.7792 268.773 73.2458 269 72.6325 269H71.6725C71.0592 269 70.5258 268.773 70.0725 268.32C69.6192 267.867 69.3925 267.333 69.3925 266.72V252.6C69.3925 252.387 69.2725 252.28 69.0325 252.28H64.9125ZM91.0322 255.88V261.32C91.0322 262.387 91.4855 263.333 92.3922 264.16C93.3255 264.987 94.4055 265.4 95.6322 265.4C97.0455 265.4 98.1655 264.827 98.9922 263.68C99.8189 262.533 100.232 260.84 100.232 258.6C100.232 254.067 98.6989 251.8 95.6322 251.8C94.4055 251.8 93.3255 252.213 92.3922 253.04C91.4855 253.867 91.0322 254.813 91.0322 255.88ZM88.0322 277.8C87.4189 277.8 86.8855 277.573 86.4322 277.12C85.9789 276.667 85.7522 276.133 85.7522 275.52V250.48C85.7522 249.867 85.9789 249.333 86.4322 248.88C86.8855 248.427 87.4189 248.2 88.0322 248.2H88.5122C89.1522 248.2 89.6989 248.427 90.1522 248.88C90.6055 249.307 90.8455 249.84 90.8722 250.48V250.76C90.8722 250.787 90.8855 250.8 90.9122 250.8C90.9389 250.8 90.9655 250.787 90.9922 250.76C91.9522 249.693 92.9122 248.933 93.8722 248.48C94.8322 248.027 95.9522 247.8 97.2322 247.8C99.7389 247.8 101.739 248.747 103.232 250.64C104.726 252.507 105.472 255.16 105.472 258.6C105.472 261.933 104.686 264.573 103.112 266.52C101.566 268.44 99.6055 269.4 97.2322 269.4C94.9122 269.4 92.8989 268.56 91.1922 266.88C91.1655 266.853 91.1389 266.84 91.1122 266.84C91.0855 266.84 91.0722 266.853 91.0722 266.88V275.52C91.0722 276.133 90.8455 276.667 90.3922 277.12C89.9655 277.573 89.4455 277.8 88.8322 277.8H88.0322ZM119.576 259C115.762 259 113.856 260.173 113.856 262.52C113.856 263.373 114.096 264.067 114.576 264.6C115.082 265.133 115.722 265.4 116.496 265.4C118.016 265.4 119.242 264.933 120.176 264C121.109 263.04 121.576 261.733 121.576 260.08V259.36C121.576 259.12 121.456 259 121.216 259H119.576ZM115.056 269.4C113.242 269.4 111.736 268.813 110.536 267.64C109.362 266.44 108.776 264.893 108.776 263C108.776 260.68 109.656 258.88 111.416 257.6C113.202 256.32 115.922 255.68 119.576 255.68H121.216C121.456 255.68 121.576 255.56 121.576 255.32V255C121.576 253.773 121.282 252.92 120.696 252.44C120.109 251.933 119.069 251.68 117.576 251.68C116.029 251.68 114.136 251.96 111.896 252.52C111.416 252.653 110.976 252.573 110.576 252.28C110.176 251.96 109.976 251.547 109.976 251.04C109.976 250.427 110.162 249.88 110.536 249.4C110.909 248.893 111.389 248.587 111.976 248.48C114.002 248.027 115.909 247.8 117.696 247.8C121.109 247.8 123.496 248.413 124.856 249.64C126.216 250.867 126.896 253.013 126.896 256.08V266.72C126.896 267.333 126.669 267.867 126.216 268.32C125.789 268.773 125.269 269 124.656 269H124.216C123.576 269 123.029 268.787 122.576 268.36C122.122 267.907 121.882 267.36 121.856 266.72V266.16C121.856 266.133 121.842 266.12 121.816 266.12C121.762 266.12 121.736 266.133 121.736 266.16C120.109 268.32 117.882 269.4 115.056 269.4ZM134.438 269C133.824 269 133.291 268.773 132.838 268.32C132.411 267.867 132.198 267.333 132.198 266.72V250.48C132.198 249.867 132.411 249.333 132.838 248.88C133.291 248.427 133.824 248.2 134.438 248.2H135.317C135.931 248.2 136.464 248.427 136.918 248.88C137.371 249.333 137.598 249.867 137.598 250.48V255.84C137.598 256.08 137.718 256.2 137.958 256.2H144.678C144.918 256.2 145.038 256.08 145.038 255.84V250.48C145.038 249.867 145.264 249.333 145.718 248.88C146.171 248.427 146.704 248.2 147.318 248.2H148.198C148.811 248.2 149.331 248.427 149.758 248.88C150.211 249.333 150.438 249.867 150.438 250.48V266.72C150.438 267.333 150.211 267.867 149.758 268.32C149.331 268.773 148.811 269 148.198 269H147.318C146.704 269 146.171 268.773 145.718 268.32C145.264 267.867 145.038 267.333 145.038 266.72V260.32C145.038 260.08 144.918 259.96 144.678 259.96H137.958C137.718 259.96 137.598 260.08 137.598 260.32V266.72C137.598 267.333 137.371 267.867 136.918 268.32C136.464 268.773 135.931 269 135.317 269H134.438ZM158.228 269C157.614 269 157.081 268.773 156.628 268.32C156.174 267.867 155.948 267.333 155.948 266.72V250.48C155.948 249.867 156.174 249.333 156.628 248.88C157.081 248.427 157.614 248.2 158.228 248.2H158.988C159.601 248.2 160.134 248.427 160.588 248.88C161.041 249.333 161.268 249.867 161.268 250.48V261.72L161.308 261.76L161.348 261.72L167.788 250.16C168.534 248.853 169.668 248.2 171.188 248.2H172.068C172.681 248.2 173.214 248.427 173.668 248.88C174.121 249.333 174.348 249.867 174.348 250.48V266.72C174.348 267.333 174.121 267.867 173.668 268.32C173.214 268.773 172.681 269 172.068 269H171.308C170.694 269 170.161 268.773 169.708 268.32C169.254 267.867 169.028 267.333 169.028 266.72V255.48L168.988 255.44L168.948 255.48L162.508 267.04C161.761 268.347 160.628 269 159.108 269H158.228ZM182.134 269C181.52 269 180.987 268.773 180.534 268.32C180.08 267.867 179.854 267.333 179.854 266.72V250.48C179.854 249.867 180.08 249.333 180.534 248.88C180.987 248.427 181.52 248.2 182.134 248.2H182.854C183.467 248.2 184 248.427 184.454 248.88C184.907 249.333 185.134 249.867 185.134 250.48V264.8C185.134 265.013 185.254 265.12 185.494 265.12H192.334C192.574 265.12 192.694 265.013 192.694 264.8V250.48C192.694 249.867 192.907 249.333 193.334 248.88C193.787 248.427 194.32 248.2 194.934 248.2H195.694C196.307 248.2 196.827 248.427 197.254 248.88C197.707 249.333 197.934 249.867 197.934 250.48V264.8C197.934 265.013 198.054 265.12 198.294 265.12H199.534C200.147 265.12 200.68 265.347 201.134 265.8C201.587 266.253 201.814 266.787 201.814 267.4V271.52C201.814 272.133 201.587 272.667 201.134 273.12C200.68 273.573 200.147 273.8 199.534 273.8H199.414C198.8 273.8 198.267 273.573 197.814 273.12C197.36 272.667 197.134 272.133 197.134 271.52V269.36C197.134 269.12 197.027 269 196.814 269H182.134ZM229.359 253.36C228.586 252.24 227.413 251.68 225.839 251.68C224.266 251.68 223.079 252.24 222.279 253.36C221.506 254.453 221.119 256.2 221.119 258.6C221.119 261 221.506 262.76 222.279 263.88C223.079 264.973 224.266 265.52 225.839 265.52C227.413 265.52 228.586 264.973 229.359 263.88C230.159 262.76 230.559 261 230.559 258.6C230.559 256.2 230.159 254.453 229.359 253.36ZM233.279 266.6C231.519 268.467 229.039 269.4 225.839 269.4C222.639 269.4 220.146 268.467 218.359 266.6C216.599 264.707 215.719 262.04 215.719 258.6C215.719 255.16 216.599 252.507 218.359 250.64C220.146 248.747 222.639 247.8 225.839 247.8C229.039 247.8 231.519 248.747 233.279 250.64C235.066 252.507 235.959 255.16 235.959 258.6C235.959 262.04 235.066 264.707 233.279 266.6ZM249.008 269.4C245.701 269.4 243.155 268.493 241.368 266.68C239.581 264.84 238.688 262.147 238.688 258.6C238.688 255.107 239.541 252.44 241.248 250.6C242.981 248.733 245.435 247.8 248.608 247.8C250.021 247.8 251.381 247.893 252.688 248.08C253.301 248.16 253.808 248.44 254.208 248.92C254.608 249.4 254.808 249.96 254.808 250.6C254.808 251.133 254.595 251.56 254.168 251.88C253.768 252.2 253.301 252.307 252.768 252.2C251.728 251.987 250.568 251.88 249.288 251.88C247.608 251.88 246.355 252.413 245.528 253.48C244.701 254.547 244.288 256.253 244.288 258.6C244.288 261 244.728 262.72 245.608 263.76C246.488 264.8 247.848 265.32 249.688 265.32C250.995 265.32 252.128 265.2 253.088 264.96C253.595 264.827 254.048 264.92 254.448 265.24C254.875 265.56 255.088 265.973 255.088 266.48C255.088 267.12 254.888 267.68 254.488 268.16C254.115 268.64 253.621 268.933 253.008 269.04C251.648 269.28 250.315 269.4 249.008 269.4ZM261.241 252.28C260.681 252.28 260.201 252.08 259.801 251.68C259.401 251.28 259.201 250.8 259.201 250.24C259.201 249.68 259.401 249.2 259.801 248.8C260.201 248.4 260.681 248.2 261.241 248.2H275.721C276.281 248.2 276.761 248.4 277.161 248.8C277.561 249.2 277.761 249.68 277.761 250.24C277.761 250.8 277.561 251.28 277.161 251.68C276.761 252.08 276.281 252.28 275.721 252.28H271.601C271.361 252.28 271.241 252.387 271.241 252.6V266.72C271.241 267.333 271.014 267.867 270.561 268.32C270.107 268.773 269.574 269 268.961 269H268.001C267.387 269 266.854 268.773 266.401 268.32C265.947 267.867 265.721 267.333 265.721 266.72V252.6C265.721 252.387 265.601 252.28 265.361 252.28H261.241ZM291.88 259C288.067 259 286.16 260.173 286.16 262.52C286.16 263.373 286.4 264.067 286.88 264.6C287.387 265.133 288.027 265.4 288.8 265.4C290.32 265.4 291.547 264.933 292.48 264C293.414 263.04 293.88 261.733 293.88 260.08V259.36C293.88 259.12 293.76 259 293.52 259H291.88ZM287.36 269.4C285.547 269.4 284.04 268.813 282.84 267.64C281.667 266.44 281.08 264.893 281.08 263C281.08 260.68 281.96 258.88 283.72 257.6C285.507 256.32 288.227 255.68 291.88 255.68H293.52C293.76 255.68 293.88 255.56 293.88 255.32V255C293.88 253.773 293.587 252.92 293 252.44C292.414 251.933 291.374 251.68 289.88 251.68C288.334 251.68 286.44 251.96 284.2 252.52C283.72 252.653 283.28 252.573 282.88 252.28C282.48 251.96 282.28 251.547 282.28 251.04C282.28 250.427 282.467 249.88 282.84 249.4C283.214 248.893 283.694 248.587 284.28 248.48C286.307 248.027 288.214 247.8 290 247.8C293.414 247.8 295.8 248.413 297.16 249.64C298.52 250.867 299.2 253.013 299.2 256.08V266.72C299.2 267.333 298.974 267.867 298.52 268.32C298.094 268.773 297.574 269 296.96 269H296.52C295.88 269 295.334 268.787 294.88 268.36C294.427 267.907 294.187 267.36 294.16 266.72V266.16C294.16 266.133 294.147 266.12 294.12 266.12C294.067 266.12 294.04 266.133 294.04 266.16C292.414 268.32 290.187 269.4 287.36 269.4ZM304.462 269.24C303.929 269.293 303.462 269.133 303.062 268.76C302.689 268.387 302.502 267.933 302.502 267.4C302.502 266.867 302.689 266.387 303.062 265.96C303.462 265.533 303.942 265.253 304.502 265.12C305.649 264.827 306.422 264.187 306.822 263.2C307.222 262.213 307.422 260.52 307.422 258.12V250.48C307.422 249.867 307.649 249.333 308.102 248.88C308.556 248.427 309.089 248.2 309.702 248.2H322.102C322.716 248.2 323.249 248.427 323.702 248.88C324.156 249.333 324.382 249.867 324.382 250.48V266.72C324.382 267.333 324.156 267.867 323.702 268.32C323.249 268.773 322.716 269 322.102 269H321.382C320.769 269 320.236 268.773 319.782 268.32C319.329 267.867 319.102 267.333 319.102 266.72V252.56C319.102 252.32 318.982 252.2 318.742 252.2H312.902C312.689 252.2 312.582 252.32 312.582 252.56V258.88C312.582 262.4 311.996 264.92 310.822 266.44C309.676 267.933 307.556 268.867 304.462 269.24ZM342.133 253.36C341.359 252.24 340.186 251.68 338.613 251.68C337.039 251.68 335.853 252.24 335.053 253.36C334.279 254.453 333.893 256.2 333.893 258.6C333.893 261 334.279 262.76 335.053 263.88C335.853 264.973 337.039 265.52 338.613 265.52C340.186 265.52 341.359 264.973 342.133 263.88C342.933 262.76 343.333 261 343.333 258.6C343.333 256.2 342.933 254.453 342.133 253.36ZM346.053 266.6C344.293 268.467 341.813 269.4 338.613 269.4C335.413 269.4 332.919 268.467 331.133 266.6C329.373 264.707 328.493 262.04 328.493 258.6C328.493 255.16 329.373 252.507 331.133 250.64C332.919 248.747 335.413 247.8 338.613 247.8C341.813 247.8 344.293 248.747 346.053 250.64C347.839 252.507 348.733 255.16 348.733 258.6C348.733 262.04 347.839 264.707 346.053 266.6ZM361.782 269.4C358.475 269.4 355.928 268.493 354.142 266.68C352.355 264.84 351.462 262.147 351.462 258.6C351.462 255.107 352.315 252.44 354.022 250.6C355.755 248.733 358.208 247.8 361.382 247.8C362.795 247.8 364.155 247.893 365.462 248.08C366.075 248.16 366.582 248.44 366.982 248.92C367.382 249.4 367.582 249.96 367.582 250.6C367.582 251.133 367.368 251.56 366.942 251.88C366.542 252.2 366.075 252.307 365.542 252.2C364.502 251.987 363.342 251.88 362.062 251.88C360.382 251.88 359.128 252.413 358.302 253.48C357.475 254.547 357.062 256.253 357.062 258.6C357.062 261 357.502 262.72 358.382 263.76C359.262 264.8 360.622 265.32 362.462 265.32C363.768 265.32 364.902 265.2 365.862 264.96C366.368 264.827 366.822 264.92 367.222 265.24C367.648 265.56 367.862 265.973 367.862 266.48C367.862 267.12 367.662 267.68 367.262 268.16C366.888 268.64 366.395 268.933 365.782 269.04C364.422 269.28 363.088 269.4 361.782 269.4ZM378.374 258.2V264.92C378.374 265.133 378.494 265.267 378.734 265.32C379.454 265.453 380.094 265.52 380.654 265.52C382.361 265.52 383.601 265.187 384.374 264.52C385.174 263.827 385.574 262.76 385.574 261.32C385.574 260.147 385.147 259.24 384.294 258.6C383.467 257.933 382.227 257.6 380.574 257.6C379.987 257.6 379.361 257.667 378.694 257.8C378.481 257.853 378.374 257.987 378.374 258.2ZM375.414 269.12C374.774 269.04 374.241 268.747 373.814 268.24C373.387 267.733 373.174 267.16 373.174 266.52V250.48C373.174 249.867 373.401 249.333 373.854 248.88C374.307 248.427 374.841 248.2 375.454 248.2H376.134C376.747 248.2 377.267 248.427 377.694 248.88C378.147 249.333 378.374 249.867 378.374 250.48V253.64C378.374 253.72 378.414 253.8 378.494 253.88C378.574 253.96 378.654 253.987 378.734 253.96C379.801 253.8 380.681 253.72 381.374 253.72C384.334 253.72 386.601 254.4 388.174 255.76C389.774 257.12 390.574 258.973 390.574 261.32C390.574 264.04 389.734 266.067 388.054 267.4C386.374 268.733 383.747 269.4 380.174 269.4C378.414 269.4 376.827 269.307 375.414 269.12Z" fill="black"/>
<path d="M572.5 73.5001C565 73.8059 562.5 75.9999 558.5 77.4999C555.573 80.4513 553 80.9999 550.5 88.9999C549.426 97.055 548.333 106.845 548.333 122.153V235.795C548.333 234.533 548.567 233.269 549.262 231.381C550.475 228.09 551.001 227.574 552.053 226.541C554.5 223.5 558.08 220.058 563 219C565.132 217.347 571.115 217.5 581.5 217.5H593V239.5C593 242.156 592.591 250.463 593.5 251C594.409 251.537 597.014 250.688 599.5 249.5L608 245.5C608.841 245.098 613.548 243 614 243C614.452 243 624.159 247.598 625 248L629.5 250C631.986 251.188 633.591 251.537 634.5 251C635.409 250.463 635 248.156 635 245.5V217.5H700.5V122C700.5 106.693 699.574 96.055 698.5 87.9999C695.5 80.4999 693.427 80.4513 690.5 77.4999C686 75.9999 686.26 75.052 678.5 73.9999C670.512 72.917 660.679 73.1944 645.5 73.1944L603 73.1944C587.821 73.1944 580 73.1943 572.5 73.5001Z" fill="white"/>
<path d="M563.96 75.2523C559.831 76.331 557.172 77.8562 555.105 79.8812C552.191 82.7361 550.291 86.7444 549.253 94.3135C548.183 102.105 548.167 112.432 548.167 127.239V208.997C551.875 206.458 556.055 204.526 560.561 203.343C561.649 203.057 562.775 202.834 563.96 202.658V75.2523Z" fill="white"/>
<path d="M579.753 202.024C579.865 202.024 579.977 202.024 580.09 202.024L700.833 202.025V127.239C700.833 112.432 700.817 102.105 699.747 94.3135C698.709 86.7443 696.809 82.7361 693.895 79.8812C690.981 77.0263 686.89 75.165 679.164 74.1473C671.211 73.0997 660.671 73.0833 645.557 73.0833H603.443C593.884 73.0833 586.155 73.0899 579.753 73.3597V202.024Z" fill="white"/>
<path d="M592.915 217.498H581.31C571.01 217.498 567.409 217.564 564.65 218.289C557.076 220.277 551.039 225.792 548.449 232.961C548.609 236.611 548.86 239.82 549.254 242.686C550.292 250.256 552.192 254.264 555.106 257.119C558.02 259.974 562.111 261.835 569.837 262.853C577.79 263.9 588.33 263.917 603.444 263.917H645.559C660.672 263.917 671.212 263.9 679.165 262.853C686.891 261.835 690.982 259.974 693.896 257.119C696.81 254.264 698.71 250.256 699.748 242.686C700.621 236.33 700.793 228.285 700.826 217.498H635.03V246.186C635.03 249.028 635.03 250.45 634.031 251.024C633.032 251.599 631.667 250.963 628.935 249.692L615.856 243.605C614.932 243.175 614.469 242.96 613.972 242.96C613.475 242.96 613.013 243.175 612.089 243.605L599.01 249.692C596.278 250.963 594.912 251.599 593.914 251.024C592.915 250.45 592.915 249.028 592.915 246.186V217.498Z" fill="white"/>
<path d="M605.833 264.833C578.728 264.833 563.921 264.833 555.5 256.413C547.079 247.992 548.333 234.439 548.333 207.333V130.667C548.333 103.561 547.079 87.9208 555.5 79.5001C563.921 71.0794 578.728 73.1667 605.833 73.1667H644.167C671.272 73.1667 686.079 72.0792 694.5 80.4999C702.921 88.9206 701 104.333 701 131.5M644.167 264.833C671.272 264.833 685.579 264.833 694 256.413C702.421 247.992 701 234.106 701 207V168.5" stroke="black" stroke-width="4" stroke-linecap="round"/>
<path d="M700.354 202H585.354C576.441 202 568 201.5 563.5 202C553.579 204.658 554 205 548 210" stroke="black" stroke-width="4"/>
<path d="M580 202V135.63M580 74V97.7037" stroke="black" stroke-width="4" stroke-linecap="round"/>
<path d="M635 217.313V230V246.838C635 249.479 634.909 250.466 634 251C633.091 251.534 629.986 250.681 627.5 249.5L618 244.441C617.159 244.041 614.952 243 614.5 243C614.048 243 611.294 244.041 610.452 244.441L598.548 250.095C596.061 251.277 594.818 251.867 593.909 251.333C593 250.8 593 249.479 593 246.838V232.075V217.313" stroke="black" stroke-width="4" stroke-linecap="round"/>
</svg>
