<svg width="746" height="330" viewBox="0 0 746 330" fill="none" xmlns="http://www.w3.org/2000/svg">
<path d="M0 19C0 8.50659 8.50659 0 19 0H727C737.493 0 746 8.50659 746 19V311C746 321.493 737.493 330 727 330H19C8.5066 330 0 321.493 0 311V19Z" fill="#B8BEF6"/>
<path d="M69.4 91C68.7867 91 68.2533 90.7733 67.8 90.32C67.3733 89.8667 67.16 89.3333 67.16 88.72V64.08C67.16 63.4667 67.3733 62.9333 67.8 62.48C68.2533 62.0267 68.7867 61.8 69.4 61.8H86.76C87.3733 61.8 87.8933 62.0267 88.32 62.48C88.7733 62.9333 89 63.4667 89 64.08V88.72C89 89.3333 88.7733 89.8667 88.32 90.32C87.8933 90.7733 87.3733 91 86.76 91H85.68C85.0667 91 84.5333 90.7733 84.08 90.32C83.6267 89.8667 83.4 89.3333 83.4 88.72V66.68C83.4 66.44 83.2933 66.32 83.08 66.32H73.08C72.8667 66.32 72.76 66.44 72.76 66.68V88.72C72.76 89.3333 72.5333 89.8667 72.08 90.32C71.6267 90.7733 71.0933 91 70.48 91H69.4ZM107.164 75.36C106.391 74.24 105.217 73.68 103.644 73.68C102.071 73.68 100.884 74.24 100.084 75.36C99.3107 76.4533 98.9241 78.2 98.9241 80.6C98.9241 83 99.3107 84.76 100.084 85.88C100.884 86.9733 102.071 87.52 103.644 87.52C105.217 87.52 106.391 86.9733 107.164 85.88C107.964 84.76 108.364 83 108.364 80.6C108.364 78.2 107.964 76.4533 107.164 75.36ZM111.084 88.6C109.324 90.4667 106.844 91.4 103.644 91.4C100.444 91.4 97.9507 90.4667 96.1641 88.6C94.4041 86.7067 93.5241 84.04 93.5241 80.6C93.5241 77.16 94.4041 74.5067 96.1641 72.64C97.9507 70.7467 100.444 69.8 103.644 69.8C106.844 69.8 109.324 70.7467 111.084 72.64C112.871 74.5067 113.764 77.16 113.764 80.6C113.764 84.04 112.871 86.7067 111.084 88.6ZM117.853 91.24C117.319 91.2933 116.853 91.1333 116.453 90.76C116.079 90.3867 115.893 89.9333 115.893 89.4C115.893 88.8667 116.079 88.3867 116.453 87.96C116.853 87.5333 117.333 87.2533 117.893 87.12C119.039 86.8267 119.813 86.1867 120.213 85.2C120.613 84.2133 120.813 82.52 120.813 80.12V72.48C120.813 71.8667 121.039 71.3333 121.493 70.88C121.946 70.4267 122.479 70.2 123.093 70.2H135.493C136.106 70.2 136.639 70.4267 137.093 70.88C137.546 71.3333 137.773 71.8667 137.773 72.48V88.72C137.773 89.3333 137.546 89.8667 137.093 90.32C136.639 90.7733 136.106 91 135.493 91H134.773C134.159 91 133.626 90.7733 133.173 90.32C132.719 89.8667 132.493 89.3333 132.493 88.72V74.56C132.493 74.32 132.373 74.2 132.133 74.2H126.293C126.079 74.2 125.973 74.32 125.973 74.56V80.88C125.973 84.4 125.386 86.92 124.213 88.44C123.066 89.9333 120.946 90.8667 117.853 91.24ZM149.483 90.68L142.283 72.32C142.07 71.8133 142.11 71.3333 142.403 70.88C142.723 70.4267 143.163 70.2 143.723 70.2H145.003C145.67 70.2 146.27 70.4 146.803 70.8C147.337 71.2 147.71 71.72 147.923 72.36L152.083 85.48C152.083 85.5067 152.097 85.52 152.123 85.52C152.15 85.52 152.163 85.5067 152.163 85.48L156.323 72.36C156.51 71.72 156.87 71.2 157.403 70.8C157.937 70.4 158.55 70.2 159.243 70.2H160.283C160.817 70.2 161.243 70.4267 161.563 70.88C161.883 71.3333 161.95 71.8133 161.763 72.32L154.723 91.12C153.55 94.24 152.203 96.4667 150.683 97.8C149.19 99.1333 147.123 99.9067 144.483 100.12C143.923 100.147 143.43 99.96 143.003 99.56C142.603 99.1867 142.403 98.72 142.403 98.16C142.403 97.6 142.603 97.1067 143.003 96.68C143.403 96.28 143.897 96.0533 144.483 96C145.79 95.84 146.803 95.4133 147.523 94.72C148.243 94.0533 148.897 92.92 149.483 91.32C149.51 91.2133 149.523 91.1067 149.523 91C149.523 90.8933 149.51 90.7867 149.483 90.68ZM172.991 85.48C170.058 85.48 168.004 84.96 166.831 83.92C165.658 82.8533 165.071 81.0133 165.071 78.4V72.48C165.071 71.8667 165.284 71.3333 165.711 70.88C166.164 70.4267 166.698 70.2 167.311 70.2H167.911C168.524 70.2 169.058 70.4267 169.511 70.88C169.964 71.3333 170.191 71.8667 170.191 72.48V77.36C170.191 79.04 170.431 80.1333 170.911 80.64C171.418 81.1467 172.418 81.4 173.911 81.4C175.378 81.4 176.684 81.1467 177.831 80.64C178.018 80.56 178.111 80.3867 178.111 80.12V72.48C178.111 71.8667 178.338 71.3333 178.791 70.88C179.244 70.4267 179.778 70.2 180.391 70.2H181.071C181.684 70.2 182.204 70.4267 182.631 70.88C183.084 71.3333 183.311 71.8667 183.311 72.48V88.72C183.311 89.3333 183.084 89.8667 182.631 90.32C182.204 90.7733 181.684 91 181.071 91H180.391C179.778 91 179.244 90.7733 178.791 90.32C178.338 89.8667 178.111 89.3333 178.111 88.72V84.8C178.111 84.72 178.071 84.6533 177.991 84.6C177.938 84.5467 177.871 84.5333 177.791 84.56C176.244 85.1733 174.644 85.48 172.991 85.48ZM198.63 81C194.817 81 192.91 82.1733 192.91 84.52C192.91 85.3733 193.15 86.0667 193.63 86.6C194.137 87.1333 194.777 87.4 195.55 87.4C197.07 87.4 198.297 86.9333 199.23 86C200.164 85.04 200.63 83.7333 200.63 82.08V81.36C200.63 81.12 200.51 81 200.27 81H198.63ZM194.11 91.4C192.297 91.4 190.79 90.8133 189.59 89.64C188.417 88.44 187.83 86.8933 187.83 85C187.83 82.68 188.71 80.88 190.47 79.6C192.257 78.32 194.977 77.68 198.63 77.68H200.27C200.51 77.68 200.63 77.56 200.63 77.32V77C200.63 75.7733 200.337 74.92 199.75 74.44C199.164 73.9333 198.124 73.68 196.63 73.68C195.084 73.68 193.19 73.96 190.95 74.52C190.47 74.6533 190.03 74.5733 189.63 74.28C189.23 73.96 189.03 73.5467 189.03 73.04C189.03 72.4267 189.217 71.88 189.59 71.4C189.964 70.8933 190.444 70.5867 191.03 70.48C193.057 70.0267 194.964 69.8 196.75 69.8C200.164 69.8 202.55 70.4133 203.91 71.64C205.27 72.8667 205.95 75.0133 205.95 78.08V88.72C205.95 89.3333 205.724 89.8667 205.27 90.32C204.844 90.7733 204.324 91 203.71 91H203.27C202.63 91 202.084 90.7867 201.63 90.36C201.177 89.9067 200.937 89.36 200.91 88.72V88.16C200.91 88.1333 200.897 88.12 200.87 88.12C200.817 88.12 200.79 88.1333 200.79 88.16C199.164 90.32 196.937 91.4 194.11 91.4ZM212.092 74.28C211.532 74.28 211.052 74.08 210.652 73.68C210.252 73.28 210.052 72.8 210.052 72.24C210.052 71.68 210.252 71.2 210.652 70.8C211.052 70.4 211.532 70.2 212.092 70.2H226.572C227.132 70.2 227.612 70.4 228.012 70.8C228.412 71.2 228.612 71.68 228.612 72.24C228.612 72.8 228.412 73.28 228.012 73.68C227.612 74.08 227.132 74.28 226.572 74.28H222.452C222.212 74.28 222.092 74.3867 222.092 74.6V88.72C222.092 89.3333 221.866 89.8667 221.412 90.32C220.959 90.7733 220.426 91 219.812 91H218.852C218.239 91 217.706 90.7733 217.252 90.32C216.799 89.8667 216.572 89.3333 216.572 88.72V74.6C216.572 74.3867 216.452 74.28 216.212 74.28H212.092ZM238.132 80.2V86.92C238.132 87.1333 238.252 87.2667 238.492 87.32C239.212 87.4533 239.852 87.52 240.412 87.52C242.119 87.52 243.359 87.1867 244.132 86.52C244.932 85.8267 245.332 84.76 245.332 83.32C245.332 82.1467 244.905 81.24 244.052 80.6C243.225 79.9333 241.985 79.6 240.332 79.6C239.745 79.6 239.119 79.6667 238.452 79.8C238.239 79.8533 238.132 79.9867 238.132 80.2ZM235.172 91.12C234.532 91.04 233.999 90.7467 233.572 90.24C233.145 89.7333 232.932 89.16 232.932 88.52V72.48C232.932 71.8667 233.159 71.3333 233.612 70.88C234.065 70.4267 234.599 70.2 235.212 70.2H235.892C236.505 70.2 237.025 70.4267 237.452 70.88C237.905 71.3333 238.132 71.8667 238.132 72.48V75.64C238.132 75.72 238.172 75.8 238.252 75.88C238.332 75.96 238.412 75.9867 238.492 75.96C239.559 75.8 240.439 75.72 241.132 75.72C244.092 75.72 246.359 76.4 247.932 77.76C249.532 79.12 250.332 80.9733 250.332 83.32C250.332 86.04 249.492 88.0667 247.812 89.4C246.132 90.7333 243.505 91.4 239.932 91.4C238.172 91.4 236.585 91.3067 235.172 91.12ZM69 150C68.3867 150 67.8533 149.773 67.4 149.32C66.9733 148.867 66.76 148.333 66.76 147.72V131.48C66.76 130.867 66.9733 130.333 67.4 129.88C67.8533 129.427 68.3867 129.2 69 129.2H69.88C70.4933 129.2 71.0267 129.427 71.48 129.88C71.9333 130.333 72.16 130.867 72.16 131.48V136.84C72.16 137.08 72.28 137.2 72.52 137.2H79.24C79.48 137.2 79.6 137.08 79.6 136.84V131.48C79.6 130.867 79.8267 130.333 80.28 129.88C80.7333 129.427 81.2667 129.2 81.88 129.2H82.76C83.3733 129.2 83.8933 129.427 84.32 129.88C84.7733 130.333 85 130.867 85 131.48V147.72C85 148.333 84.7733 148.867 84.32 149.32C83.8933 149.773 83.3733 150 82.76 150H81.88C81.2667 150 80.7333 149.773 80.28 149.32C79.8267 148.867 79.6 148.333 79.6 147.72V141.32C79.6 141.08 79.48 140.96 79.24 140.96H72.52C72.28 140.96 72.16 141.08 72.16 141.32V147.72C72.16 148.333 71.9333 148.867 71.48 149.32C71.0267 149.773 70.4933 150 69.88 150H69ZM100.31 140C96.4967 140 94.59 141.173 94.59 143.52C94.59 144.373 94.83 145.067 95.31 145.6C95.8167 146.133 96.4567 146.4 97.23 146.4C98.75 146.4 99.9767 145.933 100.91 145C101.843 144.04 102.31 142.733 102.31 141.08V140.36C102.31 140.12 102.19 140 101.95 140H100.31ZM95.79 150.4C93.9767 150.4 92.47 149.813 91.27 148.64C90.0967 147.44 89.51 145.893 89.51 144C89.51 141.68 90.39 139.88 92.15 138.6C93.9367 137.32 96.6567 136.68 100.31 136.68H101.95C102.19 136.68 102.31 136.56 102.31 136.32V136C102.31 134.773 102.017 133.92 101.43 133.44C100.843 132.933 99.8033 132.68 98.31 132.68C96.7633 132.68 94.87 132.96 92.63 133.52C92.15 133.653 91.71 133.573 91.31 133.28C90.91 132.96 90.71 132.547 90.71 132.04C90.71 131.427 90.8967 130.88 91.27 130.4C91.6433 129.893 92.1233 129.587 92.71 129.48C94.7367 129.027 96.6433 128.8 98.43 128.8C101.843 128.8 104.23 129.413 105.59 130.64C106.95 131.867 107.63 134.013 107.63 137.08V147.72C107.63 148.333 107.403 148.867 106.95 149.32C106.523 149.773 106.003 150 105.39 150H104.95C104.31 150 103.763 149.787 103.31 149.36C102.857 148.907 102.617 148.36 102.59 147.72V147.16C102.59 147.133 102.577 147.12 102.55 147.12C102.497 147.12 102.47 147.133 102.47 147.16C100.843 149.32 98.6167 150.4 95.79 150.4ZM115.212 150C114.599 150 114.065 149.773 113.612 149.32C113.159 148.867 112.932 148.333 112.932 147.72V131.48C112.932 130.867 113.159 130.333 113.612 129.88C114.065 129.427 114.599 129.2 115.212 129.2H128.732C129.345 129.2 129.879 129.427 130.332 129.88C130.785 130.333 131.012 130.867 131.012 131.48V147.72C131.012 148.333 130.785 148.867 130.332 149.32C129.879 149.773 129.345 150 128.732 150H128.012C127.399 150 126.865 149.773 126.412 149.32C125.959 148.867 125.732 148.333 125.732 147.72V133.56C125.732 133.32 125.625 133.2 125.412 133.2H118.532C118.319 133.2 118.212 133.32 118.212 133.56V147.72C118.212 148.333 117.985 148.867 117.532 149.32C117.079 149.773 116.545 150 115.932 150H115.212ZM148.766 134.36C147.992 133.24 146.819 132.68 145.246 132.68C143.672 132.68 142.486 133.24 141.686 134.36C140.912 135.453 140.526 137.2 140.526 139.6C140.526 142 140.912 143.76 141.686 144.88C142.486 145.973 143.672 146.52 145.246 146.52C146.819 146.52 147.992 145.973 148.766 144.88C149.566 143.76 149.966 142 149.966 139.6C149.966 137.2 149.566 135.453 148.766 134.36ZM152.686 147.6C150.926 149.467 148.446 150.4 145.246 150.4C142.046 150.4 139.552 149.467 137.766 147.6C136.006 145.707 135.126 143.04 135.126 139.6C135.126 136.16 136.006 133.507 137.766 131.64C139.552 129.747 142.046 128.8 145.246 128.8C148.446 128.8 150.926 129.747 152.686 131.64C154.472 133.507 155.366 136.16 155.366 139.6C155.366 143.04 154.472 145.707 152.686 147.6ZM161.734 150C161.121 150 160.588 149.773 160.134 149.32C159.708 148.867 159.494 148.333 159.494 147.72V131.48C159.494 130.867 159.708 130.333 160.134 129.88C160.588 129.427 161.121 129.2 161.734 129.2H162.854C164.374 129.2 165.468 129.88 166.134 131.24L170.934 141C170.934 141.027 170.948 141.04 170.974 141.04L171.014 141L175.814 131.24C176.481 129.88 177.574 129.2 179.094 129.2H180.294C180.908 129.2 181.428 129.427 181.854 129.88C182.308 130.333 182.534 130.867 182.534 131.48V147.72C182.534 148.333 182.308 148.867 181.854 149.32C181.428 149.773 180.908 150 180.294 150H179.574C178.961 150 178.428 149.773 177.974 149.32C177.521 148.867 177.294 148.333 177.294 147.72V136.28H177.214L173.974 142.92C173.361 144.147 172.361 144.76 170.974 144.76C169.588 144.76 168.588 144.147 167.974 142.92L164.694 136.28H164.654H164.614V147.72C164.614 148.333 164.388 148.867 163.934 149.32C163.508 149.773 162.988 150 162.374 150H161.734ZM190.329 150C189.716 150 189.182 149.773 188.729 149.32C188.276 148.867 188.049 148.333 188.049 147.72V131.48C188.049 130.867 188.276 130.333 188.729 129.88C189.182 129.427 189.716 129.2 190.329 129.2H191.089C191.702 129.2 192.236 129.427 192.689 129.88C193.142 130.333 193.369 130.867 193.369 131.48V142.72L193.409 142.76L193.449 142.72L199.889 131.16C200.636 129.853 201.769 129.2 203.289 129.2H204.169C204.782 129.2 205.316 129.427 205.769 129.88C206.222 130.333 206.449 130.867 206.449 131.48V147.72C206.449 148.333 206.222 148.867 205.769 149.32C205.316 149.773 204.782 150 204.169 150H203.409C202.796 150 202.262 149.773 201.809 149.32C201.356 148.867 201.129 148.333 201.129 147.72V136.48L201.089 136.44L201.049 136.48L194.609 148.04C193.862 149.347 192.729 150 191.209 150H190.329ZM214.195 150C213.582 150 213.049 149.773 212.595 149.32C212.169 148.867 211.955 148.333 211.955 147.72V131.48C211.955 130.867 212.169 130.333 212.595 129.88C213.049 129.427 213.582 129.2 214.195 129.2H215.075C215.689 129.2 216.222 129.427 216.675 129.88C217.129 130.333 217.355 130.867 217.355 131.48V136.84C217.355 137.08 217.475 137.2 217.715 137.2H224.435C224.675 137.2 224.795 137.08 224.795 136.84V131.48C224.795 130.867 225.022 130.333 225.475 129.88C225.929 129.427 226.462 129.2 227.075 129.2H227.955C228.569 129.2 229.089 129.427 229.515 129.88C229.969 130.333 230.195 130.867 230.195 131.48V147.72C230.195 148.333 229.969 148.867 229.515 149.32C229.089 149.773 228.569 150 227.955 150H227.075C226.462 150 225.929 149.773 225.475 149.32C225.022 148.867 224.795 148.333 224.795 147.72V141.32C224.795 141.08 224.675 140.96 224.435 140.96H217.715C217.475 140.96 217.355 141.08 217.355 141.32V147.72C217.355 148.333 217.129 148.867 216.675 149.32C216.222 149.773 215.689 150 215.075 150H214.195ZM245.505 140C241.692 140 239.785 141.173 239.785 143.52C239.785 144.373 240.025 145.067 240.505 145.6C241.012 146.133 241.652 146.4 242.425 146.4C243.945 146.4 245.172 145.933 246.105 145C247.039 144.04 247.505 142.733 247.505 141.08V140.36C247.505 140.12 247.385 140 247.145 140H245.505ZM240.985 150.4C239.172 150.4 237.665 149.813 236.465 148.64C235.292 147.44 234.705 145.893 234.705 144C234.705 141.68 235.585 139.88 237.345 138.6C239.132 137.32 241.852 136.68 245.505 136.68H247.145C247.385 136.68 247.505 136.56 247.505 136.32V136C247.505 134.773 247.212 133.92 246.625 133.44C246.039 132.933 244.999 132.68 243.505 132.68C241.959 132.68 240.065 132.96 237.825 133.52C237.345 133.653 236.905 133.573 236.505 133.28C236.105 132.96 235.905 132.547 235.905 132.04C235.905 131.427 236.092 130.88 236.465 130.4C236.839 129.893 237.319 129.587 237.905 129.48C239.932 129.027 241.839 128.8 243.625 128.8C247.039 128.8 249.425 129.413 250.785 130.64C252.145 131.867 252.825 134.013 252.825 137.08V147.72C252.825 148.333 252.599 148.867 252.145 149.32C251.719 149.773 251.199 150 250.585 150H250.145C249.505 150 248.959 149.787 248.505 149.36C248.052 148.907 247.812 148.36 247.785 147.72V147.16C247.785 147.133 247.772 147.12 247.745 147.12C247.692 147.12 247.665 147.133 247.665 147.16C246.039 149.32 243.812 150.4 240.985 150.4ZM260.367 150C259.754 150 259.221 149.773 258.767 149.32C258.341 148.867 258.127 148.333 258.127 147.72V131.48C258.127 130.867 258.341 130.333 258.767 129.88C259.221 129.427 259.754 129.2 260.367 129.2H261.247C261.861 129.2 262.394 129.427 262.847 129.88C263.301 130.333 263.527 130.867 263.527 131.48V136.84C263.527 137.08 263.647 137.2 263.887 137.2H270.607C270.847 137.2 270.967 137.08 270.967 136.84V131.48C270.967 130.867 271.194 130.333 271.647 129.88C272.101 129.427 272.634 129.2 273.247 129.2H274.127C274.741 129.2 275.261 129.427 275.687 129.88C276.141 130.333 276.367 130.867 276.367 131.48V147.72C276.367 148.333 276.141 148.867 275.687 149.32C275.261 149.773 274.741 150 274.127 150H273.247C272.634 150 272.101 149.773 271.647 149.32C271.194 148.867 270.967 148.333 270.967 147.72V141.32C270.967 141.08 270.847 140.96 270.607 140.96H263.887C263.647 140.96 263.527 141.08 263.527 141.32V147.72C263.527 148.333 263.301 148.867 262.847 149.32C262.394 149.773 261.861 150 261.247 150H260.367ZM284.157 150C283.544 150 283.011 149.773 282.557 149.32C282.104 148.867 281.877 148.333 281.877 147.72V131.48C281.877 130.867 282.104 130.333 282.557 129.88C283.011 129.427 283.544 129.2 284.157 129.2H284.917C285.531 129.2 286.064 129.427 286.517 129.88C286.971 130.333 287.197 130.867 287.197 131.48V142.72L287.237 142.76L287.277 142.72L293.717 131.16C294.464 129.853 295.597 129.2 297.117 129.2H297.997C298.611 129.2 299.144 129.427 299.597 129.88C300.051 130.333 300.277 130.867 300.277 131.48V147.72C300.277 148.333 300.051 148.867 299.597 149.32C299.144 149.773 298.611 150 297.997 150H297.237C296.624 150 296.091 149.773 295.637 149.32C295.184 148.867 294.957 148.333 294.957 147.72V136.48L294.917 136.44L294.877 136.48L288.437 148.04C287.691 149.347 286.557 150 285.037 150H284.157ZM314.423 132.72C311.17 132.72 309.543 133.667 309.543 135.56C309.543 137.507 311.237 138.48 314.623 138.48H316.183C316.397 138.48 316.503 138.36 316.503 138.12V133.16C316.503 132.92 316.397 132.8 316.183 132.8C315.383 132.747 314.797 132.72 314.423 132.72ZM309.463 140.44C307.997 140.04 306.797 139.373 305.863 138.44C304.93 137.48 304.463 136.347 304.463 135.04C304.463 130.96 307.703 128.92 314.183 128.92C315.837 128.92 317.623 128.987 319.543 129.12C320.183 129.147 320.717 129.413 321.143 129.92C321.597 130.4 321.823 130.96 321.823 131.6V147.72C321.823 148.333 321.597 148.867 321.143 149.32C320.69 149.773 320.157 150 319.543 150H318.783C318.17 150 317.637 149.773 317.183 149.32C316.73 148.867 316.503 148.333 316.503 147.72V142.48C316.503 142.267 316.397 142.16 316.183 142.16H314.863C313.823 142.16 313.103 142.293 312.703 142.56C312.303 142.8 311.863 143.44 311.383 144.48L309.903 147.92C309.61 148.533 309.17 149.04 308.583 149.44C308.023 149.813 307.41 150 306.743 150H306.023C305.49 150 305.077 149.773 304.783 149.32C304.517 148.867 304.49 148.4 304.703 147.92L306.423 144.2C307.303 142.307 308.33 141.093 309.503 140.56C309.53 140.56 309.543 140.547 309.543 140.52C309.543 140.467 309.517 140.44 309.463 140.44ZM350.875 134.36C350.102 133.24 348.928 132.68 347.355 132.68C345.782 132.68 344.595 133.24 343.795 134.36C343.022 135.453 342.635 137.2 342.635 139.6C342.635 142 343.022 143.76 343.795 144.88C344.595 145.973 345.782 146.52 347.355 146.52C348.928 146.52 350.102 145.973 350.875 144.88C351.675 143.76 352.075 142 352.075 139.6C352.075 137.2 351.675 135.453 350.875 134.36ZM354.795 147.6C353.035 149.467 350.555 150.4 347.355 150.4C344.155 150.4 341.662 149.467 339.875 147.6C338.115 145.707 337.235 143.04 337.235 139.6C337.235 136.16 338.115 133.507 339.875 131.64C341.662 129.747 344.155 128.8 347.355 128.8C350.555 128.8 353.035 129.747 354.795 131.64C356.582 133.507 357.475 136.16 357.475 139.6C357.475 143.04 356.582 145.707 354.795 147.6ZM373.811 133.28C373.251 133.28 372.771 133.08 372.371 132.68C371.971 132.28 371.771 131.8 371.771 131.24C371.771 130.68 371.971 130.2 372.371 129.8C372.771 129.4 373.251 129.2 373.811 129.2H388.291C388.851 129.2 389.331 129.4 389.731 129.8C390.131 130.2 390.331 130.68 390.331 131.24C390.331 131.8 390.131 132.28 389.731 132.68C389.331 133.08 388.851 133.28 388.291 133.28H384.171C383.931 133.28 383.811 133.387 383.811 133.6V147.72C383.811 148.333 383.584 148.867 383.131 149.32C382.678 149.773 382.144 150 381.531 150H380.571C379.958 150 379.424 149.773 378.971 149.32C378.518 148.867 378.291 148.333 378.291 147.72V133.6C378.291 133.387 378.171 133.28 377.931 133.28H373.811ZM406.891 134.36C406.117 133.24 404.944 132.68 403.371 132.68C401.797 132.68 400.611 133.24 399.811 134.36C399.037 135.453 398.651 137.2 398.651 139.6C398.651 142 399.037 143.76 399.811 144.88C400.611 145.973 401.797 146.52 403.371 146.52C404.944 146.52 406.117 145.973 406.891 144.88C407.691 143.76 408.091 142 408.091 139.6C408.091 137.2 407.691 135.453 406.891 134.36ZM410.811 147.6C409.051 149.467 406.571 150.4 403.371 150.4C400.171 150.4 397.677 149.467 395.891 147.6C394.131 145.707 393.251 143.04 393.251 139.6C393.251 136.16 394.131 133.507 395.891 131.64C397.677 129.747 400.171 128.8 403.371 128.8C406.571 128.8 409.051 129.747 410.811 131.64C412.597 133.507 413.491 136.16 413.491 139.6C413.491 143.04 412.597 145.707 410.811 147.6ZM419.859 150C419.246 150 418.713 149.773 418.259 149.32C417.833 148.867 417.619 148.333 417.619 147.72V131.48C417.619 130.867 417.833 130.333 418.259 129.88C418.713 129.427 419.246 129.2 419.859 129.2H420.979C422.499 129.2 423.593 129.88 424.259 131.24L429.059 141C429.059 141.027 429.073 141.04 429.099 141.04L429.139 141L433.939 131.24C434.606 129.88 435.699 129.2 437.219 129.2H438.419C439.033 129.2 439.553 129.427 439.979 129.88C440.433 130.333 440.659 130.867 440.659 131.48V147.72C440.659 148.333 440.433 148.867 439.979 149.32C439.553 149.773 439.033 150 438.419 150H437.699C437.086 150 436.553 149.773 436.099 149.32C435.646 148.867 435.419 148.333 435.419 147.72V136.28H435.339L432.099 142.92C431.486 144.147 430.486 144.76 429.099 144.76C427.713 144.76 426.713 144.147 426.099 142.92L422.819 136.28H422.779H422.739V147.72C422.739 148.333 422.513 148.867 422.059 149.32C421.633 149.773 421.113 150 420.499 150H419.859ZM447.574 154.4C446.987 154.4 446.507 154.173 446.134 153.72C445.787 153.267 445.681 152.76 445.814 152.2L447.454 145.4C447.614 144.76 447.961 144.24 448.494 143.84C449.027 143.413 449.614 143.2 450.254 143.2H452.374C452.907 143.2 453.321 143.427 453.614 143.88C453.934 144.333 453.987 144.813 453.774 145.32L450.974 152.28C450.734 152.92 450.321 153.427 449.734 153.8C449.174 154.2 448.547 154.4 447.854 154.4H447.574ZM74.28 203.48C71.3467 203.48 69.2933 202.96 68.12 201.92C66.9467 200.853 66.36 199.013 66.36 196.4V190.48C66.36 189.867 66.5733 189.333 67 188.88C67.4533 188.427 67.9867 188.2 68.6 188.2H69.2C69.8133 188.2 70.3467 188.427 70.8 188.88C71.2533 189.333 71.48 189.867 71.48 190.48V195.36C71.48 197.04 71.72 198.133 72.2 198.64C72.7067 199.147 73.7067 199.4 75.2 199.4C76.6667 199.4 77.9733 199.147 79.12 198.64C79.3067 198.56 79.4 198.387 79.4 198.12V190.48C79.4 189.867 79.6267 189.333 80.08 188.88C80.5333 188.427 81.0667 188.2 81.68 188.2H82.36C82.9733 188.2 83.4933 188.427 83.92 188.88C84.3733 189.333 84.6 189.867 84.6 190.48V206.72C84.6 207.333 84.3733 207.867 83.92 208.32C83.4933 208.773 82.9733 209 82.36 209H81.68C81.0667 209 80.5333 208.773 80.08 208.32C79.6267 207.867 79.4 207.333 79.4 206.72V202.8C79.4 202.72 79.36 202.653 79.28 202.6C79.2267 202.547 79.16 202.533 79.08 202.56C77.5333 203.173 75.9333 203.48 74.28 203.48ZM90.9594 192.28C90.3994 192.28 89.9194 192.08 89.5194 191.68C89.1194 191.28 88.9194 190.8 88.9194 190.24C88.9194 189.68 89.1194 189.2 89.5194 188.8C89.9194 188.4 90.3994 188.2 90.9594 188.2H105.439C105.999 188.2 106.479 188.4 106.879 188.8C107.279 189.2 107.479 189.68 107.479 190.24C107.479 190.8 107.279 191.28 106.879 191.68C106.479 192.08 105.999 192.28 105.439 192.28H101.319C101.079 192.28 100.959 192.387 100.959 192.6V206.72C100.959 207.333 100.733 207.867 100.279 208.32C99.826 208.773 99.2927 209 98.6794 209H97.7194C97.106 209 96.5727 208.773 96.1194 208.32C95.666 207.867 95.4394 207.333 95.4394 206.72V192.6C95.4394 192.387 95.3194 192.28 95.0794 192.28H90.9594ZM124.039 193.36C123.266 192.24 122.092 191.68 120.519 191.68C118.946 191.68 117.759 192.24 116.959 193.36C116.186 194.453 115.799 196.2 115.799 198.6C115.799 201 116.186 202.76 116.959 203.88C117.759 204.973 118.946 205.52 120.519 205.52C122.092 205.52 123.266 204.973 124.039 203.88C124.839 202.76 125.239 201 125.239 198.6C125.239 196.2 124.839 194.453 124.039 193.36ZM127.959 206.6C126.199 208.467 123.719 209.4 120.519 209.4C117.319 209.4 114.826 208.467 113.039 206.6C111.279 204.707 110.399 202.04 110.399 198.6C110.399 195.16 111.279 192.507 113.039 190.64C114.826 188.747 117.319 187.8 120.519 187.8C123.719 187.8 126.199 188.747 127.959 190.64C129.746 192.507 130.639 195.16 130.639 198.6C130.639 202.04 129.746 204.707 127.959 206.6ZM148.415 209C147.802 209 147.268 208.773 146.815 208.32C146.362 207.867 146.135 207.333 146.135 206.72V190.48C146.135 189.867 146.362 189.333 146.815 188.88C147.268 188.427 147.802 188.2 148.415 188.2H161.935C162.548 188.2 163.082 188.427 163.535 188.88C163.988 189.333 164.215 189.867 164.215 190.48V206.72C164.215 207.333 163.988 207.867 163.535 208.32C163.082 208.773 162.548 209 161.935 209H161.215C160.602 209 160.068 208.773 159.615 208.32C159.162 207.867 158.935 207.333 158.935 206.72V192.56C158.935 192.32 158.828 192.2 158.615 192.2H151.735C151.522 192.2 151.415 192.32 151.415 192.56V206.72C151.415 207.333 151.188 207.867 150.735 208.32C150.282 208.773 149.748 209 149.135 209H148.415ZM181.969 193.36C181.195 192.24 180.022 191.68 178.449 191.68C176.875 191.68 175.689 192.24 174.889 193.36C174.115 194.453 173.729 196.2 173.729 198.6C173.729 201 174.115 202.76 174.889 203.88C175.689 204.973 176.875 205.52 178.449 205.52C180.022 205.52 181.195 204.973 181.969 203.88C182.769 202.76 183.169 201 183.169 198.6C183.169 196.2 182.769 194.453 181.969 193.36ZM185.889 206.6C184.129 208.467 181.649 209.4 178.449 209.4C175.249 209.4 172.755 208.467 170.969 206.6C169.209 204.707 168.329 202.04 168.329 198.6C168.329 195.16 169.209 192.507 170.969 190.64C172.755 188.747 175.249 187.8 178.449 187.8C181.649 187.8 184.129 188.747 185.889 190.64C187.675 192.507 188.569 195.16 188.569 198.6C188.569 202.04 187.675 204.707 185.889 206.6ZM197.978 195.88V201.32C197.978 202.387 198.431 203.333 199.338 204.16C200.271 204.987 201.351 205.4 202.578 205.4C203.991 205.4 205.111 204.827 205.938 203.68C206.764 202.533 207.178 200.84 207.178 198.6C207.178 194.067 205.644 191.8 202.578 191.8C201.351 191.8 200.271 192.213 199.338 193.04C198.431 193.867 197.978 194.813 197.978 195.88ZM194.978 217.8C194.364 217.8 193.831 217.573 193.378 217.12C192.924 216.667 192.698 216.133 192.698 215.52V190.48C192.698 189.867 192.924 189.333 193.378 188.88C193.831 188.427 194.364 188.2 194.978 188.2H195.458C196.098 188.2 196.644 188.427 197.098 188.88C197.551 189.307 197.791 189.84 197.818 190.48V190.76C197.818 190.787 197.831 190.8 197.858 190.8C197.884 190.8 197.911 190.787 197.938 190.76C198.898 189.693 199.858 188.933 200.818 188.48C201.778 188.027 202.898 187.8 204.178 187.8C206.684 187.8 208.684 188.747 210.178 190.64C211.671 192.507 212.418 195.16 212.418 198.6C212.418 201.933 211.631 204.573 210.058 206.52C208.511 208.44 206.551 209.4 204.178 209.4C201.858 209.4 199.844 208.56 198.138 206.88C198.111 206.853 198.084 206.84 198.058 206.84C198.031 206.84 198.018 206.853 198.018 206.88V215.52C198.018 216.133 197.791 216.667 197.338 217.12C196.911 217.573 196.391 217.8 195.778 217.8H194.978ZM226.521 199C222.708 199 220.801 200.173 220.801 202.52C220.801 203.373 221.041 204.067 221.521 204.6C222.028 205.133 222.668 205.4 223.441 205.4C224.961 205.4 226.188 204.933 227.121 204C228.054 203.04 228.521 201.733 228.521 200.08V199.36C228.521 199.12 228.401 199 228.161 199H226.521ZM222.001 209.4C220.188 209.4 218.681 208.813 217.481 207.64C216.308 206.44 215.721 204.893 215.721 203C215.721 200.68 216.601 198.88 218.361 197.6C220.148 196.32 222.868 195.68 226.521 195.68H228.161C228.401 195.68 228.521 195.56 228.521 195.32V195C228.521 193.773 228.228 192.92 227.641 192.44C227.054 191.933 226.014 191.68 224.521 191.68C222.974 191.68 221.081 191.96 218.841 192.52C218.361 192.653 217.921 192.573 217.521 192.28C217.121 191.96 216.921 191.547 216.921 191.04C216.921 190.427 217.108 189.88 217.481 189.4C217.854 188.893 218.334 188.587 218.921 188.48C220.948 188.027 222.854 187.8 224.641 187.8C228.054 187.8 230.441 188.413 231.801 189.64C233.161 190.867 233.841 193.013 233.841 196.08V206.72C233.841 207.333 233.614 207.867 233.161 208.32C232.734 208.773 232.214 209 231.601 209H231.161C230.521 209 229.974 208.787 229.521 208.36C229.068 207.907 228.828 207.36 228.801 206.72V206.16C228.801 206.133 228.788 206.12 228.761 206.12C228.708 206.12 228.681 206.133 228.681 206.16C227.054 208.32 224.828 209.4 222.001 209.4ZM252.79 209C252.177 209 251.643 208.773 251.19 208.32C250.737 207.867 250.51 207.333 250.51 206.72V190.48C250.51 189.867 250.737 189.333 251.19 188.88C251.643 188.427 252.177 188.2 252.79 188.2H266.31C266.923 188.2 267.457 188.427 267.91 188.88C268.363 189.333 268.59 189.867 268.59 190.48V206.72C268.59 207.333 268.363 207.867 267.91 208.32C267.457 208.773 266.923 209 266.31 209H265.59C264.977 209 264.443 208.773 263.99 208.32C263.537 207.867 263.31 207.333 263.31 206.72V192.56C263.31 192.32 263.203 192.2 262.99 192.2H256.11C255.897 192.2 255.79 192.32 255.79 192.56V206.72C255.79 207.333 255.563 207.867 255.11 208.32C254.657 208.773 254.123 209 253.51 209H252.79ZM279.384 195.88V201.32C279.384 202.387 279.837 203.333 280.744 204.16C281.677 204.987 282.757 205.4 283.984 205.4C285.397 205.4 286.517 204.827 287.344 203.68C288.17 202.533 288.584 200.84 288.584 198.6C288.584 194.067 287.05 191.8 283.984 191.8C282.757 191.8 281.677 192.213 280.744 193.04C279.837 193.867 279.384 194.813 279.384 195.88ZM276.384 217.8C275.77 217.8 275.237 217.573 274.784 217.12C274.33 216.667 274.104 216.133 274.104 215.52V190.48C274.104 189.867 274.33 189.333 274.784 188.88C275.237 188.427 275.77 188.2 276.384 188.2H276.864C277.504 188.2 278.05 188.427 278.504 188.88C278.957 189.307 279.197 189.84 279.224 190.48V190.76C279.224 190.787 279.237 190.8 279.264 190.8C279.29 190.8 279.317 190.787 279.344 190.76C280.304 189.693 281.264 188.933 282.224 188.48C283.184 188.027 284.304 187.8 285.584 187.8C288.09 187.8 290.09 188.747 291.584 190.64C293.077 192.507 293.824 195.16 293.824 198.6C293.824 201.933 293.037 204.573 291.464 206.52C289.917 208.44 287.957 209.4 285.584 209.4C283.264 209.4 281.25 208.56 279.544 206.88C279.517 206.853 279.49 206.84 279.464 206.84C279.437 206.84 279.424 206.853 279.424 206.88V215.52C279.424 216.133 279.197 216.667 278.744 217.12C278.317 217.573 277.797 217.8 277.184 217.8H276.384ZM310.367 193.36C309.594 192.24 308.421 191.68 306.847 191.68C305.274 191.68 304.087 192.24 303.287 193.36C302.514 194.453 302.127 196.2 302.127 198.6C302.127 201 302.514 202.76 303.287 203.88C304.087 204.973 305.274 205.52 306.847 205.52C308.421 205.52 309.594 204.973 310.367 203.88C311.167 202.76 311.567 201 311.567 198.6C311.567 196.2 311.167 194.453 310.367 193.36ZM314.287 206.6C312.527 208.467 310.047 209.4 306.847 209.4C303.647 209.4 301.154 208.467 299.367 206.6C297.607 204.707 296.727 202.04 296.727 198.6C296.727 195.16 297.607 192.507 299.367 190.64C301.154 188.747 303.647 187.8 306.847 187.8C310.047 187.8 312.527 188.747 314.287 190.64C316.074 192.507 316.967 195.16 316.967 198.6C316.967 202.04 316.074 204.707 314.287 206.6ZM328.616 203.48C325.683 203.48 323.629 202.96 322.456 201.92C321.283 200.853 320.696 199.013 320.696 196.4V190.48C320.696 189.867 320.909 189.333 321.336 188.88C321.789 188.427 322.323 188.2 322.936 188.2H323.536C324.149 188.2 324.683 188.427 325.136 188.88C325.589 189.333 325.816 189.867 325.816 190.48V195.36C325.816 197.04 326.056 198.133 326.536 198.64C327.043 199.147 328.043 199.4 329.536 199.4C331.003 199.4 332.309 199.147 333.456 198.64C333.643 198.56 333.736 198.387 333.736 198.12V190.48C333.736 189.867 333.963 189.333 334.416 188.88C334.869 188.427 335.403 188.2 336.016 188.2H336.696C337.309 188.2 337.829 188.427 338.256 188.88C338.709 189.333 338.936 189.867 338.936 190.48V206.72C338.936 207.333 338.709 207.867 338.256 208.32C337.829 208.773 337.309 209 336.696 209H336.016C335.403 209 334.869 208.773 334.416 208.32C333.963 207.867 333.736 207.333 333.736 206.72V202.8C333.736 202.72 333.696 202.653 333.616 202.6C333.563 202.547 333.496 202.533 333.416 202.56C331.869 203.173 330.269 203.48 328.616 203.48ZM346.735 209C346.122 209 345.589 208.773 345.135 208.32C344.682 207.867 344.455 207.333 344.455 206.72V190.48C344.455 189.867 344.682 189.333 345.135 188.88C345.589 188.427 346.122 188.2 346.735 188.2H347.495C348.109 188.2 348.642 188.427 349.095 188.88C349.549 189.333 349.775 189.867 349.775 190.48V201.72L349.815 201.76L349.855 201.72L356.295 190.16C357.042 188.853 358.175 188.2 359.695 188.2H360.575C361.189 188.2 361.722 188.427 362.175 188.88C362.629 189.333 362.855 189.867 362.855 190.48V206.72C362.855 207.333 362.629 207.867 362.175 208.32C361.722 208.773 361.189 209 360.575 209H359.815C359.202 209 358.669 208.773 358.215 208.32C357.762 207.867 357.535 207.333 357.535 206.72V195.48L357.495 195.44L357.455 195.48L351.015 207.04C350.269 208.347 349.135 209 347.615 209H346.735ZM369.202 192.28C368.642 192.28 368.162 192.08 367.762 191.68C367.362 191.28 367.162 190.8 367.162 190.24C367.162 189.68 367.362 189.2 367.762 188.8C368.162 188.4 368.642 188.2 369.202 188.2H383.682C384.242 188.2 384.722 188.4 385.122 188.8C385.522 189.2 385.722 189.68 385.722 190.24C385.722 190.8 385.522 191.28 385.122 191.68C384.722 192.08 384.242 192.28 383.682 192.28H379.562C379.322 192.28 379.202 192.387 379.202 192.6V206.72C379.202 207.333 378.975 207.867 378.522 208.32C378.068 208.773 377.535 209 376.922 209H375.962C375.348 209 374.815 208.773 374.362 208.32C373.908 207.867 373.682 207.333 373.682 206.72V192.6C373.682 192.387 373.562 192.28 373.322 192.28H369.202ZM399.841 199C396.028 199 394.121 200.173 394.121 202.52C394.121 203.373 394.361 204.067 394.841 204.6C395.348 205.133 395.988 205.4 396.761 205.4C398.281 205.4 399.508 204.933 400.441 204C401.375 203.04 401.841 201.733 401.841 200.08V199.36C401.841 199.12 401.721 199 401.481 199H399.841ZM395.321 209.4C393.508 209.4 392.001 208.813 390.801 207.64C389.628 206.44 389.041 204.893 389.041 203C389.041 200.68 389.921 198.88 391.681 197.6C393.468 196.32 396.188 195.68 399.841 195.68H401.481C401.721 195.68 401.841 195.56 401.841 195.32V195C401.841 193.773 401.548 192.92 400.961 192.44C400.375 191.933 399.335 191.68 397.841 191.68C396.295 191.68 394.401 191.96 392.161 192.52C391.681 192.653 391.241 192.573 390.841 192.28C390.441 191.96 390.241 191.547 390.241 191.04C390.241 190.427 390.428 189.88 390.801 189.4C391.175 188.893 391.655 188.587 392.241 188.48C394.268 188.027 396.175 187.8 397.961 187.8C401.375 187.8 403.761 188.413 405.121 189.64C406.481 190.867 407.161 193.013 407.161 196.08V206.72C407.161 207.333 406.935 207.867 406.481 208.32C406.055 208.773 405.535 209 404.921 209H404.481C403.841 209 403.295 208.787 402.841 208.36C402.388 207.907 402.148 207.36 402.121 206.72V206.16C402.121 206.133 402.108 206.12 402.081 206.12C402.028 206.12 402.001 206.133 402.001 206.16C400.375 208.32 398.148 209.4 395.321 209.4ZM413.303 192.28C412.743 192.28 412.263 192.08 411.863 191.68C411.463 191.28 411.263 190.8 411.263 190.24C411.263 189.68 411.463 189.2 411.863 188.8C412.263 188.4 412.743 188.2 413.303 188.2H427.783C428.343 188.2 428.823 188.4 429.223 188.8C429.623 189.2 429.823 189.68 429.823 190.24C429.823 190.8 429.623 191.28 429.223 191.68C428.823 192.08 428.343 192.28 427.783 192.28H423.663C423.423 192.28 423.303 192.387 423.303 192.6V206.72C423.303 207.333 423.076 207.867 422.623 208.32C422.17 208.773 421.636 209 421.023 209H420.063C419.45 209 418.916 208.773 418.463 208.32C418.01 207.867 417.783 207.333 417.783 206.72V192.6C417.783 192.387 417.663 192.28 417.423 192.28H413.303ZM439.343 198.2V204.92C439.343 205.133 439.463 205.267 439.703 205.32C440.423 205.453 441.063 205.52 441.623 205.52C443.329 205.52 444.569 205.187 445.343 204.52C446.143 203.827 446.543 202.76 446.543 201.32C446.543 200.147 446.116 199.24 445.263 198.6C444.436 197.933 443.196 197.6 441.543 197.6C440.956 197.6 440.329 197.667 439.663 197.8C439.449 197.853 439.343 197.987 439.343 198.2ZM436.383 209.12C435.743 209.04 435.209 208.747 434.783 208.24C434.356 207.733 434.143 207.16 434.143 206.52V190.48C434.143 189.867 434.369 189.333 434.823 188.88C435.276 188.427 435.809 188.2 436.423 188.2H437.103C437.716 188.2 438.236 188.427 438.663 188.88C439.116 189.333 439.343 189.867 439.343 190.48V193.64C439.343 193.72 439.383 193.8 439.463 193.88C439.543 193.96 439.623 193.987 439.703 193.96C440.769 193.8 441.649 193.72 442.343 193.72C445.303 193.72 447.569 194.4 449.143 195.76C450.743 197.12 451.543 198.973 451.543 201.32C451.543 204.04 450.703 206.067 449.023 207.4C447.343 208.733 444.716 209.4 441.143 209.4C439.383 209.4 437.796 209.307 436.383 209.12ZM79 252.36C78.2267 251.24 77.0533 250.68 75.48 250.68C73.9067 250.68 72.72 251.24 71.92 252.36C71.1467 253.453 70.76 255.2 70.76 257.6C70.76 260 71.1467 261.76 71.92 262.88C72.72 263.973 73.9067 264.52 75.48 264.52C77.0533 264.52 78.2267 263.973 79 262.88C79.8 261.76 80.2 260 80.2 257.6C80.2 255.2 79.8 253.453 79 252.36ZM82.92 265.6C81.16 267.467 78.68 268.4 75.48 268.4C72.28 268.4 69.7867 267.467 68 265.6C66.24 263.707 65.36 261.04 65.36 257.6C65.36 254.16 66.24 251.507 68 249.64C69.7867 247.747 72.28 246.8 75.48 246.8C78.68 246.8 81.16 247.747 82.92 249.64C84.7067 251.507 85.6 254.16 85.6 257.6C85.6 261.04 84.7067 263.707 82.92 265.6ZM92.0088 268C91.3954 268 90.8621 267.773 90.4088 267.32C89.9554 266.867 89.7288 266.333 89.7288 265.72V249.48C89.7288 248.867 89.9554 248.333 90.4088 247.88C90.8621 247.427 91.3954 247.2 92.0088 247.2H105.529C106.142 247.2 106.675 247.427 107.129 247.88C107.582 248.333 107.809 248.867 107.809 249.48V265.72C107.809 266.333 107.582 266.867 107.129 267.32C106.675 267.773 106.142 268 105.529 268H104.809C104.195 268 103.662 267.773 103.209 267.32C102.755 266.867 102.529 266.333 102.529 265.72V251.56C102.529 251.32 102.422 251.2 102.209 251.2H95.3288C95.1154 251.2 95.0088 251.32 95.0088 251.56V265.72C95.0088 266.333 94.7821 266.867 94.3288 267.32C93.8754 267.773 93.3421 268 92.7288 268H92.0088ZM118.603 254.88V260.32C118.603 261.387 119.056 262.333 119.963 263.16C120.896 263.987 121.976 264.4 123.203 264.4C124.616 264.4 125.736 263.827 126.563 262.68C127.389 261.533 127.803 259.84 127.803 257.6C127.803 253.067 126.269 250.8 123.203 250.8C121.976 250.8 120.896 251.213 119.963 252.04C119.056 252.867 118.603 253.813 118.603 254.88ZM115.603 276.8C114.989 276.8 114.456 276.573 114.003 276.12C113.549 275.667 113.323 275.133 113.323 274.52V249.48C113.323 248.867 113.549 248.333 114.003 247.88C114.456 247.427 114.989 247.2 115.603 247.2H116.083C116.723 247.2 117.269 247.427 117.723 247.88C118.176 248.307 118.416 248.84 118.443 249.48V249.76C118.443 249.787 118.456 249.8 118.483 249.8C118.509 249.8 118.536 249.787 118.563 249.76C119.523 248.693 120.483 247.933 121.443 247.48C122.403 247.027 123.523 246.8 124.803 246.8C127.309 246.8 129.309 247.747 130.803 249.64C132.296 251.507 133.043 254.16 133.043 257.6C133.043 260.933 132.256 263.573 130.683 265.52C129.136 267.44 127.176 268.4 124.803 268.4C122.483 268.4 120.469 267.56 118.763 265.88C118.736 265.853 118.709 265.84 118.683 265.84C118.656 265.84 118.643 265.853 118.643 265.88V274.52C118.643 275.133 118.416 275.667 117.963 276.12C117.536 276.573 117.016 276.8 116.403 276.8H115.603ZM145.826 250.52C144.466 250.52 143.413 250.907 142.666 251.68C141.946 252.427 141.493 253.64 141.306 255.32C141.306 255.533 141.413 255.64 141.626 255.64H149.466C149.679 255.64 149.786 255.533 149.786 255.32C149.679 252.12 148.359 250.52 145.826 250.52ZM146.826 268.4C143.333 268.4 140.639 267.493 138.746 265.68C136.879 263.84 135.946 261.147 135.946 257.6C135.946 254.08 136.786 251.4 138.466 249.56C140.146 247.72 142.573 246.8 145.746 246.8C151.666 246.8 154.706 250.16 154.866 256.88C154.893 257.52 154.666 258.053 154.186 258.48C153.706 258.907 153.146 259.12 152.506 259.12H141.586C141.346 259.12 141.253 259.24 141.306 259.48C141.493 261.267 142.079 262.573 143.066 263.4C144.079 264.2 145.546 264.6 147.466 264.6C148.666 264.6 149.999 264.4 151.466 264C151.946 263.867 152.386 263.947 152.786 264.24C153.213 264.533 153.426 264.933 153.426 265.44C153.426 266.053 153.239 266.6 152.866 267.08C152.519 267.533 152.053 267.813 151.466 267.92C149.973 268.24 148.426 268.4 146.826 268.4ZM165.502 263.84C165.449 263.893 165.435 263.96 165.462 264.04C165.515 264.093 165.582 264.12 165.662 264.12H173.022C173.262 264.12 173.382 264.013 173.382 263.8V251.4C173.382 251.187 173.262 251.08 173.022 251.08H167.902C167.689 251.08 167.582 251.187 167.582 251.4C167.582 254.653 167.542 256.907 167.462 258.16C167.382 259.387 167.209 260.387 166.942 261.16C166.702 261.907 166.222 262.8 165.502 263.84ZM160.022 272.8C159.409 272.8 158.875 272.573 158.422 272.12C157.995 271.667 157.782 271.133 157.782 270.52V265.64C157.782 265.213 157.915 264.853 158.182 264.56C158.475 264.267 158.835 264.12 159.262 264.12C159.422 264.12 159.542 264.067 159.622 263.96C160.609 262.733 161.275 261.733 161.622 260.96C161.969 260.187 162.195 259.16 162.302 257.88C162.435 256.573 162.502 254.307 162.502 251.08V249.48C162.502 248.867 162.729 248.333 163.182 247.88C163.635 247.427 164.169 247.2 164.782 247.2H176.222C176.835 247.2 177.369 247.427 177.822 247.88C178.275 248.333 178.502 248.867 178.502 249.48V263.8C178.502 264.013 178.622 264.12 178.862 264.12H178.982C179.595 264.12 180.115 264.347 180.542 264.8C180.995 265.253 181.222 265.787 181.222 266.4V270.52C181.222 271.133 180.995 271.667 180.542 272.12C180.115 272.573 179.595 272.8 178.982 272.8H178.382C177.769 272.8 177.235 272.573 176.782 272.12C176.329 271.667 176.102 271.133 176.102 270.52V268.36C176.102 268.12 175.982 268 175.742 268H163.262C163.022 268 162.902 268.12 162.902 268.36V270.52C162.902 271.133 162.675 271.667 162.222 272.12C161.769 272.573 161.235 272.8 160.622 272.8H160.022ZM193.834 250.52C192.474 250.52 191.42 250.907 190.674 251.68C189.954 252.427 189.5 253.64 189.314 255.32C189.314 255.533 189.42 255.64 189.634 255.64H197.474C197.687 255.64 197.794 255.533 197.794 255.32C197.687 252.12 196.367 250.52 193.834 250.52ZM194.834 268.4C191.34 268.4 188.647 267.493 186.754 265.68C184.887 263.84 183.954 261.147 183.954 257.6C183.954 254.08 184.794 251.4 186.474 249.56C188.154 247.72 190.58 246.8 193.754 246.8C199.674 246.8 202.714 250.16 202.874 256.88C202.9 257.52 202.674 258.053 202.194 258.48C201.714 258.907 201.154 259.12 200.514 259.12H189.594C189.354 259.12 189.26 259.24 189.314 259.48C189.5 261.267 190.087 262.573 191.074 263.4C192.087 264.2 193.554 264.6 195.474 264.6C196.674 264.6 198.007 264.4 199.474 264C199.954 263.867 200.394 263.947 200.794 264.24C201.22 264.533 201.434 264.933 201.434 265.44C201.434 266.053 201.247 266.6 200.874 267.08C200.527 267.533 200.06 267.813 199.474 267.92C197.98 268.24 196.434 268.4 194.834 268.4ZM207.15 268.24C206.616 268.293 206.15 268.133 205.75 267.76C205.376 267.387 205.19 266.933 205.19 266.4C205.19 265.867 205.376 265.387 205.75 264.96C206.15 264.533 206.63 264.253 207.19 264.12C208.336 263.827 209.11 263.187 209.51 262.2C209.91 261.213 210.11 259.52 210.11 257.12V249.48C210.11 248.867 210.336 248.333 210.79 247.88C211.243 247.427 211.776 247.2 212.39 247.2H224.79C225.403 247.2 225.936 247.427 226.39 247.88C226.843 248.333 227.07 248.867 227.07 249.48V265.72C227.07 266.333 226.843 266.867 226.39 267.32C225.936 267.773 225.403 268 224.79 268H224.07C223.456 268 222.923 267.773 222.47 267.32C222.016 266.867 221.79 266.333 221.79 265.72V251.56C221.79 251.32 221.67 251.2 221.43 251.2H215.59C215.376 251.2 215.27 251.32 215.27 251.56V257.88C215.27 261.4 214.683 263.92 213.51 265.44C212.363 266.933 210.243 267.867 207.15 268.24ZM241.06 250.52C239.7 250.52 238.647 250.907 237.9 251.68C237.18 252.427 236.727 253.64 236.54 255.32C236.54 255.533 236.647 255.64 236.86 255.64H244.7C244.914 255.64 245.02 255.533 245.02 255.32C244.914 252.12 243.594 250.52 241.06 250.52ZM242.06 268.4C238.567 268.4 235.874 267.493 233.98 265.68C232.114 263.84 231.18 261.147 231.18 257.6C231.18 254.08 232.02 251.4 233.7 249.56C235.38 247.72 237.807 246.8 240.98 246.8C246.9 246.8 249.94 250.16 250.1 256.88C250.127 257.52 249.9 258.053 249.42 258.48C248.94 258.907 248.38 259.12 247.74 259.12H236.82C236.58 259.12 236.487 259.24 236.54 259.48C236.727 261.267 237.314 262.573 238.3 263.4C239.314 264.2 240.78 264.6 242.7 264.6C243.9 264.6 245.234 264.4 246.7 264C247.18 263.867 247.62 263.947 248.02 264.24C248.447 264.533 248.66 264.933 248.66 265.44C248.66 266.053 248.474 266.6 248.1 267.08C247.754 267.533 247.287 267.813 246.7 267.92C245.207 268.24 243.66 268.4 242.06 268.4ZM256.656 268C256.043 268 255.51 267.773 255.056 267.32C254.63 266.867 254.416 266.333 254.416 265.72V249.48C254.416 248.867 254.63 248.333 255.056 247.88C255.51 247.427 256.043 247.2 256.656 247.2H257.536C258.15 247.2 258.683 247.427 259.136 247.88C259.59 248.333 259.816 248.867 259.816 249.48V254.84C259.816 255.08 259.936 255.2 260.176 255.2H266.896C267.136 255.2 267.256 255.08 267.256 254.84V249.48C267.256 248.867 267.483 248.333 267.936 247.88C268.39 247.427 268.923 247.2 269.536 247.2H270.416C271.03 247.2 271.55 247.427 271.976 247.88C272.43 248.333 272.656 248.867 272.656 249.48V265.72C272.656 266.333 272.43 266.867 271.976 267.32C271.55 267.773 271.03 268 270.416 268H269.536C268.923 268 268.39 267.773 267.936 267.32C267.483 266.867 267.256 266.333 267.256 265.72V259.32C267.256 259.08 267.136 258.96 266.896 258.96H260.176C259.936 258.96 259.816 259.08 259.816 259.32V265.72C259.816 266.333 259.59 266.867 259.136 267.32C258.683 267.773 258.15 268 257.536 268H256.656ZM280.406 268C279.793 268 279.26 267.773 278.806 267.32C278.38 266.867 278.166 266.333 278.166 265.72V249.48C278.166 248.867 278.38 248.333 278.806 247.88C279.26 247.427 279.793 247.2 280.406 247.2H281.286C281.9 247.2 282.433 247.427 282.886 247.88C283.34 248.333 283.566 248.867 283.566 249.48V254.84C283.566 255.08 283.686 255.2 283.926 255.2H290.646C290.886 255.2 291.006 255.08 291.006 254.84V249.48C291.006 248.867 291.233 248.333 291.686 247.88C292.14 247.427 292.673 247.2 293.286 247.2H294.166C294.78 247.2 295.3 247.427 295.726 247.88C296.18 248.333 296.406 248.867 296.406 249.48V265.72C296.406 266.333 296.18 266.867 295.726 267.32C295.3 267.773 294.78 268 294.166 268H293.286C292.673 268 292.14 267.773 291.686 267.32C291.233 266.867 291.006 266.333 291.006 265.72V259.32C291.006 259.08 290.886 258.96 290.646 258.96H283.926C283.686 258.96 283.566 259.08 283.566 259.32V265.72C283.566 266.333 283.34 266.867 282.886 267.32C282.433 267.773 281.9 268 281.286 268H280.406ZM308.116 267.68L300.916 249.32C300.703 248.813 300.743 248.333 301.036 247.88C301.356 247.427 301.796 247.2 302.356 247.2H303.636C304.303 247.2 304.903 247.4 305.436 247.8C305.97 248.2 306.343 248.72 306.556 249.36L310.716 262.48C310.716 262.507 310.73 262.52 310.756 262.52C310.783 262.52 310.796 262.507 310.796 262.48L314.956 249.36C315.143 248.72 315.503 248.2 316.036 247.8C316.57 247.4 317.183 247.2 317.876 247.2H318.916C319.45 247.2 319.876 247.427 320.196 247.88C320.516 248.333 320.583 248.813 320.396 249.32L313.356 268.12C312.183 271.24 310.836 273.467 309.316 274.8C307.823 276.133 305.756 276.907 303.116 277.12C302.556 277.147 302.063 276.96 301.636 276.56C301.236 276.187 301.036 275.72 301.036 275.16C301.036 274.6 301.236 274.107 301.636 273.68C302.036 273.28 302.53 273.053 303.116 273C304.423 272.84 305.436 272.413 306.156 271.72C306.876 271.053 307.53 269.92 308.116 268.32C308.143 268.213 308.156 268.107 308.156 268C308.156 267.893 308.143 267.787 308.116 267.68ZM346.464 257.6C346.464 252.987 344.97 250.68 341.984 250.68C338.997 250.68 337.504 252.987 337.504 257.6C337.504 262.213 338.997 264.52 341.984 264.52C344.97 264.52 346.464 262.213 346.464 257.6ZM326.384 268C325.77 268 325.237 267.773 324.784 267.32C324.33 266.867 324.104 266.333 324.104 265.72V249.48C324.104 248.867 324.33 248.333 324.784 247.88C325.237 247.427 325.77 247.2 326.384 247.2H326.984C327.597 247.2 328.117 247.427 328.544 247.88C328.997 248.333 329.224 248.867 329.224 249.48V255.32C329.224 255.56 329.344 255.68 329.584 255.68H332.144C332.33 255.68 332.45 255.56 332.504 255.32C332.85 252.6 333.85 250.507 335.504 249.04C337.184 247.547 339.344 246.8 341.984 246.8C344.997 246.8 347.344 247.76 349.024 249.68C350.73 251.573 351.584 254.213 351.584 257.6C351.584 260.987 350.73 263.64 349.024 265.56C347.344 267.453 344.997 268.4 341.984 268.4C339.344 268.4 337.184 267.653 335.504 266.16C333.85 264.667 332.85 262.56 332.504 259.84C332.45 259.627 332.33 259.52 332.144 259.52H329.584C329.344 259.52 329.224 259.64 329.224 259.88V265.72C329.224 266.333 328.997 266.867 328.544 267.32C328.117 267.773 327.597 268 326.984 268H326.384ZM369.548 268C368.934 268 368.401 267.773 367.948 267.32C367.494 266.867 367.268 266.333 367.268 265.72V249.48C367.268 248.867 367.494 248.333 367.948 247.88C368.401 247.427 368.934 247.2 369.548 247.2H370.348C370.961 247.2 371.494 247.427 371.948 247.88C372.401 248.333 372.628 248.867 372.628 249.48V255.68C372.628 255.707 372.641 255.72 372.668 255.72H372.708L378.788 248.88C379.774 247.76 381.028 247.2 382.548 247.2H384.228C384.654 247.2 384.948 247.4 385.108 247.8C385.294 248.2 385.241 248.56 384.948 248.88L377.628 256.96C377.494 257.12 377.494 257.293 377.628 257.48L385.028 266.28C385.321 266.627 385.361 267 385.148 267.4C384.961 267.8 384.654 268 384.228 268H382.548C381.028 268 379.788 267.413 378.828 266.24L372.708 258.84C372.708 258.813 372.694 258.8 372.668 258.8C372.641 258.8 372.628 258.813 372.628 258.84V265.72C372.628 266.333 372.401 266.867 371.948 267.32C371.494 267.773 370.961 268 370.348 268H369.548ZM391.812 268C391.199 268 390.666 267.773 390.213 267.32C389.786 266.867 389.573 266.333 389.573 265.72V249.48C389.573 248.867 389.786 248.333 390.213 247.88C390.666 247.427 391.199 247.2 391.812 247.2H392.692C393.306 247.2 393.839 247.427 394.293 247.88C394.746 248.333 394.973 248.867 394.973 249.48V254.84C394.973 255.08 395.093 255.2 395.333 255.2H402.053C402.293 255.2 402.413 255.08 402.413 254.84V249.48C402.413 248.867 402.639 248.333 403.093 247.88C403.546 247.427 404.079 247.2 404.693 247.2H405.573C406.186 247.2 406.706 247.427 407.133 247.88C407.586 248.333 407.813 248.867 407.813 249.48V265.72C407.813 266.333 407.586 266.867 407.133 267.32C406.706 267.773 406.186 268 405.573 268H404.693C404.079 268 403.546 267.773 403.093 267.32C402.639 266.867 402.413 266.333 402.413 265.72V259.32C402.413 259.08 402.293 258.96 402.053 258.96H395.333C395.093 258.96 394.973 259.08 394.973 259.32V265.72C394.973 266.333 394.746 266.867 394.293 267.32C393.839 267.773 393.306 268 392.692 268H391.812ZM415.603 268C414.989 268 414.456 267.773 414.003 267.32C413.549 266.867 413.323 266.333 413.323 265.72V249.48C413.323 248.867 413.549 248.333 414.003 247.88C414.456 247.427 414.989 247.2 415.603 247.2H416.363C416.976 247.2 417.509 247.427 417.963 247.88C418.416 248.333 418.643 248.867 418.643 249.48V260.72L418.683 260.76L418.723 260.72L425.163 249.16C425.909 247.853 427.043 247.2 428.563 247.2H429.443C430.056 247.2 430.589 247.427 431.043 247.88C431.496 248.333 431.723 248.867 431.723 249.48V265.72C431.723 266.333 431.496 266.867 431.043 267.32C430.589 267.773 430.056 268 429.443 268H428.683C428.069 268 427.536 267.773 427.083 267.32C426.629 266.867 426.403 266.333 426.403 265.72V254.48L426.363 254.44L426.323 254.48L419.883 266.04C419.136 267.347 418.003 268 416.483 268H415.603ZM439.469 268C438.855 268 438.322 267.773 437.869 267.32C437.442 266.867 437.229 266.333 437.229 265.72V249.48C437.229 248.867 437.442 248.333 437.869 247.88C438.322 247.427 438.855 247.2 439.469 247.2H451.589C452.149 247.2 452.629 247.4 453.029 247.8C453.429 248.2 453.629 248.68 453.629 249.24C453.629 249.8 453.429 250.28 453.029 250.68C452.629 251.08 452.149 251.28 451.589 251.28H443.029C442.789 251.28 442.669 251.387 442.669 251.6V265.72C442.669 266.333 442.442 266.867 441.989 267.32C441.562 267.773 441.042 268 440.429 268H439.469ZM463.937 267.68L456.737 249.32C456.523 248.813 456.563 248.333 456.857 247.88C457.177 247.427 457.617 247.2 458.177 247.2H459.457C460.123 247.2 460.723 247.4 461.257 247.8C461.79 248.2 462.163 248.72 462.377 249.36L466.537 262.48C466.537 262.507 466.55 262.52 466.577 262.52C466.603 262.52 466.617 262.507 466.617 262.48L470.777 249.36C470.963 248.72 471.323 248.2 471.857 247.8C472.39 247.4 473.003 247.2 473.697 247.2H474.737C475.27 247.2 475.697 247.427 476.017 247.88C476.337 248.333 476.403 248.813 476.217 249.32L469.177 268.12C468.003 271.24 466.657 273.467 465.137 274.8C463.643 276.133 461.577 276.907 458.937 277.12C458.377 277.147 457.883 276.96 457.457 276.56C457.057 276.187 456.857 275.72 456.857 275.16C456.857 274.6 457.057 274.107 457.457 273.68C457.857 273.28 458.35 273.053 458.937 273C460.243 272.84 461.257 272.413 461.977 271.72C462.697 271.053 463.35 269.92 463.937 268.32C463.963 268.213 463.977 268.107 463.977 268C463.977 267.893 463.963 267.787 463.937 267.68Z" fill="black"/>
<path d="M591.69 256.141C599.715 266.343 612.323 272.917 626.5 272.917C640.677 272.917 653.285 266.343 661.31 256.141C638.202 259.272 614.798 259.272 591.69 256.141Z" fill="white"/>
<path d="M690.898 148.875V155.593C690.898 163.656 693.199 171.538 697.511 178.247L708.078 194.686C717.73 209.702 710.361 230.112 693.574 234.86C649.66 247.282 603.34 247.282 559.426 234.86C542.639 230.112 535.27 209.702 544.922 194.686L555.489 178.247C559.801 171.538 562.102 163.656 562.102 155.593V148.875C562.102 111.987 590.934 82.0833 626.5 82.0833C662.066 82.0833 690.898 111.987 690.898 148.875Z" fill="white"/>
<path d="M583.114 235.944C589.325 257.67 607.297 273.377 628.5 273.377C649.703 273.377 667.675 257.67 673.886 235.944C643.874 242.34 613.126 242.34 583.114 235.944Z" fill="white"/>
<path d="M599.209 87.4242C607.474 83.3049 616.721 81 626.48 81C661.623 81 690.112 110.886 690.112 147.753V154.468C690.112 162.526 692.386 170.403 696.646 177.108L707.087 193.538C716.624 208.545 709.344 228.943 692.757 233.689C649.365 246.104 603.595 246.104 560.204 233.689C543.616 228.943 536.336 208.545 545.873 193.538L556.314 177.108C560.575 170.403 562.848 162.526 562.848 154.468V147.753C562.848 137.515 565.045 127.815 568.972 119.144" stroke="black" stroke-width="4" stroke-linecap="round"/>
<path d="M583.067 243C589.386 259.895 606.437 272 626.48 272C628.839 272 631.156 271.832 633.419 271.509M671 241C668.424 247.888 662.957 255.98 657.337 260.78" stroke="black" stroke-width="4" stroke-linecap="round"/>
</svg>
