<svg width="750" height="330" viewBox="0 0 750 330" fill="none" xmlns="http://www.w3.org/2000/svg">
<rect width="750" height="330" rx="19" fill="#B8BEF6"/>
<path d="M41.96 117.16C41.9067 117.213 41.8933 117.28 41.92 117.36C41.9733 117.44 42.04 117.48 42.12 117.48H51.56C51.8 117.48 51.92 117.36 51.92 117.12V97.68C51.92 97.44 51.8 97.32 51.56 97.32H45.32C45.08 97.32 44.96 97.4267 44.96 97.64C44.96 103.96 44.7867 108.187 44.44 110.32C44.12 112.453 43.2933 114.733 41.96 117.16ZM35.84 128.4C35.2267 128.4 34.6933 128.173 34.24 127.72C33.7867 127.267 33.56 126.733 33.56 126.12V119.32C33.56 118.813 33.7333 118.387 34.08 118.04C34.4533 117.667 34.9067 117.48 35.44 117.48C35.6267 117.48 35.76 117.4 35.84 117.24C36.96 115.587 37.76 114.08 38.24 112.72C38.72 111.36 39.0533 109.573 39.24 107.36C39.4533 105.12 39.56 101.773 39.56 97.32V95.08C39.56 94.4667 39.7867 93.9333 40.24 93.48C40.6933 93.0267 41.2267 92.8 41.84 92.8H55.16C55.7733 92.8 56.3067 93.0267 56.76 93.48C57.2133 93.9333 57.44 94.4667 57.44 95.08V117.12C57.44 117.36 57.56 117.48 57.8 117.48H58.64C59.2533 117.48 59.7867 117.707 60.24 118.16C60.6933 118.587 60.92 119.107 60.92 119.72V126.12C60.92 126.733 60.6933 127.267 60.24 127.72C59.7867 128.173 59.2533 128.4 58.64 128.4H58.04C57.4267 128.4 56.8933 128.173 56.44 127.72C55.9867 127.267 55.76 126.733 55.76 126.12V122.36C55.76 122.12 55.6533 122 55.44 122H39.04C38.8267 122 38.72 122.12 38.72 122.36V126.12C38.72 126.733 38.4933 127.267 38.04 127.72C37.5867 128.173 37.0533 128.4 36.44 128.4H35.84ZM73.7088 104.52C72.3488 104.52 71.2954 104.907 70.5488 105.68C69.8288 106.427 69.3754 107.64 69.1888 109.32C69.1888 109.533 69.2954 109.64 69.5088 109.64H77.3488C77.5621 109.64 77.6688 109.533 77.6688 109.32C77.5621 106.12 76.2421 104.52 73.7088 104.52ZM74.7088 122.4C71.2154 122.4 68.5221 121.493 66.6288 119.68C64.7621 117.84 63.8288 115.147 63.8288 111.6C63.8288 108.08 64.6688 105.4 66.3488 103.56C68.0288 101.72 70.4554 100.8 73.6288 100.8C79.5488 100.8 82.5888 104.16 82.7488 110.88C82.7754 111.52 82.5488 112.053 82.0688 112.48C81.5888 112.907 81.0288 113.12 80.3888 113.12H69.4688C69.2288 113.12 69.1354 113.24 69.1888 113.48C69.3754 115.267 69.9621 116.573 70.9488 117.4C71.9621 118.2 73.4288 118.6 75.3488 118.6C76.5488 118.6 77.8821 118.4 79.3488 118C79.8288 117.867 80.2688 117.947 80.6688 118.24C81.0954 118.533 81.3088 118.933 81.3088 119.44C81.3088 120.053 81.1221 120.6 80.7488 121.08C80.4021 121.533 79.9354 121.813 79.3488 121.92C77.8554 122.24 76.3088 122.4 74.7088 122.4ZM87.0247 122.24C86.4914 122.293 86.0247 122.133 85.6247 121.76C85.2514 121.387 85.0647 120.933 85.0647 120.4C85.0647 119.867 85.2514 119.387 85.6247 118.96C86.0247 118.533 86.5047 118.253 87.0647 118.12C88.2114 117.827 88.9847 117.187 89.3847 116.2C89.7847 115.213 89.9847 113.52 89.9847 111.12V103.48C89.9847 102.867 90.2114 102.333 90.6647 101.88C91.118 101.427 91.6514 101.2 92.2647 101.2H104.665C105.278 101.2 105.811 101.427 106.265 101.88C106.718 102.333 106.945 102.867 106.945 103.48V119.72C106.945 120.333 106.718 120.867 106.265 121.32C105.811 121.773 105.278 122 104.665 122H103.945C103.331 122 102.798 121.773 102.345 121.32C101.891 120.867 101.665 120.333 101.665 119.72V105.56C101.665 105.32 101.545 105.2 101.305 105.2H95.4647C95.2514 105.2 95.1447 105.32 95.1447 105.56V111.88C95.1447 115.4 94.558 117.92 93.3847 119.44C92.238 120.933 90.118 121.867 87.0247 122.24ZM114.735 122C114.122 122 113.589 121.773 113.135 121.32C112.682 120.867 112.455 120.333 112.455 119.72V103.48C112.455 102.867 112.682 102.333 113.135 101.88C113.589 101.427 114.122 101.2 114.735 101.2H115.495C116.109 101.2 116.642 101.427 117.095 101.88C117.549 102.333 117.775 102.867 117.775 103.48V114.72L117.815 114.76L117.855 114.72L124.295 103.16C125.042 101.853 126.175 101.2 127.695 101.2H128.575C129.189 101.2 129.722 101.427 130.175 101.88C130.629 102.333 130.855 102.867 130.855 103.48V119.72C130.855 120.333 130.629 120.867 130.175 121.32C129.722 121.773 129.189 122 128.575 122H127.815C127.202 122 126.669 121.773 126.215 121.32C125.762 120.867 125.535 120.333 125.535 119.72V108.48L125.495 108.44L125.455 108.48L119.015 120.04C118.269 121.347 117.135 122 115.615 122H114.735ZM137.202 105.28C136.642 105.28 136.162 105.08 135.762 104.68C135.362 104.28 135.162 103.8 135.162 103.24C135.162 102.68 135.362 102.2 135.762 101.8C136.162 101.4 136.642 101.2 137.202 101.2H151.682C152.242 101.2 152.722 101.4 153.122 101.8C153.522 102.2 153.722 102.68 153.722 103.24C153.722 103.8 153.522 104.28 153.122 104.68C152.722 105.08 152.242 105.28 151.682 105.28H147.562C147.322 105.28 147.202 105.387 147.202 105.6V119.72C147.202 120.333 146.975 120.867 146.522 121.32C146.068 121.773 145.535 122 144.922 122H143.962C143.348 122 142.815 121.773 142.362 121.32C141.908 120.867 141.682 120.333 141.682 119.72V105.6C141.682 105.387 141.562 105.28 141.322 105.28H137.202ZM163.241 111.2V117.92C163.241 118.133 163.361 118.267 163.601 118.32C164.321 118.453 164.961 118.52 165.521 118.52C167.228 118.52 168.468 118.187 169.241 117.52C170.041 116.827 170.441 115.76 170.441 114.32C170.441 113.147 170.015 112.24 169.161 111.6C168.335 110.933 167.095 110.6 165.441 110.6C164.855 110.6 164.228 110.667 163.561 110.8C163.348 110.853 163.241 110.987 163.241 111.2ZM160.281 122.12C159.641 122.04 159.108 121.747 158.681 121.24C158.255 120.733 158.041 120.16 158.041 119.52V103.48C158.041 102.867 158.268 102.333 158.721 101.88C159.175 101.427 159.708 101.2 160.321 101.2H161.001C161.615 101.2 162.135 101.427 162.561 101.88C163.015 102.333 163.241 102.867 163.241 103.48V106.64C163.241 106.72 163.281 106.8 163.361 106.88C163.441 106.96 163.521 106.987 163.601 106.96C164.668 106.8 165.548 106.72 166.241 106.72C169.201 106.72 171.468 107.4 173.041 108.76C174.641 110.12 175.441 111.973 175.441 114.32C175.441 117.04 174.601 119.067 172.921 120.4C171.241 121.733 168.615 122.4 165.041 122.4C163.281 122.4 161.695 122.307 160.281 122.12ZM188.485 122.4C185.178 122.4 182.631 121.493 180.845 119.68C179.058 117.84 178.165 115.147 178.165 111.6C178.165 108.107 179.018 105.44 180.725 103.6C182.458 101.733 184.911 100.8 188.085 100.8C189.498 100.8 190.858 100.893 192.165 101.08C192.778 101.16 193.285 101.44 193.685 101.92C194.085 102.4 194.285 102.96 194.285 103.6C194.285 104.133 194.071 104.56 193.645 104.88C193.245 105.2 192.778 105.307 192.245 105.2C191.205 104.987 190.045 104.88 188.765 104.88C187.085 104.88 185.831 105.413 185.005 106.48C184.178 107.547 183.765 109.253 183.765 111.6C183.765 114 184.205 115.72 185.085 116.76C185.965 117.8 187.325 118.32 189.165 118.32C190.471 118.32 191.605 118.2 192.565 117.96C193.071 117.827 193.525 117.92 193.925 118.24C194.351 118.56 194.565 118.973 194.565 119.48C194.565 120.12 194.365 120.68 193.965 121.16C193.591 121.64 193.098 121.933 192.485 122.04C191.125 122.28 189.791 122.4 188.485 122.4ZM208.517 104.72C205.264 104.72 203.637 105.667 203.637 107.56C203.637 109.507 205.331 110.48 208.717 110.48H210.277C210.491 110.48 210.597 110.36 210.597 110.12V105.16C210.597 104.92 210.491 104.8 210.277 104.8C209.477 104.747 208.891 104.72 208.517 104.72ZM203.557 112.44C202.091 112.04 200.891 111.373 199.957 110.44C199.024 109.48 198.557 108.347 198.557 107.04C198.557 102.96 201.797 100.92 208.277 100.92C209.931 100.92 211.717 100.987 213.637 101.12C214.277 101.147 214.811 101.413 215.237 101.92C215.691 102.4 215.917 102.96 215.917 103.6V119.72C215.917 120.333 215.691 120.867 215.237 121.32C214.784 121.773 214.251 122 213.637 122H212.877C212.264 122 211.731 121.773 211.277 121.32C210.824 120.867 210.597 120.333 210.597 119.72V114.48C210.597 114.267 210.491 114.16 210.277 114.16H208.957C207.917 114.16 207.197 114.293 206.797 114.56C206.397 114.8 205.957 115.44 205.477 116.48L203.997 119.92C203.704 120.533 203.264 121.04 202.677 121.44C202.117 121.813 201.504 122 200.837 122H200.117C199.584 122 199.171 121.773 198.877 121.32C198.611 120.867 198.584 120.4 198.797 119.92L200.517 116.2C201.397 114.307 202.424 113.093 203.597 112.56C203.624 112.56 203.637 112.547 203.637 112.52C203.637 112.467 203.611 112.44 203.557 112.44ZM241.649 122.4C238.342 122.4 235.795 121.493 234.009 119.68C232.222 117.84 231.329 115.147 231.329 111.6C231.329 108.107 232.182 105.44 233.889 103.6C235.622 101.733 238.075 100.8 241.249 100.8C242.662 100.8 244.022 100.893 245.329 101.08C245.942 101.16 246.449 101.44 246.849 101.92C247.249 102.4 247.449 102.96 247.449 103.6C247.449 104.133 247.235 104.56 246.809 104.88C246.409 105.2 245.942 105.307 245.409 105.2C244.369 104.987 243.209 104.88 241.929 104.88C240.249 104.88 238.995 105.413 238.169 106.48C237.342 107.547 236.929 109.253 236.929 111.6C236.929 114 237.369 115.72 238.249 116.76C239.129 117.8 240.489 118.32 242.329 118.32C243.635 118.32 244.769 118.2 245.729 117.96C246.235 117.827 246.689 117.92 247.089 118.24C247.515 118.56 247.729 118.973 247.729 119.48C247.729 120.12 247.529 120.68 247.129 121.16C246.755 121.64 246.262 121.933 245.649 122.04C244.289 122.28 242.955 122.4 241.649 122.4ZM258.321 113.04V118.36C258.321 118.573 258.441 118.707 258.681 118.76C259.001 118.813 259.508 118.84 260.201 118.84C263.375 118.84 264.961 117.773 264.961 115.64C264.961 113.693 263.335 112.72 260.081 112.72H258.681C258.441 112.72 258.321 112.827 258.321 113.04ZM258.321 104.84V109.12C258.321 109.333 258.441 109.44 258.681 109.44H259.961C261.268 109.44 262.295 109.2 263.041 108.72C263.815 108.24 264.201 107.587 264.201 106.76C264.201 105.16 262.828 104.36 260.081 104.36C259.761 104.36 259.281 104.387 258.641 104.44C258.428 104.493 258.321 104.627 258.321 104.84ZM255.281 122.08C254.641 122.027 254.108 121.76 253.681 121.28C253.255 120.773 253.041 120.2 253.041 119.56V103.64C253.041 102.973 253.255 102.4 253.681 101.92C254.108 101.44 254.655 101.173 255.321 101.12C256.868 100.987 258.308 100.92 259.641 100.92C265.988 100.92 269.161 102.653 269.161 106.12C269.161 107.32 268.721 108.347 267.841 109.2C266.988 110.027 265.815 110.573 264.321 110.84L264.281 110.88H264.321C266.108 111.12 267.508 111.707 268.521 112.64C269.535 113.547 270.041 114.667 270.041 116C270.041 120.187 266.681 122.28 259.961 122.28C258.521 122.28 256.961 122.213 255.281 122.08ZM286.609 106.36C285.836 105.24 284.663 104.68 283.089 104.68C281.516 104.68 280.329 105.24 279.529 106.36C278.756 107.453 278.369 109.2 278.369 111.6C278.369 114 278.756 115.76 279.529 116.88C280.329 117.973 281.516 118.52 283.089 118.52C284.663 118.52 285.836 117.973 286.609 116.88C287.409 115.76 287.809 114 287.809 111.6C287.809 109.2 287.409 107.453 286.609 106.36ZM290.529 119.6C288.769 121.467 286.289 122.4 283.089 122.4C279.889 122.4 277.396 121.467 275.609 119.6C273.849 117.707 272.969 115.04 272.969 111.6C272.969 108.16 273.849 105.507 275.609 103.64C277.396 101.747 279.889 100.8 283.089 100.8C286.289 100.8 288.769 101.747 290.529 103.64C292.316 105.507 293.209 108.16 293.209 111.6C293.209 115.04 292.316 117.707 290.529 119.6ZM299.618 122C299.005 122 298.471 121.773 298.018 121.32C297.565 120.867 297.338 120.333 297.338 119.72V103.48C297.338 102.867 297.565 102.333 298.018 101.88C298.471 101.427 299.005 101.2 299.618 101.2H300.378C300.991 101.2 301.525 101.427 301.978 101.88C302.431 102.333 302.658 102.867 302.658 103.48V114.72L302.698 114.76L302.738 114.72L309.178 103.16C309.925 101.853 311.058 101.2 312.578 101.2H313.458C314.071 101.2 314.605 101.427 315.058 101.88C315.511 102.333 315.738 102.867 315.738 103.48V119.72C315.738 120.333 315.511 120.867 315.058 121.32C314.605 121.773 314.071 122 313.458 122H312.698C312.085 122 311.551 121.773 311.098 121.32C310.645 120.867 310.418 120.333 310.418 119.72V108.48L310.378 108.44L310.338 108.48L303.898 120.04C303.151 121.347 302.018 122 300.498 122H299.618ZM323.484 122C322.871 122 322.338 121.773 321.884 121.32C321.458 120.867 321.244 120.333 321.244 119.72V103.48C321.244 102.867 321.458 102.333 321.884 101.88C322.338 101.427 322.871 101.2 323.484 101.2H324.604C326.124 101.2 327.218 101.88 327.884 103.24L332.684 113C332.684 113.027 332.698 113.04 332.724 113.04L332.764 113L337.564 103.24C338.231 101.88 339.324 101.2 340.844 101.2H342.044C342.658 101.2 343.178 101.427 343.604 101.88C344.058 102.333 344.284 102.867 344.284 103.48V119.72C344.284 120.333 344.058 120.867 343.604 121.32C343.178 121.773 342.658 122 342.044 122H341.324C340.711 122 340.178 121.773 339.724 121.32C339.271 120.867 339.044 120.333 339.044 119.72V108.28H338.964L335.724 114.92C335.111 116.147 334.111 116.76 332.724 116.76C331.338 116.76 330.338 116.147 329.724 114.92L326.444 108.28H326.404H326.364V119.72C326.364 120.333 326.138 120.867 325.684 121.32C325.258 121.773 324.738 122 324.124 122H323.484ZM352.079 122C351.466 122 350.932 121.773 350.479 121.32C350.026 120.867 349.799 120.333 349.799 119.72V103.48C349.799 102.867 350.026 102.333 350.479 101.88C350.932 101.427 351.466 101.2 352.079 101.2H352.839C353.452 101.2 353.986 101.427 354.439 101.88C354.892 102.333 355.119 102.867 355.119 103.48V114.72L355.159 114.76L355.199 114.72L361.639 103.16C362.386 101.853 363.519 101.2 365.039 101.2H365.919C366.532 101.2 367.066 101.427 367.519 101.88C367.972 102.333 368.199 102.867 368.199 103.48V119.72C368.199 120.333 367.972 120.867 367.519 121.32C367.066 121.773 366.532 122 365.919 122H365.159C364.546 122 364.012 121.773 363.559 121.32C363.106 120.867 362.879 120.333 362.879 119.72V108.48L362.839 108.44L362.799 108.48L356.359 120.04C355.612 121.347 354.479 122 352.959 122H352.079ZM43.68 181.4C40.3733 181.4 37.8267 180.493 36.04 178.68C34.2533 176.84 33.36 174.147 33.36 170.6C33.36 167.107 34.2133 164.44 35.92 162.6C37.6533 160.733 40.1067 159.8 43.28 159.8C44.6933 159.8 46.0533 159.893 47.36 160.08C47.9733 160.16 48.48 160.44 48.88 160.92C49.28 161.4 49.48 161.96 49.48 162.6C49.48 163.133 49.2667 163.56 48.84 163.88C48.44 164.2 47.9733 164.307 47.44 164.2C46.4 163.987 45.24 163.88 43.96 163.88C42.28 163.88 41.0267 164.413 40.2 165.48C39.3733 166.547 38.96 168.253 38.96 170.6C38.96 173 39.4 174.72 40.28 175.76C41.16 176.8 42.52 177.32 44.36 177.32C45.6667 177.32 46.8 177.2 47.76 176.96C48.2667 176.827 48.72 176.92 49.12 177.24C49.5467 177.56 49.76 177.973 49.76 178.48C49.76 179.12 49.56 179.68 49.16 180.16C48.7867 180.64 48.2933 180.933 47.68 181.04C46.32 181.28 44.9867 181.4 43.68 181.4ZM57.3525 181C56.7392 181 56.2058 180.773 55.7525 180.32C55.2992 179.867 55.0725 179.333 55.0725 178.72V162.48C55.0725 161.867 55.2992 161.333 55.7525 160.88C56.2058 160.427 56.7392 160.2 57.3525 160.2H70.8725C71.4858 160.2 72.0192 160.427 72.4725 160.88C72.9258 161.333 73.1525 161.867 73.1525 162.48V178.72C73.1525 179.333 72.9258 179.867 72.4725 180.32C72.0192 180.773 71.4858 181 70.8725 181H70.1525C69.5392 181 69.0058 180.773 68.5525 180.32C68.0992 179.867 67.8725 179.333 67.8725 178.72V164.56C67.8725 164.32 67.7658 164.2 67.5525 164.2H60.6725C60.4592 164.2 60.3525 164.32 60.3525 164.56V178.72C60.3525 179.333 60.1258 179.867 59.6725 180.32C59.2192 180.773 58.6858 181 58.0725 181H57.3525ZM80.9463 181C80.3329 181 79.7996 180.773 79.3463 180.32C78.8929 179.867 78.6663 179.333 78.6663 178.72V162.48C78.6663 161.867 78.8929 161.333 79.3463 160.88C79.7996 160.427 80.3329 160.2 80.9463 160.2H81.7063C82.3196 160.2 82.8529 160.427 83.3063 160.88C83.7596 161.333 83.9863 161.867 83.9863 162.48V173.72L84.0263 173.76L84.0663 173.72L90.5063 162.16C91.2529 160.853 92.3863 160.2 93.9063 160.2H94.7863C95.3996 160.2 95.9329 160.427 96.3863 160.88C96.8396 161.333 97.0663 161.867 97.0663 162.48V178.72C97.0663 179.333 96.8396 179.867 96.3863 180.32C95.9329 180.773 95.3996 181 94.7863 181H94.0263C93.4129 181 92.8796 180.773 92.4263 180.32C91.9729 179.867 91.7463 179.333 91.7463 178.72V167.48L91.7063 167.44L91.6663 167.48L85.2263 179.04C84.4796 180.347 83.3463 181 81.8263 181H80.9463ZM111.493 181.4C108.186 181.4 105.639 180.493 103.853 178.68C102.066 176.84 101.173 174.147 101.173 170.6C101.173 167.107 102.026 164.44 103.733 162.6C105.466 160.733 107.919 159.8 111.093 159.8C112.506 159.8 113.866 159.893 115.173 160.08C115.786 160.16 116.293 160.44 116.693 160.92C117.093 161.4 117.293 161.96 117.293 162.6C117.293 163.133 117.079 163.56 116.653 163.88C116.253 164.2 115.786 164.307 115.253 164.2C114.213 163.987 113.053 163.88 111.773 163.88C110.093 163.88 108.839 164.413 108.013 165.48C107.186 166.547 106.773 168.253 106.773 170.6C106.773 173 107.213 174.72 108.093 175.76C108.973 176.8 110.333 177.32 112.173 177.32C113.479 177.32 114.613 177.2 115.573 176.96C116.079 176.827 116.533 176.92 116.933 177.24C117.359 177.56 117.573 177.973 117.573 178.48C117.573 179.12 117.373 179.68 116.973 180.16C116.599 180.64 116.106 180.933 115.493 181.04C114.133 181.28 112.799 181.4 111.493 181.4ZM125.165 181C124.552 181 124.018 180.773 123.565 180.32C123.112 179.867 122.885 179.333 122.885 178.72V162.48C122.885 161.867 123.112 161.333 123.565 160.88C124.018 160.427 124.552 160.2 125.165 160.2H125.965C126.578 160.2 127.112 160.427 127.565 160.88C128.018 161.333 128.245 161.867 128.245 162.48V168.68C128.245 168.707 128.258 168.72 128.285 168.72H128.325L134.405 161.88C135.392 160.76 136.645 160.2 138.165 160.2H139.845C140.272 160.2 140.565 160.4 140.725 160.8C140.912 161.2 140.858 161.56 140.565 161.88L133.245 169.96C133.112 170.12 133.112 170.293 133.245 170.48L140.645 179.28C140.938 179.627 140.978 180 140.765 180.4C140.578 180.8 140.272 181 139.845 181H138.165C136.645 181 135.405 180.413 134.445 179.24L128.325 171.84C128.325 171.813 128.312 171.8 128.285 171.8C128.258 171.8 128.245 171.813 128.245 171.84V178.72C128.245 179.333 128.018 179.867 127.565 180.32C127.112 180.773 126.578 181 125.965 181H125.165ZM154.99 171C151.176 171 149.27 172.173 149.27 174.52C149.27 175.373 149.51 176.067 149.99 176.6C150.496 177.133 151.136 177.4 151.91 177.4C153.43 177.4 154.656 176.933 155.59 176C156.523 175.04 156.99 173.733 156.99 172.08V171.36C156.99 171.12 156.87 171 156.63 171H154.99ZM150.47 181.4C148.656 181.4 147.15 180.813 145.95 179.64C144.776 178.44 144.19 176.893 144.19 175C144.19 172.68 145.07 170.88 146.83 169.6C148.616 168.32 151.336 167.68 154.99 167.68H156.63C156.87 167.68 156.99 167.56 156.99 167.32V167C156.99 165.773 156.696 164.92 156.11 164.44C155.523 163.933 154.483 163.68 152.99 163.68C151.443 163.68 149.55 163.96 147.31 164.52C146.83 164.653 146.39 164.573 145.99 164.28C145.59 163.96 145.39 163.547 145.39 163.04C145.39 162.427 145.576 161.88 145.95 161.4C146.323 160.893 146.803 160.587 147.39 160.48C149.416 160.027 151.323 159.8 153.11 159.8C156.523 159.8 158.91 160.413 160.27 161.64C161.63 162.867 162.31 165.013 162.31 168.08V178.72C162.31 179.333 162.083 179.867 161.63 180.32C161.203 180.773 160.683 181 160.07 181H159.63C158.99 181 158.443 180.787 157.99 180.36C157.536 179.907 157.296 179.36 157.27 178.72V178.16C157.27 178.133 157.256 178.12 157.23 178.12C157.176 178.12 157.15 178.133 157.15 178.16C155.523 180.32 153.296 181.4 150.47 181.4ZM169.852 181C169.238 181 168.705 180.773 168.252 180.32C167.825 179.867 167.612 179.333 167.612 178.72V162.48C167.612 161.867 167.825 161.333 168.252 160.88C168.705 160.427 169.238 160.2 169.852 160.2H170.972C172.492 160.2 173.585 160.88 174.252 162.24L179.052 172C179.052 172.027 179.065 172.04 179.092 172.04L179.132 172L183.932 162.24C184.598 160.88 185.692 160.2 187.212 160.2H188.412C189.025 160.2 189.545 160.427 189.972 160.88C190.425 161.333 190.652 161.867 190.652 162.48V178.72C190.652 179.333 190.425 179.867 189.972 180.32C189.545 180.773 189.025 181 188.412 181H187.692C187.078 181 186.545 180.773 186.092 180.32C185.638 179.867 185.412 179.333 185.412 178.72V167.28H185.332L182.092 173.92C181.478 175.147 180.478 175.76 179.092 175.76C177.705 175.76 176.705 175.147 176.092 173.92L172.812 167.28H172.772H172.732V178.72C172.732 179.333 172.505 179.867 172.052 180.32C171.625 180.773 171.105 181 170.492 181H169.852ZM198.446 181C197.833 181 197.3 180.773 196.846 180.32C196.393 179.867 196.166 179.333 196.166 178.72V162.48C196.166 161.867 196.393 161.333 196.846 160.88C197.3 160.427 197.833 160.2 198.446 160.2H199.206C199.82 160.2 200.353 160.427 200.806 160.88C201.26 161.333 201.486 161.867 201.486 162.48V173.72L201.526 173.76L201.566 173.72L208.006 162.16C208.753 160.853 209.886 160.2 211.406 160.2H212.286C212.9 160.2 213.433 160.427 213.886 160.88C214.34 161.333 214.566 161.867 214.566 162.48V178.72C214.566 179.333 214.34 179.867 213.886 180.32C213.433 180.773 212.9 181 212.286 181H211.526C210.913 181 210.38 180.773 209.926 180.32C209.473 179.867 209.246 179.333 209.246 178.72V167.48L209.206 167.44L209.166 167.48L202.726 179.04C201.98 180.347 200.846 181 199.326 181H198.446ZM238.96 175.48C236.026 175.48 233.973 174.96 232.8 173.92C231.626 172.853 231.04 171.013 231.04 168.4V162.48C231.04 161.867 231.253 161.333 231.68 160.88C232.133 160.427 232.666 160.2 233.28 160.2H233.88C234.493 160.2 235.026 160.427 235.48 160.88C235.933 161.333 236.16 161.867 236.16 162.48V167.36C236.16 169.04 236.4 170.133 236.88 170.64C237.386 171.147 238.386 171.4 239.88 171.4C241.346 171.4 242.653 171.147 243.8 170.64C243.986 170.56 244.08 170.387 244.08 170.12V162.48C244.08 161.867 244.306 161.333 244.76 160.88C245.213 160.427 245.746 160.2 246.36 160.2H247.04C247.653 160.2 248.173 160.427 248.6 160.88C249.053 161.333 249.28 161.867 249.28 162.48V178.72C249.28 179.333 249.053 179.867 248.6 180.32C248.173 180.773 247.653 181 247.04 181H246.36C245.746 181 245.213 180.773 244.76 180.32C244.306 179.867 244.08 179.333 244.08 178.72V174.8C244.08 174.72 244.04 174.653 243.96 174.6C243.906 174.547 243.84 174.533 243.76 174.56C242.213 175.173 240.613 175.48 238.96 175.48ZM255.639 164.28C255.079 164.28 254.599 164.08 254.199 163.68C253.799 163.28 253.599 162.8 253.599 162.24C253.599 161.68 253.799 161.2 254.199 160.8C254.599 160.4 255.079 160.2 255.639 160.2H270.119C270.679 160.2 271.159 160.4 271.559 160.8C271.959 161.2 272.159 161.68 272.159 162.24C272.159 162.8 271.959 163.28 271.559 163.68C271.159 164.08 270.679 164.28 270.119 164.28H265.999C265.759 164.28 265.639 164.387 265.639 164.6V178.72C265.639 179.333 265.412 179.867 264.959 180.32C264.506 180.773 263.972 181 263.359 181H262.399C261.786 181 261.252 180.773 260.799 180.32C260.346 179.867 260.119 179.333 260.119 178.72V164.6C260.119 164.387 259.999 164.28 259.759 164.28H255.639ZM284.959 163.52C283.599 163.52 282.545 163.907 281.799 164.68C281.079 165.427 280.625 166.64 280.439 168.32C280.439 168.533 280.545 168.64 280.759 168.64H288.599C288.812 168.64 288.919 168.533 288.919 168.32C288.812 165.12 287.492 163.52 284.959 163.52ZM285.959 181.4C282.465 181.4 279.772 180.493 277.879 178.68C276.012 176.84 275.079 174.147 275.079 170.6C275.079 167.08 275.919 164.4 277.599 162.56C279.279 160.72 281.705 159.8 284.879 159.8C290.799 159.8 293.839 163.16 293.999 169.88C294.025 170.52 293.799 171.053 293.319 171.48C292.839 171.907 292.279 172.12 291.639 172.12H280.719C280.479 172.12 280.385 172.24 280.439 172.48C280.625 174.267 281.212 175.573 282.199 176.4C283.212 177.2 284.679 177.6 286.599 177.6C287.799 177.6 289.132 177.4 290.599 177C291.079 176.867 291.519 176.947 291.919 177.24C292.345 177.533 292.559 177.933 292.559 178.44C292.559 179.053 292.372 179.6 291.999 180.08C291.652 180.533 291.185 180.813 290.599 180.92C289.105 181.24 287.559 181.4 285.959 181.4ZM300.555 181C299.941 181 299.408 180.773 298.955 180.32C298.528 179.867 298.315 179.333 298.315 178.72V162.48C298.315 161.867 298.528 161.333 298.955 160.88C299.408 160.427 299.941 160.2 300.555 160.2H301.435C302.048 160.2 302.581 160.427 303.035 160.88C303.488 161.333 303.715 161.867 303.715 162.48V167.84C303.715 168.08 303.835 168.2 304.075 168.2H310.795C311.035 168.2 311.155 168.08 311.155 167.84V162.48C311.155 161.867 311.381 161.333 311.835 160.88C312.288 160.427 312.821 160.2 313.435 160.2H314.315C314.928 160.2 315.448 160.427 315.875 160.88C316.328 161.333 316.555 161.867 316.555 162.48V178.72C316.555 179.333 316.328 179.867 315.875 180.32C315.448 180.773 314.928 181 314.315 181H313.435C312.821 181 312.288 180.773 311.835 180.32C311.381 179.867 311.155 179.333 311.155 178.72V172.32C311.155 172.08 311.035 171.96 310.795 171.96H304.075C303.835 171.96 303.715 172.08 303.715 172.32V178.72C303.715 179.333 303.488 179.867 303.035 180.32C302.581 180.773 302.048 181 301.435 181H300.555ZM324.345 181C323.731 181 323.198 180.773 322.745 180.32C322.291 179.867 322.065 179.333 322.065 178.72V162.48C322.065 161.867 322.291 161.333 322.745 160.88C323.198 160.427 323.731 160.2 324.345 160.2H325.105C325.718 160.2 326.251 160.427 326.705 160.88C327.158 161.333 327.385 161.867 327.385 162.48V173.72L327.425 173.76L327.465 173.72L333.905 162.16C334.651 160.853 335.785 160.2 337.305 160.2H338.185C338.798 160.2 339.331 160.427 339.785 160.88C340.238 161.333 340.465 161.867 340.465 162.48V178.72C340.465 179.333 340.238 179.867 339.785 180.32C339.331 180.773 338.798 181 338.185 181H337.425C336.811 181 336.278 180.773 335.825 180.32C335.371 179.867 335.145 179.333 335.145 178.72V167.48L335.105 167.44L335.065 167.48L328.625 179.04C327.878 180.347 326.745 181 325.225 181H324.345ZM354.611 163.72C351.358 163.72 349.731 164.667 349.731 166.56C349.731 168.507 351.424 169.48 354.811 169.48H356.371C356.584 169.48 356.691 169.36 356.691 169.12V164.16C356.691 163.92 356.584 163.8 356.371 163.8C355.571 163.747 354.984 163.72 354.611 163.72ZM349.651 171.44C348.184 171.04 346.984 170.373 346.051 169.44C345.118 168.48 344.651 167.347 344.651 166.04C344.651 161.96 347.891 159.92 354.371 159.92C356.024 159.92 357.811 159.987 359.731 160.12C360.371 160.147 360.904 160.413 361.331 160.92C361.784 161.4 362.011 161.96 362.011 162.6V178.72C362.011 179.333 361.784 179.867 361.331 180.32C360.878 180.773 360.344 181 359.731 181H358.971C358.358 181 357.824 180.773 357.371 180.32C356.918 179.867 356.691 179.333 356.691 178.72V173.48C356.691 173.267 356.584 173.16 356.371 173.16H355.051C354.011 173.16 353.291 173.293 352.891 173.56C352.491 173.8 352.051 174.44 351.571 175.48L350.091 178.92C349.798 179.533 349.358 180.04 348.771 180.44C348.211 180.813 347.598 181 346.931 181H346.211C345.678 181 345.264 180.773 344.971 180.32C344.704 179.867 344.678 179.4 344.891 178.92L346.611 175.2C347.491 173.307 348.518 172.093 349.691 171.56C349.718 171.56 349.731 171.547 349.731 171.52C349.731 171.467 349.704 171.44 349.651 171.44ZM387.743 181.4C384.436 181.4 381.889 180.493 380.103 178.68C378.316 176.84 377.423 174.147 377.423 170.6C377.423 167.107 378.276 164.44 379.983 162.6C381.716 160.733 384.169 159.8 387.343 159.8C388.756 159.8 390.116 159.893 391.423 160.08C392.036 160.16 392.543 160.44 392.943 160.92C393.343 161.4 393.543 161.96 393.543 162.6C393.543 163.133 393.329 163.56 392.903 163.88C392.503 164.2 392.036 164.307 391.503 164.2C390.463 163.987 389.303 163.88 388.023 163.88C386.343 163.88 385.089 164.413 384.263 165.48C383.436 166.547 383.023 168.253 383.023 170.6C383.023 173 383.463 174.72 384.343 175.76C385.223 176.8 386.583 177.32 388.423 177.32C389.729 177.32 390.863 177.2 391.823 176.96C392.329 176.827 392.783 176.92 393.183 177.24C393.609 177.56 393.823 177.973 393.823 178.48C393.823 179.12 393.623 179.68 393.223 180.16C392.849 180.64 392.356 180.933 391.743 181.04C390.383 181.28 389.049 181.4 387.743 181.4ZM41.08 235.84C41.0267 235.893 41.0133 235.96 41.04 236.04C41.0933 236.093 41.16 236.12 41.24 236.12H48.6C48.84 236.12 48.96 236.013 48.96 235.8V223.4C48.96 223.187 48.84 223.08 48.6 223.08H43.48C43.2667 223.08 43.16 223.187 43.16 223.4C43.16 226.653 43.12 228.907 43.04 230.16C42.96 231.387 42.7867 232.387 42.52 233.16C42.28 233.907 41.8 234.8 41.08 235.84ZM35.6 244.8C34.9867 244.8 34.4533 244.573 34 244.12C33.5733 243.667 33.36 243.133 33.36 242.52V237.64C33.36 237.213 33.4933 236.853 33.76 236.56C34.0533 236.267 34.4133 236.12 34.84 236.12C35 236.12 35.12 236.067 35.2 235.96C36.1867 234.733 36.8533 233.733 37.2 232.96C37.5467 232.187 37.7733 231.16 37.88 229.88C38.0133 228.573 38.08 226.307 38.08 223.08V221.48C38.08 220.867 38.3067 220.333 38.76 219.88C39.2133 219.427 39.7467 219.2 40.36 219.2H51.8C52.4133 219.2 52.9467 219.427 53.4 219.88C53.8533 220.333 54.08 220.867 54.08 221.48V235.8C54.08 236.013 54.2 236.12 54.44 236.12H54.56C55.1733 236.12 55.6933 236.347 56.12 236.8C56.5733 237.253 56.8 237.787 56.8 238.4V242.52C56.8 243.133 56.5733 243.667 56.12 244.12C55.6933 244.573 55.1733 244.8 54.56 244.8H53.96C53.3467 244.8 52.8133 244.573 52.36 244.12C51.9067 243.667 51.68 243.133 51.68 242.52V240.36C51.68 240.12 51.56 240 51.32 240H38.84C38.6 240 38.48 240.12 38.48 240.36V242.52C38.48 243.133 38.2533 243.667 37.8 244.12C37.3467 244.573 36.8133 244.8 36.2 244.8H35.6ZM66.2119 226.88V232.32C66.2119 233.387 66.6652 234.333 67.5719 235.16C68.5052 235.987 69.5852 236.4 70.8119 236.4C72.2252 236.4 73.3452 235.827 74.1719 234.68C74.9985 233.533 75.4119 231.84 75.4119 229.6C75.4119 225.067 73.8785 222.8 70.8119 222.8C69.5852 222.8 68.5052 223.213 67.5719 224.04C66.6652 224.867 66.2119 225.813 66.2119 226.88ZM63.2119 248.8C62.5985 248.8 62.0652 248.573 61.6119 248.12C61.1585 247.667 60.9319 247.133 60.9319 246.52V221.48C60.9319 220.867 61.1585 220.333 61.6119 219.88C62.0652 219.427 62.5985 219.2 63.2119 219.2H63.6919C64.3319 219.2 64.8785 219.427 65.3319 219.88C65.7852 220.307 66.0252 220.84 66.0519 221.48V221.76C66.0519 221.787 66.0652 221.8 66.0919 221.8C66.1185 221.8 66.1452 221.787 66.1719 221.76C67.1319 220.693 68.0919 219.933 69.0519 219.48C70.0119 219.027 71.1319 218.8 72.4119 218.8C74.9185 218.8 76.9185 219.747 78.4119 221.64C79.9052 223.507 80.6519 226.16 80.6519 229.6C80.6519 232.933 79.8652 235.573 78.2919 237.52C76.7452 239.44 74.7852 240.4 72.4119 240.4C70.0919 240.4 68.0785 239.56 66.3719 237.88C66.3452 237.853 66.3185 237.84 66.2919 237.84C66.2652 237.84 66.2519 237.853 66.2519 237.88V246.52C66.2519 247.133 66.0252 247.667 65.5719 248.12C65.1452 248.573 64.6252 248.8 64.0119 248.8H63.2119ZM91.1553 239.68L83.9553 221.32C83.742 220.813 83.782 220.333 84.0753 219.88C84.3953 219.427 84.8353 219.2 85.3953 219.2H86.6753C87.342 219.2 87.942 219.4 88.4753 219.8C89.0086 220.2 89.382 220.72 89.5953 221.36L93.7553 234.48C93.7553 234.507 93.7686 234.52 93.7953 234.52C93.822 234.52 93.8353 234.507 93.8353 234.48L97.9953 221.36C98.182 220.72 98.542 220.2 99.0753 219.8C99.6086 219.4 100.222 219.2 100.915 219.2H101.955C102.489 219.2 102.915 219.427 103.235 219.88C103.555 220.333 103.622 220.813 103.435 221.32L96.3953 240.12C95.222 243.24 93.8753 245.467 92.3553 246.8C90.862 248.133 88.7953 248.907 86.1553 249.12C85.5953 249.147 85.102 248.96 84.6753 248.56C84.2753 248.187 84.0753 247.72 84.0753 247.16C84.0753 246.6 84.2753 246.107 84.6753 245.68C85.0753 245.28 85.5686 245.053 86.1553 245C87.462 244.84 88.4753 244.413 89.1953 243.72C89.9153 243.053 90.5686 241.92 91.1553 240.32C91.182 240.213 91.1953 240.107 91.1953 240C91.1953 239.893 91.182 239.787 91.1553 239.68ZM107.863 239.76C107.303 239.627 106.836 239.32 106.463 238.84C106.116 238.36 105.943 237.813 105.943 237.2C105.943 236.72 106.143 236.333 106.543 236.04C106.943 235.747 107.383 235.667 107.863 235.8C109.596 236.253 111.356 236.48 113.143 236.48C116.423 236.48 118.063 235.56 118.063 233.72C118.063 232.813 117.543 232.133 116.503 231.68C115.489 231.227 113.689 230.987 111.103 230.96C110.623 230.96 110.209 230.787 109.863 230.44C109.516 230.067 109.343 229.64 109.343 229.16C109.343 228.68 109.516 228.267 109.863 227.92C110.209 227.573 110.623 227.4 111.103 227.4C115.556 227.32 117.783 226.48 117.783 224.88C117.783 223.36 116.143 222.6 112.863 222.6C111.476 222.6 109.916 222.84 108.183 223.32C107.703 223.453 107.263 223.387 106.863 223.12C106.463 222.853 106.263 222.467 106.263 221.96C106.263 221.347 106.436 220.813 106.783 220.36C107.129 219.88 107.596 219.573 108.183 219.44C109.889 219.013 111.623 218.8 113.383 218.8C116.396 218.8 118.756 219.32 120.463 220.36C122.196 221.373 123.063 222.613 123.063 224.08C123.063 225.2 122.636 226.2 121.783 227.08C120.956 227.96 119.756 228.6 118.183 229C118.129 229 118.103 229.027 118.103 229.08C118.103 229.107 118.129 229.12 118.183 229.12C119.729 229.36 120.969 229.973 121.903 230.96C122.863 231.947 123.343 233.093 123.343 234.4C123.343 236.213 122.476 237.667 120.743 238.76C119.036 239.853 116.583 240.4 113.383 240.4C111.516 240.4 109.676 240.187 107.863 239.76ZM132.851 229.2V235.92C132.851 236.133 132.971 236.267 133.211 236.32C133.931 236.453 134.571 236.52 135.131 236.52C136.837 236.52 138.077 236.187 138.851 235.52C139.651 234.827 140.051 233.76 140.051 232.32C140.051 231.147 139.624 230.24 138.771 229.6C137.944 228.933 136.704 228.6 135.051 228.6C134.464 228.6 133.837 228.667 133.171 228.8C132.957 228.853 132.851 228.987 132.851 229.2ZM129.891 240.12C129.251 240.04 128.717 239.747 128.291 239.24C127.864 238.733 127.651 238.16 127.651 237.52V221.48C127.651 220.867 127.877 220.333 128.331 219.88C128.784 219.427 129.317 219.2 129.931 219.2H130.611C131.224 219.2 131.744 219.427 132.171 219.88C132.624 220.333 132.851 220.867 132.851 221.48V224.64C132.851 224.72 132.891 224.8 132.971 224.88C133.051 224.96 133.131 224.987 133.211 224.96C134.277 224.8 135.157 224.72 135.851 224.72C138.811 224.72 141.077 225.4 142.651 226.76C144.251 228.12 145.051 229.973 145.051 232.32C145.051 235.04 144.211 237.067 142.531 238.4C140.851 239.733 138.224 240.4 134.651 240.4C132.891 240.4 131.304 240.307 129.891 240.12ZM157.814 222.72C154.561 222.72 152.934 223.667 152.934 225.56C152.934 227.507 154.627 228.48 158.014 228.48H159.574C159.787 228.48 159.894 228.36 159.894 228.12V223.16C159.894 222.92 159.787 222.8 159.574 222.8C158.774 222.747 158.187 222.72 157.814 222.72ZM152.854 230.44C151.387 230.04 150.187 229.373 149.254 228.44C148.321 227.48 147.854 226.347 147.854 225.04C147.854 220.96 151.094 218.92 157.574 218.92C159.227 218.92 161.014 218.987 162.934 219.12C163.574 219.147 164.107 219.413 164.534 219.92C164.987 220.4 165.214 220.96 165.214 221.6V237.72C165.214 238.333 164.987 238.867 164.534 239.32C164.081 239.773 163.547 240 162.934 240H162.174C161.561 240 161.027 239.773 160.574 239.32C160.121 238.867 159.894 238.333 159.894 237.72V232.48C159.894 232.267 159.787 232.16 159.574 232.16H158.254C157.214 232.16 156.494 232.293 156.094 232.56C155.694 232.8 155.254 233.44 154.774 234.48L153.294 237.92C153.001 238.533 152.561 239.04 151.974 239.44C151.414 239.813 150.801 240 150.134 240H149.414C148.881 240 148.467 239.773 148.174 239.32C147.907 238.867 147.881 238.4 148.094 237.92L149.814 234.2C150.694 232.307 151.721 231.093 152.894 230.56C152.921 230.56 152.934 230.547 152.934 230.52C152.934 230.467 152.907 230.44 152.854 230.44ZM172.898 240C172.285 240 171.752 239.773 171.298 239.32C170.872 238.867 170.658 238.333 170.658 237.72V221.48C170.658 220.867 170.872 220.333 171.298 219.88C171.752 219.427 172.285 219.2 172.898 219.2H174.018C175.538 219.2 176.632 219.88 177.298 221.24L182.098 231C182.098 231.027 182.112 231.04 182.138 231.04L182.178 231L186.978 221.24C187.645 219.88 188.738 219.2 190.258 219.2H191.458C192.072 219.2 192.592 219.427 193.018 219.88C193.472 220.333 193.698 220.867 193.698 221.48V237.72C193.698 238.333 193.472 238.867 193.018 239.32C192.592 239.773 192.072 240 191.458 240H190.738C190.125 240 189.592 239.773 189.138 239.32C188.685 238.867 188.458 238.333 188.458 237.72V226.28H188.378L185.138 232.92C184.525 234.147 183.525 234.76 182.138 234.76C180.752 234.76 179.752 234.147 179.138 232.92L175.858 226.28H175.818H175.778V237.72C175.778 238.333 175.552 238.867 175.098 239.32C174.672 239.773 174.152 240 173.538 240H172.898ZM201.493 240C200.88 240 200.346 239.773 199.893 239.32C199.44 238.867 199.213 238.333 199.213 237.72V221.48C199.213 220.867 199.44 220.333 199.893 219.88C200.346 219.427 200.88 219.2 201.493 219.2H202.253C202.866 219.2 203.4 219.427 203.853 219.88C204.306 220.333 204.533 220.867 204.533 221.48V232.72L204.573 232.76L204.613 232.72L211.053 221.16C211.8 219.853 212.933 219.2 214.453 219.2H215.333C215.946 219.2 216.48 219.427 216.933 219.88C217.386 220.333 217.613 220.867 217.613 221.48V237.72C217.613 238.333 217.386 238.867 216.933 239.32C216.48 239.773 215.946 240 215.333 240H214.573C213.96 240 213.426 239.773 212.973 239.32C212.52 238.867 212.293 238.333 212.293 237.72V226.48L212.253 226.44L212.213 226.48L205.773 238.04C205.026 239.347 203.893 240 202.373 240H201.493ZM236.767 240C236.153 240 235.62 239.773 235.167 239.32C234.713 238.867 234.487 238.333 234.487 237.72V221.48C234.487 220.867 234.713 220.333 235.167 219.88C235.62 219.427 236.153 219.2 236.767 219.2H237.527C238.14 219.2 238.673 219.427 239.127 219.88C239.58 220.333 239.807 220.867 239.807 221.48V232.72L239.847 232.76L239.887 232.72L246.327 221.16C247.073 219.853 248.207 219.2 249.727 219.2H250.607C251.22 219.2 251.753 219.427 252.207 219.88C252.66 220.333 252.887 220.867 252.887 221.48V237.72C252.887 238.333 252.66 238.867 252.207 239.32C251.753 239.773 251.22 240 250.607 240H249.847C249.233 240 248.7 239.773 248.247 239.32C247.793 238.867 247.567 238.333 247.567 237.72V226.48L247.527 226.44L247.487 226.48L241.047 238.04C240.3 239.347 239.167 240 237.647 240H236.767ZM272.04 240C271.427 240 270.893 239.773 270.44 239.32C269.987 238.867 269.76 238.333 269.76 237.72V221.48C269.76 220.867 269.987 220.333 270.44 219.88C270.893 219.427 271.427 219.2 272.04 219.2H272.84C273.453 219.2 273.987 219.427 274.44 219.88C274.893 220.333 275.12 220.867 275.12 221.48V227.68C275.12 227.707 275.133 227.72 275.16 227.72H275.2L281.28 220.88C282.267 219.76 283.52 219.2 285.04 219.2H286.72C287.147 219.2 287.44 219.4 287.6 219.8C287.787 220.2 287.733 220.56 287.44 220.88L280.12 228.96C279.987 229.12 279.987 229.293 280.12 229.48L287.52 238.28C287.813 238.627 287.853 239 287.64 239.4C287.453 239.8 287.147 240 286.72 240H285.04C283.52 240 282.28 239.413 281.32 238.24L275.2 230.84C275.2 230.813 275.187 230.8 275.16 230.8C275.133 230.8 275.12 230.813 275.12 230.84V237.72C275.12 238.333 274.893 238.867 274.44 239.32C273.987 239.773 273.453 240 272.84 240H272.04ZM304.305 224.36C303.531 223.24 302.358 222.68 300.785 222.68C299.211 222.68 298.025 223.24 297.225 224.36C296.451 225.453 296.065 227.2 296.065 229.6C296.065 232 296.451 233.76 297.225 234.88C298.025 235.973 299.211 236.52 300.785 236.52C302.358 236.52 303.531 235.973 304.305 234.88C305.105 233.76 305.505 232 305.505 229.6C305.505 227.2 305.105 225.453 304.305 224.36ZM308.225 237.6C306.465 239.467 303.985 240.4 300.785 240.4C297.585 240.4 295.091 239.467 293.305 237.6C291.545 235.707 290.665 233.04 290.665 229.6C290.665 226.16 291.545 223.507 293.305 221.64C295.091 219.747 297.585 218.8 300.785 218.8C303.985 218.8 306.465 219.747 308.225 221.64C310.011 223.507 310.905 226.16 310.905 229.6C310.905 233.04 310.011 235.707 308.225 237.6ZM314.993 240.24C314.46 240.293 313.993 240.133 313.593 239.76C313.22 239.387 313.033 238.933 313.033 238.4C313.033 237.867 313.22 237.387 313.593 236.96C313.993 236.533 314.473 236.253 315.033 236.12C316.18 235.827 316.953 235.187 317.353 234.2C317.753 233.213 317.953 231.52 317.953 229.12V221.48C317.953 220.867 318.18 220.333 318.633 219.88C319.087 219.427 319.62 219.2 320.233 219.2H332.633C333.247 219.2 333.78 219.427 334.233 219.88C334.687 220.333 334.913 220.867 334.913 221.48V237.72C334.913 238.333 334.687 238.867 334.233 239.32C333.78 239.773 333.247 240 332.633 240H331.913C331.3 240 330.767 239.773 330.313 239.32C329.86 238.867 329.633 238.333 329.633 237.72V223.56C329.633 223.32 329.513 223.2 329.273 223.2H323.433C323.22 223.2 323.113 223.32 323.113 223.56V229.88C323.113 233.4 322.527 235.92 321.353 237.44C320.207 238.933 318.087 239.867 314.993 240.24ZM340.384 240.24C339.851 240.293 339.384 240.133 338.984 239.76C338.611 239.387 338.424 238.933 338.424 238.4C338.424 237.867 338.611 237.387 338.984 236.96C339.384 236.533 339.864 236.253 340.424 236.12C341.571 235.827 342.344 235.187 342.744 234.2C343.144 233.213 343.344 231.52 343.344 229.12V221.48C343.344 220.867 343.571 220.333 344.024 219.88C344.477 219.427 345.011 219.2 345.624 219.2H358.024C358.637 219.2 359.171 219.427 359.624 219.88C360.077 220.333 360.304 220.867 360.304 221.48V237.72C360.304 238.333 360.077 238.867 359.624 239.32C359.171 239.773 358.637 240 358.024 240H357.304C356.691 240 356.157 239.773 355.704 239.32C355.251 238.867 355.024 238.333 355.024 237.72V223.56C355.024 223.32 354.904 223.2 354.664 223.2H348.824C348.611 223.2 348.504 223.32 348.504 223.56V229.88C348.504 233.4 347.917 235.92 346.744 237.44C345.597 238.933 343.477 239.867 340.384 240.24ZM374.295 222.52C372.935 222.52 371.881 222.907 371.135 223.68C370.415 224.427 369.961 225.64 369.775 227.32C369.775 227.533 369.881 227.64 370.095 227.64H377.935C378.148 227.64 378.255 227.533 378.255 227.32C378.148 224.12 376.828 222.52 374.295 222.52ZM375.295 240.4C371.801 240.4 369.108 239.493 367.215 237.68C365.348 235.84 364.415 233.147 364.415 229.6C364.415 226.08 365.255 223.4 366.935 221.56C368.615 219.72 371.041 218.8 374.215 218.8C380.135 218.8 383.175 222.16 383.335 228.88C383.361 229.52 383.135 230.053 382.655 230.48C382.175 230.907 381.615 231.12 380.975 231.12H370.055C369.815 231.12 369.721 231.24 369.775 231.48C369.961 233.267 370.548 234.573 371.535 235.4C372.548 236.2 374.015 236.6 375.935 236.6C377.135 236.6 378.468 236.4 379.935 236C380.415 235.867 380.855 235.947 381.255 236.24C381.681 236.533 381.895 236.933 381.895 237.44C381.895 238.053 381.708 238.6 381.335 239.08C380.988 239.533 380.521 239.813 379.935 239.92C378.441 240.24 376.895 240.4 375.295 240.4ZM389.891 240C389.277 240 388.744 239.773 388.291 239.32C387.864 238.867 387.651 238.333 387.651 237.72V221.48C387.651 220.867 387.864 220.333 388.291 219.88C388.744 219.427 389.277 219.2 389.891 219.2H402.011C402.571 219.2 403.051 219.4 403.451 219.8C403.851 220.2 404.051 220.68 404.051 221.24C404.051 221.8 403.851 222.28 403.451 222.68C403.051 223.08 402.571 223.28 402.011 223.28H393.451C393.211 223.28 393.091 223.387 393.091 223.6V237.72C393.091 238.333 392.864 238.867 392.411 239.32C391.984 239.773 391.464 240 390.851 240H389.891ZM417.958 230C414.145 230 412.238 231.173 412.238 233.52C412.238 234.373 412.478 235.067 412.958 235.6C413.465 236.133 414.105 236.4 414.878 236.4C416.398 236.4 417.625 235.933 418.558 235C419.492 234.04 419.958 232.733 419.958 231.08V230.36C419.958 230.12 419.838 230 419.598 230H417.958ZM413.438 240.4C411.625 240.4 410.118 239.813 408.918 238.64C407.745 237.44 407.158 235.893 407.158 234C407.158 231.68 408.038 229.88 409.798 228.6C411.585 227.32 414.305 226.68 417.958 226.68H419.598C419.838 226.68 419.958 226.56 419.958 226.32V226C419.958 224.773 419.665 223.92 419.078 223.44C418.492 222.933 417.452 222.68 415.958 222.68C414.412 222.68 412.518 222.96 410.278 223.52C409.798 223.653 409.358 223.573 408.958 223.28C408.558 222.96 408.358 222.547 408.358 222.04C408.358 221.427 408.545 220.88 408.918 220.4C409.292 219.893 409.772 219.587 410.358 219.48C412.385 219.027 414.292 218.8 416.078 218.8C419.492 218.8 421.878 219.413 423.238 220.64C424.598 221.867 425.278 224.013 425.278 227.08V237.72C425.278 238.333 425.052 238.867 424.598 239.32C424.172 239.773 423.652 240 423.038 240H422.598C421.958 240 421.412 239.787 420.958 239.36C420.505 238.907 420.265 238.36 420.238 237.72V237.16C420.238 237.133 420.225 237.12 420.198 237.12C420.145 237.12 420.118 237.133 420.118 237.16C418.492 239.32 416.265 240.4 413.438 240.4ZM432.82 240C432.207 240 431.674 239.773 431.22 239.32C430.794 238.867 430.58 238.333 430.58 237.72V221.48C430.58 220.867 430.794 220.333 431.22 219.88C431.674 219.427 432.207 219.2 432.82 219.2H433.94C435.46 219.2 436.554 219.88 437.22 221.24L442.02 231C442.02 231.027 442.034 231.04 442.06 231.04L442.1 231L446.9 221.24C447.567 219.88 448.66 219.2 450.18 219.2H451.38C451.994 219.2 452.514 219.427 452.94 219.88C453.394 220.333 453.62 220.867 453.62 221.48V237.72C453.62 238.333 453.394 238.867 452.94 239.32C452.514 239.773 451.994 240 451.38 240H450.66C450.047 240 449.514 239.773 449.06 239.32C448.607 238.867 448.38 238.333 448.38 237.72V226.28H448.3L445.06 232.92C444.447 234.147 443.447 234.76 442.06 234.76C440.674 234.76 439.674 234.147 439.06 232.92L435.78 226.28H435.74H435.7V237.72C435.7 238.333 435.474 238.867 435.02 239.32C434.594 239.773 434.074 240 433.46 240H432.82ZM461.415 240C460.802 240 460.268 239.773 459.815 239.32C459.362 238.867 459.135 238.333 459.135 237.72V221.48C459.135 220.867 459.362 220.333 459.815 219.88C460.268 219.427 460.802 219.2 461.415 219.2H462.175C462.788 219.2 463.322 219.427 463.775 219.88C464.228 220.333 464.455 220.867 464.455 221.48V232.72L464.495 232.76L464.535 232.72L470.975 221.16C471.722 219.853 472.855 219.2 474.375 219.2H475.255C475.868 219.2 476.402 219.427 476.855 219.88C477.308 220.333 477.535 220.867 477.535 221.48V237.72C477.535 238.333 477.308 238.867 476.855 239.32C476.402 239.773 475.868 240 475.255 240H474.495C473.882 240 473.348 239.773 472.895 239.32C472.442 238.867 472.215 238.333 472.215 237.72V226.48L472.175 226.44L472.135 226.48L465.695 238.04C464.948 239.347 463.815 240 462.295 240H461.415Z" fill="black"/>
<path d="M705.917 132.104C705.917 97.851 678.149 70.0833 643.896 70.0833C624.022 70.0833 606.331 79.4561 594.981 94.0063C643.391 95.8779 682.062 135.714 682.062 184.583C682.062 185.636 682.045 186.684 682.009 187.728L685.179 188.576C694.4 191.043 702.835 182.608 700.368 173.388L699.153 168.845C698.171 165.176 698.761 161.3 700.339 157.845C703.921 150.004 705.917 141.287 705.917 132.104Z" fill="white"/>
<path fill-rule="evenodd" clip-rule="evenodd" d="M667.75 184.583C667.75 226.741 633.574 260.917 591.417 260.917C579.628 260.917 568.463 258.244 558.496 253.472C555.07 251.832 551.188 251.256 547.519 252.238L535.821 255.368C526.6 257.835 518.165 249.4 520.632 240.179L523.762 228.481C524.744 224.812 524.168 220.93 522.528 217.504C517.756 207.537 515.083 196.372 515.083 184.583C515.083 142.426 549.259 108.25 591.417 108.25C633.574 108.25 667.75 142.426 667.75 184.583ZM558.021 194.125C563.291 194.125 567.562 189.853 567.562 184.583C567.562 179.314 563.291 175.042 558.021 175.042C552.751 175.042 548.479 179.314 548.479 184.583C548.479 189.853 552.751 194.125 558.021 194.125ZM591.417 194.125C596.686 194.125 600.958 189.853 600.958 184.583C600.958 179.314 596.686 175.042 591.417 175.042C586.147 175.042 581.875 179.314 581.875 184.583C581.875 189.853 586.147 194.125 591.417 194.125ZM624.812 194.125C630.082 194.125 634.354 189.853 634.354 184.583C634.354 179.314 630.082 175.042 624.812 175.042C619.543 175.042 615.271 179.314 615.271 184.583C615.271 189.853 619.543 194.125 624.812 194.125Z" fill="white"/>
<path d="M629.583 117.462C618.356 110.967 605.32 107.25 591.417 107.25C549.259 107.25 515.083 141.426 515.083 183.583C515.083 195.794 517.951 207.335 523.048 217.571C524.403 220.29 524.854 223.399 524.069 226.335L519.522 243.327C517.549 250.703 524.297 257.451 531.673 255.478L548.665 250.931C551.601 250.146 554.71 250.597 557.429 251.952C567.665 257.049 579.206 259.917 591.417 259.917C633.574 259.917 667.75 225.741 667.75 183.583C667.75 169.68 664.033 156.644 657.538 145.417" stroke="black" stroke-width="4" stroke-linecap="round"/>
<path d="M689.5 187.965C690.017 187.749 685.614 187.606 684.314 187.406C684.032 187.363 684.165 187.284 684.447 187.322C692.556 188.432 680.069 186.514 684 187.335L685.179 187.576C694.4 190.043 702.835 181.608 700.368 172.388L699.153 167.845C698.171 164.176 698.761 160.3 700.339 156.845C703.921 149.004 705.917 140.287 705.917 131.104C705.917 118.947 702.419 107.607 696.375 98.0357M596 93.0001C613 74.0001 617.5 70.5001 643.896 69.0833C656.192 69.0833 667.652 72.6614 677.292 78.8332" stroke="black" stroke-width="4" stroke-linecap="round"/>
<path d="M567.111 184.5C567.111 190.299 562.833 195 557.556 195C552.278 195 548 190.299 548 184.5C548 178.701 552.278 174 557.556 174C562.833 174 567.111 178.701 567.111 184.5Z" fill="black"/>
<path d="M600.556 184.5C600.556 190.299 596.277 195 591 195C585.723 195 581.444 190.299 581.444 184.5C581.444 178.701 585.723 174 591 174C596.277 174 600.556 178.701 600.556 184.5Z" fill="black"/>
<path d="M634 184.5C634 190.299 629.722 195 624.444 195C619.167 195 614.889 190.299 614.889 184.5C614.889 178.701 619.167 174 624.444 174C629.722 174 634 178.701 634 184.5Z" fill="black"/>
</svg>
