<svg width="750" height="330" viewBox="0 0 750 330" fill="none" xmlns="http://www.w3.org/2000/svg">
<rect width="750" height="330" rx="19" fill="#B8BEF6"/>
<path d="M63.28 107.4C63.28 100.467 60.7467 97 55.68 97C50.6133 97 48.08 100.467 48.08 107.4C48.08 114.333 50.6133 117.8 55.68 117.8C60.7467 117.8 63.28 114.333 63.28 107.4ZM65.4 118.44C63.0267 121.08 59.7867 122.4 55.68 122.4C51.5733 122.4 48.32 121.08 45.92 118.44C43.5467 115.8 42.36 112.12 42.36 107.4C42.36 102.68 43.5467 99 45.92 96.36C48.32 93.72 51.5733 92.4 55.68 92.4C59.7867 92.4 63.0267 93.72 65.4 96.36C67.8 99 69 102.68 69 107.4C69 112.12 67.8 115.8 65.4 118.44ZM78.135 111.8V112.2C78.135 114.093 78.575 115.6 79.455 116.72C80.335 117.84 81.4817 118.4 82.895 118.4C84.415 118.4 85.5883 117.867 86.415 116.8C87.2417 115.707 87.655 114.12 87.655 112.04V112V111.96C87.655 109.987 87.215 108.44 86.335 107.32C85.4817 106.173 84.375 105.6 83.015 105.6C81.5483 105.6 80.3617 106.147 79.455 107.24C78.575 108.333 78.135 109.853 78.135 111.8ZM83.095 122.4C79.8417 122.4 77.335 121.453 75.575 119.56C73.815 117.64 72.935 114.893 72.935 111.32V103.32C72.935 99.5067 73.935 96.7333 75.935 95C77.935 93.2667 81.1217 92.4 85.495 92.4C87.0417 92.4 88.4017 92.3467 89.575 92.24C90.1083 92.1867 90.5617 92.3333 90.935 92.68C91.335 93.0267 91.535 93.4533 91.535 93.96C91.535 94.52 91.3483 95.0133 90.975 95.44C90.6283 95.8667 90.175 96.1067 89.615 96.16C88.4683 96.2667 87.135 96.32 85.615 96.32C82.7083 96.32 80.7217 96.8133 79.655 97.8C78.615 98.76 78.095 100.56 78.095 103.2V104.64V104.68C78.1483 104.68 78.175 104.653 78.175 104.6C79.6417 102.6 81.7483 101.6 84.495 101.6C86.8417 101.6 88.7883 102.547 90.335 104.44C91.9083 106.307 92.695 108.827 92.695 112C92.695 115.333 91.855 117.907 90.175 119.72C88.495 121.507 86.135 122.4 83.095 122.4ZM106.547 122.4C103.241 122.4 100.694 121.493 98.9072 119.68C97.1205 117.84 96.2272 115.147 96.2272 111.6C96.2272 108.107 97.0805 105.44 98.7872 103.6C100.521 101.733 102.974 100.8 106.147 100.8C107.561 100.8 108.921 100.893 110.227 101.08C110.841 101.16 111.347 101.44 111.747 101.92C112.147 102.4 112.347 102.96 112.347 103.6C112.347 104.133 112.134 104.56 111.707 104.88C111.307 105.2 110.841 105.307 110.307 105.2C109.267 104.987 108.107 104.88 106.827 104.88C105.147 104.88 103.894 105.413 103.067 106.48C102.241 107.547 101.827 109.253 101.827 111.6C101.827 114 102.267 115.72 103.147 116.76C104.027 117.8 105.387 118.32 107.227 118.32C108.534 118.32 109.667 118.2 110.627 117.96C111.134 117.827 111.587 117.92 111.987 118.24C112.414 118.56 112.627 118.973 112.627 119.48C112.627 120.12 112.427 120.68 112.027 121.16C111.654 121.64 111.161 121.933 110.547 122.04C109.187 122.28 107.854 122.4 106.547 122.4ZM124.14 121.68L116.94 103.32C116.726 102.813 116.766 102.333 117.06 101.88C117.38 101.427 117.82 101.2 118.38 101.2H119.66C120.326 101.2 120.926 101.4 121.46 101.8C121.993 102.2 122.366 102.72 122.58 103.36L126.74 116.48C126.74 116.507 126.753 116.52 126.78 116.52C126.806 116.52 126.82 116.507 126.82 116.48L130.98 103.36C131.166 102.72 131.526 102.2 132.06 101.8C132.593 101.4 133.206 101.2 133.9 101.2H134.94C135.473 101.2 135.9 101.427 136.22 101.88C136.54 102.333 136.606 102.813 136.42 103.32L129.38 122.12C128.206 125.24 126.86 127.467 125.34 128.8C123.846 130.133 121.78 130.907 119.14 131.12C118.58 131.147 118.086 130.96 117.66 130.56C117.26 130.187 117.06 129.72 117.06 129.16C117.06 128.6 117.26 128.107 117.66 127.68C118.06 127.28 118.553 127.053 119.14 127C120.446 126.84 121.46 126.413 122.18 125.72C122.9 125.053 123.553 123.92 124.14 122.32C124.166 122.213 124.18 122.107 124.18 122C124.18 121.893 124.166 121.787 124.14 121.68ZM140.807 122C140.327 122 139.954 121.787 139.687 121.36C139.421 120.907 139.407 120.467 139.647 120.04L144.487 111.64C144.621 111.453 144.621 111.253 144.487 111.04L139.887 103.16C139.647 102.707 139.647 102.267 139.887 101.84C140.154 101.413 140.527 101.2 141.007 101.2H141.727C142.447 101.2 143.114 101.387 143.727 101.76C144.341 102.107 144.807 102.573 145.127 103.16L148.447 109.16C148.581 109.373 148.754 109.48 148.967 109.48H149.847C150.087 109.48 150.207 109.36 150.207 109.12V103.48C150.207 102.867 150.421 102.333 150.847 101.88C151.301 101.427 151.834 101.2 152.447 101.2H153.007C153.647 101.2 154.181 101.427 154.607 101.88C155.034 102.333 155.247 102.867 155.247 103.48V109.12C155.247 109.36 155.367 109.48 155.607 109.48H156.487C156.727 109.48 156.901 109.373 157.007 109.16L160.327 103.16C160.674 102.573 161.154 102.107 161.767 101.76C162.381 101.387 163.034 101.2 163.727 101.2H164.447C164.954 101.2 165.327 101.413 165.567 101.84C165.834 102.267 165.834 102.707 165.567 103.16L160.967 110.96C160.861 111.173 160.861 111.373 160.967 111.56L165.807 120.04C166.074 120.467 166.074 120.907 165.807 121.36C165.541 121.787 165.154 122 164.647 122H163.927C163.261 122 162.621 121.827 162.007 121.48C161.394 121.107 160.914 120.613 160.567 120L157.007 113.64C156.901 113.427 156.727 113.32 156.487 113.32H155.607C155.367 113.32 155.247 113.44 155.247 113.68V119.72C155.247 120.333 155.034 120.867 154.607 121.32C154.181 121.773 153.647 122 153.007 122H152.447C151.834 122 151.301 121.773 150.847 121.32C150.421 120.867 150.207 120.333 150.207 119.72V113.68C150.207 113.44 150.087 113.32 149.847 113.32H148.967C148.754 113.32 148.581 113.427 148.447 113.64L144.887 120C144.567 120.613 144.101 121.107 143.487 121.48C142.874 121.827 142.221 122 141.527 122H140.807ZM176.486 117.84C176.433 117.893 176.42 117.96 176.446 118.04C176.5 118.093 176.566 118.12 176.646 118.12H184.006C184.246 118.12 184.366 118.013 184.366 117.8V105.4C184.366 105.187 184.246 105.08 184.006 105.08H178.886C178.673 105.08 178.566 105.187 178.566 105.4C178.566 108.653 178.526 110.907 178.446 112.16C178.366 113.387 178.193 114.387 177.926 115.16C177.686 115.907 177.206 116.8 176.486 117.84ZM171.006 126.8C170.393 126.8 169.86 126.573 169.406 126.12C168.98 125.667 168.766 125.133 168.766 124.52V119.64C168.766 119.213 168.9 118.853 169.166 118.56C169.46 118.267 169.82 118.12 170.246 118.12C170.406 118.12 170.526 118.067 170.606 117.96C171.593 116.733 172.26 115.733 172.606 114.96C172.953 114.187 173.18 113.16 173.286 111.88C173.42 110.573 173.486 108.307 173.486 105.08V103.48C173.486 102.867 173.713 102.333 174.166 101.88C174.62 101.427 175.153 101.2 175.766 101.2H187.206C187.82 101.2 188.353 101.427 188.806 101.88C189.26 102.333 189.486 102.867 189.486 103.48V117.8C189.486 118.013 189.606 118.12 189.846 118.12H189.966C190.58 118.12 191.1 118.347 191.526 118.8C191.98 119.253 192.206 119.787 192.206 120.4V124.52C192.206 125.133 191.98 125.667 191.526 126.12C191.1 126.573 190.58 126.8 189.966 126.8H189.366C188.753 126.8 188.22 126.573 187.766 126.12C187.313 125.667 187.086 125.133 187.086 124.52V122.36C187.086 122.12 186.966 122 186.726 122H174.246C174.006 122 173.886 122.12 173.886 122.36V124.52C173.886 125.133 173.66 125.667 173.206 126.12C172.753 126.573 172.22 126.8 171.606 126.8H171.006ZM206.138 112C202.325 112 200.418 113.173 200.418 115.52C200.418 116.373 200.658 117.067 201.138 117.6C201.645 118.133 202.285 118.4 203.058 118.4C204.578 118.4 205.805 117.933 206.738 117C207.671 116.04 208.138 114.733 208.138 113.08V112.36C208.138 112.12 208.018 112 207.778 112H206.138ZM201.618 122.4C199.805 122.4 198.298 121.813 197.098 120.64C195.925 119.44 195.338 117.893 195.338 116C195.338 113.68 196.218 111.88 197.978 110.6C199.765 109.32 202.485 108.68 206.138 108.68H207.778C208.018 108.68 208.138 108.56 208.138 108.32V108C208.138 106.773 207.845 105.92 207.258 105.44C206.671 104.933 205.631 104.68 204.138 104.68C202.591 104.68 200.698 104.96 198.458 105.52C197.978 105.653 197.538 105.573 197.138 105.28C196.738 104.96 196.538 104.547 196.538 104.04C196.538 103.427 196.725 102.88 197.098 102.4C197.471 101.893 197.951 101.587 198.538 101.48C200.565 101.027 202.471 100.8 204.258 100.8C207.671 100.8 210.058 101.413 211.418 102.64C212.778 103.867 213.458 106.013 213.458 109.08V119.72C213.458 120.333 213.231 120.867 212.778 121.32C212.351 121.773 211.831 122 211.218 122H210.778C210.138 122 209.591 121.787 209.138 121.36C208.685 120.907 208.445 120.36 208.418 119.72V119.16C208.418 119.133 208.405 119.12 208.378 119.12C208.325 119.12 208.298 119.133 208.298 119.16C206.671 121.32 204.445 122.4 201.618 122.4ZM219.6 105.28C219.04 105.28 218.56 105.08 218.16 104.68C217.76 104.28 217.56 103.8 217.56 103.24C217.56 102.68 217.76 102.2 218.16 101.8C218.56 101.4 219.04 101.2 219.6 101.2H234.08C234.64 101.2 235.12 101.4 235.52 101.8C235.92 102.2 236.12 102.68 236.12 103.24C236.12 103.8 235.92 104.28 235.52 104.68C235.12 105.08 234.64 105.28 234.08 105.28H229.96C229.72 105.28 229.6 105.387 229.6 105.6V119.72C229.6 120.333 229.373 120.867 228.92 121.32C228.467 121.773 227.933 122 227.32 122H226.36C225.747 122 225.213 121.773 224.76 121.32C224.307 120.867 224.08 120.333 224.08 119.72V105.6C224.08 105.387 223.96 105.28 223.72 105.28H219.6ZM245.64 111.2V117.92C245.64 118.133 245.76 118.267 246 118.32C246.72 118.453 247.36 118.52 247.92 118.52C249.626 118.52 250.866 118.187 251.64 117.52C252.44 116.827 252.84 115.76 252.84 114.32C252.84 113.147 252.413 112.24 251.56 111.6C250.733 110.933 249.493 110.6 247.84 110.6C247.253 110.6 246.626 110.667 245.96 110.8C245.746 110.853 245.64 110.987 245.64 111.2ZM242.68 122.12C242.04 122.04 241.506 121.747 241.08 121.24C240.653 120.733 240.44 120.16 240.44 119.52V103.48C240.44 102.867 240.666 102.333 241.12 101.88C241.573 101.427 242.106 101.2 242.72 101.2H243.4C244.013 101.2 244.533 101.427 244.96 101.88C245.413 102.333 245.64 102.867 245.64 103.48V106.64C245.64 106.72 245.68 106.8 245.76 106.88C245.84 106.96 245.92 106.987 246 106.96C247.066 106.8 247.946 106.72 248.64 106.72C251.6 106.72 253.866 107.4 255.44 108.76C257.04 110.12 257.84 111.973 257.84 114.32C257.84 117.04 257 119.067 255.32 120.4C253.64 121.733 251.013 122.4 247.44 122.4C245.68 122.4 244.093 122.307 242.68 122.12ZM275.61 122C274.997 122 274.464 121.773 274.01 121.32C273.557 120.867 273.33 120.333 273.33 119.72V103.48C273.33 102.867 273.557 102.333 274.01 101.88C274.464 101.427 274.997 101.2 275.61 101.2H276.41C277.024 101.2 277.557 101.427 278.01 101.88C278.464 102.333 278.69 102.867 278.69 103.48V109.68C278.69 109.707 278.704 109.72 278.73 109.72H278.77L284.85 102.88C285.837 101.76 287.09 101.2 288.61 101.2H290.29C290.717 101.2 291.01 101.4 291.17 101.8C291.357 102.2 291.304 102.56 291.01 102.88L283.69 110.96C283.557 111.12 283.557 111.293 283.69 111.48L291.09 120.28C291.384 120.627 291.424 121 291.21 121.4C291.024 121.8 290.717 122 290.29 122H288.61C287.09 122 285.85 121.413 284.89 120.24L278.77 112.84C278.77 112.813 278.757 112.8 278.73 112.8C278.704 112.8 278.69 112.813 278.69 112.84V119.72C278.69 120.333 278.464 120.867 278.01 121.32C277.557 121.773 277.024 122 276.41 122H275.61ZM297.875 122C297.262 122 296.728 121.773 296.275 121.32C295.848 120.867 295.635 120.333 295.635 119.72V103.48C295.635 102.867 295.848 102.333 296.275 101.88C296.728 101.427 297.262 101.2 297.875 101.2H298.755C299.368 101.2 299.902 101.427 300.355 101.88C300.808 102.333 301.035 102.867 301.035 103.48V108.84C301.035 109.08 301.155 109.2 301.395 109.2H308.115C308.355 109.2 308.475 109.08 308.475 108.84V103.48C308.475 102.867 308.702 102.333 309.155 101.88C309.608 101.427 310.142 101.2 310.755 101.2H311.635C312.248 101.2 312.768 101.427 313.195 101.88C313.648 102.333 313.875 102.867 313.875 103.48V119.72C313.875 120.333 313.648 120.867 313.195 121.32C312.768 121.773 312.248 122 311.635 122H310.755C310.142 122 309.608 121.773 309.155 121.32C308.702 120.867 308.475 120.333 308.475 119.72V113.32C308.475 113.08 308.355 112.96 308.115 112.96H301.395C301.155 112.96 301.035 113.08 301.035 113.32V119.72C301.035 120.333 300.808 120.867 300.355 121.32C299.902 121.773 299.368 122 298.755 122H297.875ZM321.665 122C321.052 122 320.518 121.773 320.065 121.32C319.612 120.867 319.385 120.333 319.385 119.72V103.48C319.385 102.867 319.612 102.333 320.065 101.88C320.518 101.427 321.052 101.2 321.665 101.2H322.425C323.038 101.2 323.572 101.427 324.025 101.88C324.478 102.333 324.705 102.867 324.705 103.48V114.72L324.745 114.76L324.785 114.72L331.225 103.16C331.972 101.853 333.105 101.2 334.625 101.2H335.505C336.118 101.2 336.652 101.427 337.105 101.88C337.558 102.333 337.785 102.867 337.785 103.48V119.72C337.785 120.333 337.558 120.867 337.105 121.32C336.652 121.773 336.118 122 335.505 122H334.745C334.132 122 333.598 121.773 333.145 121.32C332.692 120.867 332.465 120.333 332.465 119.72V108.48L332.425 108.44L332.385 108.48L325.945 120.04C325.198 121.347 324.065 122 322.545 122H321.665ZM345.531 122C344.918 122 344.385 121.773 343.931 121.32C343.505 120.867 343.291 120.333 343.291 119.72V103.48C343.291 102.867 343.505 102.333 343.931 101.88C344.385 101.427 344.918 101.2 345.531 101.2H357.651C358.211 101.2 358.691 101.4 359.091 101.8C359.491 102.2 359.691 102.68 359.691 103.24C359.691 103.8 359.491 104.28 359.091 104.68C358.691 105.08 358.211 105.28 357.651 105.28H349.091C348.851 105.28 348.731 105.387 348.731 105.6V119.72C348.731 120.333 348.505 120.867 348.051 121.32C347.625 121.773 347.105 122 346.491 122H345.531ZM366.079 122C365.466 122 364.932 121.773 364.479 121.32C364.026 120.867 363.799 120.333 363.799 119.72V103.48C363.799 102.867 364.026 102.333 364.479 101.88C364.932 101.427 365.466 101.2 366.079 101.2H366.839C367.452 101.2 367.986 101.427 368.439 101.88C368.892 102.333 369.119 102.867 369.119 103.48V114.72L369.159 114.76L369.199 114.72L375.639 103.16C376.386 101.853 377.519 101.2 379.039 101.2H379.919C380.532 101.2 381.066 101.427 381.519 101.88C381.972 102.333 382.199 102.867 382.199 103.48V119.72C382.199 120.333 381.972 120.867 381.519 121.32C381.066 121.773 380.532 122 379.919 122H379.159C378.546 122 378.012 121.773 377.559 121.32C377.106 120.867 376.879 120.333 376.879 119.72V108.48L376.839 108.44L376.799 108.48L370.359 120.04C369.612 121.347 368.479 122 366.959 122H366.079ZM389.105 126.4C388.519 126.4 388.039 126.173 387.665 125.72C387.319 125.267 387.212 124.76 387.345 124.2L388.985 117.4C389.145 116.76 389.492 116.24 390.025 115.84C390.559 115.413 391.145 115.2 391.785 115.2H393.905C394.439 115.2 394.852 115.427 395.145 115.88C395.465 116.333 395.519 116.813 395.305 117.32L392.505 124.28C392.265 124.92 391.852 125.427 391.265 125.8C390.705 126.2 390.079 126.4 389.385 126.4H389.105ZM52.68 181.4C49.3733 181.4 46.8267 180.493 45.04 178.68C43.2533 176.84 42.36 174.147 42.36 170.6C42.36 167.107 43.2133 164.44 44.92 162.6C46.6533 160.733 49.1067 159.8 52.28 159.8C53.6933 159.8 55.0533 159.893 56.36 160.08C56.9733 160.16 57.48 160.44 57.88 160.92C58.28 161.4 58.48 161.96 58.48 162.6C58.48 163.133 58.2667 163.56 57.84 163.88C57.44 164.2 56.9733 164.307 56.44 164.2C55.4 163.987 54.24 163.88 52.96 163.88C51.28 163.88 50.0267 164.413 49.2 165.48C48.3733 166.547 47.96 168.253 47.96 170.6C47.96 173 48.4 174.72 49.28 175.76C50.16 176.8 51.52 177.32 53.36 177.32C54.6667 177.32 55.8 177.2 56.76 176.96C57.2667 176.827 57.72 176.92 58.12 177.24C58.5467 177.56 58.76 177.973 58.76 178.48C58.76 179.12 58.56 179.68 58.16 180.16C57.7867 180.64 57.2933 180.933 56.68 181.04C55.32 181.28 53.9867 181.4 52.68 181.4ZM76.3125 165.36C75.5392 164.24 74.3658 163.68 72.7925 163.68C71.2192 163.68 70.0325 164.24 69.2325 165.36C68.4592 166.453 68.0725 168.2 68.0725 170.6C68.0725 173 68.4592 174.76 69.2325 175.88C70.0325 176.973 71.2192 177.52 72.7925 177.52C74.3658 177.52 75.5392 176.973 76.3125 175.88C77.1125 174.76 77.5125 173 77.5125 170.6C77.5125 168.2 77.1125 166.453 76.3125 165.36ZM80.2325 178.6C78.4725 180.467 75.9925 181.4 72.7925 181.4C69.5925 181.4 67.0992 180.467 65.3125 178.6C63.5525 176.707 62.6725 174.04 62.6725 170.6C62.6725 167.16 63.5525 164.507 65.3125 162.64C67.0992 160.747 69.5925 159.8 72.7925 159.8C75.9925 159.8 78.4725 160.747 80.2325 162.64C82.0192 164.507 82.9125 167.16 82.9125 170.6C82.9125 174.04 82.0192 176.707 80.2325 178.6ZM92.3213 172.04V177.36C92.3213 177.573 92.4413 177.707 92.6813 177.76C93.0013 177.813 93.5079 177.84 94.2013 177.84C97.3746 177.84 98.9613 176.773 98.9613 174.64C98.9613 172.693 97.3346 171.72 94.0813 171.72H92.6813C92.4413 171.72 92.3213 171.827 92.3213 172.04ZM92.3213 163.84V168.12C92.3213 168.333 92.4413 168.44 92.6813 168.44H93.9613C95.2679 168.44 96.2946 168.2 97.0413 167.72C97.8146 167.24 98.2013 166.587 98.2013 165.76C98.2013 164.16 96.8279 163.36 94.0813 163.36C93.7613 163.36 93.2813 163.387 92.6413 163.44C92.4279 163.493 92.3213 163.627 92.3213 163.84ZM89.2812 181.08C88.6413 181.027 88.1079 180.76 87.6813 180.28C87.2546 179.773 87.0413 179.2 87.0413 178.56V162.64C87.0413 161.973 87.2546 161.4 87.6813 160.92C88.1079 160.44 88.6546 160.173 89.3213 160.12C90.8679 159.987 92.3079 159.92 93.6413 159.92C99.9879 159.92 103.161 161.653 103.161 165.12C103.161 166.32 102.721 167.347 101.841 168.2C100.988 169.027 99.8146 169.573 98.3213 169.84L98.2813 169.88H98.3213C100.108 170.12 101.508 170.707 102.521 171.64C103.535 172.547 104.041 173.667 104.041 175C104.041 179.187 100.681 181.28 93.9613 181.28C92.5213 181.28 90.9613 181.213 89.2812 181.08ZM116.849 163.52C115.489 163.52 114.436 163.907 113.689 164.68C112.969 165.427 112.516 166.64 112.329 168.32C112.329 168.533 112.436 168.64 112.649 168.64H120.489C120.703 168.64 120.809 168.533 120.809 168.32C120.703 165.12 119.383 163.52 116.849 163.52ZM117.849 181.4C114.356 181.4 111.663 180.493 109.769 178.68C107.903 176.84 106.969 174.147 106.969 170.6C106.969 167.08 107.809 164.4 109.489 162.56C111.169 160.72 113.596 159.8 116.769 159.8C122.689 159.8 125.729 163.16 125.889 169.88C125.916 170.52 125.689 171.053 125.209 171.48C124.729 171.907 124.169 172.12 123.529 172.12H112.609C112.369 172.12 112.276 172.24 112.329 172.48C112.516 174.267 113.103 175.573 114.089 176.4C115.103 177.2 116.569 177.6 118.489 177.6C119.689 177.6 121.023 177.4 122.489 177C122.969 176.867 123.409 176.947 123.809 177.24C124.236 177.533 124.449 177.933 124.449 178.44C124.449 179.053 124.263 179.6 123.889 180.08C123.543 180.533 123.076 180.813 122.489 180.92C120.996 181.24 119.449 181.4 117.849 181.4ZM131.045 164.28C130.485 164.28 130.005 164.08 129.605 163.68C129.205 163.28 129.005 162.8 129.005 162.24C129.005 161.68 129.205 161.2 129.605 160.8C130.005 160.4 130.485 160.2 131.045 160.2H145.525C146.085 160.2 146.565 160.4 146.965 160.8C147.365 161.2 147.565 161.68 147.565 162.24C147.565 162.8 147.365 163.28 146.965 163.68C146.565 164.08 146.085 164.28 145.525 164.28H141.405C141.165 164.28 141.045 164.387 141.045 164.6V178.72C141.045 179.333 140.819 179.867 140.365 180.32C139.912 180.773 139.379 181 138.765 181H137.805C137.192 181 136.659 180.773 136.205 180.32C135.752 179.867 135.525 179.333 135.525 178.72V164.6C135.525 164.387 135.405 164.28 135.165 164.28H131.045ZM164.125 165.36C163.352 164.24 162.178 163.68 160.605 163.68C159.032 163.68 157.845 164.24 157.045 165.36C156.272 166.453 155.885 168.2 155.885 170.6C155.885 173 156.272 174.76 157.045 175.88C157.845 176.973 159.032 177.52 160.605 177.52C162.178 177.52 163.352 176.973 164.125 175.88C164.925 174.76 165.325 173 165.325 170.6C165.325 168.2 164.925 166.453 164.125 165.36ZM168.045 178.6C166.285 180.467 163.805 181.4 160.605 181.4C157.405 181.4 154.912 180.467 153.125 178.6C151.365 176.707 150.485 174.04 150.485 170.6C150.485 167.16 151.365 164.507 153.125 162.64C154.912 160.747 157.405 159.8 160.605 159.8C163.805 159.8 166.285 160.747 168.045 162.64C169.832 164.507 170.725 167.16 170.725 170.6C170.725 174.04 169.832 176.707 168.045 178.6ZM180.134 172.04V177.36C180.134 177.573 180.254 177.707 180.494 177.76C180.814 177.813 181.32 177.84 182.014 177.84C185.187 177.84 186.774 176.773 186.774 174.64C186.774 172.693 185.147 171.72 181.894 171.72H180.494C180.254 171.72 180.134 171.827 180.134 172.04ZM180.134 163.84V168.12C180.134 168.333 180.254 168.44 180.494 168.44H181.774C183.08 168.44 184.107 168.2 184.854 167.72C185.627 167.24 186.014 166.587 186.014 165.76C186.014 164.16 184.64 163.36 181.894 163.36C181.574 163.36 181.094 163.387 180.454 163.44C180.24 163.493 180.134 163.627 180.134 163.84ZM177.094 181.08C176.454 181.027 175.92 180.76 175.494 180.28C175.067 179.773 174.854 179.2 174.854 178.56V162.64C174.854 161.973 175.067 161.4 175.494 160.92C175.92 160.44 176.467 160.173 177.134 160.12C178.68 159.987 180.12 159.92 181.454 159.92C187.8 159.92 190.974 161.653 190.974 165.12C190.974 166.32 190.534 167.347 189.654 168.2C188.8 169.027 187.627 169.573 186.134 169.84L186.094 169.88H186.134C187.92 170.12 189.32 170.707 190.334 171.64C191.347 172.547 191.854 173.667 191.854 175C191.854 179.187 188.494 181.28 181.774 181.28C180.334 181.28 178.774 181.213 177.094 181.08ZM205.982 171C202.169 171 200.262 172.173 200.262 174.52C200.262 175.373 200.502 176.067 200.982 176.6C201.489 177.133 202.129 177.4 202.902 177.4C204.422 177.4 205.649 176.933 206.582 176C207.515 175.04 207.982 173.733 207.982 172.08V171.36C207.982 171.12 207.862 171 207.622 171H205.982ZM201.462 181.4C199.649 181.4 198.142 180.813 196.942 179.64C195.769 178.44 195.182 176.893 195.182 175C195.182 172.68 196.062 170.88 197.822 169.6C199.609 168.32 202.329 167.68 205.982 167.68H207.622C207.862 167.68 207.982 167.56 207.982 167.32V167C207.982 165.773 207.689 164.92 207.102 164.44C206.515 163.933 205.475 163.68 203.982 163.68C202.435 163.68 200.542 163.96 198.302 164.52C197.822 164.653 197.382 164.573 196.982 164.28C196.582 163.96 196.382 163.547 196.382 163.04C196.382 162.427 196.569 161.88 196.942 161.4C197.315 160.893 197.795 160.587 198.382 160.48C200.409 160.027 202.315 159.8 204.102 159.8C207.515 159.8 209.902 160.413 211.262 161.64C212.622 162.867 213.302 165.013 213.302 168.08V178.72C213.302 179.333 213.075 179.867 212.622 180.32C212.195 180.773 211.675 181 211.062 181H210.622C209.982 181 209.435 180.787 208.982 180.36C208.529 179.907 208.289 179.36 208.262 178.72V178.16C208.262 178.133 208.249 178.12 208.222 178.12C208.169 178.12 208.142 178.133 208.142 178.16C206.515 180.32 204.289 181.4 201.462 181.4ZM219.444 164.28C218.884 164.28 218.404 164.08 218.004 163.68C217.604 163.28 217.404 162.8 217.404 162.24C217.404 161.68 217.604 161.2 218.004 160.8C218.404 160.4 218.884 160.2 219.444 160.2H233.924C234.484 160.2 234.964 160.4 235.364 160.8C235.764 161.2 235.964 161.68 235.964 162.24C235.964 162.8 235.764 163.28 235.364 163.68C234.964 164.08 234.484 164.28 233.924 164.28H229.804C229.564 164.28 229.444 164.387 229.444 164.6V178.72C229.444 179.333 229.217 179.867 228.764 180.32C228.31 180.773 227.777 181 227.164 181H226.204C225.59 181 225.057 180.773 224.604 180.32C224.15 179.867 223.924 179.333 223.924 178.72V164.6C223.924 164.387 223.804 164.28 223.564 164.28H219.444ZM245.483 170.2V176.92C245.483 177.133 245.603 177.267 245.843 177.32C246.563 177.453 247.203 177.52 247.763 177.52C249.47 177.52 250.71 177.187 251.483 176.52C252.283 175.827 252.683 174.76 252.683 173.32C252.683 172.147 252.257 171.24 251.403 170.6C250.577 169.933 249.337 169.6 247.683 169.6C247.097 169.6 246.47 169.667 245.803 169.8C245.59 169.853 245.483 169.987 245.483 170.2ZM242.523 181.12C241.883 181.04 241.35 180.747 240.923 180.24C240.497 179.733 240.283 179.16 240.283 178.52V162.48C240.283 161.867 240.51 161.333 240.963 160.88C241.417 160.427 241.95 160.2 242.563 160.2H243.243C243.857 160.2 244.377 160.427 244.803 160.88C245.257 161.333 245.483 161.867 245.483 162.48V165.64C245.483 165.72 245.523 165.8 245.603 165.88C245.683 165.96 245.763 165.987 245.843 165.96C246.91 165.8 247.79 165.72 248.483 165.72C251.443 165.72 253.71 166.4 255.283 167.76C256.883 169.12 257.683 170.973 257.683 173.32C257.683 176.04 256.843 178.067 255.163 179.4C253.483 180.733 250.857 181.4 247.283 181.4C245.523 181.4 243.937 181.307 242.523 181.12ZM275.454 181C274.841 181 274.307 180.773 273.854 180.32C273.401 179.867 273.174 179.333 273.174 178.72V162.48C273.174 161.867 273.401 161.333 273.854 160.88C274.307 160.427 274.841 160.2 275.454 160.2H276.214C276.827 160.2 277.361 160.427 277.814 160.88C278.267 161.333 278.494 161.867 278.494 162.48V173.72L278.534 173.76L278.574 173.72L285.014 162.16C285.761 160.853 286.894 160.2 288.414 160.2H289.294C289.907 160.2 290.441 160.427 290.894 160.88C291.347 161.333 291.574 161.867 291.574 162.48V178.72C291.574 179.333 291.347 179.867 290.894 180.32C290.441 180.773 289.907 181 289.294 181H288.534C287.921 181 287.387 180.773 286.934 180.32C286.481 179.867 286.254 179.333 286.254 178.72V167.48L286.214 167.44L286.174 167.48L279.734 179.04C278.987 180.347 277.854 181 276.334 181H275.454ZM297.72 181C297.214 181 296.84 180.787 296.6 180.36C296.36 179.933 296.374 179.507 296.64 179.08L301.76 170.68C301.894 170.493 301.894 170.307 301.76 170.12L296.84 162.12C296.574 161.693 296.56 161.267 296.8 160.84C297.04 160.413 297.414 160.2 297.92 160.2H299.2C299.894 160.2 300.534 160.387 301.12 160.76C301.734 161.107 302.2 161.587 302.52 162.2L305.24 167.44C305.24 167.467 305.254 167.48 305.28 167.48C305.307 167.48 305.32 167.467 305.32 167.44L308.04 162.2C308.36 161.587 308.814 161.107 309.4 160.76C309.987 160.387 310.64 160.2 311.36 160.2H312.48C312.987 160.2 313.36 160.413 313.6 160.84C313.84 161.267 313.827 161.693 313.56 162.12L308.64 170.12C308.507 170.307 308.507 170.493 308.64 170.68L313.76 179.08C314.027 179.507 314.04 179.933 313.8 180.36C313.56 180.787 313.187 181 312.68 181H311.4C310.68 181 310.027 180.827 309.44 180.48C308.854 180.107 308.4 179.613 308.08 179L305.16 173.4C305.16 173.373 305.147 173.36 305.12 173.36C305.094 173.36 305.08 173.373 305.08 173.4L302.16 179C301.84 179.613 301.374 180.107 300.76 180.48C300.174 180.827 299.534 181 298.84 181H297.72ZM335.822 176.84C335.769 176.893 335.756 176.96 335.782 177.04C335.836 177.093 335.902 177.12 335.982 177.12H343.342C343.582 177.12 343.702 177.013 343.702 176.8V164.4C343.702 164.187 343.582 164.08 343.342 164.08H338.222C338.009 164.08 337.902 164.187 337.902 164.4C337.902 167.653 337.862 169.907 337.782 171.16C337.702 172.387 337.529 173.387 337.262 174.16C337.022 174.907 336.542 175.8 335.822 176.84ZM330.342 185.8C329.729 185.8 329.196 185.573 328.742 185.12C328.316 184.667 328.102 184.133 328.102 183.52V178.64C328.102 178.213 328.236 177.853 328.502 177.56C328.796 177.267 329.156 177.12 329.582 177.12C329.742 177.12 329.862 177.067 329.942 176.96C330.929 175.733 331.596 174.733 331.942 173.96C332.289 173.187 332.516 172.16 332.622 170.88C332.756 169.573 332.822 167.307 332.822 164.08V162.48C332.822 161.867 333.049 161.333 333.502 160.88C333.956 160.427 334.489 160.2 335.102 160.2H346.542C347.156 160.2 347.689 160.427 348.142 160.88C348.596 161.333 348.822 161.867 348.822 162.48V176.8C348.822 177.013 348.942 177.12 349.182 177.12H349.302C349.916 177.12 350.436 177.347 350.862 177.8C351.316 178.253 351.542 178.787 351.542 179.4V183.52C351.542 184.133 351.316 184.667 350.862 185.12C350.436 185.573 349.916 185.8 349.302 185.8H348.702C348.089 185.8 347.556 185.573 347.102 185.12C346.649 184.667 346.422 184.133 346.422 183.52V181.36C346.422 181.12 346.302 181 346.062 181H333.582C333.342 181 333.222 181.12 333.222 181.36V183.52C333.222 184.133 332.996 184.667 332.542 185.12C332.089 185.573 331.556 185.8 330.942 185.8H330.342ZM360.954 167.88V173.32C360.954 174.387 361.407 175.333 362.314 176.16C363.247 176.987 364.327 177.4 365.554 177.4C366.967 177.4 368.087 176.827 368.914 175.68C369.741 174.533 370.154 172.84 370.154 170.6C370.154 166.067 368.621 163.8 365.554 163.8C364.327 163.8 363.247 164.213 362.314 165.04C361.407 165.867 360.954 166.813 360.954 167.88ZM357.954 189.8C357.341 189.8 356.807 189.573 356.354 189.12C355.901 188.667 355.674 188.133 355.674 187.52V162.48C355.674 161.867 355.901 161.333 356.354 160.88C356.807 160.427 357.341 160.2 357.954 160.2H358.434C359.074 160.2 359.621 160.427 360.074 160.88C360.527 161.307 360.767 161.84 360.794 162.48V162.76C360.794 162.787 360.807 162.8 360.834 162.8C360.861 162.8 360.887 162.787 360.914 162.76C361.874 161.693 362.834 160.933 363.794 160.48C364.754 160.027 365.874 159.8 367.154 159.8C369.661 159.8 371.661 160.747 373.154 162.64C374.647 164.507 375.394 167.16 375.394 170.6C375.394 173.933 374.607 176.573 373.034 178.52C371.487 180.44 369.527 181.4 367.154 181.4C364.834 181.4 362.821 180.56 361.114 178.88C361.087 178.853 361.061 178.84 361.034 178.84C361.007 178.84 360.994 178.853 360.994 178.88V187.52C360.994 188.133 360.767 188.667 360.314 189.12C359.887 189.573 359.367 189.8 358.754 189.8H357.954ZM385.898 180.68L378.698 162.32C378.484 161.813 378.524 161.333 378.818 160.88C379.138 160.427 379.578 160.2 380.138 160.2H381.418C382.084 160.2 382.684 160.4 383.218 160.8C383.751 161.2 384.124 161.72 384.338 162.36L388.498 175.48C388.498 175.507 388.511 175.52 388.538 175.52C388.564 175.52 388.578 175.507 388.578 175.48L392.738 162.36C392.924 161.72 393.284 161.2 393.818 160.8C394.351 160.4 394.964 160.2 395.658 160.2H396.698C397.231 160.2 397.658 160.427 397.978 160.88C398.298 161.333 398.364 161.813 398.178 162.32L391.138 181.12C389.964 184.24 388.618 186.467 387.098 187.8C385.604 189.133 383.538 189.907 380.898 190.12C380.338 190.147 379.844 189.96 379.418 189.56C379.018 189.187 378.818 188.72 378.818 188.16C378.818 187.6 379.018 187.107 379.418 186.68C379.818 186.28 380.311 186.053 380.898 186C382.204 185.84 383.218 185.413 383.938 184.72C384.658 184.053 385.311 182.92 385.898 181.32C385.924 181.213 385.938 181.107 385.938 181C385.938 180.893 385.924 180.787 385.898 180.68ZM404.125 181C403.512 181 402.978 180.773 402.525 180.32C402.098 179.867 401.885 179.333 401.885 178.72V162.48C401.885 161.867 402.098 161.333 402.525 160.88C402.978 160.427 403.512 160.2 404.125 160.2H416.245C416.805 160.2 417.285 160.4 417.685 160.8C418.085 161.2 418.285 161.68 418.285 162.24C418.285 162.8 418.085 163.28 417.685 163.68C417.285 164.08 416.805 164.28 416.245 164.28H407.685C407.445 164.28 407.325 164.387 407.325 164.6V178.72C407.325 179.333 407.098 179.867 406.645 180.32C406.218 180.773 405.698 181 405.085 181H404.125ZM424.673 181C424.059 181 423.526 180.773 423.073 180.32C422.619 179.867 422.393 179.333 422.393 178.72V162.48C422.393 161.867 422.619 161.333 423.073 160.88C423.526 160.427 424.059 160.2 424.673 160.2H425.433C426.046 160.2 426.579 160.427 427.033 160.88C427.486 161.333 427.713 161.867 427.713 162.48V173.72L427.753 173.76L427.793 173.72L434.233 162.16C434.979 160.853 436.113 160.2 437.633 160.2H438.513C439.126 160.2 439.659 160.427 440.113 160.88C440.566 161.333 440.793 161.867 440.793 162.48V178.72C440.793 179.333 440.566 179.867 440.113 180.32C439.659 180.773 439.126 181 438.513 181H437.753C437.139 181 436.606 180.773 436.153 180.32C435.699 179.867 435.473 179.333 435.473 178.72V167.48L435.433 167.44L435.393 167.48L428.953 179.04C428.206 180.347 427.073 181 425.553 181H424.673ZM448.539 181C447.926 181 447.392 180.773 446.939 180.32C446.512 179.867 446.299 179.333 446.299 178.72V162.48C446.299 161.867 446.512 161.333 446.939 160.88C447.392 160.427 447.926 160.2 448.539 160.2H449.659C451.179 160.2 452.272 160.88 452.939 162.24L457.739 172C457.739 172.027 457.752 172.04 457.779 172.04L457.819 172L462.619 162.24C463.286 160.88 464.379 160.2 465.899 160.2H467.099C467.712 160.2 468.232 160.427 468.659 160.88C469.112 161.333 469.339 161.867 469.339 162.48V178.72C469.339 179.333 469.112 179.867 468.659 180.32C468.232 180.773 467.712 181 467.099 181H466.379C465.766 181 465.232 180.773 464.779 180.32C464.326 179.867 464.099 179.333 464.099 178.72V167.28H464.019L460.779 173.92C460.166 175.147 459.166 175.76 457.779 175.76C456.392 175.76 455.392 175.147 454.779 173.92L451.499 167.28H451.459H451.419V178.72C451.419 179.333 451.192 179.867 450.739 180.32C450.312 180.773 449.792 181 449.179 181H448.539ZM46.04 240C45.4267 240 44.8933 239.773 44.44 239.32C43.9867 238.867 43.76 238.333 43.76 237.72V221.48C43.76 220.867 43.9867 220.333 44.44 219.88C44.8933 219.427 45.4267 219.2 46.04 219.2H59.56C60.1733 219.2 60.7067 219.427 61.16 219.88C61.6133 220.333 61.84 220.867 61.84 221.48V237.72C61.84 238.333 61.6133 238.867 61.16 239.32C60.7067 239.773 60.1733 240 59.56 240H58.84C58.2267 240 57.6933 239.773 57.24 239.32C56.7867 238.867 56.56 238.333 56.56 237.72V223.56C56.56 223.32 56.4533 223.2 56.24 223.2H49.36C49.1467 223.2 49.04 223.32 49.04 223.56V237.72C49.04 238.333 48.8133 238.867 48.36 239.32C47.9067 239.773 47.3733 240 46.76 240H46.04ZM79.5938 224.36C78.8204 223.24 77.6471 222.68 76.0738 222.68C74.5004 222.68 73.3138 223.24 72.5138 224.36C71.7404 225.453 71.3538 227.2 71.3538 229.6C71.3538 232 71.7404 233.76 72.5138 234.88C73.3138 235.973 74.5004 236.52 76.0738 236.52C77.6471 236.52 78.8204 235.973 79.5938 234.88C80.3938 233.76 80.7938 232 80.7938 229.6C80.7938 227.2 80.3938 225.453 79.5938 224.36ZM83.5138 237.6C81.7538 239.467 79.2738 240.4 76.0738 240.4C72.8738 240.4 70.3804 239.467 68.5938 237.6C66.8338 235.707 65.9538 233.04 65.9538 229.6C65.9538 226.16 66.8338 223.507 68.5938 221.64C70.3804 219.747 72.8738 218.8 76.0738 218.8C79.2738 218.8 81.7538 219.747 83.5138 221.64C85.3004 223.507 86.1938 226.16 86.1938 229.6C86.1938 233.04 85.3004 235.707 83.5138 237.6ZM90.2825 240.24C89.7492 240.293 89.2825 240.133 88.8825 239.76C88.5092 239.387 88.3225 238.933 88.3225 238.4C88.3225 237.867 88.5092 237.387 88.8825 236.96C89.2825 236.533 89.7625 236.253 90.3225 236.12C91.4692 235.827 92.2425 235.187 92.6425 234.2C93.0425 233.213 93.2425 231.52 93.2425 229.12V221.48C93.2425 220.867 93.4692 220.333 93.9225 219.88C94.3758 219.427 94.9092 219.2 95.5225 219.2H107.923C108.536 219.2 109.069 219.427 109.523 219.88C109.976 220.333 110.203 220.867 110.203 221.48V237.72C110.203 238.333 109.976 238.867 109.523 239.32C109.069 239.773 108.536 240 107.923 240H107.203C106.589 240 106.056 239.773 105.603 239.32C105.149 238.867 104.923 238.333 104.923 237.72V223.56C104.923 223.32 104.803 223.2 104.563 223.2H98.7225C98.5092 223.2 98.4025 223.32 98.4025 223.56V229.88C98.4025 233.4 97.8158 235.92 96.6425 237.44C95.4958 238.933 93.3758 239.867 90.2825 240.24ZM120.913 229.2V235.92C120.913 236.133 121.033 236.267 121.273 236.32C121.993 236.453 122.633 236.52 123.193 236.52C124.9 236.52 126.14 236.187 126.913 235.52C127.713 234.827 128.113 233.76 128.113 232.32C128.113 231.147 127.686 230.24 126.833 229.6C126.006 228.933 124.766 228.6 123.113 228.6C122.526 228.6 121.9 228.667 121.233 228.8C121.02 228.853 120.913 228.987 120.913 229.2ZM117.953 240.12C117.313 240.04 116.78 239.747 116.353 239.24C115.926 238.733 115.713 238.16 115.713 237.52V221.48C115.713 220.867 115.94 220.333 116.393 219.88C116.846 219.427 117.38 219.2 117.993 219.2H118.673C119.286 219.2 119.806 219.427 120.233 219.88C120.686 220.333 120.913 220.867 120.913 221.48V224.64C120.913 224.72 120.953 224.8 121.033 224.88C121.113 224.96 121.193 224.987 121.273 224.96C122.34 224.8 123.22 224.72 123.913 224.72C126.873 224.72 129.14 225.4 130.713 226.76C132.313 228.12 133.113 229.973 133.113 232.32C133.113 235.04 132.273 237.067 130.593 238.4C128.913 239.733 126.286 240.4 122.713 240.4C120.953 240.4 119.366 240.307 117.953 240.12ZM137.957 239.76C137.397 239.627 136.93 239.32 136.557 238.84C136.21 238.36 136.037 237.813 136.037 237.2C136.037 236.72 136.237 236.333 136.637 236.04C137.037 235.747 137.477 235.667 137.957 235.8C139.69 236.253 141.45 236.48 143.237 236.48C146.517 236.48 148.157 235.56 148.157 233.72C148.157 232.813 147.637 232.133 146.597 231.68C145.583 231.227 143.783 230.987 141.197 230.96C140.717 230.96 140.303 230.787 139.957 230.44C139.61 230.067 139.437 229.64 139.437 229.16C139.437 228.68 139.61 228.267 139.957 227.92C140.303 227.573 140.717 227.4 141.197 227.4C145.65 227.32 147.877 226.48 147.877 224.88C147.877 223.36 146.237 222.6 142.957 222.6C141.57 222.6 140.01 222.84 138.277 223.32C137.797 223.453 137.357 223.387 136.957 223.12C136.557 222.853 136.357 222.467 136.357 221.96C136.357 221.347 136.53 220.813 136.877 220.36C137.223 219.88 137.69 219.573 138.277 219.44C139.983 219.013 141.717 218.8 143.477 218.8C146.49 218.8 148.85 219.32 150.557 220.36C152.29 221.373 153.157 222.613 153.157 224.08C153.157 225.2 152.73 226.2 151.877 227.08C151.05 227.96 149.85 228.6 148.277 229C148.223 229 148.197 229.027 148.197 229.08C148.197 229.107 148.223 229.12 148.277 229.12C149.823 229.36 151.063 229.973 151.997 230.96C152.957 231.947 153.437 233.093 153.437 234.4C153.437 236.213 152.57 237.667 150.837 238.76C149.13 239.853 146.677 240.4 143.477 240.4C141.61 240.4 139.77 240.187 137.957 239.76ZM169.984 224.36C169.211 223.24 168.038 222.68 166.464 222.68C164.891 222.68 163.704 223.24 162.904 224.36C162.131 225.453 161.744 227.2 161.744 229.6C161.744 232 162.131 233.76 162.904 234.88C163.704 235.973 164.891 236.52 166.464 236.52C168.038 236.52 169.211 235.973 169.984 234.88C170.784 233.76 171.184 232 171.184 229.6C171.184 227.2 170.784 225.453 169.984 224.36ZM173.904 237.6C172.144 239.467 169.664 240.4 166.464 240.4C163.264 240.4 160.771 239.467 158.984 237.6C157.224 235.707 156.344 233.04 156.344 229.6C156.344 226.16 157.224 223.507 158.984 221.64C160.771 219.747 163.264 218.8 166.464 218.8C169.664 218.8 172.144 219.747 173.904 221.64C175.691 223.507 176.584 226.16 176.584 229.6C176.584 233.04 175.691 235.707 173.904 237.6ZM185.993 231.04V236.36C185.993 236.573 186.113 236.707 186.353 236.76C186.673 236.813 187.18 236.84 187.873 236.84C191.046 236.84 192.633 235.773 192.633 233.64C192.633 231.693 191.006 230.72 187.753 230.72H186.353C186.113 230.72 185.993 230.827 185.993 231.04ZM185.993 222.84V227.12C185.993 227.333 186.113 227.44 186.353 227.44H187.633C188.94 227.44 189.966 227.2 190.713 226.72C191.486 226.24 191.873 225.587 191.873 224.76C191.873 223.16 190.5 222.36 187.753 222.36C187.433 222.36 186.953 222.387 186.313 222.44C186.1 222.493 185.993 222.627 185.993 222.84ZM182.953 240.08C182.313 240.027 181.78 239.76 181.353 239.28C180.926 238.773 180.713 238.2 180.713 237.56V221.64C180.713 220.973 180.926 220.4 181.353 219.92C181.78 219.44 182.326 219.173 182.993 219.12C184.54 218.987 185.98 218.92 187.313 218.92C193.66 218.92 196.833 220.653 196.833 224.12C196.833 225.32 196.393 226.347 195.513 227.2C194.66 228.027 193.486 228.573 191.993 228.84L191.953 228.88H191.993C193.78 229.12 195.18 229.707 196.193 230.64C197.206 231.547 197.713 232.667 197.713 234C197.713 238.187 194.353 240.28 187.633 240.28C186.193 240.28 184.633 240.213 182.953 240.08ZM211.841 230C208.028 230 206.121 231.173 206.121 233.52C206.121 234.373 206.361 235.067 206.841 235.6C207.348 236.133 207.988 236.4 208.761 236.4C210.281 236.4 211.508 235.933 212.441 235C213.375 234.04 213.841 232.733 213.841 231.08V230.36C213.841 230.12 213.721 230 213.481 230H211.841ZM207.321 240.4C205.508 240.4 204.001 239.813 202.801 238.64C201.628 237.44 201.041 235.893 201.041 234C201.041 231.68 201.921 229.88 203.681 228.6C205.468 227.32 208.188 226.68 211.841 226.68H213.481C213.721 226.68 213.841 226.56 213.841 226.32V226C213.841 224.773 213.548 223.92 212.961 223.44C212.375 222.933 211.335 222.68 209.841 222.68C208.295 222.68 206.401 222.96 204.161 223.52C203.681 223.653 203.241 223.573 202.841 223.28C202.441 222.96 202.241 222.547 202.241 222.04C202.241 221.427 202.428 220.88 202.801 220.4C203.175 219.893 203.655 219.587 204.241 219.48C206.268 219.027 208.175 218.8 209.961 218.8C213.375 218.8 215.761 219.413 217.121 220.64C218.481 221.867 219.161 224.013 219.161 227.08V237.72C219.161 238.333 218.935 238.867 218.481 239.32C218.055 239.773 217.535 240 216.921 240H216.481C215.841 240 215.295 239.787 214.841 239.36C214.388 238.907 214.148 238.36 214.121 237.72V237.16C214.121 237.133 214.108 237.12 214.081 237.12C214.028 237.12 214.001 237.133 214.001 237.16C212.375 239.32 210.148 240.4 207.321 240.4ZM225.303 223.28C224.743 223.28 224.263 223.08 223.863 222.68C223.463 222.28 223.263 221.8 223.263 221.24C223.263 220.68 223.463 220.2 223.863 219.8C224.263 219.4 224.743 219.2 225.303 219.2H239.783C240.343 219.2 240.823 219.4 241.223 219.8C241.623 220.2 241.823 220.68 241.823 221.24C241.823 221.8 241.623 222.28 241.223 222.68C240.823 223.08 240.343 223.28 239.783 223.28H235.663C235.423 223.28 235.303 223.387 235.303 223.6V237.72C235.303 238.333 235.076 238.867 234.623 239.32C234.17 239.773 233.636 240 233.023 240H232.063C231.45 240 230.916 239.773 230.463 239.32C230.01 238.867 229.783 238.333 229.783 237.72V223.6C229.783 223.387 229.663 223.28 229.423 223.28H225.303ZM254.623 222.52C253.263 222.52 252.209 222.907 251.463 223.68C250.743 224.427 250.289 225.64 250.103 227.32C250.103 227.533 250.209 227.64 250.423 227.64H258.263C258.476 227.64 258.583 227.533 258.583 227.32C258.476 224.12 257.156 222.52 254.623 222.52ZM255.623 240.4C252.129 240.4 249.436 239.493 247.543 237.68C245.676 235.84 244.743 233.147 244.743 229.6C244.743 226.08 245.583 223.4 247.263 221.56C248.943 219.72 251.369 218.8 254.543 218.8C260.463 218.8 263.503 222.16 263.663 228.88C263.689 229.52 263.463 230.053 262.983 230.48C262.503 230.907 261.943 231.12 261.303 231.12H250.383C250.143 231.12 250.049 231.24 250.103 231.48C250.289 233.267 250.876 234.573 251.863 235.4C252.876 236.2 254.343 236.6 256.263 236.6C257.463 236.6 258.796 236.4 260.263 236C260.743 235.867 261.183 235.947 261.583 236.24C262.009 236.533 262.223 236.933 262.223 237.44C262.223 238.053 262.036 238.6 261.663 239.08C261.316 239.533 260.849 239.813 260.263 239.92C258.769 240.24 257.223 240.4 255.623 240.4ZM267.939 240.24C267.405 240.293 266.939 240.133 266.539 239.76C266.165 239.387 265.979 238.933 265.979 238.4C265.979 237.867 266.165 237.387 266.539 236.96C266.939 236.533 267.419 236.253 267.979 236.12C269.125 235.827 269.899 235.187 270.299 234.2C270.699 233.213 270.899 231.52 270.899 229.12V221.48C270.899 220.867 271.125 220.333 271.579 219.88C272.032 219.427 272.565 219.2 273.179 219.2H285.579C286.192 219.2 286.725 219.427 287.179 219.88C287.632 220.333 287.859 220.867 287.859 221.48V237.72C287.859 238.333 287.632 238.867 287.179 239.32C286.725 239.773 286.192 240 285.579 240H284.859C284.245 240 283.712 239.773 283.259 239.32C282.805 238.867 282.579 238.333 282.579 237.72V223.56C282.579 223.32 282.459 223.2 282.219 223.2H276.379C276.165 223.2 276.059 223.32 276.059 223.56V229.88C276.059 233.4 275.472 235.92 274.299 237.44C273.152 238.933 271.032 239.867 267.939 240.24ZM302.009 222.72C298.756 222.72 297.129 223.667 297.129 225.56C297.129 227.507 298.823 228.48 302.209 228.48H303.769C303.983 228.48 304.089 228.36 304.089 228.12V223.16C304.089 222.92 303.983 222.8 303.769 222.8C302.969 222.747 302.383 222.72 302.009 222.72ZM297.049 230.44C295.583 230.04 294.383 229.373 293.449 228.44C292.516 227.48 292.049 226.347 292.049 225.04C292.049 220.96 295.289 218.92 301.769 218.92C303.423 218.92 305.209 218.987 307.129 219.12C307.769 219.147 308.303 219.413 308.729 219.92C309.183 220.4 309.409 220.96 309.409 221.6V237.72C309.409 238.333 309.183 238.867 308.729 239.32C308.276 239.773 307.743 240 307.129 240H306.369C305.756 240 305.223 239.773 304.769 239.32C304.316 238.867 304.089 238.333 304.089 237.72V232.48C304.089 232.267 303.983 232.16 303.769 232.16H302.449C301.409 232.16 300.689 232.293 300.289 232.56C299.889 232.8 299.449 233.44 298.969 234.48L297.489 237.92C297.196 238.533 296.756 239.04 296.169 239.44C295.609 239.813 294.996 240 294.329 240H293.609C293.076 240 292.663 239.773 292.369 239.32C292.103 238.867 292.076 238.4 292.289 237.92L294.009 234.2C294.889 232.307 295.916 231.093 297.089 230.56C297.116 230.56 297.129 230.547 297.129 230.52C297.129 230.467 297.103 230.44 297.049 230.44ZM317.094 240C316.48 240 315.947 239.773 315.494 239.32C315.067 238.867 314.854 238.333 314.854 237.72V221.48C314.854 220.867 315.067 220.333 315.494 219.88C315.947 219.427 316.48 219.2 317.094 219.2H318.214C319.734 219.2 320.827 219.88 321.494 221.24L326.294 231C326.294 231.027 326.307 231.04 326.334 231.04L326.374 231L331.174 221.24C331.84 219.88 332.934 219.2 334.454 219.2H335.654C336.267 219.2 336.787 219.427 337.214 219.88C337.667 220.333 337.894 220.867 337.894 221.48V237.72C337.894 238.333 337.667 238.867 337.214 239.32C336.787 239.773 336.267 240 335.654 240H334.934C334.32 240 333.787 239.773 333.334 239.32C332.88 238.867 332.654 238.333 332.654 237.72V226.28H332.574L329.334 232.92C328.72 234.147 327.72 234.76 326.334 234.76C324.947 234.76 323.947 234.147 323.334 232.92L320.054 226.28H320.014H319.974V237.72C319.974 238.333 319.747 238.867 319.294 239.32C318.867 239.773 318.347 240 317.734 240H317.094Z" fill="black"/>
<path d="M669.215 65.6705C671.284 62.2223 675.756 61.1041 679.204 63.1731L675.458 69.4167C679.204 63.1731 679.201 63.1711 679.204 63.1731L679.218 63.1812L679.233 63.1904L679.269 63.2123L679.362 63.2697C679.434 63.3142 679.523 63.3708 679.63 63.4399C679.844 63.5781 680.126 63.7662 680.468 64.0053C681.151 64.4832 682.073 65.1676 683.153 66.0681C685.31 67.865 688.13 70.5493 690.938 74.2001C696.597 81.5565 702.156 92.788 702.156 108.25C702.156 123.712 696.597 134.944 690.938 142.3C688.13 145.951 685.31 148.635 683.153 150.432C682.073 151.332 681.151 152.017 680.468 152.495C680.126 152.734 679.844 152.922 679.63 153.06C679.577 153.095 679.528 153.126 679.483 153.154C679.438 153.183 679.398 153.208 679.362 153.23L679.269 153.288L679.233 153.31L679.218 153.319C679.215 153.321 679.204 153.327 675.458 147.083L679.204 153.327C675.756 155.396 671.284 154.278 669.215 150.83C667.154 147.396 668.255 142.946 671.669 140.866L671.722 140.832C671.793 140.786 671.928 140.697 672.117 140.565C672.496 140.299 673.091 139.861 673.831 139.245C675.315 138.008 677.349 136.081 679.395 133.421C683.445 128.157 687.594 119.971 687.594 108.25C687.594 96.5287 683.445 88.3435 679.395 83.0791C677.349 80.4195 675.315 78.4923 673.831 77.2554C673.091 76.6389 672.496 76.2008 672.117 75.9354C671.928 75.8029 671.793 75.7141 671.722 75.6684L671.669 75.6341C668.255 73.5538 667.154 69.1043 669.215 65.6705Z" fill="white"/>
<path d="M588.083 147.083C609.53 147.083 626.917 129.697 626.917 108.25C626.917 86.803 609.53 69.4167 588.083 69.4167C566.636 69.4167 549.25 86.803 549.25 108.25C549.25 129.697 566.636 147.083 588.083 147.083Z" fill="white"/>
<path d="M510.417 219.896C510.417 244.024 510.417 263.583 588.083 263.583C665.75 263.583 665.75 244.024 665.75 219.896C665.75 195.768 630.977 176.208 588.083 176.208C545.189 176.208 510.417 195.768 510.417 219.896Z" fill="white"/>
<path d="M659.788 82.5897C656.34 80.5208 651.867 81.6389 649.798 85.0872L652.208 95.0236L652.283 95.0752C652.397 95.1549 652.613 95.3123 652.897 95.5495C653.471 96.028 654.292 96.8023 655.124 97.8843C656.747 99.9935 658.469 103.325 658.469 108.25C658.469 113.176 656.747 116.506 655.124 118.616C654.292 119.698 653.471 120.472 652.897 120.951C652.613 121.188 652.397 121.345 652.283 121.425L652.208 121.476C648.828 123.568 647.747 127.994 649.798 131.413C651.867 134.861 656.34 135.979 659.788 133.91L656.042 127.667C659.788 133.91 659.785 133.912 659.788 133.91L659.801 133.902L659.815 133.894L659.845 133.875L659.918 133.831L660.105 133.712C660.247 133.62 660.425 133.501 660.634 133.355C661.051 133.063 661.594 132.659 662.22 132.138C663.466 131.099 665.072 129.568 666.667 127.495C669.899 123.294 673.031 116.916 673.031 108.25C673.031 99.5838 669.899 93.2065 666.667 89.0054C665.072 86.9322 663.466 85.4007 662.22 84.3623C661.594 83.841 661.051 83.4372 660.634 83.1452C660.425 82.9989 660.247 82.8801 660.105 82.7879L659.918 82.6693L659.845 82.6247L659.815 82.606L659.801 82.5976C659.798 82.5956 659.788 82.5897 656.042 88.8334L659.788 82.5897Z" fill="white"/>
<circle cx="587.917" cy="106.75" r="39.1667" stroke="black" stroke-width="4"/>
<path d="M676.042 67.5833C676.042 67.5833 695.625 79.3333 695.625 106.75C695.625 134.167 676.042 145.917 676.042 145.917" stroke="black" stroke-width="4" stroke-linecap="round"/>
<path d="M656.458 87.1667C656.458 87.1667 666.25 93.0417 666.25 106.75C666.25 120.458 656.458 126.333 656.458 126.333" stroke="black" stroke-width="4" stroke-linecap="round"/>
<path d="M666.225 224.25C666.25 222.643 666.25 221.009 666.25 219.354C666.25 195.019 631.179 175.292 587.917 175.292C544.654 175.292 509.583 195.019 509.583 219.354C509.583 243.689 509.583 263.417 587.917 263.417C609.762 263.417 625.515 261.882 636.875 259.142" stroke="black" stroke-width="4" stroke-linecap="round"/>
</svg>
